<svg width="17" height="17" viewBox="0 0 17 17" fill="none" xmlns="http://www.w3.org/2000/svg">
<g clip-path="url(#clip0)">
<path fill-rule="evenodd" clip-rule="evenodd" d="M1.42871 8.5C1.42871 10.3565 2.16621 12.137 3.47896 13.4497C4.79172 14.7625 6.5722 15.5 8.42871 15.5C10.2852 15.5 12.0657 14.7625 13.3785 13.4497C14.6912 12.137 15.4287 10.3565 15.4287 8.5C15.4287 6.64348 14.6912 4.86301 13.3785 3.55025C12.0657 2.2375 10.2852 1.5 8.42871 1.5C6.5722 1.5 4.79172 2.2375 3.47896 3.55025C2.16621 4.86301 1.42871 6.64348 1.42871 8.5ZM16.4287 8.5C16.4287 10.6217 15.5859 12.6566 14.0856 14.1569C12.5853 15.6571 10.5504 16.5 8.42871 16.5C6.30698 16.5 4.27215 15.6571 2.77186 14.1569C1.27157 12.6566 0.428711 10.6217 0.428711 8.5C0.428711 6.37827 1.27157 4.34344 2.77186 2.84315C4.27215 1.34285 6.30698 0.5 8.42871 0.5C10.5504 0.5 12.5853 1.34285 14.0856 2.84315C15.5859 4.34344 16.4287 6.37827 16.4287 8.5ZM4.92871 8C4.7961 8 4.66893 8.05268 4.57516 8.14645C4.48139 8.24021 4.42871 8.36739 4.42871 8.5C4.42871 8.63261 4.48139 8.75979 4.57516 8.85355C4.66893 8.94732 4.7961 9 4.92871 9H10.7217L8.57471 11.146C8.52822 11.1925 8.49135 11.2477 8.46619 11.3084C8.44103 11.3692 8.42808 11.4343 8.42808 11.5C8.42808 11.5657 8.44103 11.6308 8.46619 11.6916C8.49135 11.7523 8.52822 11.8075 8.57471 11.854C8.6212 11.9005 8.67639 11.9374 8.73713 11.9625C8.79787 11.9877 8.86297 12.0006 8.92871 12.0006C8.99445 12.0006 9.05956 11.9877 9.12029 11.9625C9.18103 11.9374 9.23622 11.9005 9.28271 11.854L12.2827 8.854C12.3293 8.80755 12.3662 8.75238 12.3914 8.69163C12.4166 8.63089 12.4296 8.56577 12.4296 8.5C12.4296 8.43423 12.4166 8.36911 12.3914 8.30837C12.3662 8.24762 12.3293 8.19245 12.2827 8.146L9.28271 5.146C9.23622 5.09951 9.18103 5.06264 9.12029 5.03748C9.05956 5.01232 8.99445 4.99937 8.92871 4.99937C8.86297 4.99937 8.79787 5.01232 8.73713 5.03748C8.67639 5.06264 8.6212 5.09951 8.57471 5.146C8.52822 5.19249 8.49135 5.24768 8.46619 5.30842C8.44103 5.36916 8.42808 5.43426 8.42808 5.5C8.42808 5.56574 8.44103 5.63084 8.46619 5.69158C8.49135 5.75232 8.52822 5.80751 8.57471 5.854L10.7217 8H4.92871Z" fill="#0072EC"/>
</g>
<defs>
<clipPath id="clip0">
<rect width="16" height="16" fill="white" transform="translate(0.428711 0.5)"/>
</clipPath>
</defs>
</svg>
