<svg width="20" height="25" viewBox="0 0 20 25" fill="none" xmlns="http://www.w3.org/2000/svg">
<path d="M9.77995 4.88998C11.1303 4.88998 12.2249 3.79532 12.2249 2.44499C12.2249 1.09466 11.1303 0 9.77995 0C8.42962 0 7.33496 1.09466 7.33496 2.44499C7.33496 3.79532 8.42962 4.88998 9.77995 4.88998Z" fill="#7C17E2"/>
<path d="M14.5355 7.46944C14.0587 6.99266 13.2396 6.11247 11.6504 6.11247C11.3936 6.11247 9.91442 6.11247 8.54523 6.11247C5.18337 6.10024 2.44499 3.36186 2.44499 0H0C0 3.86308 2.57946 7.13936 6.11247 8.20293V24.4499H8.55746V17.1149H11.0024V24.4499H13.4474V9.84108L18.2763 14.6699L20 12.9462L14.5355 7.46944Z" fill="#7C17E2"/>
</svg>
