<svg width="24" height="16" viewBox="0 0 24 16" fill="none" xmlns="http://www.w3.org/2000/svg">
<path d="M10.9091 0H13.0909V15.2727H10.9091V0ZM4.36364 7.63636C5.56364 7.63636 6.54545 6.65455 6.54545 5.45455C6.54545 4.25455 5.56364 3.27273 4.36364 3.27273C3.16364 3.27273 2.18182 4.25455 2.18182 5.45455C2.18182 6.65455 3.16364 7.63636 4.36364 7.63636ZM7.39636 9.36C6.46909 8.95636 5.44364 8.72727 4.36364 8.72727C3.28364 8.72727 2.25818 8.95636 1.33091 9.36C0.523636 9.70909 0 10.4945 0 11.3782V12H8.72727V11.3782C8.72727 10.4945 8.20364 9.70909 7.39636 9.36ZM19.6364 7.63636C20.8364 7.63636 21.8182 6.65455 21.8182 5.45455C21.8182 4.25455 20.8364 3.27273 19.6364 3.27273C18.4364 3.27273 17.4545 4.25455 17.4545 5.45455C17.4545 6.65455 18.4364 7.63636 19.6364 7.63636ZM22.6691 9.36C21.7418 8.95636 20.7164 8.72727 19.6364 8.72727C18.5564 8.72727 17.5309 8.95636 16.6036 9.36C15.7964 9.70909 15.2727 10.4945 15.2727 11.3782V12H24V11.3782C24 10.4945 23.4764 9.70909 22.6691 9.36Z" fill="#7C17E2"/>
</svg>
