<svg width="24" height="20" viewBox="0 0 24 20" fill="none" xmlns="http://www.w3.org/2000/svg">
<path d="M19 9C19 9.67 19 10.33 19 11C20.5 11 22.45 11 24 11C24 10.33 24 9.67 24 9C22.45 9 20.5 9 19 9Z" fill="#7C17E2"/>
<path d="M17 17.0125C18.0909 17.9 19.5114 19.075 20.6364 20C21.0909 19.3375 21.5455 18.6625 22 18C20.875 17.075 19.4545 15.9 18.3636 15C17.9091 15.675 17.4545 16.35 17 17.0125Z" fill="#7C17E2"/>
<path d="M22 2C21.5455 1.3375 21.0909 0.6625 20.6364 0C19.5114 0.925 18.0909 2.1 17 3C17.4545 3.6625 17.9091 4.3375 18.3636 5C19.4545 4.1 20.875 2.9375 22 2Z" fill="#7C17E2"/>
<path d="M2.36364 6.69231C1.06364 6.69231 0 7.8 0 9.15385V11.6154C0 12.9692 1.06364 14.0769 2.36364 14.0769H3.54545V19H5.90909V14.0769H7.09091L13 17.7692V3L7.09091 6.69231H2.36364ZM8.30818 8.79692L10.6364 7.34461V13.4246L8.30818 11.9723L7.74091 11.6154H7.09091H2.36364V9.15385H7.09091H7.74091L8.30818 8.79692Z" fill="#7C17E2"/>
<path d="M16 10.006C16 8.41555 15.2267 6.98057 14 6V14C15.2267 13.0314 16 11.5964 16 10.006Z" fill="#7C17E2"/>
</svg>
