<svg width="112" height="112" viewBox="0 0 112 112" fill="none" xmlns="http://www.w3.org/2000/svg">
<circle cx="56" cy="56" r="56" fill="#D413AF"/>
<path d="M73.375 54.7744L65.25 54.758C64.3563 54.758 63.625 55.4959 63.625 56.3977V71.1557C63.625 72.0576 64.3563 72.7955 65.25 72.7955H73.375C74.2687 72.7955 75 72.0576 75 71.1557V56.3977C75 55.4959 74.2687 54.7744 73.375 54.7744ZM73.375 69.5159H65.25V58.0375H73.375V69.5159ZM68.5 40H39.25C37.4625 40 36 41.4758 36 43.2795V62.9568C36 64.7606 37.4625 66.2364 39.25 66.2364H50.625V69.5159H49C48.1062 69.5159 47.375 70.2538 47.375 71.1557C47.375 72.0576 48.1062 72.7955 49 72.7955H58.75C59.6438 72.7955 60.375 72.0576 60.375 71.1557C60.375 70.2538 59.6438 69.5159 58.75 69.5159H57.125V66.2364H58.75C59.6438 66.2364 60.375 65.4985 60.375 64.5966C60.375 63.6947 59.6438 62.9568 58.75 62.9568H40.875C39.9813 62.9568 39.25 62.2189 39.25 61.317V44.9193C39.25 44.0174 39.9813 43.2795 40.875 43.2795H66.875C67.7688 43.2795 68.5 44.0174 68.5 44.9193V49.8386C68.5 50.7405 69.2313 51.4784 70.125 51.4784C71.0187 51.4784 71.75 50.7405 71.75 49.8386V43.2795C71.75 41.4758 70.2875 40 68.5 40ZM55.4513 51.4784L53.875 46.5591L52.2987 51.4784H47.375L51.3888 54.3644L49.8612 59.1361L53.875 56.1846L57.8888 59.1361L56.3612 54.3644L60.375 51.4784H55.4513Z" fill="white"/>
<rect x="46.6364" y="45.3184" width="15.0682" height="15.0682" fill="#D413AF"/>
</svg>
