<svg width="112" height="112" viewBox="0 0 112 112" fill="none" xmlns="http://www.w3.org/2000/svg">
<circle cx="56" cy="56" r="56" fill="#D413AF"/>
<path d="M55.1596 68.9504L53.711 67.5018C51.7234 65.5142 51.7403 62.2802 53.7447 60.3263L55.1596 58.9451C54.5027 58.8777 54.0142 58.844 53.4752 58.844C48.9778 58.844 40 61.1011 40 65.5816V68.9504H55.1596ZM53.4752 55.4752C57.1977 55.4752 60.2128 52.4601 60.2128 48.7376C60.2128 45.0151 57.1977 42 53.4752 42C49.7527 42 46.7376 45.0151 46.7376 48.7376C46.7376 52.4601 49.7527 55.4752 53.4752 55.4752Z" fill="white"/>
<path d="M62.2008 68.5799C61.5439 69.2369 60.4659 69.2369 59.809 68.5799L56.3223 65.0595C55.6822 64.4026 55.6822 63.3583 56.3223 62.7182L56.3391 62.7014C56.996 62.0445 58.0572 62.0445 58.6973 62.7014L61.0049 65.009L68.4668 57.4966C69.1237 56.8397 70.1849 56.8397 70.8418 57.4966L70.8586 57.5134C71.4987 58.1704 71.4987 59.2147 70.8586 59.8548L62.2008 68.5799Z" fill="white"/>
</svg>
