<svg width="427" height="433" viewBox="0 0 427 433" fill="none" xmlns="http://www.w3.org/2000/svg">
<path d="M247.978 21.168H376.194V217.887H247.978V21.168Z" fill="#DBDBDB"/>
<path d="M315.064 29.0488H369.206V116.548H315.064V29.0488Z" fill="white"/>
<path d="M254.966 29.0488H309.108V116.548H254.966V29.0488Z" fill="white"/>
<path d="M315.064 122.508H369.206V210.007H315.064V122.508Z" fill="white"/>
<path d="M254.966 122.508H309.108V210.007H254.966V122.508Z" fill="white"/>
<path d="M345.822 21.168H376.194V302.609H345.822V21.168Z" fill="#EBEBEB"/>
<path d="M351.586 34.5469L351.355 64.9768L351.268 95.4068L351.104 156.267L351.268 217.127L351.345 247.557L351.586 277.987L351.817 247.557L351.904 217.127L352.068 156.267L351.904 95.4068L351.817 64.9768L351.586 34.5469Z" fill="white"/>
<path d="M365.524 41.6055L365.292 68.7754L365.157 95.9454L365.051 150.285L365.157 204.635L365.292 231.805L365.524 258.975L365.765 231.805L365.9 204.635L366.006 150.285L365.9 95.9454L365.765 68.7754L365.524 41.6055Z" fill="white"/>
<path d="M358.555 48.0195L358.323 79.8384L358.237 111.648L358.073 175.285L358.237 238.913L358.323 270.732L358.555 302.541L358.796 270.732L358.873 238.913L359.037 175.285L358.873 111.648L358.786 79.8384L358.555 48.0195Z" fill="white"/>
<path d="M370.719 36.1562L370.478 69.4508L370.391 102.745L370.237 169.344L370.391 235.943L370.478 269.247L370.719 302.541L370.95 269.247L371.037 235.943L371.191 169.344L371.037 102.745L370.95 69.4508L370.719 36.1562Z" fill="white"/>
<path d="M278.35 302.609H247.978L247.978 21.1684H278.35L278.35 302.609Z" fill="#EBEBEB"/>
<path d="M272.596 34.5469L272.355 64.9768L272.268 95.4068L272.114 156.267L272.268 217.127L272.355 247.557L272.596 277.987L272.827 247.557L272.914 217.127L273.078 156.267L272.914 95.4068L272.827 64.9768L272.596 34.5469Z" fill="white"/>
<path d="M258.648 41.6055L258.417 68.7754L258.282 95.9454L258.166 150.285L258.272 204.635L258.407 231.805L258.648 258.975L258.88 231.805L259.014 204.635L259.13 150.285L259.014 95.9454L258.88 68.7754L258.648 41.6055Z" fill="white"/>
<path d="M265.617 48.0195L265.386 79.8384L265.299 111.648L265.135 175.285L265.299 238.913L265.386 270.732L265.617 302.541L265.858 270.732L265.945 238.913L266.099 175.285L265.935 111.648L265.848 79.8384L265.617 48.0195Z" fill="white"/>
<path d="M253.463 36.1562L253.231 69.4508L253.145 102.745L252.981 169.344L253.145 235.943L253.222 269.247L253.463 302.541L253.694 269.247L253.781 235.943L253.945 169.344L253.781 102.745L253.694 69.4508L253.463 36.1562Z" fill="white"/>
<path d="M105.081 108.48C85.1228 88.5096 85.1227 56.131 105.081 36.1604C125.038 16.1899 157.396 16.1899 177.354 36.1605C197.312 56.131 197.312 88.5096 177.354 108.48C157.396 128.451 125.038 128.451 105.081 108.48Z" fill="#EBEBEB"/>
<path opacity="0.5" d="M125.652 121.032C133.284 123.467 141.382 124.072 149.291 122.798C157.2 121.524 164.698 118.407 171.181 113.698C177.664 108.989 182.949 102.82 186.61 95.6901C190.271 88.5601 192.205 80.6686 192.256 72.6527C192.306 64.6369 190.473 56.7215 186.902 49.5457C183.332 42.37 178.125 36.135 171.702 31.3444C165.279 26.5537 157.82 23.3416 149.928 21.9676C142.036 20.5935 133.931 21.0959 126.269 23.4343C136.578 20.7084 147.523 21.7912 157.099 26.4845C166.675 31.1777 174.24 39.1669 178.408 48.9879C182.576 58.8089 183.067 69.8038 179.791 79.9577C176.516 90.1115 169.693 98.7442 160.574 104.274C151.454 109.803 140.649 111.858 130.138 110.064C119.627 108.269 110.114 102.744 103.344 94.5013C96.5729 86.2586 92.9974 75.8505 93.2725 65.1843C93.5476 54.5181 97.6548 44.3083 104.842 36.4261C98.7061 42.6485 94.2678 50.3414 91.9507 58.7695C89.6336 67.1977 89.5151 76.0797 91.6065 84.5667C93.6979 93.0538 97.9294 100.862 103.897 107.247C109.864 113.631 117.367 118.377 125.69 121.032H125.652Z" fill="#DBDBDB"/>
<path d="M160.689 67.9266C160.253 69.2839 160.229 70.7402 160.62 72.1112C161.011 73.4821 161.8 74.7061 162.887 75.6281C163.974 76.5501 165.31 77.1287 166.725 77.2907C168.141 77.4527 169.573 77.1907 170.839 76.538C172.106 75.8853 173.151 74.8712 173.841 73.624C174.532 72.3768 174.837 70.9527 174.718 69.5319C174.6 68.1111 174.062 66.7575 173.174 65.6425C172.286 64.5274 171.088 63.7011 169.73 63.2681C167.914 62.6887 165.942 62.8538 164.247 63.7271C162.552 64.6004 161.272 66.1106 160.689 67.9266Z" fill="#C7C7C7"/>
<path d="M114.201 53.055C113.766 54.4126 113.744 55.8687 114.137 57.2389C114.53 58.6091 115.32 59.832 116.408 60.7527C117.495 61.6734 118.831 62.2505 120.247 62.4112C121.662 62.5718 123.094 62.3086 124.36 61.6549C125.626 61.0013 126.669 59.9865 127.359 58.7391C128.048 57.4916 128.353 56.0675 128.233 54.6471C128.113 53.2266 127.575 51.8736 126.687 50.7592C125.798 49.6448 124.6 48.8192 123.242 48.3868C122.342 48.0988 121.394 47.9912 120.453 48.0699C119.511 48.1487 118.594 48.4124 117.755 48.846C116.915 49.2795 116.169 49.8744 115.559 50.5966C114.949 51.3188 114.488 52.1542 114.201 53.055Z" fill="#C7C7C7"/>
<path d="M134.635 57.2988C134.181 58.6615 134.001 60.1009 134.107 61.5336C134.213 62.9663 134.602 64.3637 135.251 65.6448C135.901 66.9258 136.799 68.065 137.892 68.9963C138.985 69.9276 140.252 70.6323 141.62 71.0697C142.987 71.5071 144.428 71.6684 145.858 71.5443C147.288 71.4202 148.68 71.0131 149.952 70.3466C151.223 69.6802 152.35 68.7677 153.267 67.662C154.184 66.5563 154.872 65.2795 155.291 63.9057L134.635 57.2988Z" fill="#C7C7C7"/>
<path d="M134.847 64.5038C135.43 66.0178 136.345 67.3816 137.525 68.495C138.704 69.6083 140.118 70.4427 141.663 70.9369C143.207 71.4311 144.843 71.5724 146.449 71.3504C148.055 71.1284 149.591 70.5488 150.944 69.6542C149.317 67.0145 146.8 65.0443 143.848 64.0997C140.896 63.1551 137.703 63.2984 134.847 64.5038Z" fill="#DBDBDB"/>
<path d="M23.2205 182.25C18.4124 162.485 30.5279 142.561 50.2812 137.75C70.0344 132.939 89.9453 145.062 94.7533 164.828C99.5613 184.594 87.4458 204.517 67.6926 209.328C47.9393 214.14 28.0285 202.016 23.2205 182.25Z" fill="#EBEBEB"/>
<path opacity="0.5" d="M68.3393 209.148C73.9256 207.681 79.0885 204.918 83.4104 201.084C87.7323 197.251 91.0921 192.453 93.2179 187.079C95.3437 181.705 96.1761 175.907 95.6476 170.151C95.1191 164.396 93.2446 158.846 90.1758 153.95C87.1069 149.054 82.9297 144.949 77.9819 141.968C73.0341 138.986 67.4546 137.211 61.6945 136.787C55.9344 136.363 50.1552 137.3 44.8244 139.525C39.4935 141.749 34.7606 145.197 31.0081 149.591C36.222 143.949 43.2931 140.376 50.9255 139.527C58.5579 138.678 66.2405 140.61 72.5652 144.969C78.8899 149.327 83.4332 155.82 85.3625 163.258C87.2918 170.696 86.4777 178.58 83.0697 185.467C79.6616 192.353 73.8878 197.779 66.8062 200.752C59.7246 203.724 51.8097 204.044 44.5119 201.652C37.214 199.259 31.0222 194.316 27.0709 187.727C23.1197 181.137 21.6738 173.344 22.9982 165.775C21.6774 171.926 21.9523 178.313 23.7969 184.328C25.6415 190.343 28.9942 195.785 33.5358 200.136C38.0774 204.487 43.6566 207.603 49.7421 209.185C55.8275 210.768 62.2166 210.765 68.3007 209.177L68.3393 209.148Z" fill="#DBDBDB"/>
<path d="M35.1334 172.248C35.3933 173.239 35.9406 174.13 36.7064 174.809C37.4722 175.488 38.422 175.925 39.4359 176.065C40.4497 176.204 41.482 176.039 42.4024 175.592C43.3227 175.144 44.0899 174.433 44.6069 173.55C45.1238 172.666 45.3674 171.649 45.3068 170.627C45.2463 169.604 44.8842 168.623 44.2665 167.807C43.6488 166.99 42.8031 166.376 41.8363 166.04C40.8695 165.704 39.825 165.663 38.8348 165.921C38.1762 166.093 37.558 166.393 37.0154 166.804C36.4729 167.215 36.0166 167.729 35.6728 168.317C35.329 168.904 35.1045 169.554 35.0119 170.229C34.9193 170.903 34.9607 171.59 35.1334 172.248Z" fill="#C7C7C7"/>
<path d="M69.1393 163.326C69.3985 164.319 69.9466 165.214 70.7141 165.896C71.4816 166.578 72.4341 167.016 73.4509 167.156C74.4677 167.296 75.503 167.13 76.4259 166.681C77.3488 166.232 78.1176 165.518 78.6351 164.631C79.1526 163.745 79.3954 162.724 79.3329 161.699C79.2703 160.674 78.9052 159.69 78.2837 158.873C77.6622 158.056 76.8123 157.441 75.8416 157.108C74.871 156.774 73.8232 156.736 72.8309 156.999C72.1733 157.171 71.5561 157.472 71.0146 157.884C70.4731 158.295 70.0179 158.809 69.6751 159.397C69.3323 159.984 69.1085 160.634 69.0166 161.308C68.9246 161.982 68.9663 162.668 69.1393 163.326Z" fill="#C7C7C7"/>
<path d="M65.6404 161.918C65.6515 164.153 65.0155 166.344 63.809 168.226C62.55 169.939 60.7214 171.146 58.6523 171.63C56.6272 172.277 54.4354 172.157 52.493 171.293C50.4957 170.282 48.7976 168.766 47.5676 166.895C48.2689 169.22 49.7941 171.209 51.8569 172.489C52.9398 173.134 54.1502 173.536 55.404 173.666C56.6529 173.764 57.9093 173.64 59.1149 173.299C60.3115 172.962 61.4447 172.431 62.4692 171.727C63.4948 170.99 64.3442 170.035 64.9561 168.93C66.0886 166.771 66.3341 164.255 65.6404 161.918Z" fill="#C7C7C7"/>
<path d="M34.1985 244.016H119.251V361.791H34.1985V244.016Z" fill="#EBEBEB"/>
<path d="M30.0827 239.646H123.377V244.016H30.0827V239.646Z" fill="#DBDBDB"/>
<path d="M0.742188 239.646H30.0828V244.016H0.742188V239.646Z" fill="#EBEBEB"/>
<path d="M5.37839 244.016H34.1985V361.791H5.37839V244.016Z" fill="#DBDBDB"/>
<path d="M43.3748 298.539H110.114V260.77H43.3748V298.539ZM109.883 298.298H43.5965V261.011H109.883V298.298Z" fill="#C7C7C7"/>
<path d="M73.0528 271.812H86.0459V279.287H73.0528V271.812Z" fill="#C7C7C7"/>
<path d="M69.0911 278.843H82.3252V272.256H69.0911V278.843ZM82.0842 278.602H69.332V272.497H82.0842V278.602Z" fill="#C7C7C7"/>
<path d="M43.3748 345.953H110.114V308.184H43.3748V345.953ZM109.883 345.712H43.5965V308.425H109.883V345.712Z" fill="#C7C7C7"/>
<path d="M73.0528 319.229H86.0459V326.703H73.0528V319.229Z" fill="#C7C7C7"/>
<path d="M69.0911 326.259H82.3252V319.672H69.0911V326.259ZM82.0842 326.018H69.332V319.913H82.0842V326.018Z" fill="#C7C7C7"/>
<path d="M386.315 209.777L398.97 210.037L405.39 210.153C407.53 210.153 409.689 210.153 411.838 210.201H412.272V209.777L412.32 198.984V198.492H411.838L399.076 198.55C394.826 198.55 390.575 198.656 386.315 198.704H386.054V198.965C386.054 200.788 386.141 202.611 386.18 204.414L386.315 209.777ZM386.315 209.777L386.449 204.318C386.449 202.524 386.565 200.749 386.584 198.984L386.315 199.244C390.575 199.293 394.826 199.399 399.076 199.399L411.838 199.466L411.356 198.984L411.414 209.777L411.838 209.343C409.737 209.343 407.645 209.343 405.534 209.343L399.192 209.459L386.315 209.777Z" fill="#EBEBEB"/>
<path d="M400.551 223.385L413.207 223.645L419.626 223.761C421.776 223.761 423.925 223.761 426.075 223.809H426.508V223.385L426.557 212.592V212.129H426.036H413.313C409.062 212.129 404.811 212.235 400.551 212.283H400.291V212.544C400.291 214.367 400.378 216.189 400.416 217.993L400.551 223.385ZM400.551 223.385L400.696 217.916C400.696 216.122 400.802 214.347 400.821 212.582L400.551 212.843C404.811 212.891 409.062 212.997 413.313 212.997L426.036 213.093L425.564 212.621L425.612 223.414L426.036 222.98C423.935 222.98 421.843 222.98 419.732 223.028L413.39 223.143L400.551 223.385Z" fill="#EBEBEB"/>
<path d="M4.55915 223.385L17.2053 223.645L23.6248 223.761C25.7742 223.761 27.9333 223.761 30.0828 223.809H30.5069V223.385L30.5647 212.592V212.129H30.0828H17.3499C13.0895 212.129 8.83879 212.235 4.58806 212.283H4.31818V212.544C4.31818 214.367 4.4049 216.189 4.44346 217.993L4.55915 223.385ZM4.55915 223.385L4.69407 217.926C4.69407 216.132 4.80011 214.357 4.81939 212.592L4.55915 212.852C8.80987 212.901 13.0606 213.007 17.321 213.007L30.0828 213.064L29.6008 212.592L29.649 223.385L30.0828 222.951C27.9815 222.951 25.8802 222.951 23.7693 222.999L17.427 223.115L4.55915 223.385Z" fill="#EBEBEB"/>
<path d="M18.7957 31.9604L31.4418 32.2305L37.8613 32.3366C40.0108 32.3366 42.1699 32.3366 44.3193 32.3945H44.7434V31.9604L44.8013 21.158V20.6758H44.3193L31.5575 20.7337C27.3068 20.7337 23.0464 20.8494 18.7957 20.8976H18.5258V21.158C18.5258 22.9906 18.6029 24.8135 18.6511 26.6075L18.7957 31.9604ZM18.7957 31.9604L18.9307 26.511C18.9789 24.7074 19.0367 22.9327 19.0559 21.1677L18.7957 21.4281C23.0464 21.4281 27.3068 21.5824 31.5575 21.5921L44.3386 21.6499L43.8567 21.1677V31.9604L44.2904 31.5264C42.1891 31.5264 40.0879 31.5264 37.977 31.5843L31.6346 31.6904L18.7957 31.9604Z" fill="#EBEBEB"/>
<path d="M4.55916 45.5699L17.2053 45.84L23.6248 45.9461C25.7742 45.9461 27.9333 45.9461 30.0828 46.004H30.5069V45.5699L30.5647 34.7772V34.2949H30.0828L17.321 34.3528C13.0606 34.3528 8.80989 34.4685 4.55916 34.5168H4.28928V34.7772C4.28928 36.6097 4.376 38.4326 4.41456 40.2266L4.55916 45.5699ZM4.55916 45.5699L4.69409 40.1205C4.69409 38.3169 4.80012 36.5422 4.8194 34.7772L4.55916 35.0376C8.80989 35.0376 13.0606 35.1919 17.321 35.2016L30.0828 35.2594L29.6008 34.7772L29.649 45.5699L30.0828 45.1359C27.9815 45.1359 25.8802 45.1359 23.7693 45.1938L17.427 45.2999L4.55916 45.5699Z" fill="#EBEBEB"/>
<path d="M386.315 31.9604L398.97 32.2305L405.39 32.3366C407.53 32.3366 409.689 32.3366 411.838 32.3945H412.272V31.9604L412.32 21.158V20.6758H411.838L399.047 20.7433C394.797 20.7433 390.546 20.859 386.286 20.9073H386.025V21.158C386.025 22.9906 386.112 24.8135 386.151 26.6075L386.315 31.9604ZM386.315 31.9604L386.449 26.511C386.449 24.7074 386.565 22.9327 386.584 21.1677L386.315 21.4281C390.575 21.4281 394.826 21.5824 399.076 21.5921L411.838 21.6499L411.356 21.1677L411.414 31.9604L411.838 31.5264C409.737 31.5264 407.645 31.5264 405.534 31.5843L399.192 31.6904L386.315 31.9604Z" fill="#EBEBEB"/>
<path d="M208.199 432.257C146.549 432.257 96.5715 425.002 96.5715 416.053C96.5715 407.104 146.549 399.85 208.199 399.85C269.849 399.85 319.826 407.104 319.826 416.053C319.826 425.002 269.849 432.257 208.199 432.257Z" fill="#EBEBEB"/>
<path d="M415.857 361.791L363.943 361.559L312.028 361.473L208.199 361.309L104.369 361.473L52.4544 361.559L0.539673 361.791L52.4544 362.032L104.369 362.109L208.199 362.273L312.028 362.109L363.943 362.032L415.857 361.791Z" fill="#263238"/>
<path d="M353.938 284.766C354.946 288.456 355.613 292.23 355.933 296.041C355.827 296.234 355.846 296.929 355.933 296.736C355.933 297.353 356.897 297.247 356.897 296.63C356.897 296.234 356.897 295.839 356.897 295.453C359.094 292.714 362.295 290.978 364.887 288.595C366.967 286.728 368.483 284.316 369.263 281.632C371.403 274.234 369.398 266.392 371.972 259.014C374.199 252.658 378.189 247.122 381.563 241.364C385.129 235.268 387.751 228.825 388.021 221.727C388.223 216.258 387.577 208.976 383.413 204.877C379.008 200.536 373.543 203.796 370.16 207.664C360.357 218.881 355.827 233.127 353.996 247.652C353.032 255.696 351.942 263.788 352.183 271.9C352.337 276.237 352.924 280.547 353.938 284.766Z" fill="#D413AF"/>
<path d="M355.885 299.003C355.353 291.415 355.443 283.795 356.155 276.222C356.155 276.222 356.155 276.222 356.155 276.144C356.029 269.981 355.547 263.847 355.788 257.684C356.087 251.018 356.994 244.393 358.497 237.892C358.497 237.815 358.632 237.834 358.613 237.892C357.414 244.282 356.699 250.753 356.473 257.25C356.344 260.735 356.373 264.214 356.56 267.686C356.617 268.814 356.723 269.952 356.791 271.1C359.348 253.81 365.594 237.274 375.105 222.615C375.23 222.412 375.587 222.615 375.461 222.837C368.65 233.979 363.6 246.107 360.492 258.793C365.206 250.064 372.309 242.888 377.591 234.497C377.591 234.449 377.688 234.497 377.669 234.546C372.926 243.882 365.138 251.251 360.107 260.442C359.239 264.194 358.536 267.985 358.005 271.785C357.304 277.01 356.924 282.273 356.868 287.545C359.76 282.182 362.719 277.051 365.061 271.38C365.119 271.225 365.341 271.332 365.292 271.476C363.297 277.369 360.608 283.716 356.858 288.741C356.858 292.473 356.945 296.206 357.167 299.929C357.745 309.873 359.451 319.692 360.232 329.597C360.23 329.652 360.209 329.704 360.172 329.745C360.135 329.786 360.085 329.812 360.03 329.819C359.976 329.826 359.92 329.813 359.874 329.783C359.828 329.753 359.795 329.708 359.779 329.655C357.793 319.537 356.492 309.296 355.885 299.003Z" fill="#263238"/>
<path d="M366.439 222.305C366.439 222.238 366.574 222.305 366.545 222.305C364.733 227.33 363.711 232.423 362.401 237.573C362.386 237.618 362.356 237.655 362.316 237.679C362.276 237.703 362.229 237.712 362.183 237.704C362.137 237.695 362.096 237.671 362.067 237.634C362.038 237.598 362.023 237.552 362.025 237.506C362.555 232.384 364.415 227.118 366.439 222.305Z" fill="#263238"/>
<path d="M320.346 243.36C321.554 246.307 322.948 249.174 324.52 251.944C327.788 257.885 331.2 263.325 331.817 270.269C332.086 273.356 332.183 276.461 333.127 279.432C333.983 281.992 335.214 284.41 336.781 286.608C340.318 291.778 344.752 296.253 348.029 301.587C351.445 307.172 353.969 313.258 355.509 319.623C355.596 319.97 356.135 319.883 356.058 319.536C356.054 319.51 356.054 319.484 356.058 319.459C356.065 319.434 356.065 319.407 356.058 319.382C356.579 304.548 355.393 289.608 350.873 275.401C348.877 269.143 346.479 263.022 343.692 257.075C341.272 251.925 338.255 246.967 334.053 243.119C331.296 240.63 325.31 235.924 321.387 238.412C319.46 239.618 319.604 241.508 320.346 243.36Z" fill="#D413AF"/>
<path d="M335.238 276.983C337.851 281.286 340.729 285.422 343.856 289.367C345.282 291.248 346.747 293.1 348.174 294.981C348.848 295.868 349.61 296.746 350.227 297.701C349.841 296.138 349.456 294.585 349.061 293.023C347.133 285.529 345.311 277.967 342.458 270.762C339.538 263.786 336.1 257.038 332.173 250.575C332.067 250.411 332.347 250.286 332.453 250.45C335.576 255.6 338.757 260.751 341.388 266.181C342.842 269.213 344.11 272.331 345.186 275.517C343.98 268.744 342.292 262.065 340.135 255.533C340.135 255.475 340.202 255.436 340.222 255.533C343.048 262.13 344.817 269.131 345.465 276.279C346.111 278.208 346.699 280.137 347.248 282.066C349.581 290.361 351.634 298.742 353.533 307.143C353.569 301.613 353.091 296.092 352.106 290.65C352.106 290.525 352.27 290.496 352.299 290.65C353.744 296.316 354.23 302.185 353.735 308.011C354.449 311.226 355.149 314.441 355.837 317.656C357.292 324.494 359.075 331.449 359.933 338.393C359.932 338.426 359.92 338.459 359.898 338.484C359.876 338.509 359.846 338.526 359.813 338.532C359.78 338.538 359.746 338.532 359.717 338.515C359.688 338.499 359.666 338.472 359.654 338.441C358.642 334.699 358.025 330.812 357.196 327.031C356.367 323.25 355.499 319.431 354.622 315.65C353.331 310.123 351.981 304.626 350.612 299.128C349.648 297.112 347.913 295.318 346.583 293.63C345.128 291.779 343.692 289.917 342.246 288.036C339.582 284.548 337.197 280.856 335.113 276.993C335.065 276.954 335.19 276.906 335.238 276.983Z" fill="#263238"/>
<path d="M334.602 270.637C337.868 274.803 340.694 279.296 343.036 284.044C343.036 284.102 342.969 284.16 342.93 284.102C340.096 279.655 337.311 275.17 334.477 270.724C334.467 270.647 334.554 270.57 334.602 270.637Z" fill="#263238"/>
<path d="M397.698 257.462C395.77 260.77 393.582 264.744 394.411 268.718C394.932 271.235 396.773 273.28 397.1 275.845C397.852 281.507 392.204 285.249 388.127 287.931C377.948 294.615 364.03 300.566 362.102 314.213C362.034 314.696 361.196 314.57 361.254 314.098C361.249 314.069 361.249 314.039 361.254 314.011C361.254 314.011 361.254 314.011 361.254 313.934C359.917 307.03 359.986 299.928 361.456 293.052C362.969 286.021 366.044 279.703 369.659 273.521C375.789 263.066 382.276 252.36 391.529 244.355C394.093 242.136 399.346 238.153 401.39 243.149C403.433 248.145 400.011 253.382 397.698 257.462Z" fill="#D413AF"/>
<path d="M388.387 279.588C381.64 286.899 370.912 290.998 365.1 299.186C368.342 286.721 374.474 275.196 382.999 265.545C383.027 265.497 383.039 265.441 383.033 265.385C383.027 265.33 383.004 265.277 382.966 265.236C382.928 265.195 382.878 265.167 382.823 265.157C382.768 265.146 382.712 265.154 382.661 265.178C376.445 271.224 371.477 278.434 368.039 286.397C369.643 280.844 371.75 275.45 374.334 270.28C374.352 270.241 374.355 270.196 374.342 270.155C374.329 270.114 374.301 270.079 374.263 270.057C374.226 270.036 374.182 270.029 374.139 270.038C374.097 270.047 374.06 270.071 374.035 270.107C370.848 275.752 368.57 281.865 367.288 288.22C359.634 306.758 358.921 328.498 360.54 348.019C360.54 348.078 360.564 348.134 360.605 348.176C360.647 348.217 360.703 348.241 360.762 348.241C360.821 348.241 360.877 348.217 360.919 348.176C360.96 348.134 360.984 348.078 360.984 348.019C360.54 332.587 360.791 316.952 364.473 301.916C364.55 301.607 364.637 301.299 364.714 300.951C371.037 292.136 381.717 288.056 388.589 279.684C388.57 279.646 388.445 279.511 388.387 279.588Z" fill="#263238"/>
<path d="M389.948 273.308C386.401 276.558 382.922 279.886 379.346 283.136C379.346 283.136 379.346 283.232 379.346 283.203C383.357 280.505 386.971 277.259 390.083 273.558C390.276 273.375 390.093 273.173 389.948 273.308Z" fill="#263238"/>
<path d="M390.508 259.216C387.373 264.359 383.827 269.239 379.905 273.809C379.905 273.867 379.905 273.954 380.001 273.896C384.396 269.708 388.018 264.778 390.7 259.332C390.708 259.307 390.707 259.28 390.698 259.256C390.689 259.232 390.672 259.211 390.649 259.198C390.627 259.185 390.601 259.179 390.575 259.183C390.55 259.186 390.526 259.198 390.508 259.216Z" fill="#263238"/>
<path d="M374.555 361.792H343.537L347.711 320.029H369.784L374.555 361.792Z" fill="#455A64"/>
<path d="M370.555 326.81H347.027L347.711 320.029H369.784L370.555 326.81Z" fill="#263238"/>
<path d="M373.582 322.062H344.501V315.398H373.582V322.062Z" fill="#455A64"/>
<path d="M223.871 317.26L196.439 353.515C191.157 360.421 186.656 366.565 184.622 369.96C184.622 369.96 184.622 369.96 184.622 370.018C184.059 370.76 183.673 371.621 183.494 372.535C183.494 372.535 183.494 372.593 183.494 372.612C184.458 375.573 238.368 419.391 240.768 420.288C243.168 421.185 245.896 414.433 245.164 411.057C244.431 407.682 231.284 381.669 231.284 381.669L258.321 345.153L223.871 317.26Z" fill="#C95F50"/>
<path d="M202.068 346.041L196.439 353.477C191.157 360.383 186.656 366.527 184.622 369.922C184.622 369.922 184.622 369.922 184.622 369.98C184.153 370.774 183.774 371.618 183.494 372.497C183.494 372.497 183.494 372.555 183.494 372.574C184.458 375.535 238.368 419.353 240.768 420.25C243.168 421.147 245.896 414.395 245.164 411.019C244.431 407.644 231.284 381.631 231.284 381.631L237.115 374.166L202.068 346.041Z" fill="#EBEBEB"/>
<path d="M240.749 420.249C238.349 419.362 184.468 375.544 183.475 372.574C183.08 371.445 188.998 363.218 196.439 353.486L196.68 353.178L231.756 381.061L231.264 381.64C231.264 381.64 244.392 407.682 245.144 411.028C245.896 414.375 243.139 421.156 240.749 420.249Z" fill="#D413AF"/>
<path d="M241.838 417.665C232.932 410.055 196.314 380.214 186.897 373.366C186.82 373.308 186.772 373.366 186.849 373.424C195.524 381.14 232.373 410.711 241.674 417.791C241.935 417.964 242.021 417.829 241.838 417.665Z" fill="#263238"/>
<path d="M234.098 384.118C231.072 380.54 226.252 377.54 221.452 377.868C221.259 377.868 221.288 378.138 221.452 378.196C225.764 379.874 229.884 382.008 233.741 384.562C233.801 384.585 233.865 384.588 233.926 384.572C233.988 384.555 234.042 384.52 234.081 384.47C234.121 384.421 234.144 384.36 234.147 384.297C234.15 384.234 234.133 384.171 234.098 384.118Z" fill="#263238"/>
<path d="M235.419 387.775C232.383 384.196 227.563 381.197 222.763 381.525C222.58 381.525 222.599 381.795 222.763 381.853C227.074 383.526 231.194 385.657 235.053 388.209C235.111 388.241 235.179 388.253 235.245 388.241C235.311 388.229 235.371 388.194 235.414 388.143C235.458 388.091 235.482 388.027 235.483 387.959C235.483 387.892 235.461 387.827 235.419 387.775Z" fill="#263238"/>
<path d="M236.729 391.431C233.703 387.852 228.883 384.843 224.083 385.171C223.9 385.171 223.919 385.451 224.083 385.509C228.393 387.186 232.512 389.317 236.373 391.865C236.431 391.893 236.497 391.9 236.56 391.886C236.623 391.872 236.68 391.837 236.721 391.787C236.762 391.737 236.785 391.675 236.787 391.61C236.788 391.546 236.768 391.482 236.729 391.431Z" fill="#263238"/>
<path d="M198.473 348.732L236.016 380.214C236.016 380.214 279.218 324.977 288.962 297.132C295.893 277.292 263.902 178.006 263.902 178.006L222.965 175.238C222.965 175.238 249.463 270.859 246.523 280.147C242.899 291.46 198.473 348.732 198.473 348.732Z" fill="#37474F"/>
<path d="M240.19 371.175C234.359 366.352 236.103 367.635 230.204 362.861C227.313 360.517 208.372 345.162 205.297 343.445C205.23 343.445 205.153 343.513 205.201 343.571C207.563 346.175 226.782 361.202 229.703 363.488C235.689 368.156 234.021 366.748 240.055 371.348C240.066 371.357 240.079 371.364 240.093 371.368C240.107 371.371 240.122 371.372 240.136 371.371C240.15 371.369 240.164 371.364 240.177 371.357C240.189 371.35 240.2 371.34 240.209 371.329C240.218 371.318 240.225 371.305 240.228 371.291C240.232 371.277 240.233 371.262 240.232 371.248C240.23 371.234 240.225 371.22 240.218 371.207C240.211 371.195 240.201 371.184 240.19 371.175Z" fill="#263238"/>
<path d="M210.936 341.913C217.934 333.194 224.732 324.301 231.332 315.235C237.886 306.246 244.354 297.122 250.233 287.679C251.65 285.558 252.787 283.263 253.617 280.851C254.382 278.1 254.481 275.207 253.906 272.411C252.99 266.827 251.824 261.271 250.658 255.735C248.306 244.624 245.633 233.584 242.638 222.614C239.65 211.657 236.305 200.797 232.768 190.004C232.334 188.683 231.891 187.352 231.447 186.021C231.38 185.828 231.688 185.751 231.756 185.944C235.727 196.759 239.293 207.709 242.455 218.795C245.616 229.88 248.434 240.988 250.908 252.118C252.142 257.731 253.289 263.371 254.349 269.035C255.006 271.79 255.33 274.614 255.313 277.446C255.121 279.913 254.436 282.317 253.299 284.516C252.081 286.876 250.699 289.148 249.164 291.315C247.608 293.656 246.034 295.99 244.441 298.318C241.228 303.005 237.95 307.644 234.609 312.235C227.958 321.34 221.115 330.358 213.76 338.913C212.864 339.965 211.958 341.006 211.061 342.048C211.032 342.144 210.859 342.009 210.936 341.913Z" fill="#263238"/>
<path d="M222.927 175.238C222.927 175.238 230.638 203.132 237.308 230.215C244.759 214.783 257.463 188.201 261.733 177.823L222.927 175.238Z" fill="#263238"/>
<path d="M174.241 238.817L149.778 206.642C144.071 200.093 138.953 194.441 136.033 191.769C136.017 191.763 136 191.763 135.984 191.769C134.886 190.805 134.105 190.178 133.739 190.168C133.739 190.168 133.69 190.168 133.671 190.168C130.567 190.544 76.8888 234.622 75.5394 236.792C74.1899 238.962 80.2528 242.994 83.7035 242.945C87.1542 242.897 115.251 235.229 115.251 235.229L141.276 267.415L174.241 238.817Z" fill="#C95F50"/>
<path d="M133.739 190.129H133.671C130.568 190.515 76.889 234.592 75.5395 236.762C74.1901 238.933 80.2529 242.964 83.694 242.916C87.135 242.868 115.252 235.2 115.252 235.2L119.936 241.652C128.784 234.486 144.92 221.398 154.713 213.171C151.985 209.313 149.778 206.689 149.768 206.68C144.072 200.121 138.963 194.479 136.042 191.817L135.985 191.769C134.886 190.717 134.105 190.139 133.739 190.129Z" fill="#EBEBEB"/>
<path d="M75.5396 236.744C76.889 234.574 130.568 190.496 133.671 190.12C134.847 189.956 141.72 197.402 149.768 206.642L150.019 206.941L115.666 235.76L115.194 235.162C115.194 235.162 87.1062 242.878 83.6458 242.878C80.1855 242.878 74.1709 238.904 75.5396 236.744Z" fill="#D413AF"/>
<path d="M77.8528 238.326C87.0772 231.121 123.628 201.173 132.206 193.351C132.274 193.284 132.206 193.236 132.158 193.293C122.856 200.238 86.5471 230.475 77.7275 238.181C77.5444 238.336 77.66 238.48 77.8528 238.326Z" fill="#263238"/>
<path d="M112.244 237.447C116.35 235.191 120.264 231.062 120.919 226.288C120.919 226.105 120.678 226.076 120.591 226.201C118.09 230.093 115.182 233.708 111.917 236.985C111.871 237.033 111.843 237.096 111.838 237.163C111.834 237.229 111.852 237.296 111.891 237.35C111.93 237.405 111.986 237.444 112.05 237.462C112.115 237.48 112.183 237.475 112.244 237.447Z" fill="#263238"/>
<path d="M108.408 238.006C112.514 235.749 116.418 231.621 117.083 226.847C117.083 226.664 116.851 226.635 116.765 226.77C114.264 230.659 111.356 234.27 108.09 237.543C108.054 237.593 108.035 237.653 108.034 237.714C108.034 237.775 108.052 237.835 108.087 237.886C108.122 237.936 108.171 237.975 108.228 237.997C108.286 238.018 108.348 238.021 108.408 238.006Z" fill="#263238"/>
<path d="M104.572 238.566C108.668 236.309 112.582 232.181 113.247 227.416C113.247 227.223 113.006 227.194 112.919 227.329C110.42 231.22 107.512 234.832 104.244 238.103C104.207 238.154 104.187 238.215 104.186 238.277C104.186 238.34 104.205 238.401 104.241 238.453C104.277 238.504 104.329 238.542 104.388 238.563C104.447 238.583 104.512 238.584 104.572 238.566Z" fill="#263238"/>
<path d="M263.14 177.919V177.967C262.899 178.796 259.14 191.885 255.429 203.102C252.711 211.29 249.993 218.466 248.682 219.141C247.188 219.894 239.949 222.536 237.52 223.356C237.52 223.356 221.944 277.281 208.97 294.826C204.526 300.844 184.285 306.863 174.386 300.362C151.156 285.123 116.755 245.492 116.755 245.492L156.833 212.699L185.21 250.314C192.237 237.264 196.054 210.924 196.054 210.924C196.054 210.924 197.644 184.882 207.187 174.07L263.14 177.919Z" fill="#37474F"/>
<path d="M126.413 250.276C132.447 245.685 130.78 247.083 136.765 242.425C139.657 240.139 158.935 225.141 161.287 222.527C161.295 222.514 161.299 222.498 161.299 222.483C161.298 222.467 161.293 222.452 161.283 222.439C161.274 222.426 161.261 222.417 161.246 222.412C161.231 222.407 161.215 222.407 161.2 222.411C158.125 224.119 139.156 239.454 136.264 241.788C130.375 246.562 132.119 245.26 126.278 250.102C126.267 250.111 126.257 250.122 126.25 250.135C126.243 250.147 126.239 250.161 126.237 250.175C126.235 250.19 126.236 250.204 126.24 250.218C126.244 250.232 126.25 250.245 126.259 250.256C126.268 250.268 126.279 250.277 126.291 250.285C126.304 250.292 126.318 250.296 126.332 250.298C126.346 250.3 126.361 250.299 126.375 250.295C126.389 250.291 126.402 250.285 126.413 250.276Z" fill="#263238"/>
<path d="M208.353 204.539C209.644 204.298 211.004 204.288 212.305 204.173C213.365 204.076 214.416 203.96 215.466 203.806C217.469 203.59 219.398 202.931 221.115 201.877C222.994 200.614 224.006 198.559 225.047 196.582C225.645 195.415 226.252 194.248 226.869 193.09L227.785 191.412C228.195 190.762 228.568 190.089 228.903 189.396C228.903 189.3 229.105 189.396 229.057 189.454C228.844 189.931 228.66 190.421 228.508 190.92C228.296 191.489 228.093 192.068 227.871 192.637C227.486 193.602 227.1 194.663 226.686 195.675C226.04 197.536 225.176 199.313 224.112 200.97C222.001 203.864 218.503 204.877 215.061 205.079C214.098 205.127 213.086 205.137 212.102 205.127C210.855 205.161 209.606 205.084 208.372 204.896C208.325 204.899 208.278 204.882 208.243 204.851C208.208 204.819 208.187 204.774 208.184 204.727C208.182 204.68 208.198 204.633 208.23 204.598C208.261 204.563 208.306 204.542 208.353 204.539Z" fill="#263238"/>
<path d="M252.537 217.531C247.395 219.022 242.393 220.958 237.587 223.318C237.567 223.326 237.549 223.337 237.533 223.352C237.517 223.367 237.504 223.384 237.495 223.404C237.486 223.424 237.481 223.445 237.481 223.467C237.48 223.488 237.483 223.51 237.491 223.53C237.499 223.551 237.51 223.569 237.525 223.585C237.54 223.601 237.557 223.613 237.577 223.622C237.597 223.631 237.618 223.636 237.64 223.637C237.661 223.638 237.683 223.634 237.703 223.627C242.725 221.862 247.833 220.193 252.759 218.148C252.841 218.119 252.908 218.058 252.945 217.979C252.982 217.901 252.986 217.811 252.957 217.729C252.927 217.647 252.866 217.58 252.788 217.543C252.709 217.506 252.619 217.502 252.537 217.531Z" fill="#263238"/>
<path d="M256.239 184.159C256.239 183.985 255.94 183.927 255.93 184.111C255.574 189.898 254.86 194.99 254.002 200.372C253.598 202.88 250.638 216.643 246.349 215.332C245.626 215.11 245.308 214.367 245.26 213.258C245.379 211.82 245.67 210.402 246.127 209.033C246.812 206.14 247.4 203.246 247.843 200.353C248.732 194.913 249.055 189.395 248.807 183.889C248.799 183.858 248.781 183.831 248.755 183.811C248.73 183.792 248.699 183.781 248.667 183.781C248.635 183.781 248.604 183.792 248.579 183.811C248.554 183.831 248.536 183.858 248.528 183.889C248.139 191.491 247.173 199.052 245.636 206.506C244.845 210.085 242.657 215.409 246.397 216.219C250.137 217.029 253.318 208.098 253.954 205.609C255.638 198.588 256.406 191.378 256.239 184.159Z" fill="#263238"/>
<path d="M246.446 215.737C245.995 216.65 245.602 217.59 245.27 218.553C244.94 219.29 244.747 220.081 244.701 220.887C244.707 220.919 244.721 220.949 244.743 220.973C244.764 220.997 244.792 221.014 244.823 221.023C244.854 221.032 244.887 221.033 244.919 221.024C244.95 221.015 244.978 220.998 245 220.974C245.503 220.294 245.896 219.539 246.166 218.736C246.561 217.868 246.976 217.01 247.342 216.132C247.382 216.016 247.377 215.888 247.327 215.775C247.278 215.662 247.188 215.572 247.075 215.522C246.963 215.473 246.835 215.467 246.719 215.507C246.602 215.546 246.505 215.628 246.446 215.737Z" fill="#263238"/>
<path d="M161.065 226.809C167.221 235.67 173.753 244.28 180.661 252.639C182.531 254.876 184.433 257.088 186.367 259.275C192.642 250.594 195.697 240.216 198.136 229.877C198.762 227.224 199.35 224.562 199.958 221.9C200.71 219.072 201.318 216.206 201.779 213.316C202.155 210.317 201.991 207.259 202.261 204.24C202.538 201.321 202.998 198.421 203.64 195.56C205.104 189.075 207.316 182.783 210.233 176.81C210.233 176.733 210.406 176.81 210.377 176.868C208.012 182.371 206.078 188.049 204.594 193.853C203.878 196.804 203.343 199.796 202.994 202.813C202.647 205.851 202.685 208.889 202.483 211.937C202.171 214.827 201.629 217.688 200.864 220.492C200.256 223.144 199.668 225.806 199.061 228.459C197.919 233.7 196.49 238.874 194.781 243.958C192.9 249.635 190.152 254.987 186.637 259.824C186.61 259.86 186.575 259.889 186.535 259.909C186.495 259.93 186.45 259.94 186.405 259.94C186.36 259.94 186.316 259.93 186.276 259.909C186.236 259.889 186.201 259.86 186.174 259.824C179.099 251.694 172.342 243.273 166.087 234.458C164.3 231.95 162.549 229.417 160.834 226.858C160.747 226.8 160.969 226.674 161.065 226.809Z" fill="#263238"/>
<path d="M229.047 112.478C236.614 117.937 271.969 132.318 284.856 125.817C297.984 119.181 310.987 83.5428 313.57 80.4854C320.655 72.0171 290.186 60.0187 287.401 65.8925C282.745 75.7014 272.856 101.897 268.316 102.466C258.764 103.662 250.002 102.418 235.062 102.235C224.585 102.09 220.729 106.45 229.047 112.478Z" fill="#C95F50"/>
<path d="M284.201 72.3633C284.201 72.3633 271.805 100.334 269.01 101.105C264.354 102.436 239.13 101.559 230.069 101.713C221.009 101.867 212.286 109.892 233.742 117.907C255.198 125.922 273.261 130.098 284.933 127.475C292.182 125.835 312.086 94.3925 312.086 94.3925L284.201 72.3633Z" fill="#D413AF"/>
<path opacity="0.1" d="M284.201 72.3633C284.201 72.3633 271.805 100.334 269.01 101.105C264.354 102.436 239.13 101.559 230.069 101.713C221.009 101.867 212.286 109.892 233.742 117.907C255.198 125.922 273.261 130.098 284.933 127.475C292.182 125.835 312.086 94.3925 312.086 94.3925L284.201 72.3633Z" fill="black"/>
<path d="M306.688 99.5141C296.75 90.1392 284.933 81.8831 282.977 80.2916C282.88 80.2145 282.774 80.3784 282.871 80.4556C284.875 81.912 297.387 92.8976 306.582 99.7456C306.688 99.7745 306.784 99.6009 306.688 99.5141Z" fill="#263238"/>
<path opacity="0.1" d="M220.411 108.107C220.797 110.943 224.411 114.425 233.742 117.907C255.188 125.931 273.261 130.098 284.924 127.475C286.37 127.147 288.326 125.632 290.524 123.404C273.993 119.836 234.137 111.252 220.411 108.107Z" fill="black"/>
<path d="M311.614 83.667C308.626 85.895 287.517 73.4626 287.035 69.6721C286.988 68.3757 287.112 67.0787 287.401 65.8141C287.401 65.8141 285.917 57.423 282.196 50.874C279.083 45.3764 273.83 37.5639 276.721 35.7796C280.933 33.1562 288.76 42.2418 292.943 47.7201C294.428 44.2769 296.018 41.4605 297.56 40.1488C302.659 35.8568 324.829 56.1691 323.556 62.8435C322.313 69.2863 314.602 81.4487 311.614 83.667Z" fill="#C95F50"/>
<path d="M291.035 48.4346C292.23 51.6946 295.391 48.4346 295.391 48.4346C295.391 48.4346 291.979 54.2216 294.514 57.1151C297.049 60.0086 300.635 55.8034 300.905 55.514C300.731 55.8227 297.734 61.2431 300.577 63.8859C303.421 66.5286 306.524 61.8797 306.717 61.5711C306.64 61.9183 305.705 66.49 308.327 68.0043C312.828 70.5988 315.527 58.9669 319.18 56.8932C319.18 56.8932 323.402 62.6802 323.566 62.8442C323.566 62.8442 326.361 51.8296 323.286 47.0457C322.851 46.3413 322.189 45.8069 321.409 45.5314C320.628 45.256 319.777 45.256 318.997 45.5314C318.997 45.5314 320.289 42.0785 318.12 39.9373C317.002 38.8378 314.264 39.648 314.264 39.648C314.264 39.648 315.228 36.8413 313.137 35.0473C311.498 33.6102 308.992 34.6519 308.992 34.6519C308.992 34.6519 308.626 31.5462 306.476 30.6299C302.139 28.7588 288.48 41.413 291.035 48.4346Z" fill="#C95F50"/>
<path d="M308.549 34.7575C308.549 34.7575 308.549 34.6417 308.5 34.6707C302.761 37.8465 298.122 42.6937 295.199 48.5691C295.112 48.762 295.382 48.9838 295.517 48.8006C299.158 43.5126 303.548 38.7822 308.549 34.7575Z" fill="#263238"/>
<path d="M314.284 39.5506C314.341 39.5506 314.284 39.4156 314.207 39.4542C308.539 42.6563 302.939 48.5205 300.635 55.5228C300.558 55.7639 300.731 56.0532 300.837 55.7832C302.727 51.25 309.541 43.264 314.284 39.5506Z" fill="#263238"/>
<path d="M306.727 62.1109C309.194 55.4848 313.532 50.3151 318.756 45.6469C318.823 45.589 318.756 45.5022 318.66 45.5311C315.488 47.1226 312.462 50.4404 310.332 53.2471C308.306 55.7986 306.977 58.8331 306.476 62.053C306.515 62.1591 306.669 62.2556 306.727 62.1109Z" fill="#263238"/>
<path d="M295.276 48.4355C295.17 48.667 295.613 48.5706 295.517 48.8021C295.102 49.7666 293.126 55.8043 294.967 57.116C296.452 58.1673 298.89 56.9039 299.633 56.0454L301.512 53.9525L300.49 56.6241C300.03 57.8044 299.766 59.0524 299.71 60.3182C299.648 60.9026 299.711 61.4935 299.893 62.052C300.076 62.6106 300.375 63.1241 300.77 63.5589C301.142 63.958 301.641 64.217 302.181 64.2925C302.721 64.368 303.271 64.2554 303.739 63.9736C304.775 63.326 305.628 62.4226 306.216 61.3502L307.951 58.4567L307.267 61.7456C307.077 62.6619 307.002 63.5983 307.045 64.533C307.056 65.4211 307.327 66.2864 307.826 67.0215C308.064 67.3421 308.387 67.5897 308.758 67.7362C309.129 67.8828 309.534 67.9225 309.927 67.8509C310.781 67.5573 311.536 67.0293 312.105 66.327C313.349 64.8084 314.473 63.1961 315.469 61.5045C316.009 60.675 316.539 59.8359 317.117 59.0258C317.648 58.1813 318.351 57.4582 319.18 56.9038C318.429 57.5374 317.807 58.3103 317.349 59.1801C316.838 60.0192 316.385 60.8872 315.903 61.7649C315.002 63.5501 313.934 65.2456 312.713 66.8285C312.068 67.7077 311.18 68.3783 310.158 68.7575C309.583 68.8981 308.98 68.868 308.422 68.671C307.864 68.4741 307.375 68.1187 307.016 67.6484C306.361 66.7498 305.995 65.6735 305.965 64.562C305.898 63.5191 305.966 62.4719 306.168 61.4466L307.209 61.8421C306.537 63.1207 305.54 64.1988 304.317 64.9671C303.629 65.3813 302.816 65.5384 302.023 65.4107C301.252 65.2635 300.543 64.887 299.989 64.3305C299.485 63.7831 299.104 63.1341 298.871 62.4271C298.638 61.7201 298.56 60.9714 298.64 60.2314C298.731 58.8363 299.056 57.4667 299.604 56.1805L300.462 56.7013C299.498 57.7526 296.905 59.4598 294.408 58.1288C291.353 55.8815 294.601 49.5544 295.276 48.4355Z" fill="#263238"/>
<path d="M295.392 48.4144C294.801 48.8313 294.151 49.1564 293.464 49.3789C293.192 49.4731 292.9 49.4923 292.619 49.4346C292.337 49.3769 292.076 49.2444 291.864 49.051C291.455 48.5668 291.197 47.9733 291.122 47.3438C291.006 46.6494 290.91 45.9164 290.852 45.1641C290.531 45.8696 290.366 46.6362 290.37 47.4113C290.345 47.8368 290.404 48.2631 290.545 48.6654C290.685 49.0677 290.904 49.4381 291.189 49.7551C291.538 50.0735 291.975 50.2787 292.442 50.3434C292.887 50.3764 293.333 50.2899 293.734 50.0927C294.451 49.7246 295.032 49.1365 295.392 48.4144Z" fill="#263238"/>
<path d="M202.088 188.981C202.29 189.135 264.47 182.229 264.981 181.429C265.694 180.252 247.168 115.756 232.942 102.513C229.385 99.2052 219.544 100.681 215.592 104.954C195.967 126.163 201.384 188.431 202.088 188.981Z" fill="#EBEBEB"/>
<path d="M233.481 102.533L257.357 189.628L269.569 180.86C269.569 180.86 249.646 124.437 243.862 115.458C238.079 106.478 233.481 102.533 233.481 102.533Z" fill="#D413AF"/>
<path opacity="0.1" d="M233.481 102.533L257.357 189.628L269.569 180.86C269.569 180.86 249.646 124.437 243.862 115.458C238.079 106.478 233.481 102.533 233.481 102.533Z" fill="black"/>
<path d="M219.418 101.916C219.418 101.916 220.382 135.423 220.382 143.293C220.382 151.163 222.204 194.141 222.204 194.141L193.914 188.981C193.914 188.981 199.08 147.305 200.873 137.68C202.666 128.054 210.242 104.752 219.418 101.916Z" fill="#D413AF"/>
<path opacity="0.1" d="M219.418 101.916C219.418 101.916 220.382 135.423 220.382 143.293C220.382 151.163 222.204 194.141 222.204 194.141L193.914 188.981C193.914 188.981 199.08 147.305 200.873 137.68C202.666 128.054 210.242 104.752 219.418 101.916Z" fill="black"/>
<path d="M212.71 120.752C196.266 137.602 174.472 155.629 162.356 153.053C151.397 150.719 135.647 137.863 118.461 124.003C115.049 121.254 137.826 95.8103 141.17 99.1089C147.754 105.6 161.267 122.17 166.308 124.003C168.467 124.784 192.642 112.699 208.488 106.642C227.727 99.2825 219.264 114.039 212.71 120.752Z" fill="#C95F50"/>
<path d="M103.367 112.285C107.878 117.715 123.531 127.901 127.464 128.45C131.397 129 144.949 106.354 143.445 102.525C141.941 98.6956 125.353 81.5757 118.297 80.1193C111.242 78.6629 98.692 106.653 103.367 112.285Z" fill="#C95F50"/>
<path d="M128.736 84.535C129.286 88.229 124.611 86.7726 124.611 86.7726C124.611 86.7726 130.837 90.4956 129.931 94.4886C129.054 98.3466 123.473 96.4176 123.069 96.273C123.396 96.4755 129.025 100.054 127.695 103.989C126.317 108.107 121.054 105.175 120.707 104.953C120.958 105.243 124.196 109.082 122.51 111.859C119.618 116.682 111.049 107.037 106.519 106.979C106.519 106.979 103.772 112.39 103.695 112.602C103.695 112.602 97.1305 105.908 97.5642 99.803C97.603 98.9108 97.9499 98.0597 98.5458 97.3948C99.1417 96.73 99.9496 96.2926 100.832 96.1572C100.832 96.1572 97.8245 93.5627 98.7691 90.3702C99.2607 88.7499 102.278 88.094 102.278 88.094C102.278 88.094 99.9643 85.9142 100.976 83.1654C101.776 80.9664 104.678 80.6481 104.678 80.6481C104.678 80.6481 103.425 77.5231 104.976 75.5459C108.09 71.6975 127.541 76.6068 128.736 84.535Z" fill="#C95F50"/>
<path d="M105.131 80.6784C105.12 80.6739 105.112 80.6664 105.105 80.657C105.099 80.6476 105.096 80.6366 105.096 80.6253C105.096 80.614 105.099 80.603 105.105 80.5936C105.112 80.5842 105.12 80.5768 105.131 80.5723C112.189 80.6025 119.071 82.7825 124.861 86.8222C125.045 86.9573 124.91 87.3045 124.678 87.1984C118.513 84.0869 111.928 81.8905 105.131 80.6784Z" fill="#263238"/>
<path d="M102.172 88.1721C102.094 88.1721 102.114 88.0371 102.172 88.0371C109.169 88.1336 117.488 90.7763 123.281 96.1968C123.473 96.38 123.464 96.7465 123.223 96.5536C119.146 93.2358 108.591 89.2235 102.172 88.1721Z" fill="#263238"/>
<path d="M120.986 105.572C115.203 100.586 108.456 97.9526 101.121 96.2455C101.024 96.2455 101.063 96.0911 101.121 96.0815C104.976 95.9368 109.507 97.5186 112.957 99.0425C116.189 100.399 119.007 102.581 121.131 105.37C121.247 105.476 121.112 105.678 120.986 105.572Z" fill="#263238"/>
<path d="M124.611 86.7441C125.743 87.5626 126.792 88.4897 127.743 89.5123C128.715 90.4592 129.417 91.6476 129.777 92.9555C129.907 93.5644 129.807 94.1998 129.498 94.7398C129.181 95.2831 128.73 95.7351 128.187 96.0516C127.619 96.3198 127.003 96.4669 126.375 96.4835C125.748 96.5001 125.124 96.3858 124.543 96.148L121.652 95.0871L123.984 97.0836C125.031 97.9567 125.926 98.9962 126.635 100.16C126.993 100.683 127.238 101.275 127.352 101.898C127.467 102.521 127.449 103.161 127.3 103.777C127.153 104.345 126.817 104.846 126.348 105.196C125.878 105.547 125.303 105.727 124.717 105.706C123.405 105.626 122.135 105.215 121.025 104.51L117.893 102.668L120.235 105.417C120.889 106.186 121.443 107.035 121.883 107.944C122.329 108.787 122.52 109.742 122.432 110.693C122.373 111.118 122.196 111.518 121.922 111.849C121.648 112.179 121.287 112.427 120.881 112.564C119.923 112.734 118.936 112.627 118.037 112.255C116.082 111.478 114.19 110.549 112.379 109.477C111.415 108.966 110.509 108.455 109.545 107.982C108.61 107.448 107.572 107.119 106.499 107.018C107.531 107.227 108.513 107.633 109.391 108.214C110.355 108.754 111.194 109.333 112.09 109.911C113.863 111.132 115.748 112.182 117.719 113.046C118.778 113.536 119.958 113.704 121.112 113.528C121.728 113.365 122.284 113.025 122.71 112.551C123.136 112.076 123.415 111.487 123.512 110.857C123.657 109.679 123.453 108.485 122.924 107.423C122.447 106.406 121.845 105.454 121.131 104.587L120.341 105.504C121.642 106.36 123.143 106.862 124.698 106.96C125.559 106.986 126.404 106.714 127.088 106.188C127.744 105.653 128.222 104.929 128.457 104.115C128.646 103.337 128.669 102.527 128.524 101.739C128.38 100.952 128.071 100.203 127.618 99.543C126.816 98.2742 125.813 97.1439 124.649 96.1962L124.1 97.1607C124.831 97.4332 125.613 97.5425 126.39 97.4808C127.168 97.4192 127.922 97.1881 128.601 96.8039C129.253 96.3807 129.784 95.7959 130.144 95.1063C130.502 94.3969 130.592 93.5811 130.394 92.8108C129.935 91.4219 129.097 90.1891 127.975 89.2518C126.951 88.292 125.823 87.4508 124.611 86.7441Z" fill="#263238"/>
<path d="M141.17 99.1086C141.17 99.1086 132.659 70.3761 123.068 79.2109C120.177 81.8344 111.646 96.0125 114.451 97.7968C118.085 100.092 122.77 94.8358 125.189 91.0453C125.189 91.0453 126.712 101.221 134.105 102.282C135.46 102.454 136.837 102.249 138.083 101.689C139.33 101.129 140.398 100.236 141.17 99.1086Z" fill="#C95F50"/>
<path d="M123.907 78.5273C122.669 79.4237 121.568 80.496 120.639 81.7102C119.678 82.9028 118.799 84.1596 118.008 85.4717C116.378 88.0709 114.978 90.8076 113.825 93.6507C113.522 94.4073 113.327 95.2028 113.246 96.0137C113.205 96.4806 113.264 96.9509 113.42 97.393C113.508 97.6369 113.635 97.8649 113.796 98.0681C113.959 98.2633 114.151 98.4324 114.365 98.5696C115.15 99.0472 116.079 99.2285 116.986 99.0808C117.814 98.9276 118.609 98.634 119.338 98.2128C120.696 97.3899 121.903 96.3393 122.905 95.1071C123.906 93.9298 124.818 92.6789 125.632 91.3648L124.669 91.143C124.884 92.2989 125.207 93.4323 125.632 94.5284C126.045 95.6162 126.572 96.6573 127.204 97.6341C127.84 98.6105 128.616 99.4879 129.507 100.238C130.39 100.984 131.408 101.554 132.505 101.916C131.49 101.428 130.562 100.776 129.758 99.9875C128.98 99.1862 128.312 98.2845 127.772 97.3061C127.231 96.3323 126.786 95.3084 126.442 94.2487C126.101 93.1992 125.856 92.121 125.71 91.0273L125.546 89.677L124.746 90.8054C123.909 92.0359 122.994 93.2118 122.008 94.3258C121.064 95.4297 119.952 96.377 118.712 97.1325C117.526 97.798 116.042 98.1549 115.059 97.5183C114.143 97.0361 114.5 95.4061 114.962 94.0654C115.467 92.6596 116.046 91.2817 116.697 89.9374C117.324 88.5678 117.979 87.2078 118.692 85.8865C120.177 83.263 121.671 80.5817 123.907 78.5273Z" fill="#263238"/>
<path d="M144.515 102.359C144.515 102.359 164.448 122.701 167.359 122.517C172.178 122.209 201.471 108.31 210.059 105.417C218.647 102.523 227.852 104.231 214.281 120.28C198.965 138.383 181.817 154.51 164.091 154.529C154.539 154.529 124.794 133.754 124.794 133.754L144.515 102.359Z" fill="#D413AF"/>
<path opacity="0.1" d="M144.515 102.359C144.515 102.359 164.448 122.701 167.359 122.517C172.178 122.209 201.471 108.31 210.059 105.417C218.647 102.523 227.852 104.231 214.281 120.28C198.965 138.383 181.817 154.51 164.091 154.529C154.539 154.529 124.794 133.754 124.794 133.754L144.515 102.359Z" fill="black"/>
<path d="M132.409 135.48C138.635 123.308 147.002 111.579 148.322 109.438C148.38 109.332 148.534 109.438 148.467 109.554C147.069 111.599 138.953 126.143 132.572 135.595C132.495 135.721 132.341 135.595 132.409 135.48Z" fill="#263238"/>
<path d="M201.567 134.064C202.02 133.587 202.444 133.084 202.839 132.559C203.312 132.048 203.803 131.537 204.256 131.025C205.22 130.061 206.097 129.096 207.013 128.064C208.835 126.087 210.772 124.206 212.661 122.277C212.661 122.277 212.729 122.277 212.661 122.277C210.936 124.361 209.24 126.454 207.37 128.412L207.244 128.547L208.343 127.804C209.105 127.293 209.866 126.782 210.618 126.261C210.618 126.261 210.714 126.309 210.676 126.338C209.972 126.917 209.249 127.466 208.488 127.978C208.102 128.238 207.717 128.489 207.312 128.73L206.753 129.058L204.642 131.247C204.16 131.739 203.678 132.212 203.177 132.713C202.676 133.215 202.078 133.581 201.635 134.112C201.615 134.247 201.451 134.131 201.567 134.064Z" fill="#263238"/>
<path d="M231.409 114.339C228.459 115.052 221.192 110.693 217.857 106.478C217.635 106.189 217.558 102.745 217.259 98.5691C217.076 96.0324 216.806 93.2161 216.372 90.6602L233.028 91.8465C232.657 95.1919 232.696 98.5702 233.144 101.906C233.206 102.259 233.302 102.605 233.433 102.938C233.433 102.986 233.433 103.044 233.433 103.112C234.146 105.07 236.026 113.22 231.409 114.339Z" fill="#C95F50"/>
<path d="M233.423 102.939C233.451 102.994 233.471 103.052 233.481 103.113C232.949 103.279 232.404 103.402 231.852 103.479C222.715 104.81 218.618 94.0852 217.577 90.748L232.999 91.8379C232.622 95.189 232.654 98.5737 233.096 101.917C233.177 102.266 233.287 102.608 233.423 102.939Z" fill="#263238"/>
<path d="M208.979 71.4955C208.738 77.5044 215.9 92.8302 220.797 95.3765C227.9 99.0706 237.433 97.103 240.074 89.0398C242.6 81.2177 232.922 61.4165 227.64 59.3235C219.833 56.2275 209.336 62.6318 208.979 71.4955Z" fill="#C95F50"/>
<path d="M222.416 74.7655C222.804 74.4452 223.174 74.1039 223.524 73.7431C223.977 73.4455 224.317 73.0038 224.488 72.4893C224.507 72.3177 224.469 72.1447 224.38 71.9966C224.292 71.8486 224.157 71.7337 223.997 71.6695C223.662 71.5931 223.314 71.6074 222.987 71.7108C222.66 71.8142 222.366 72.003 222.136 72.2578C221.59 72.6988 221.229 73.3285 221.124 74.0228C221.114 74.1778 221.147 74.3327 221.22 74.4697C221.294 74.6066 221.404 74.7203 221.538 74.7977C221.673 74.8751 221.827 74.9131 221.982 74.9074C222.137 74.9017 222.287 74.8526 222.416 74.7655Z" fill="#A6A6A6"/>
<path d="M232.71 70.3476C232.209 70.473 231.746 70.5019 231.216 70.5791C230.703 70.7296 230.155 70.7092 229.655 70.5212C229.51 70.4298 229.399 70.2938 229.338 70.1338C229.277 69.9738 229.27 69.7984 229.317 69.6339C229.467 69.3231 229.697 69.0581 229.983 68.8664C230.27 68.6747 230.602 68.5634 230.946 68.544C231.633 68.3876 232.353 68.4979 232.961 68.8526C233.094 68.9411 233.2 69.0666 233.264 69.2137C233.327 69.3608 233.347 69.5234 233.321 69.6816C233.294 69.8398 233.223 69.9869 233.114 70.1051C233.006 70.2234 232.865 70.3076 232.71 70.3476Z" fill="#A6A6A6"/>
<path d="M228.382 86.609C228.723 86.8248 229.13 86.9104 229.529 86.8501C229.914 86.6753 230.259 86.4224 230.541 86.1074C230.541 86.1074 230.609 86.1074 230.609 86.1074C230.545 86.3771 230.411 86.6249 230.219 86.825C230.028 87.0251 229.786 87.1703 229.52 87.2455C229.284 87.2845 229.041 87.2509 228.824 87.1493C228.608 87.0478 228.427 86.8829 228.305 86.6765C228.257 86.6475 228.334 86.5897 228.382 86.609Z" fill="#263238"/>
<path d="M231.852 82.8867C231.659 83.6514 231.27 84.3527 230.725 84.9218C230.417 85.2243 230.023 85.4232 229.597 85.4909C228.633 85.6355 228.315 84.8736 228.19 84.1502C228.125 83.7647 228.106 83.3731 228.132 82.9832C229.351 83.3475 230.654 83.3137 231.852 82.8867Z" fill="#263238"/>
<path d="M230.725 84.9123C230.417 85.2148 230.023 85.4137 229.597 85.4814C228.633 85.6261 228.315 84.8641 228.19 84.1407C228.638 83.9675 229.131 83.9493 229.59 84.0892C230.05 84.229 230.449 84.5188 230.725 84.9123Z" fill="#FF9BBC"/>
<path d="M223.621 77.3219C223.562 77.019 223.586 76.7061 223.688 76.4152C223.755 76.2593 223.853 76.1183 223.976 76.0007C224.098 75.8831 224.243 75.7912 224.401 75.7304C224.563 75.6816 224.733 75.6692 224.9 75.6942C225.066 75.7193 225.225 75.781 225.365 75.8751C225.61 76.0482 225.812 76.276 225.953 76.5406C226.034 76.7035 226.105 76.8709 226.165 77.0422C226.296 77.3931 226.342 77.7697 226.3 78.1417C226.224 77.881 226.12 77.6289 225.992 77.3894C225.874 77.1753 225.742 76.9691 225.597 76.7721C225.298 76.3767 224.903 76.097 224.546 76.2513C224.358 76.3424 224.204 76.4924 224.109 76.6786C224.013 76.8648 223.98 77.077 224.016 77.2833C224.04 77.8036 224.115 78.3204 224.238 78.8265C223.921 78.3781 223.71 77.8637 223.621 77.3219Z" fill="#263238"/>
<path d="M233.78 72.6624C233.598 72.416 233.355 72.2201 233.076 72.0934C232.924 72.0292 232.76 71.9961 232.594 71.9961C232.429 71.9961 232.265 72.0292 232.112 72.0934C231.959 72.174 231.826 72.2891 231.724 72.4296C231.622 72.5701 231.554 72.7323 231.524 72.9035C231.484 73.202 231.513 73.5059 231.611 73.7909C231.665 73.9634 231.732 74.1312 231.814 74.2924C231.979 74.6288 232.22 74.9226 232.517 75.1508C232.378 74.9174 232.268 74.6681 232.19 74.4081C232.114 74.175 232.056 73.9364 232.016 73.6944C231.939 73.2025 232.016 72.7299 232.363 72.5756C232.56 72.5007 232.775 72.4922 232.977 72.5514C233.179 72.6106 233.356 72.7343 233.481 72.9035C233.843 73.2819 234.166 73.6954 234.445 74.1381C234.344 73.6002 234.116 73.0942 233.78 72.6624Z" fill="#263238"/>
<g opacity="0.2">
<path opacity="0.2" d="M224.199 68.9689C224.808 68.8284 225.407 68.648 225.992 68.4288C226.58 68.178 227.11 67.8211 227.698 67.5896C228.837 67.2051 230.034 67.0223 231.235 67.0495C231.341 67.0495 231.351 67.117 231.235 67.117C229.971 67.1358 228.726 67.4252 227.582 67.9658C226.677 68.4828 225.704 68.8692 224.691 69.1135C222.357 69.4888 220.204 70.5967 218.541 72.2771C220.056 70.635 222.026 69.4831 224.199 68.9689Z" fill="black"/>
<path opacity="0.2" d="M223.573 67.4546C224.149 67.3224 224.716 67.1517 225.269 66.9434C225.828 66.7023 226.329 66.3647 226.888 66.1429C227.968 65.7773 229.103 65.6043 230.243 65.6317C230.339 65.6317 230.349 65.6896 230.243 65.6992C229.045 65.7146 227.865 65.9876 226.782 66.4998C225.929 66.9901 225.011 67.3571 224.055 67.5897C221.837 67.9314 219.785 68.9681 218.194 70.5507C219.638 69.0051 221.511 67.9269 223.573 67.4546Z" fill="black"/>
</g>
<path d="M232.402 63.4909C228.161 69.3744 218.377 66.3073 218.377 66.3073C218.338 67.7085 217.848 69.0595 216.979 70.1595C216.111 71.2595 214.911 72.0497 213.558 72.4125C213.558 72.4125 215.871 82.3276 213.356 83.2053C209.5 84.5652 203.717 72.0171 203.967 69.0271C204.218 66.0372 207.264 64.2047 207.264 64.2047C207.065 62.5316 207.509 60.8454 208.507 59.4882C210.435 56.5947 220.382 55.9968 220.382 55.9968C220.466 54.6076 220.872 53.2571 221.568 52.052C221.733 51.7549 221.957 51.4945 222.226 51.2867C222.495 51.0789 222.803 50.928 223.132 50.8432C223.462 50.7584 223.804 50.7415 224.14 50.7934C224.476 50.8453 224.798 50.9651 225.086 51.1453C224.858 52.0188 224.835 52.9331 225.019 53.817C225.568 56.7684 227.843 55.9389 226.946 53.4215C226.635 52.4667 225.988 51.6577 225.125 51.1453C225.655 49.0909 227.293 47.8853 228.729 48.3772C231.332 49.2742 235.93 58.6106 232.402 63.4909Z" fill="#A6A6A6"/>
<path d="M227.187 82.0384C228.219 81.3773 228.946 80.3339 229.21 79.137C229.474 77.9401 229.252 76.6873 228.594 75.6534C228.129 74.9251 227.469 74.3419 226.689 73.9703C225.909 73.5986 225.041 73.4534 224.182 73.5511C223.324 73.6488 222.51 73.9854 221.834 74.5228C221.157 75.0602 220.645 75.7768 220.355 76.5911C220.065 77.4053 220.009 78.2847 220.194 79.1291C220.379 79.9735 220.796 80.7492 221.4 81.3679C222.003 81.9865 222.767 82.4235 223.607 82.629C224.446 82.8345 225.325 82.8003 226.146 82.5303C226.514 82.414 226.864 82.2485 227.187 82.0384ZM228.074 75.9813C228.5 76.6482 228.72 77.4267 228.704 78.2183C228.688 79.01 228.438 79.7791 227.986 80.4286C227.533 81.078 226.898 81.5786 226.161 81.8669C225.424 82.1552 224.618 82.2183 223.846 82.0482C223.073 81.8782 222.368 81.4826 221.82 80.9116C221.272 80.3405 220.905 79.6196 220.766 78.8401C220.628 78.0605 220.723 77.2574 221.041 76.5322C221.359 75.807 221.884 75.1924 222.551 74.7661C222.83 74.586 223.131 74.4433 223.447 74.3417C224.291 74.0635 225.203 74.0736 226.041 74.3704C226.878 74.6672 227.593 75.2338 228.074 75.9813Z" fill="#455A64"/>
<path d="M236.016 77.8905C237.732 77.09 238.262 74.5533 237.183 72.2482C236.714 71.1957 235.929 70.3156 234.937 69.7308C234.524 69.4591 234.049 69.2976 233.557 69.2616C233.065 69.2256 232.571 69.3164 232.124 69.5252C231.676 69.7341 231.29 70.0541 231.001 70.4548C230.712 70.8554 230.531 71.3234 230.474 71.8142C230.276 72.9486 230.442 74.1164 230.946 75.1513C231.968 77.3407 234.06 78.556 235.766 78.0448L236.016 77.8905ZM234.638 70.271C235.518 70.7904 236.212 71.5731 236.623 72.5086C237.587 74.5051 237.163 76.6752 235.756 77.3311C234.349 77.987 232.44 76.8971 231.505 74.8909C231.059 73.9721 230.911 72.937 231.081 71.9299C231.133 71.538 231.279 71.1645 231.505 70.8405C231.732 70.5166 232.032 70.2518 232.382 70.0684L232.594 69.9816C232.936 69.8849 233.295 69.8608 233.647 69.9106C233.999 69.9604 234.336 70.0831 234.638 70.271Z" fill="#455A64"/>
<path d="M228.681 76.2016L228.122 75.9412C228.508 75.1117 229.645 73.7132 231.178 74.3305L230.946 74.8996C229.568 74.3401 228.72 76.1341 228.681 76.2016Z" fill="#455A64"/>
<path d="M210.531 85.9736H209.914C209.914 85.6939 210.059 83.1476 211.216 82.3567C212.372 81.5659 220.132 78.8363 220.459 78.7109L220.671 79.2993C218.426 80.0998 212.401 82.2989 211.563 82.8679C210.724 83.437 210.56 85.2792 210.531 85.9736Z" fill="#455A64"/>
<path d="M215.852 83.7068C215.852 83.7068 210.772 79.5594 208.787 81.5173C206.801 83.4753 211.678 90.1978 214.705 90.4486C215.094 90.5096 215.491 90.4905 215.872 90.3924C216.254 90.2943 216.611 90.1194 216.922 89.8783C217.234 89.6372 217.493 89.335 217.683 88.9902C217.874 88.6455 217.992 88.2654 218.03 87.8734L215.852 83.7068Z" fill="#C95F50"/>
<path d="M210.232 83.4071C210.184 83.4071 210.232 83.4842 210.232 83.4842C212.391 83.7157 213.914 85.2203 215.158 86.8793C214.991 86.717 214.79 86.593 214.571 86.5158C214.351 86.4386 214.117 86.41 213.885 86.432C213.653 86.454 213.429 86.5261 213.228 86.6433C213.026 86.7605 212.853 86.92 212.719 87.1108C212.713 87.1224 212.711 87.1355 212.712 87.1485C212.713 87.1615 212.718 87.1739 212.726 87.1841C212.735 87.1943 212.745 87.202 212.758 87.2061C212.77 87.2102 212.784 87.2106 212.796 87.2072C213.105 87.0009 213.47 86.8956 213.842 86.906C214.213 86.9164 214.572 87.0418 214.869 87.2651C215.359 87.6412 215.808 88.068 216.208 88.5382C216.353 88.6925 216.642 88.5382 216.517 88.326C215.833 85.7797 212.941 82.8862 210.232 83.4071Z" fill="#263238"/>
<path d="M233.568 102.629L230.002 112.612L217.317 100.643L214.011 104.771C214.011 104.771 226.715 124.061 226.753 123.173L230.474 114.493L236.546 120.164L235.505 105.378L233.568 102.629Z" fill="#EBEBEB"/>
<path d="M236.45 112.874C236.19 110.443 236.007 107.984 235.64 105.563C235.64 105.476 235.486 105.437 235.467 105.563C235.072 107.935 236.093 117.243 236.171 119.48C235.92 119.23 230.551 114.504 230.503 114.581C229.684 115.96 226.946 122.297 226.763 122.818C224.758 119.75 217.124 108.62 214.724 105.736C214.718 105.727 214.711 105.72 214.702 105.714C214.694 105.708 214.684 105.703 214.674 105.701C214.663 105.699 214.653 105.699 214.642 105.701C214.632 105.703 214.622 105.706 214.613 105.712C214.604 105.718 214.597 105.725 214.591 105.734C214.585 105.743 214.581 105.752 214.578 105.763C214.576 105.773 214.576 105.784 214.578 105.794C214.58 105.804 214.584 105.814 214.589 105.823C216.382 109.073 226.551 124.071 226.696 124.023C228.14 121.052 229.427 118.006 230.551 114.899C231.515 115.941 236.903 121.303 236.903 120.946C236.893 118.249 236.742 115.555 236.45 112.874Z" fill="#263238"/>
<path d="M178.453 228.729L182.347 229.452L183.215 233.551L184.082 229.452L187.967 228.729L184.102 227.784L183.215 223.906L182.328 227.784L178.453 228.729Z" fill="#D413AF"/>
<path d="M244.691 45.7522L248.585 46.4756L249.453 50.5747L250.32 46.4756L254.205 45.7522L250.34 44.807L249.453 40.9297L248.566 44.807L244.691 45.7522Z" fill="#D413AF"/>
<path d="M291.343 177.416L295.237 178.13L296.105 182.229L296.972 178.13L300.857 177.416L296.992 176.471L296.105 172.594L295.218 176.471L291.343 177.416Z" fill="#D413AF"/>
<path d="M180.921 160.895L184.805 161.618L185.673 165.717L186.54 161.618L190.434 160.895L186.559 159.95L185.673 156.072L184.786 159.95L180.921 160.895Z" fill="#D413AF"/>
<path d="M130.683 144.701L132.852 145.096L133.343 147.392L133.825 145.096L135.994 144.701L133.835 144.17L133.343 142L132.842 144.17L130.683 144.701Z" fill="#D413AF"/>
<path d="M265.386 137.148L267.555 137.553L268.036 139.849L268.528 137.553L270.697 137.148L268.538 136.618L268.036 134.457L267.545 136.618L265.386 137.148Z" fill="#D413AF"/>
<path d="M198.049 60.857L200.227 61.2621L200.709 63.5479L201.191 61.2621L203.37 60.857L201.201 60.3265L200.709 58.166L200.218 60.3265L198.049 60.857Z" fill="#D413AF"/>
<path d="M147.368 181.777L149.537 182.172L150.019 184.468L150.51 182.172L152.679 181.777L150.52 181.246L150.019 179.076L149.527 181.246L147.368 181.777Z" fill="#D413AF"/>
<path d="M165.036 186.183L167.214 186.578L167.696 188.874L168.188 186.578L170.357 186.183L168.198 185.653L167.696 183.482L167.205 185.653L165.036 186.183Z" fill="#D413AF"/>
<path d="M165.036 94.8941L167.214 95.2992L167.696 97.5947L168.188 95.2992L170.357 94.8941L168.198 94.3636L167.696 92.2031L167.205 94.3636L165.036 94.8941Z" fill="#D413AF"/>
<path d="M259.361 91.6147L261.54 92.0101L262.022 94.3056L262.513 92.0101L264.682 91.6147L262.513 91.0842L262.022 88.9141L261.53 91.0842L259.361 91.6147Z" fill="#D413AF"/>
<path d="M312.896 89.2417L315.064 89.6468L315.556 91.9423L316.038 89.6468L318.207 89.2417L316.047 88.7113L315.556 86.5508L315.055 88.7113L312.896 89.2417Z" fill="#D413AF"/>
<path d="M283.69 197.054L285.859 197.459L286.341 199.745L286.832 197.459L289.001 197.054L286.842 196.524L286.341 194.363L285.849 196.524L283.69 197.054Z" fill="#D413AF"/>
<path d="M174 196.428C174.166 196.428 174.326 196.494 174.443 196.611C174.561 196.729 174.627 196.888 174.627 197.055C174.627 197.221 174.561 197.38 174.443 197.498C174.326 197.616 174.166 197.682 174 197.682C173.834 197.682 173.675 197.616 173.557 197.498C173.44 197.38 173.374 197.221 173.374 197.055C173.374 196.888 173.44 196.729 173.557 196.611C173.675 196.494 173.834 196.428 174 196.428Z" fill="#D413AF"/>
<path d="M164.429 108.031C164.583 108.05 164.725 108.125 164.827 108.241C164.93 108.358 164.987 108.508 164.987 108.663C164.987 108.818 164.93 108.968 164.827 109.085C164.725 109.201 164.583 109.276 164.429 109.295C164.275 109.276 164.133 109.201 164.03 109.085C163.928 108.968 163.871 108.818 163.871 108.663C163.871 108.508 163.928 108.358 164.03 108.241C164.133 108.125 164.275 108.05 164.429 108.031Z" fill="#D413AF"/>
<path d="M275.285 53.9512C275.439 53.9702 275.581 54.045 275.683 54.1614C275.786 54.2777 275.843 54.4276 275.843 54.5829C275.843 54.7382 275.786 54.8881 275.683 55.0045C275.581 55.1208 275.439 55.1956 275.285 55.2147C275.131 55.1956 274.989 55.1208 274.886 55.0045C274.783 54.8881 274.727 54.7382 274.727 54.5829C274.727 54.4276 274.783 54.2777 274.886 54.1614C274.989 54.045 275.131 53.9702 275.285 53.9512Z" fill="#D413AF"/>
<path d="M323.354 93.6406C323.52 93.6406 323.679 93.7067 323.797 93.8242C323.914 93.9418 323.98 94.1013 323.98 94.2676C323.98 94.4338 323.914 94.5933 323.797 94.7109C323.679 94.8284 323.52 94.8945 323.354 94.8945C323.188 94.8945 323.028 94.8284 322.911 94.7109C322.793 94.5933 322.727 94.4338 322.727 94.2676C322.727 94.1013 322.793 93.9418 322.911 93.8242C323.028 93.7067 323.188 93.6406 323.354 93.6406Z" fill="#D413AF"/>
<path d="M286.341 156.072C286.495 156.091 286.636 156.166 286.739 156.282C286.842 156.399 286.899 156.549 286.899 156.704C286.899 156.859 286.842 157.009 286.739 157.126C286.636 157.242 286.495 157.317 286.341 157.336C286.187 157.317 286.045 157.242 285.942 157.126C285.839 157.009 285.783 156.859 285.783 156.704C285.783 156.549 285.839 156.399 285.942 156.282C286.045 156.166 286.187 156.091 286.341 156.072Z" fill="#D413AF"/>
<path d="M304.992 144.547C305.109 144.547 305.222 144.594 305.305 144.677C305.388 144.76 305.435 144.873 305.435 144.991C305.435 145.108 305.388 145.221 305.305 145.304C305.222 145.387 305.109 145.434 304.992 145.434C304.874 145.434 304.761 145.387 304.678 145.304C304.595 145.221 304.548 145.108 304.548 144.991C304.548 144.873 304.595 144.76 304.678 144.677C304.761 144.594 304.874 144.547 304.992 144.547Z" fill="#D413AF"/>
<path d="M270.331 69.3828C270.448 69.3828 270.561 69.4296 270.644 69.5128C270.727 69.596 270.774 69.7088 270.774 69.8265C270.774 69.9442 270.727 70.057 270.644 70.1402C270.561 70.2234 270.448 70.2702 270.331 70.2702C270.213 70.2702 270.1 70.2234 270.017 70.1402C269.934 70.057 269.887 69.9442 269.887 69.8265C269.887 69.7088 269.934 69.596 270.017 69.5128C270.1 69.4296 270.213 69.3828 270.331 69.3828Z" fill="#D413AF"/>
<path d="M257.116 131.998C257.223 132.014 257.322 132.068 257.393 132.15C257.464 132.233 257.503 132.338 257.503 132.447C257.503 132.555 257.464 132.661 257.393 132.743C257.322 132.825 257.223 132.879 257.116 132.895C257.008 132.879 256.91 132.825 256.839 132.743C256.768 132.661 256.729 132.555 256.729 132.447C256.729 132.338 256.768 132.233 256.839 132.15C256.91 132.068 257.008 132.014 257.116 131.998Z" fill="#D413AF"/>
<path d="M298.216 212.727C298.323 212.742 298.422 212.796 298.493 212.879C298.564 212.961 298.603 213.066 298.603 213.175C298.603 213.284 298.564 213.389 298.493 213.471C298.422 213.554 298.323 213.608 298.216 213.624C298.108 213.608 298.01 213.554 297.939 213.471C297.868 213.389 297.829 213.284 297.829 213.175C297.829 213.066 297.868 212.961 297.939 212.879C298.01 212.796 298.108 212.742 298.216 212.727Z" fill="#D413AF"/>
<path d="M187.398 202.629C187.7 202.656 187.981 202.795 188.186 203.019C188.391 203.243 188.504 203.536 188.504 203.839C188.504 204.143 188.391 204.436 188.186 204.66C187.981 204.884 187.7 205.023 187.398 205.05C187.096 205.023 186.815 204.884 186.61 204.66C186.405 204.436 186.292 204.143 186.292 203.839C186.292 203.536 186.405 203.243 186.61 203.019C186.815 202.795 187.096 202.656 187.398 202.629Z" fill="#D413AF"/>
<path d="M114.808 133.039C115.128 133.039 115.434 133.166 115.66 133.392C115.886 133.618 116.013 133.925 116.013 134.245C116.013 134.564 115.886 134.871 115.66 135.097C115.434 135.323 115.128 135.45 114.808 135.45C114.489 135.45 114.182 135.323 113.956 135.097C113.73 134.871 113.603 134.564 113.603 134.245C113.603 133.925 113.73 133.618 113.956 133.392C114.182 133.166 114.489 133.039 114.808 133.039Z" fill="#D413AF"/>
<path d="M236.681 37.2266C236.984 37.2536 237.265 37.3928 237.47 37.6168C237.674 37.8408 237.788 38.1334 237.788 38.437C237.788 38.7406 237.674 39.0332 237.47 39.2572C237.265 39.4812 236.984 39.6204 236.681 39.6475C236.379 39.6204 236.098 39.4812 235.893 39.2572C235.689 39.0332 235.575 38.7406 235.575 38.437C235.575 38.1334 235.689 37.8408 235.893 37.6168C236.098 37.3928 236.379 37.2536 236.681 37.2266Z" fill="#D413AF"/>
<path d="M252.537 85.375C252.839 85.402 253.12 85.5412 253.325 85.7653C253.53 85.9893 253.644 86.2819 253.644 86.5854C253.644 86.889 253.53 87.1816 253.325 87.4056C253.12 87.6297 252.839 87.7689 252.537 87.7959C252.235 87.7689 251.954 87.6297 251.749 87.4056C251.544 87.1816 251.431 86.889 251.431 86.5854C251.431 86.2819 251.544 85.9893 251.749 85.7653C251.954 85.5412 252.235 85.402 252.537 85.375Z" fill="#D413AF"/>
<path d="M292.519 208.627C292.821 208.654 293.102 208.793 293.307 209.017C293.512 209.241 293.625 209.534 293.625 209.837C293.625 210.141 293.512 210.434 293.307 210.658C293.102 210.882 292.821 211.021 292.519 211.048C292.217 211.021 291.936 210.882 291.731 210.658C291.526 210.434 291.413 210.141 291.413 209.837C291.413 209.534 291.526 209.241 291.731 209.017C291.936 208.793 292.217 208.654 292.519 208.627Z" fill="#D413AF"/>
</svg>
