<svg width="547" height="321" viewBox="0 0 547 321" fill="none" xmlns="http://www.w3.org/2000/svg">
<path d="M36.9114 191.24C31.2279 179.565 21.2841 173.572 10.0773 176.888C-1.12958 180.205 -2.86397 195.819 5.49668 199.767C13.8573 203.715 22.2358 192.191 26.6829 189.826C31.1301 187.461 36.9114 191.24 36.9114 191.24Z" fill="#D413AF"/>
<path d="M42.408 222.3C42.408 220.895 42.328 219.481 42.2746 218.076C42.1798 215.266 42.079 212.456 41.9722 209.646C41.8032 204.516 41.234 199.483 39.1349 194.735C37.2545 190.439 34.1122 186.817 30.125 184.349C28.6374 183.441 27.0296 182.746 25.3488 182.286C23.8405 180.755 21.9176 179.698 19.8165 179.245C17.2216 178.717 14.554 178.651 11.9361 179.049C11.9204 179.055 11.9068 179.065 11.8972 179.078C11.8876 179.092 11.8824 179.108 11.8824 179.125C11.8824 179.141 11.8876 179.157 11.8972 179.171C11.9068 179.185 11.9204 179.195 11.9361 179.2C14.4307 178.876 16.9651 179.054 19.3896 179.725C20.429 180.013 21.4363 180.406 22.3959 180.899C23.0156 181.221 23.6102 181.59 24.1747 182.001C21.0871 181.318 17.8633 181.613 14.9513 182.846C14.3381 182.713 13.7104 182.66 13.0835 182.686C12.2639 182.712 11.4496 182.828 10.6554 183.033C9.0341 183.491 7.48373 184.17 6.04811 185.051C5.96806 185.096 6.04811 185.22 6.12816 185.176C7.53954 184.404 9.05118 183.833 10.6198 183.477C11.3812 183.308 12.1542 183.195 12.9323 183.139C13.3655 183.129 13.7989 183.141 14.2309 183.175C11.0406 184.652 8.47588 187.209 6.99091 190.395C6.99091 190.484 7.07985 190.555 7.11543 190.466C7.99961 188.619 9.28875 186.995 10.8871 185.714C12.4854 184.433 14.3518 183.529 16.3477 183.068C16.5968 183.006 16.8458 182.97 17.1037 182.926C17.0132 183.301 16.9448 183.681 16.8992 184.064C16.828 184.633 16.7302 185.193 16.6146 185.754C16.3891 186.912 16.0921 188.055 15.7251 189.177C15.3438 190.308 14.8892 191.413 14.3643 192.485C13.8623 193.623 13.2263 194.698 12.4698 195.686C12.3986 195.766 12.5321 195.864 12.5854 195.775C13.2614 194.717 14.0441 193.748 14.6578 192.654C15.2545 191.611 15.769 190.522 16.1965 189.399C16.6255 188.264 16.9587 187.095 17.1927 185.905C17.3172 185.273 17.415 184.642 17.4862 184.002C17.563 183.622 17.5869 183.233 17.5573 182.846C18.876 182.643 20.2156 182.613 21.542 182.757C21.0439 185.549 20.5103 188.448 18.9449 190.866C18.8915 190.947 19.0338 191.027 19.0783 190.938C19.8075 189.654 20.4493 188.324 20.9994 186.954C21.5177 185.626 21.8413 184.231 21.96 182.81C24.275 183.117 26.5094 183.866 28.5418 185.016C32.3693 187.242 35.4258 190.583 37.3027 194.592C39.2739 198.912 40.3769 203.577 40.5491 208.321C40.9227 214.297 41.0027 220.299 41.5987 226.248C41.5987 226.639 42.2479 226.772 42.328 226.328C42.4817 224.991 42.5085 223.642 42.408 222.3Z" fill="#263238"/>
<path d="M29.28 183.423C28.9021 182.97 28.4654 182.569 27.9814 182.231C27.5189 181.849 27.0386 181.476 26.5406 181.138C25.5583 180.452 24.4665 179.938 23.3119 179.617C23.223 179.617 23.1874 179.742 23.3119 179.759C24.466 180.075 25.5394 180.632 26.4605 181.396C26.9408 181.742 27.3499 182.116 27.8391 182.507C28.2329 182.922 28.6713 183.292 29.1466 183.61C29.1714 183.627 29.2021 183.634 29.2322 183.629C29.2622 183.624 29.289 183.608 29.3067 183.583C29.3244 183.558 29.3315 183.527 29.3265 183.497C29.3215 183.467 29.3048 183.441 29.28 183.423Z" fill="#263238"/>
<path d="M11.1445 187.621C10.203 188.714 9.33249 189.867 8.53851 191.071C7.75731 192.279 7.10731 193.567 6.59955 194.913C6.59955 194.957 6.59955 194.975 6.66181 194.913C7.96144 192.37 9.49807 189.955 11.2513 187.701C11.3135 187.692 11.1979 187.621 11.1445 187.621Z" fill="#263238"/>
<path d="M23.3653 186.501C23.2457 187.231 23.0304 187.943 22.7249 188.617C22.4119 189.266 22.0492 189.891 21.6398 190.484C21.6398 190.484 21.6398 190.564 21.711 190.538C22.6859 189.409 23.3048 188.016 23.4898 186.536C23.5254 186.447 23.3831 186.412 23.3653 186.501Z" fill="#263238"/>
<path d="M41.6165 191.534C41.6165 191.534 49.6214 181.423 65.1953 185.007C79.951 188.412 86.764 215.471 71.8483 218.707C56.9325 221.944 59.5652 196.904 54.1308 192.654C50.1373 189.542 44.4004 190.209 41.6165 191.534Z" fill="#D413AF"/>
<path d="M77.1848 199.785C76.175 198.894 75.1052 198.074 73.9828 197.331C72.9328 196.607 71.786 196.035 70.5763 195.632C69.9717 194.71 69.2935 193.839 68.5484 193.027C67.1823 191.554 65.6021 190.295 63.8611 189.292H64.3236C65.1442 189.248 65.9667 189.248 66.7873 189.292C68.4443 189.396 70.0686 189.8 71.5814 190.484C71.6703 190.484 71.7326 190.386 71.6436 190.35C70.1085 189.69 68.5031 189.207 66.8585 188.91C66.0569 188.767 65.2444 188.696 64.4303 188.696C63.9945 188.696 63.5409 188.696 63.1318 188.776H62.8827C61.4672 188.062 59.9753 187.51 58.4356 187.131L58.8714 187.016C59.632 186.848 60.401 186.72 61.175 186.633C62.7206 186.47 64.2805 186.503 65.8178 186.731C65.9157 186.731 65.9424 186.598 65.8178 186.589C64.2599 186.402 62.6895 186.34 61.1217 186.402C59.806 186.435 58.4973 186.605 57.217 186.909C56.2826 186.737 55.3377 186.627 54.3887 186.58C48.972 186.358 43.0662 188.358 39.7308 192.804C36.3955 197.25 35.7462 203.199 35.1592 208.579C34.2495 216.063 34.05 223.616 34.5632 231.138C34.5632 231.582 35.2214 231.502 35.2392 231.084C35.4438 224.7 35.6661 218.324 36.2798 211.967C36.5556 209.015 36.8758 206.062 37.365 203.146C37.7204 200.636 38.4395 198.192 39.4996 195.89C40.6501 193.532 42.4769 191.569 44.7472 190.252C47.0214 188.954 49.5543 188.174 52.1651 187.967C54.5101 187.775 56.8706 187.998 59.1382 188.625C59.0675 189.079 59.0675 189.541 59.1382 189.995C59.1924 190.571 59.3056 191.14 59.4762 191.693C59.6483 192.212 59.8655 192.715 60.1255 193.196C60.419 193.729 60.7748 194.209 61.1039 194.716C61.1039 194.796 61.2817 194.716 61.2195 194.627C60.5821 193.717 60.1705 192.669 60.0188 191.569C59.9205 191.046 59.858 190.517 59.832 189.986C59.832 189.586 59.832 189.185 59.832 188.785C62.2968 189.536 64.5989 190.742 66.6183 192.342C66.9919 192.644 67.3566 192.965 67.7123 193.294C67.1986 193.764 66.7552 194.306 66.396 194.903C65.8301 195.688 65.3388 196.525 64.9284 197.402C64.2095 199.128 63.7249 200.944 63.4875 202.799C63.493 202.815 63.5032 202.828 63.5168 202.838C63.5303 202.848 63.5465 202.853 63.5631 202.853C63.5798 202.853 63.596 202.848 63.6095 202.838C63.6231 202.828 63.6333 202.815 63.6387 202.799C63.9305 201.005 64.5324 199.274 65.4176 197.686C65.8304 196.9 66.2908 196.14 66.7962 195.41C67.0631 195.036 67.3299 194.663 67.6145 194.307C67.7657 194.12 67.9347 193.925 68.077 193.711C69.9033 195.508 71.3942 197.616 72.4797 199.936C71.7427 200.71 71.1279 201.591 70.6564 202.55C70.098 203.551 69.6134 204.591 69.2066 205.662C68.4528 207.728 67.8319 209.84 67.3477 211.984C67.3531 212 67.3633 212.014 67.3769 212.023C67.3904 212.033 67.4066 212.038 67.4233 212.038C67.4399 212.038 67.4561 212.033 67.4697 212.023C67.4832 212.014 67.4934 212 67.4989 211.984C67.9731 209.827 68.711 207.737 69.6958 205.76C70.1583 204.791 70.6564 203.831 71.1722 202.888C71.7072 202.011 72.1941 201.106 72.6309 200.176C73.667 202.439 74.2704 204.876 74.4098 207.361C74.4098 207.458 74.561 207.45 74.561 207.361C74.2743 203.461 73.0804 199.682 71.0744 196.326C72.0172 196.726 72.9689 197.117 73.885 197.606C75.0501 198.227 76.1345 198.988 77.1136 199.874C77.1581 199.963 77.2559 199.847 77.1848 199.785Z" fill="#263238"/>
<path d="M75.6016 196.556C74.99 195.965 74.2947 195.468 73.5381 195.08C72.7713 194.736 71.9769 194.456 71.1634 194.244C71.0744 194.244 71.0388 194.369 71.1634 194.386C71.9638 194.598 72.7325 194.915 73.4492 195.329C74.1861 195.708 74.8937 196.142 75.5661 196.627C75.6016 196.663 75.6817 196.592 75.6016 196.556Z" fill="#263238"/>
<path d="M49.2656 178.025C49.2656 178.025 50.7509 159.868 64.2525 154.017C75.5305 149.099 81.9877 161.771 74.0362 169.524C67.5967 175.766 57.226 172.93 49.2656 178.025Z" fill="#D413AF"/>
<path d="M71.5192 157.495C69.4643 158.326 67.4597 159.276 65.5155 160.34C63.8952 161.272 62.3355 162.305 60.846 163.434C61.0684 162.981 61.264 162.492 61.4953 162.047C61.8428 161.344 62.2258 160.658 62.6427 159.993C63.4703 158.619 64.4685 157.356 65.6134 156.232C65.6845 156.161 65.6134 156.063 65.5066 156.125C64.3688 157.256 63.3219 158.475 62.3758 159.771C61.9085 160.43 61.4808 161.116 61.0951 161.825C60.6998 162.475 60.4002 163.179 60.2056 163.915C60.1523 163.959 60.0989 163.986 60.0544 164.03C57.6972 165.908 55.5367 168.021 53.606 170.335C53.606 170.157 53.6772 169.979 53.7217 169.819C53.9796 168.93 54.2553 168.041 54.54 167.151C55.1176 165.273 55.94 163.48 56.9859 161.816C57.0393 161.736 56.9058 161.665 56.8525 161.745C55.7903 163.399 54.8452 165.125 54.0241 166.911C53.6667 167.779 53.3696 168.67 53.1347 169.579C52.9427 170.174 52.797 170.784 52.6988 171.402C52.1118 172.149 51.5337 172.904 50.9822 173.678C45.192 181.93 42.2747 191.907 41.5809 201.892C41.3749 204.872 41.3244 207.861 41.4297 210.846C41.4484 213.854 41.7131 216.854 42.2213 219.818C42.2213 220.005 42.5504 219.952 42.5504 219.765C42.4793 217.142 42.2124 214.528 42.1591 211.905C42.1057 209.281 42.1591 206.641 42.4081 204.017C42.8344 198.775 43.8244 193.594 45.361 188.563C46.9307 183.415 49.2439 178.523 52.2274 174.043C52.7967 173.927 53.357 173.776 53.9174 173.625C54.4777 173.474 55.2693 173.278 55.9364 173.091C57.2346 172.762 58.4954 172.301 59.6987 171.713C59.7068 171.708 59.714 171.702 59.7198 171.695C59.7255 171.687 59.7298 171.679 59.7323 171.67C59.7347 171.66 59.7354 171.651 59.7342 171.642C59.733 171.632 59.73 171.623 59.7253 171.615C59.7207 171.607 59.7144 171.6 59.707 171.594C59.6995 171.588 59.691 171.584 59.6819 171.582C59.6729 171.579 59.6634 171.578 59.654 171.58C59.6447 171.581 59.6357 171.584 59.6275 171.588C58.4336 172.234 57.1415 172.679 55.8029 172.904C54.7534 173.118 53.6505 173.251 52.5921 173.491C53.5705 172.069 54.6111 170.69 55.7318 169.365C58.3072 169.6 60.9037 169.407 63.4165 168.796C64.7519 168.472 66.0651 168.062 67.3478 167.569C68.6997 167.054 70.016 166.378 71.3146 165.791C71.4213 165.746 71.3146 165.595 71.2612 165.649C68.8423 166.969 66.2014 167.834 63.4698 168.201C61.0602 168.583 58.6252 168.786 56.1854 168.805C57.146 167.703 58.1333 166.627 59.1917 165.622C62.7494 162.243 66.9475 159.14 71.6437 157.521C71.6526 157.61 71.6081 157.459 71.5192 157.495Z" fill="#263238"/>
<path d="M60.5258 157.558C59.917 158.323 59.3642 159.131 58.8715 159.976C58.3689 160.868 57.9691 161.813 57.6796 162.795H57.733C58.1866 161.906 58.5691 161.016 59.0227 160.127C59.4711 159.255 60.0107 158.432 60.6325 157.673C60.6948 157.584 60.5881 157.477 60.5258 157.558Z" fill="#263238"/>
<path d="M38.7614 174.763C38.6814 175.545 36.7246 168.165 25.3043 161.62C14.9336 155.672 2.55268 140.191 12.7189 130.418C20.9283 122.531 42.5504 139.728 38.7614 174.763Z" fill="#D413AF"/>
<path d="M46.6239 217.062C46.467 209.381 45.8731 201.716 44.8451 194.103C43.9447 187.109 42.3293 180.227 40.0244 173.562C39.1349 171.162 38.2455 168.796 37.1515 166.449C37.2229 165.543 37.2229 164.634 37.1515 163.728C37.0892 162.563 36.9825 161.407 36.8758 160.251C36.769 159.095 36.6534 157.93 36.52 156.774C36.3866 155.618 36.1287 154.463 36.0842 153.307C36.0842 153.209 35.9152 153.227 35.9419 153.307C36.1674 154.519 36.3041 155.746 36.351 156.979C36.44 158.099 36.5022 159.22 36.5378 160.349C36.5734 161.478 36.5378 162.59 36.5378 163.719C36.5378 164.119 36.5378 164.555 36.5378 164.982C35.4616 162.714 34.3142 160.482 33.069 158.304C33.8428 153.573 32.8378 148.629 31.8683 143.997C31.8683 143.908 31.7082 143.952 31.726 144.041C32.2002 146.458 32.4533 148.914 32.482 151.377C32.482 153.324 32.4286 155.263 32.4286 157.21C32.1529 156.739 31.8772 156.276 31.5926 155.814C30.1161 153.395 28.5359 151.024 26.8519 148.701C26.9899 147.578 26.9539 146.442 26.7452 145.33C26.555 144.086 26.2786 142.856 25.918 141.649C25.5567 140.443 25.1352 139.256 24.655 138.092C24.1569 136.892 23.4987 135.754 23.0184 134.536C23.0184 134.438 22.8317 134.536 22.885 134.598C23.494 135.726 23.9743 136.919 24.317 138.155C24.6941 139.322 25.0058 140.509 25.2509 141.711C25.4911 142.921 25.6867 144.121 25.8557 145.339C25.9714 146.14 26.0425 146.975 26.1759 147.785C23.7306 144.499 21.0556 141.391 18.171 138.484C18.1088 138.413 18.011 138.484 18.0732 138.59C22.4079 143.482 26.2787 148.766 29.6358 154.374C29.7603 154.587 29.8849 154.8 30.0005 155.014C29.3779 154.623 28.6574 154.302 28.0615 153.973C26.9586 153.36 25.8468 152.755 24.735 152.195L21.4975 150.417C20.9461 150.105 20.3946 149.785 19.8343 149.527C19.1485 149.239 18.488 148.894 17.8597 148.496C17.7797 148.434 17.6819 148.567 17.7708 148.62C18.8737 149.225 19.8432 150.123 20.9105 150.799C21.9778 151.475 23.0629 152.133 24.1658 152.746C26.1937 153.885 28.3995 154.694 30.3918 155.867C31.7793 158.295 33.0601 160.785 34.2342 163.319C33.0245 162.536 31.7793 161.807 30.5252 161.096C29.7159 160.642 28.9065 160.207 28.0882 159.771C27.2725 159.391 26.5026 158.92 25.7935 158.366C25.7223 158.304 25.6245 158.366 25.6867 158.473C27.018 159.672 28.4941 160.699 30.0805 161.532C31.5481 162.421 33.0245 163.212 34.5277 163.959C35.7492 166.633 36.8491 169.357 37.8275 172.131C42.6393 185.736 44.4004 200.176 45.2453 214.528C45.5033 218.805 45.6278 223.073 45.6811 227.359C45.7345 231.645 45.5122 235.913 45.521 240.181C45.521 240.314 45.7256 240.341 45.7434 240.181C46.2593 236.393 46.3482 232.534 46.5172 228.71C46.6862 224.887 46.7129 220.948 46.6239 217.062Z" fill="#263238"/>
<path d="M25.8735 155.467C23.7903 154.544 21.7647 153.496 19.8076 152.328C17.8237 151.212 15.8998 149.992 14.0441 148.674C14.0441 148.674 13.9818 148.674 14.0441 148.727C15.7955 150.14 17.6409 151.432 19.5675 152.595C21.577 153.731 23.6565 154.737 25.7935 155.61C25.8913 155.61 25.9625 155.503 25.8735 155.467Z" fill="#263238"/>
<path d="M29.1822 140.085C29.0132 139.418 28.8086 138.769 28.5863 138.119C28.5925 138.109 28.5958 138.096 28.5958 138.084C28.5958 138.071 28.5925 138.059 28.5863 138.048C28.444 137.675 28.2928 137.31 28.1416 136.946L28.0882 136.812C28.0882 136.741 28.0259 136.679 27.9993 136.608C27.9726 136.537 27.9548 136.608 27.9993 136.608C28.0437 136.608 28.0704 136.857 28.1149 136.99C28.1286 137.059 28.1464 137.128 28.1682 137.195C28.9221 139.731 29.4869 142.32 29.8582 144.94C29.8582 145.02 29.9916 145.02 29.9916 144.94C29.8772 143.299 29.6062 141.673 29.1822 140.085Z" fill="#263238"/>
<path d="M58.6936 219.818L57.8753 229.475L55.3849 258.925H28.6575L26.1671 229.475L25.3488 219.818H58.6936Z" fill="#37474F"/>
<path d="M58.6936 219.818L57.8753 229.475H26.1671L25.3488 219.818H58.6936Z" fill="#263238"/>
<path d="M61.3174 215.951H22.7339V225.217H61.3174V215.951Z" fill="#37474F"/>
<path d="M491.811 0.0703125H72.3641V280.576H491.811V0.0703125Z" fill="#EBEBEB"/>
<path d="M488.76 3.49414H75.4148V277.153H488.76V3.49414Z" fill="#263238"/>
<path d="M546.44 301.605H17.7352V320.857H546.44V301.605Z" fill="#DBDBDB"/>
<path d="M17.7352 301.606L72.373 280.576H491.811L546.449 301.606H17.7352Z" fill="#EBEBEB"/>
<path d="M77.2471 294.145L112.504 280.576H451.68L486.937 294.145H77.2471Z" fill="#263238"/>
<path d="M465.412 24.2832H98.7802V256.364H465.412V24.2832Z" fill="white"/>
<path d="M465.412 24.2832H98.4689V33.2107H465.412V24.2832Z" fill="#455A64"/>
<path d="M105.567 28.7473C105.567 29.1852 105.437 29.6133 105.193 29.9774C104.95 30.3415 104.604 30.6253 104.199 30.7929C103.795 30.9604 103.349 31.0043 102.92 30.9189C102.49 30.8334 102.096 30.6226 101.786 30.3129C101.476 30.0033 101.265 29.6087 101.18 29.1793C101.094 28.7498 101.138 28.3046 101.306 27.9C101.473 27.4954 101.757 27.1496 102.121 26.9064C102.486 26.6631 102.914 26.5332 103.352 26.5332C103.939 26.5332 104.503 26.7665 104.918 27.1817C105.333 27.5969 105.567 28.1601 105.567 28.7473Z" fill="#C7C7C7"/>
<path d="M114.612 28.7473C114.612 29.1852 114.482 29.6133 114.239 29.9774C113.995 30.3415 113.65 30.6253 113.245 30.7929C112.84 30.9605 112.395 31.0043 111.965 30.9189C111.536 30.8335 111.141 30.6226 110.831 30.3129C110.522 30.0033 110.311 29.6088 110.225 29.1793C110.14 28.7498 110.184 28.3046 110.351 27.9C110.519 27.4955 110.803 27.1497 111.167 26.9064C111.531 26.6631 111.959 26.5332 112.397 26.5332C112.689 26.532 112.977 26.5885 113.246 26.6994C113.516 26.8102 113.76 26.9733 113.966 27.1791C114.172 27.3849 114.335 27.6295 114.446 27.8986C114.557 28.1678 114.613 28.4562 114.612 28.7473Z" fill="white"/>
<path d="M123.631 28.7473C123.631 29.1852 123.501 29.6133 123.258 29.9774C123.014 30.3415 122.668 30.6253 122.264 30.7929C121.859 30.9605 121.414 31.0043 120.984 30.9189C120.555 30.8335 120.16 30.6226 119.85 30.3129C119.54 30.0033 119.329 29.6088 119.244 29.1793C119.159 28.7498 119.202 28.3046 119.37 27.9C119.538 27.4955 119.822 27.1497 120.186 26.9064C120.55 26.6631 120.978 26.5332 121.416 26.5332C121.707 26.532 121.996 26.5885 122.265 26.6994C122.534 26.8102 122.779 26.9733 122.985 27.1791C123.191 27.3849 123.354 27.6295 123.465 27.8986C123.576 28.1678 123.632 28.4562 123.631 28.7473Z" fill="#D413AF"/>
<path d="M465.413 33.2109H458.902V256.355H465.413V33.2109Z" fill="#DBDBDB"/>
<path d="M462.148 110.571C461.702 110.571 461.275 110.394 460.96 110.078C460.644 109.763 460.467 109.336 460.467 108.89V36.1982C460.467 35.7524 460.644 35.325 460.96 35.0098C461.275 34.6946 461.702 34.5176 462.148 34.5176C462.594 34.5176 463.022 34.6946 463.337 35.0098C463.652 35.325 463.829 35.7524 463.829 36.1982V108.89C463.829 109.336 463.652 109.763 463.337 110.078C463.022 110.394 462.594 110.571 462.148 110.571Z" fill="#A6A6A6"/>
<path d="M414.101 91.0898H151.577V130.872H414.101V91.0898Z" fill="white"/>
<path d="M414.546 131.307H151.132V90.6445H414.546V131.307ZM152.022 130.418H413.656V91.5337H152.022V130.418Z" fill="#DBDBDB"/>
<path d="M174.755 101.865C175.266 103.341 175.615 104.867 175.796 106.418C176.181 109.444 176.181 112.506 175.796 115.532C175.611 117.083 175.259 118.609 174.747 120.085C174.23 118.611 173.878 117.084 173.697 115.532C173.317 112.506 173.317 109.444 173.697 106.418C173.888 104.867 174.243 103.341 174.755 101.865Z" fill="#37474F"/>
<path d="M183.863 110.972C182.39 111.497 180.862 111.855 179.309 112.039C177.799 112.232 176.278 112.327 174.755 112.324C173.233 112.331 171.711 112.236 170.201 112.039C168.646 111.86 167.116 111.508 165.639 110.99C167.118 110.481 168.648 110.129 170.201 109.941C171.712 109.748 173.233 109.653 174.755 109.656C176.278 109.661 177.799 109.759 179.309 109.95C180.86 110.124 182.387 110.467 183.863 110.972Z" fill="#37474F"/>
<path d="M181.195 104.533C180.512 105.937 179.68 107.264 178.713 108.49C177.785 109.696 176.777 110.84 175.698 111.914C174.622 112.993 173.479 114.003 172.274 114.937C171.044 115.904 169.714 116.735 168.307 117.418C168.989 116.011 169.821 114.681 170.789 113.452C171.722 112.247 172.733 111.104 173.813 110.028C174.891 108.954 176.034 107.947 177.237 107.014C178.465 106.049 179.791 105.218 181.195 104.533Z" fill="#37474F"/>
<path d="M181.195 117.418C179.791 116.733 178.464 115.902 177.237 114.937C176.032 114.003 174.888 112.994 173.813 111.914C172.724 110.838 171.708 109.692 170.771 108.481C169.804 107.252 168.972 105.923 168.289 104.516C169.698 105.195 171.029 106.027 172.256 106.996C174.67 108.861 176.834 111.028 178.696 113.443C179.67 114.674 180.508 116.007 181.195 117.418Z" fill="#37474F"/>
<path d="M210.279 101.865C210.79 103.341 211.139 104.867 211.32 106.418C211.51 107.928 211.608 109.448 211.613 110.971C211.616 112.496 211.521 114.019 211.329 115.532C211.139 117.082 210.788 118.608 210.279 120.085C209.762 118.611 209.41 117.084 209.23 115.532C209.033 114.02 208.938 112.496 208.945 110.971C208.943 109.449 209.038 107.928 209.23 106.418C209.414 104.867 209.766 103.34 210.279 101.865Z" fill="#37474F"/>
<path d="M219.387 110.973C217.913 111.49 216.385 111.842 214.833 112.022C213.323 112.214 211.802 112.309 210.279 112.306C208.754 112.313 207.229 112.218 205.716 112.022C204.164 111.841 202.637 111.489 201.163 110.973C202.64 110.464 204.166 110.113 205.716 109.923C207.23 109.731 208.754 109.636 210.279 109.639C211.802 109.644 213.323 109.742 214.833 109.932C216.384 110.113 217.911 110.462 219.387 110.973Z" fill="#37474F"/>
<path d="M216.719 104.533C216.036 105.937 215.204 107.264 214.237 108.49C213.308 109.696 212.301 110.84 211.222 111.914C210.146 112.993 209.002 114.003 207.798 114.937C206.568 115.904 205.238 116.735 203.831 117.418C204.513 116.011 205.345 114.681 206.312 113.452C207.246 112.247 208.256 111.104 209.336 110.028C210.41 108.95 211.554 107.943 212.761 107.014C213.987 106.047 215.314 105.216 216.719 104.533Z" fill="#37474F"/>
<path d="M216.719 117.418C215.314 116.736 213.987 115.904 212.761 114.937C211.552 114.008 210.408 112.998 209.336 111.914C208.266 110.837 207.268 109.69 206.348 108.481C205.381 107.252 204.549 105.923 203.866 104.516C205.276 105.195 206.606 106.027 207.833 106.996C210.247 108.861 212.411 111.028 214.273 113.443C215.229 114.676 216.049 116.009 216.719 117.418Z" fill="#37474F"/>
<path d="M245.794 101.865C246.312 103.339 246.664 104.866 246.844 106.418C247.036 107.928 247.131 109.449 247.128 110.971C247.136 112.496 247.04 114.02 246.844 115.532C246.663 117.084 246.311 118.611 245.794 120.085C245.284 118.609 244.936 117.083 244.754 115.532C244.558 114.019 244.46 112.496 244.46 110.971C244.465 109.448 244.563 107.928 244.754 106.418C244.935 104.867 245.284 103.341 245.794 101.865Z" fill="#37474F"/>
<path d="M254.911 110.973C253.436 111.489 251.909 111.841 250.357 112.022C248.844 112.214 247.32 112.309 245.794 112.306C244.272 112.313 242.75 112.218 241.24 112.022C239.688 111.842 238.161 111.49 236.687 110.973C238.163 110.463 239.69 110.112 241.24 109.923C242.751 109.731 244.272 109.636 245.794 109.639C247.32 109.643 248.844 109.741 250.357 109.932C251.908 110.114 253.435 110.463 254.911 110.973Z" fill="#37474F"/>
<path d="M252.243 104.533C251.56 105.937 250.728 107.264 249.761 108.49C248.832 109.696 247.825 110.84 246.746 111.914C245.67 112.993 244.526 114.003 243.322 114.937C242.092 115.904 240.762 116.735 239.355 117.418C240.034 116.009 240.866 114.679 241.836 113.452C242.77 112.25 243.777 111.106 244.851 110.028C245.931 108.952 247.077 107.945 248.285 107.014C249.511 106.047 250.838 105.216 252.243 104.533Z" fill="#37474F"/>
<path d="M252.243 117.418C250.838 116.736 249.511 115.904 248.285 114.937C247.075 114.006 245.928 112.996 244.851 111.914C243.774 110.835 242.767 109.689 241.836 108.481C240.866 107.254 240.034 105.924 239.355 104.516C240.764 105.195 242.094 106.027 243.322 106.996C245.735 108.861 247.899 111.028 249.761 113.443C250.729 114.675 251.561 116.007 252.243 117.418Z" fill="#37474F"/>
<path d="M281.318 101.865C281.832 103.34 282.184 104.867 282.368 106.418C282.747 109.444 282.747 112.506 282.368 115.532C282.187 117.084 281.835 118.611 281.318 120.085C280.805 118.609 280.454 117.083 280.269 115.532C280.076 114.019 279.981 112.496 279.984 110.971C279.989 109.448 280.087 107.928 280.277 106.418C280.458 104.867 280.807 103.341 281.318 101.865Z" fill="#37474F"/>
<path d="M290.435 110.973C288.96 111.489 287.433 111.841 285.881 112.022C284.367 112.214 282.843 112.309 281.318 112.306C279.795 112.313 278.274 112.218 276.764 112.022C275.212 111.842 273.685 111.49 272.21 110.973C273.687 110.463 275.213 110.112 276.764 109.923C278.274 109.731 279.796 109.636 281.318 109.639C282.843 109.643 284.367 109.741 285.881 109.932C287.432 110.114 288.959 110.463 290.435 110.973Z" fill="#37474F"/>
<path d="M287.766 104.533C287.084 105.937 286.252 107.264 285.285 108.49C284.353 109.696 283.343 110.84 282.261 111.914C281.189 112.998 280.045 114.008 278.837 114.937C277.61 115.904 276.283 116.735 274.879 117.418C275.554 116.007 276.387 114.677 277.36 113.452C278.291 112.247 279.298 111.104 280.375 110.028C281.453 108.954 282.597 107.947 283.8 107.014C285.03 106.049 286.36 105.218 287.766 104.533Z" fill="#37474F"/>
<path d="M287.766 117.418C286.36 116.733 285.03 115.902 283.8 114.937C282.595 114.003 281.451 112.993 280.375 111.914C279.296 110.843 278.289 109.702 277.36 108.499C276.387 107.274 275.554 105.944 274.879 104.533C276.285 105.212 277.612 106.044 278.837 107.014C280.045 107.94 281.189 108.947 282.261 110.028C283.341 111.107 284.351 112.254 285.285 113.461C286.252 114.687 287.084 116.013 287.766 117.418Z" fill="#37474F"/>
<path d="M316.842 101.865C317.351 103.342 317.703 104.868 317.891 106.418C318.271 109.444 318.271 112.506 317.891 115.532C317.711 117.084 317.359 118.611 316.842 120.085C316.329 118.609 315.977 117.083 315.792 115.532C315.407 112.506 315.407 109.444 315.792 106.418C315.976 104.867 316.328 103.34 316.842 101.865Z" fill="#37474F"/>
<path d="M325.959 110.973C324.481 111.49 322.951 111.842 321.396 112.022C319.886 112.214 318.364 112.309 316.842 112.306C315.319 112.313 313.798 112.218 312.288 112.022C310.739 111.842 309.214 111.49 307.743 110.973C309.22 110.462 310.746 110.111 312.297 109.923C313.807 109.731 315.328 109.636 316.851 109.639C318.373 109.643 319.894 109.741 321.405 109.932C322.956 110.114 324.483 110.463 325.959 110.973Z" fill="#37474F"/>
<path d="M323.29 104.533C322.608 105.94 321.773 107.267 320.8 108.49C318.932 110.9 316.768 113.066 314.36 114.937C313.134 115.904 311.807 116.735 310.402 117.418C311.078 116.007 311.911 114.677 312.884 113.452C313.815 112.247 314.822 111.104 315.899 110.028C316.977 108.954 318.121 107.947 319.323 107.014C320.553 106.047 321.883 105.215 323.29 104.533Z" fill="#37474F"/>
<path d="M323.29 117.418C321.883 116.735 320.553 115.904 319.323 114.937C318.119 114.003 316.975 112.993 315.899 111.914C314.82 110.843 313.813 109.702 312.884 108.499C311.911 107.274 311.078 105.944 310.402 104.533C311.809 105.212 313.136 106.044 314.36 107.014C315.569 107.94 316.713 108.947 317.785 110.028C318.864 111.105 319.871 112.252 320.8 113.461C321.773 114.684 322.608 116.011 323.29 117.418Z" fill="#37474F"/>
<path d="M352.366 101.865C352.876 103.341 353.225 104.867 353.406 106.418C353.792 109.444 353.792 112.506 353.406 115.532C353.221 117.083 352.869 118.609 352.357 120.085C351.84 118.611 351.488 117.084 351.307 115.532C350.928 112.506 350.928 109.444 351.307 106.418C351.499 104.867 351.853 103.341 352.366 101.865Z" fill="#37474F"/>
<path d="M361.474 110.973C360 111.491 358.472 111.843 356.92 112.022C355.409 112.214 353.888 112.309 352.366 112.306C350.843 112.314 349.322 112.219 347.812 112.022C346.257 111.842 344.727 111.49 343.249 110.973C344.729 110.463 346.258 110.112 347.812 109.923C349.322 109.731 350.843 109.636 352.366 109.639C353.888 109.643 355.409 109.741 356.92 109.932C358.471 110.112 359.998 110.461 361.474 110.973Z" fill="#37474F"/>
<path d="M358.805 104.533C358.129 105.941 357.297 107.269 356.324 108.49C355.397 109.698 354.39 110.842 353.309 111.914C352.233 112.993 351.089 114.003 349.884 114.937C348.657 115.902 347.33 116.733 345.926 117.418C346.602 116.009 347.432 114.679 348.399 113.452C350.27 111.044 352.437 108.882 354.847 107.014C356.075 106.049 357.402 105.218 358.805 104.533Z" fill="#37474F"/>
<path d="M358.805 117.418C357.402 116.733 356.075 115.902 354.847 114.937C352.442 113.063 350.277 110.901 348.399 108.499C347.432 107.272 346.602 105.942 345.926 104.533C347.332 105.214 348.659 106.046 349.884 107.014C351.089 107.945 352.233 108.952 353.309 110.028C354.388 111.105 355.395 112.252 356.324 113.461C357.297 114.682 358.129 116.01 358.805 117.418Z" fill="#37474F"/>
<path d="M327.729 102.934V151.36H314.04V102.934C314.04 84.5188 300.05 69.5447 282.839 69.5447C265.629 69.5447 251.638 84.5188 251.638 102.934V151.36H237.949V102.934C237.949 76.5605 258.086 55.1309 282.839 55.1309C307.592 55.1309 327.729 76.5605 327.729 102.934Z" fill="#455A64"/>
<path d="M237.949 115.525L251.638 116.077V151.36H237.949V115.525Z" fill="#263238"/>
<path d="M327.729 119.179V151.359H314.04V118.619L327.729 119.179Z" fill="#263238"/>
<path d="M345.277 123.785H220.41V237.042H345.277V123.785Z" fill="#D413AF"/>
<path opacity="0.1" d="M345.268 123.785H282.839V237.042H345.268V123.785Z" fill="black"/>
<path d="M288.122 184.561L293.343 209.343H271.161L276.391 184.561C274.346 183.287 272.771 181.382 271.906 179.134C271.04 176.886 270.93 174.417 271.593 172.101C272.256 169.785 273.655 167.748 275.579 166.297C277.503 164.847 279.847 164.063 282.257 164.062C284.666 164.063 287.01 164.847 288.934 166.297C290.858 167.748 292.257 169.785 292.92 172.101C293.583 174.417 293.473 176.886 292.607 179.134C291.742 181.382 290.167 183.287 288.122 184.561Z" fill="#263238"/>
<path d="M246.568 184.516C246.568 184.516 240.04 236.766 229.313 248.539C216.434 262.641 207.077 260.578 201.883 267.852C196.689 260.569 187.341 262.641 174.444 248.53C163.718 236.766 157.198 184.507 157.198 184.507C185.464 170.796 201.901 155.422 201.901 155.422C202.39 155.902 218.738 171.018 246.568 184.516Z" fill="#EBEBEB"/>
<path d="M201.902 155.431V267.843C196.708 260.56 187.36 262.632 174.463 248.521C163.736 236.757 157.217 184.499 157.217 184.499C185.465 170.796 201.902 155.422 201.902 155.422V155.431Z" fill="#DBDBDB"/>
<path d="M239.639 188.731C239.639 188.731 234.125 232.862 225.062 242.803C214.166 254.736 206.268 252.984 201.874 259.129C197.48 252.984 189.582 254.736 178.695 242.803C169.632 232.862 164.127 188.731 164.127 188.731C188.008 177.171 201.874 164.145 201.874 164.145C201.874 164.145 215.758 177.136 239.639 188.731Z" fill="#DBDBDB"/>
<path d="M164.136 188.731C164.136 188.731 169.65 232.861 178.713 242.803C189.591 254.727 197.454 252.984 201.901 259.111V164.162C201.465 164.553 187.67 177.313 164.136 188.731Z" fill="#C7C7C7"/>
<path d="M214.26 224.013C221.096 217.179 221.096 206.099 214.26 199.265C207.424 192.431 196.341 192.431 189.505 199.265C182.67 206.099 182.67 217.179 189.505 224.013C196.341 230.847 207.424 230.847 214.26 224.013Z" fill="#D413AF"/>
<path d="M199.891 223.01L192.09 214.901L194.981 212.118L199.277 216.59L208.545 202.381L211.907 204.568L199.891 223.01Z" fill="white"/>
<path d="M141.497 272.051L143.573 261.421L267.775 285.67C268.91 285.891 269.91 286.554 270.555 287.513C271.201 288.471 271.439 289.647 271.217 290.781L270.812 292.858C270.59 293.992 269.927 294.992 268.968 295.637C268.009 296.283 266.833 296.521 265.699 296.299L141.497 272.051Z" fill="#D413AF"/>
<path opacity="0.1" d="M143.564 261.41L141.486 272.049L156.483 274.977L158.561 264.338L143.564 261.41Z" fill="black"/>
<path d="M96.0586 247.855L92.403 266.76C91.7845 269.929 91.7965 273.189 92.4382 276.353C93.0799 279.518 94.3388 282.525 96.143 285.203C97.9473 287.881 100.261 290.178 102.953 291.962C105.645 293.746 108.663 294.982 111.833 295.601C115.003 296.219 118.263 296.207 121.429 295.565C124.594 294.924 127.602 293.665 130.281 291.862C132.96 290.058 135.257 287.744 137.042 285.053C138.826 282.362 140.063 279.345 140.681 276.176L144.364 257.316C145.618 250.912 144.277 244.272 140.635 238.857C136.993 233.441 131.348 229.694 124.943 228.44C118.537 227.185 111.895 228.526 106.479 232.167C101.062 235.808 97.3135 241.451 96.0586 247.855ZM136.608 252.577C135.514 258.188 130.613 262.234 124.556 263.203C129.804 266.395 132.828 271.97 131.725 277.581C130.266 285.086 121.985 289.799 113.242 288.091C104.499 286.384 98.6201 278.906 100.088 271.41C101.182 265.799 106.082 261.753 112.148 260.74C106.892 257.565 103.877 251.972 104.971 246.361C106.438 238.848 114.701 234.153 123.435 235.86C132.169 237.567 138.111 245.072 136.643 252.577H136.608Z" fill="#D413AF"/>
<path d="M144.497 256.619L140.547 276.84C140.334 277.929 141.045 278.985 142.134 279.198L143.095 279.385C144.184 279.598 145.24 278.887 145.453 277.798L149.403 257.577C149.615 256.488 148.905 255.432 147.815 255.22L146.855 255.032C145.765 254.82 144.71 255.53 144.497 256.619Z" fill="#D413AF"/>
<path d="M149.403 257.578L145.453 277.799C145.24 278.888 145.951 279.944 147.041 280.157L148.001 280.344C149.091 280.557 150.146 279.846 150.359 278.757L154.309 258.536C154.522 257.447 153.811 256.391 152.721 256.179L151.761 255.991C150.672 255.779 149.616 256.489 149.403 257.578Z" fill="#D413AF"/>
<path d="M238.092 275.313L241.792 276.034L243.882 265.292L247.048 265.906L245.954 271.508L249.646 272.228L250.74 266.626L253.541 267.168L251.807 276.025L255.507 276.754L257.241 267.898L261.208 268.671L258.904 280.497L262.605 281.218L264.917 269.391L268.67 270.129L265.718 285.246L232.666 278.79L235.61 263.674L240.182 264.563L238.092 275.313Z" fill="#D413AF"/>
<path d="M365.556 219.941L341.319 239.504C336.667 243.221 332.656 246.564 330.744 248.494C330.25 248.899 329.852 249.41 329.579 249.987C329.579 249.987 329.579 249.987 329.579 250.041C329.748 252.166 358.387 290.197 359.819 291.184C361.251 292.171 364.204 288.134 364.266 285.778C364.329 283.421 359.882 263.948 359.882 263.948L383.896 244.154L365.556 219.941Z" fill="#C95F50"/>
<path d="M346.264 235.512L341.292 239.522C336.641 243.239 332.629 246.582 330.717 248.512C330.271 248.962 329.88 249.463 329.552 250.006C329.552 250.006 329.552 250.006 329.552 250.059C329.721 252.184 358.361 290.215 359.793 291.202C361.225 292.189 364.177 288.152 364.24 285.796C364.302 283.439 359.855 263.966 359.855 263.966L364.96 259.956L346.264 235.512Z" fill="#EBEBEB"/>
<path d="M359.766 291.23C358.316 290.243 329.685 252.221 329.525 250.078C329.445 249.269 334.746 244.743 341.301 239.532L341.515 239.363L360.22 263.692L359.802 263.994C359.802 263.994 364.249 283.45 364.186 285.824C364.124 288.198 361.207 292.226 359.766 291.23Z" fill="#D413AF"/>
<path d="M360.913 289.691C356.244 283.164 336.801 257.28 331.687 251.18C331.687 251.127 331.615 251.18 331.687 251.18C336.134 257.751 355.826 283.484 360.851 289.744C360.922 289.878 361.02 289.878 360.913 289.691Z" fill="#263238"/>
<path d="M361.305 266.109C359.873 263.237 357.169 260.436 353.913 259.885C353.789 259.885 353.762 260.036 353.851 260.107C356.439 261.921 358.825 264.008 360.967 266.331C360.999 266.368 361.044 266.391 361.093 266.398C361.141 266.404 361.19 266.393 361.231 266.366C361.272 266.339 361.302 266.298 361.316 266.251C361.329 266.204 361.325 266.154 361.305 266.109Z" fill="#263238"/>
<path d="M361.58 268.76C360.148 265.879 357.436 263.086 354.189 262.535C354.065 262.535 354.038 262.695 354.118 262.757C356.706 264.572 359.091 266.659 361.233 268.982C361.248 269.005 361.267 269.024 361.289 269.04C361.311 269.055 361.336 269.066 361.363 269.072C361.389 269.078 361.417 269.078 361.443 269.073C361.47 269.069 361.495 269.059 361.518 269.044C361.541 269.029 361.561 269.011 361.576 268.988C361.591 268.966 361.602 268.941 361.608 268.915C361.614 268.888 361.614 268.861 361.61 268.834C361.605 268.808 361.595 268.782 361.58 268.76Z" fill="#263238"/>
<path d="M361.847 271.4C360.424 268.528 357.711 265.736 354.465 265.176C354.34 265.176 354.305 265.336 354.394 265.398C356.98 267.215 359.365 269.301 361.509 271.622C361.524 271.645 361.543 271.664 361.565 271.679C361.587 271.694 361.611 271.704 361.637 271.709C361.663 271.715 361.69 271.715 361.716 271.71C361.742 271.705 361.767 271.695 361.789 271.68C361.812 271.666 361.831 271.647 361.846 271.625C361.861 271.603 361.871 271.578 361.876 271.552C361.882 271.526 361.882 271.499 361.877 271.473C361.872 271.447 361.862 271.422 361.847 271.4Z" fill="#263238"/>
<path d="M378.631 196.628C376.914 205.102 341.755 238.9 341.755 238.9L366.268 267.186C366.268 267.186 416.182 217.39 413.576 198.655C411.308 182.374 386.893 116.902 386.893 116.902H358.805C358.805 116.902 380.312 188.296 378.631 196.628Z" fill="#37474F"/>
<path d="M378.631 196.628C376.914 205.102 341.755 238.9 341.755 238.9L366.268 267.186C366.268 267.186 416.182 217.39 413.576 198.655C411.308 182.374 386.893 116.902 386.893 116.902H358.805C358.805 116.902 380.312 188.296 378.631 196.628Z" fill="#37474F"/>
<path d="M369.052 260.463C365.796 256.408 366.792 257.529 363.493 253.51C361.874 251.545 351.245 238.642 349.413 237.068C349.413 237.068 349.306 237.068 349.333 237.14C350.56 239.211 361.411 251.927 363.066 253.865C366.446 257.813 365.521 256.649 368.936 260.561C369.007 260.632 369.114 260.534 369.052 260.463Z" fill="#263238"/>
<path d="M382.126 192.501C381.717 190.385 381.237 188.278 380.819 186.17C379.9 181.867 378.93 177.578 377.91 173.304C375.882 164.821 373.68 156.385 371.302 147.997C368.909 139.585 366.374 131.182 363.448 122.931C363.092 121.908 362.719 120.894 362.345 119.881C362.345 119.864 362.339 119.848 362.327 119.837C362.315 119.825 362.3 119.818 362.283 119.818C362.267 119.818 362.251 119.825 362.239 119.837C362.227 119.848 362.221 119.864 362.221 119.881C364.756 128.15 367.362 136.393 369.728 144.698C372.093 153.003 374.273 161.308 376.336 169.667C377.368 173.864 378.328 178.079 379.271 182.293C379.734 184.365 380.161 186.446 380.623 188.518C381.172 190.626 381.568 192.772 381.806 194.938C381.87 196.99 381.292 199.01 380.152 200.717C379.093 202.443 377.857 204.061 376.656 205.688C374.255 208.943 351.361 234.454 350.623 235.147C350.56 235.201 350.623 235.281 350.712 235.227C353.78 232.471 373.205 211.45 375.669 208.196C376.896 206.586 378.079 204.959 379.227 203.305C380.395 201.812 381.336 200.155 382.02 198.388C382.56 196.467 382.597 194.44 382.126 192.501Z" fill="#263238"/>
<path d="M382.064 116.902L376.959 183.903C372.085 160.971 358.805 116.902 358.805 116.902H382.064Z" fill="#263238"/>
<path d="M428.243 301.588C426.58 302.121 378.969 301.383 377.181 300.21C376.891 299.642 376.733 299.015 376.719 298.378C376.714 298.36 376.714 298.342 376.719 298.324C376.372 295.657 376.203 290.428 376.114 284.471L375.064 279.322H405.581L406.772 284.853C406.772 284.853 424.872 293.292 426.713 294.794C428.555 296.297 429.924 301.063 428.243 301.588Z" fill="#EBEBEB"/>
<path d="M428.243 301.589C426.571 302.123 378.969 301.385 377.181 300.211C376.487 299.775 376.194 292.831 376.078 284.437V284.17L406.79 284.303V284.828C406.79 284.828 424.881 293.257 426.713 294.76C428.546 296.263 429.915 301.065 428.243 301.589Z" fill="#D413AF"/>
<path d="M427.736 299.74C419.731 299.42 387.329 298.851 379.378 299.171C379.316 299.171 379.316 299.215 379.378 299.224C387.32 299.713 419.705 299.989 427.736 299.873C427.905 299.864 427.905 299.749 427.736 299.74Z" fill="#263238"/>
<path d="M409.352 284.961C406.203 284.32 402.334 284.747 399.879 286.961C399.79 287.041 399.879 287.175 400.013 287.148C403.047 286.222 406.172 285.626 409.334 285.37C409.361 285.371 409.388 285.367 409.413 285.357C409.438 285.348 409.461 285.334 409.481 285.316C409.501 285.298 409.517 285.276 409.528 285.252C409.54 285.227 409.546 285.201 409.547 285.174C409.549 285.147 409.544 285.12 409.535 285.095C409.526 285.07 409.512 285.047 409.494 285.027C409.476 285.007 409.454 284.991 409.429 284.98C409.405 284.968 409.379 284.962 409.352 284.961Z" fill="#263238"/>
<path d="M411.602 286.365C408.462 285.725 404.584 286.151 402.138 288.366C402.049 288.455 402.138 288.588 402.272 288.552C405.303 287.627 408.425 287.031 411.584 286.774C411.638 286.776 411.691 286.757 411.731 286.72C411.771 286.684 411.795 286.633 411.798 286.578C411.8 286.524 411.781 286.471 411.744 286.431C411.707 286.391 411.656 286.367 411.602 286.365Z" fill="#263238"/>
<path d="M413.861 287.779C410.713 287.139 406.844 287.566 404.398 289.771C404.3 289.86 404.398 289.993 404.531 289.967C407.563 289.046 410.685 288.45 413.843 288.188C413.87 288.189 413.897 288.185 413.922 288.176C413.948 288.167 413.971 288.153 413.991 288.135C414.01 288.116 414.026 288.094 414.038 288.07C414.049 288.046 414.056 288.019 414.057 287.993C414.058 287.966 414.054 287.939 414.045 287.914C414.035 287.888 414.021 287.865 414.003 287.845C413.985 287.825 413.963 287.809 413.939 287.798C413.914 287.787 413.888 287.78 413.861 287.779Z" fill="#263238"/>
<path d="M384.234 116.902C383.139 121.525 382.331 126.211 381.815 130.934C381.237 136.82 380.499 142.031 379.716 142.68C378.933 143.329 374.379 146.237 372.885 147.126C372.885 147.126 386.742 189.132 390.318 203.146C395.503 223.437 407.92 284.338 407.92 284.338H374.833C374.833 284.338 364.774 226.371 360.371 207.04C356.6 190.475 342.155 140.777 342.155 140.777C340.631 136.946 339.947 132.832 340.148 128.714C340.349 124.595 341.431 120.568 343.32 116.902C343.32 116.902 384.234 116.885 384.234 116.902Z" fill="#37474F"/>
<path d="M406.71 277.936C401.507 277.936 403.001 277.847 397.816 277.874C395.272 277.874 378.551 277.999 376.185 278.434C376.171 278.434 376.157 278.44 376.147 278.45C376.137 278.46 376.131 278.474 376.131 278.488C376.131 278.502 376.137 278.515 376.147 278.525C376.157 278.535 376.171 278.541 376.185 278.541C378.569 278.897 395.281 278.488 397.825 278.425C403.028 278.292 401.534 278.274 406.719 278.088C406.734 278.081 406.748 278.07 406.756 278.056C406.765 278.042 406.77 278.025 406.769 278.009C406.768 277.992 406.761 277.976 406.751 277.963C406.74 277.95 406.726 277.941 406.71 277.936Z" fill="#263238"/>
<path d="M382.037 141.017C378.824 142.785 375.771 144.829 372.912 147.126C372.894 147.145 372.884 147.169 372.882 147.195C372.88 147.221 372.887 147.246 372.901 147.268C372.915 147.289 372.936 147.305 372.961 147.313C372.985 147.321 373.012 147.321 373.036 147.312C376.131 145.374 379.262 143.489 382.277 141.381C382.314 141.345 382.338 141.298 382.343 141.246C382.349 141.195 382.336 141.143 382.308 141.1C382.279 141.057 382.237 141.025 382.188 141.01C382.138 140.995 382.085 140.997 382.037 141.017Z" fill="#263238"/>
<path d="M379.511 118.165C379.511 118.05 379.28 118.059 379.298 118.165C379.874 121.863 380.263 125.588 380.463 129.325C380.579 131.05 380.668 140.698 377.599 140.466C377.083 140.466 376.71 139.986 376.558 139.248C376.42 138.27 376.402 137.279 376.505 136.296C376.505 134.269 376.505 132.25 376.345 130.223C376.109 126.479 375.489 122.77 374.495 119.152C374.495 119.126 374.485 119.102 374.466 119.083C374.448 119.065 374.423 119.055 374.397 119.055C374.371 119.055 374.346 119.065 374.328 119.083C374.31 119.102 374.299 119.126 374.299 119.152C375.187 124.289 375.687 129.484 375.793 134.696C375.793 137.212 375.144 141.098 377.768 141.071C380.392 141.044 381.175 134.598 381.228 132.864C381.294 127.911 380.717 122.97 379.511 118.165Z" fill="#263238"/>
<path d="M377.715 140.733C377.551 141.409 377.433 142.096 377.359 142.787C377.261 143.334 377.261 143.894 377.359 144.441C377.368 144.462 377.382 144.48 377.401 144.493C377.42 144.506 377.443 144.512 377.466 144.512C377.488 144.512 377.511 144.506 377.53 144.493C377.549 144.48 377.563 144.462 377.572 144.441C377.81 143.912 377.961 143.347 378.017 142.769C378.15 142.129 378.293 141.498 378.408 140.849C378.424 140.757 378.402 140.663 378.348 140.587C378.293 140.511 378.211 140.46 378.119 140.444C378.027 140.429 377.933 140.451 377.857 140.505C377.781 140.559 377.73 140.641 377.715 140.733Z" fill="#263238"/>
<path d="M346.878 140.564C349.728 140.406 352.545 139.873 355.256 138.981C358.335 137.998 361.126 136.276 363.386 133.966C364.665 132.697 365.72 131.221 366.508 129.6C366.508 129.538 366.632 129.6 366.615 129.654C366.131 131.223 365.385 132.699 364.409 134.02C363.398 135.327 362.199 136.478 360.851 137.434C358.183 139.39 355.043 140.602 351.752 140.946C350.129 141.199 348.475 141.174 346.86 140.875C346.602 140.84 346.673 140.582 346.878 140.564Z" fill="#263238"/>
<path d="M370.964 259.706C370.884 258.942 370.777 258.177 370.67 257.412C370.466 255.954 370.217 254.487 369.985 253.029C369.541 250.085 369.034 247.151 368.509 244.226C367.477 238.383 366.277 232.559 365.014 226.762C364.293 223.489 363.466 220.253 362.585 216.981C362.532 216.749 362.212 216.865 362.247 217.078C362.781 220.048 363.297 223.009 363.902 225.97C364.507 228.931 365.111 231.848 365.681 234.791C366.837 240.606 367.913 246.449 369.069 252.264C369.39 253.909 369.692 255.554 370.012 257.199C370.172 258.017 370.332 258.844 370.51 259.653C370.688 260.462 370.937 261.271 371.071 262.089C371.071 262.169 371.204 262.134 371.195 262.089C371.071 261.298 371.062 260.533 370.964 259.706Z" fill="#263238"/>
<path d="M393.787 215.755C392.684 210.268 391.198 204.853 389.704 199.456C386.698 188.607 383.158 177.91 379.627 167.213C378.607 164.137 377.587 161.057 376.567 157.975C376.06 156.436 373.57 148.122 373.259 147.304C373.254 147.291 373.244 147.279 373.233 147.271C373.221 147.262 373.206 147.258 373.192 147.258C373.177 147.258 373.163 147.262 373.151 147.271C373.139 147.279 373.13 147.291 373.125 147.304C373.846 150.132 374.824 154.258 375.651 157.085C376.478 159.913 377.359 162.607 378.222 165.355C379.912 170.77 381.628 176.185 383.265 181.609C386.511 192.342 389.731 203.075 392.364 213.976C393.102 217.035 393.84 220.085 394.507 223.153C395.174 226.22 395.761 229.297 396.402 232.365C396.402 232.454 396.562 232.427 396.553 232.365C396.001 226.798 394.907 221.268 393.787 215.755Z" fill="#263238"/>
<path d="M373.214 244.466C371.391 234 369.212 223.587 366.792 213.237C364.373 202.887 361.66 192.501 358.681 182.249C355.701 171.996 352.401 161.797 348.897 151.749C347.112 147.009 345.612 142.166 344.405 137.247C343.311 132.356 342.76 127.065 343.898 122.13C344.176 120.878 344.554 119.65 345.028 118.458C345.028 118.378 344.939 118.307 344.904 118.387C340.928 127.661 343.507 137.798 346.54 146.939C348.194 151.945 349.964 156.916 351.61 161.931C353.255 166.946 354.892 172.245 356.439 177.438C359.49 187.726 362.328 198.076 364.862 208.498C367.397 218.919 369.665 229.412 371.658 239.958C373.65 250.503 375.331 261.165 377.039 271.791C377.261 273.178 377.43 274.565 377.617 275.952C377.617 276.032 377.741 276.032 377.732 275.952C376.416 265.415 375.029 254.923 373.214 244.466Z" fill="#263238"/>
<path d="M372.538 72.9849C376.434 87.2121 387.659 104.374 392.995 106.774C397.638 108.837 419.18 100.87 427.309 95.695C429.622 94.2189 420.061 80.9077 417.277 81.8324C408.178 84.8646 398.278 89.3461 397.513 89.0883C395.966 88.5637 386.307 76.7196 379.271 68.7524C371.382 59.7981 370.991 67.3207 372.538 72.9849Z" fill="#C95F50"/>
<path d="M442.67 83.6278C444.502 82.8631 458.599 82.4185 458.599 79.3597C458.599 76.3008 440.651 77.1545 440.651 77.1545L442.67 83.6278Z" fill="#C95F50"/>
<path d="M415.631 83.9844C418.095 80.9255 420.265 77.6266 422.409 77.0219C423.885 76.604 439.85 77.2887 442.341 77.1375C444.831 76.9864 453.734 77.2176 453.903 79.405C454.197 82.4905 443.666 82.4638 442.545 84.0466C438.658 89.4974 423.867 97.5624 423.867 97.5624L415.631 83.9844Z" fill="#C95F50"/>
<path d="M454.179 79.4494C454.016 78.8815 453.653 78.3919 453.156 78.0711C451.99 77.4335 450.678 77.1116 449.349 77.1374C447.403 76.9626 445.446 76.9477 443.497 77.093C443.497 77.093 443.497 77.1552 443.497 77.1641C444.965 77.1641 446.414 77.1641 447.873 77.3242C449.211 77.374 450.539 77.5769 451.831 77.9288C452.411 78.0781 452.937 78.386 453.352 78.818C453.495 78.9806 453.594 79.1772 453.639 79.389C453.684 79.6007 453.674 79.8206 453.61 80.0273C453.192 81.37 450.532 81.8057 449.305 82.0458C447.704 82.4015 446.041 82.7127 444.431 83.0417C444.36 83.0417 444.431 83.1662 444.431 83.1484C446.103 82.8194 447.864 82.6949 449.545 82.3926C450.949 82.2556 452.295 81.7662 453.459 80.9699C453.712 80.8121 453.914 80.5849 454.042 80.3154C454.17 80.0458 454.217 79.7452 454.179 79.4494Z" fill="#263238"/>
<path d="M415.017 82.0991L427.647 100.585C427.647 100.585 408.08 110.367 400.591 110.215C393.475 110.047 390.887 108.997 388.637 106.872C387.24 105.556 379.316 94.3611 372.849 75.7502C367.424 60.1537 375.456 62.4123 382.633 71.0908C386.191 75.3945 397.611 88.2256 398.18 88.1812C398.75 88.1367 415.017 82.0991 415.017 82.0991Z" fill="#D413AF"/>
<path d="M411.131 85.1054C413.025 87.8441 414.84 90.6362 416.627 93.4461C417.517 94.8154 420.79 100.417 421.742 102.009C421.742 102.071 421.608 102.178 421.564 102.116C420.576 100.711 417.01 95.1178 416.147 93.7306C414.368 90.8941 412.687 88.0486 411.051 85.1588C411.047 85.1535 411.045 85.1476 411.043 85.1414C411.042 85.1352 411.042 85.1288 411.043 85.1226C411.045 85.1165 411.047 85.1106 411.051 85.1053C411.054 85.1001 411.059 85.0956 411.064 85.0921C411.069 85.0886 411.075 85.0861 411.081 85.0849C411.087 85.0837 411.094 85.0837 411.1 85.0849C411.106 85.0862 411.112 85.0886 411.117 85.0921C411.123 85.0956 411.127 85.1001 411.131 85.1054Z" fill="#263238"/>
<path opacity="0.1" d="M404.38 109.744C403.14 110.049 401.868 110.207 400.591 110.215C393.475 110.046 390.887 108.997 388.637 106.872C387.249 105.556 379.316 94.3696 372.858 75.7498C371.844 73.1721 371.243 70.4501 371.079 67.6848C371.079 67.5159 371.079 67.338 371.079 67.178C371.07 67.021 371.07 66.8637 371.079 66.7067C371.094 66.5783 371.114 66.4507 371.142 66.3243C371.232 65.744 371.507 65.208 371.924 64.7949C376.345 70.717 397.069 98.7 404.38 109.744Z" fill="black"/>
<path d="M450.746 74.5137H402.859V77.0834H450.746V74.5137Z" fill="#C7C7C7"/>
<path d="M450.746 74.5137V77.0834H421.661L423.627 74.5137H450.746Z" fill="#A6A6A6"/>
<path d="M425.744 77.0833H457.772L474.44 48.7891H442.412L425.744 77.0833Z" fill="#C7C7C7"/>
<path d="M448.896 62.9187C448.3 64.2258 448.736 65.5863 449.874 65.9953C450.511 66.1425 451.18 66.0554 451.758 65.7501C452.336 65.4448 452.785 64.9416 453.023 64.3325C453.619 63.0254 453.183 61.6649 452.044 61.2559C451.407 61.1106 450.739 61.1985 450.162 61.5036C449.584 61.8087 449.135 62.3108 448.896 62.9187Z" fill="white"/>
<path d="M340.234 126.647C340.35 126.772 390.371 126.416 390.825 125.9C391.447 125.171 379.6 71.1079 374.397 64.4656C373.285 63.0429 369.656 62.6872 366.579 63.0962C365.777 63.1958 364.985 63.3654 364.213 63.6031H364.133C363.508 63.7982 362.922 64.099 362.399 64.4923C353.905 71.4191 346.94 95.3918 345.33 102.585C342.662 114.447 339.816 126.176 340.234 126.647Z" fill="#EBEBEB"/>
<path d="M363.599 63.7285C363.599 63.7285 366.864 85.9584 367.637 91.756C368.411 97.5536 367.637 127.991 367.637 127.991L336.249 130.658C336.249 130.658 342.831 110.42 342.893 109.14C342.893 109.14 348.097 84.8203 353.469 74.7812C355.868 70.3082 359.351 66.5081 363.599 63.7285Z" fill="#D413AF"/>
<path d="M374.05 64.1191C374.05 64.1191 378.293 86.6336 378.666 88.492C379.04 90.3504 384.474 126.941 384.474 126.941L392.328 127.11L388.068 110.393C388.068 110.393 378.951 67.5781 374.05 64.1191Z" fill="#D413AF"/>
<path d="M372.28 71.3126C369.897 71.5883 365.378 68.2716 364.115 64.7593C364.035 64.5103 364.747 62.2251 365.476 59.4241C365.912 57.7079 366.366 55.7962 366.641 54.0178C366.695 53.6532 377.368 58.4638 377.368 58.4638C376.377 60.5838 375.651 62.8176 375.207 65.1149C375.185 65.3634 375.185 65.6134 375.207 65.8619V65.9864C375.171 67.418 374.842 71.0281 372.28 71.3126Z" fill="#C95F50"/>
<path d="M375.171 65.8808C375.175 65.9222 375.175 65.9639 375.171 66.0053C374.786 65.9915 374.402 65.9498 374.023 65.8808C367.486 64.6982 367.05 56.2063 367.042 54.0723C368.98 54.668 377.377 58.5183 377.377 58.5183C376.387 60.6417 375.661 62.8784 375.215 65.1783C375.185 65.4112 375.17 65.6459 375.171 65.8808Z" fill="#263238"/>
<path d="M366.766 39.8353C365.049 43.6588 365.707 55.3962 368.207 58.3039C371.835 62.5276 378.497 63.728 382.268 59.1931C385.924 54.8094 384.803 39.5241 381.939 36.8031C377.724 32.8017 369.292 34.1978 366.766 39.8353Z" fill="#C95F50"/>
<path d="M375.411 48.1504C375.411 48.1504 375.349 48.1504 375.358 48.2215C375.42 49.0129 375.358 49.9199 374.664 50.2222C374.664 50.2222 374.664 50.2756 374.664 50.2667C375.536 50.0977 375.598 48.9062 375.411 48.1504Z" fill="#263238"/>
<path d="M374.664 47.3574C373.392 47.3574 373.419 49.8828 374.602 49.9094C375.785 49.9361 375.731 47.3841 374.664 47.3574Z" fill="#263238"/>
<path d="M380.285 48.1055C380.285 48.1055 380.347 48.1499 380.347 48.1766C380.347 48.968 380.445 49.8839 381.166 50.1328C381.166 50.1328 381.166 50.1862 381.166 50.1773C380.285 50.0706 380.143 48.9057 380.285 48.1055Z" fill="#263238"/>
<path d="M380.979 47.2772C382.251 47.1617 382.384 49.7136 381.201 49.8204C380.018 49.9271 379.912 47.3662 380.979 47.2772Z" fill="#263238"/>
<path d="M373.641 46.2384C373.988 46.1406 374.29 45.9983 374.628 45.8738C374.994 45.7972 375.323 45.5999 375.562 45.3136C375.62 45.2106 375.643 45.0913 375.627 44.9741C375.611 44.857 375.557 44.7482 375.473 44.6645C375.278 44.5248 375.049 44.4396 374.81 44.4177C374.571 44.3959 374.33 44.4381 374.112 44.54C373.641 44.6859 373.241 45.0032 372.992 45.4292C372.946 45.527 372.929 45.6357 372.941 45.743C372.954 45.8502 372.997 45.9517 373.064 46.0359C373.132 46.1202 373.222 46.1838 373.324 46.2196C373.426 46.2553 373.536 46.2619 373.641 46.2384Z" fill="#263238"/>
<path d="M381.957 45.1258C381.612 45.0607 381.271 44.9776 380.934 44.8768C380.565 44.8359 380.219 44.6768 379.947 44.4233C379.874 44.3274 379.835 44.2103 379.835 44.0899C379.835 43.9694 379.874 43.8523 379.947 43.7564C380.127 43.5988 380.344 43.4912 380.578 43.4444C380.813 43.3976 381.055 43.4132 381.281 43.4897C381.761 43.5792 382.192 43.8418 382.491 44.2277C382.552 44.3185 382.586 44.4247 382.589 44.5341C382.592 44.6435 382.564 44.7515 382.508 44.8455C382.452 44.9396 382.371 45.0159 382.273 45.0655C382.176 45.1151 382.066 45.136 381.957 45.1258Z" fill="#263238"/>
<path d="M375.153 55.4673C375.34 55.6541 375.535 55.903 375.82 55.9297C376.129 55.9251 376.432 55.8522 376.71 55.7163C376.71 55.7163 376.754 55.7163 376.71 55.7608C376.596 55.9167 376.443 56.0394 376.267 56.116C376.09 56.1927 375.896 56.2205 375.704 56.1965C375.543 56.1579 375.397 56.0721 375.285 55.9502C375.172 55.8283 375.098 55.6757 375.073 55.5118C375.064 55.4584 375.117 55.4407 375.153 55.4673Z" fill="#263238"/>
<path d="M375.954 53.094C376.154 53.4013 376.415 53.6642 376.721 53.8661C377.027 54.0681 377.371 54.2048 377.733 54.2677C378.054 54.3165 378.381 54.3165 378.702 54.2677C378.764 54.277 378.827 54.277 378.889 54.2677H379.058C379.1 54.2599 379.139 54.2383 379.168 54.2061C379.197 54.1739 379.215 54.133 379.218 54.0899C379.222 54.0634 379.222 54.0363 379.218 54.0098V53.9387C379.218 53.3252 379.156 52.4004 379.156 52.4004C379.378 52.5071 380.525 53.005 380.499 52.6849C380.394 49.9386 380.012 47.2098 379.36 44.5399C379.36 44.521 379.353 44.5029 379.339 44.4896C379.326 44.4763 379.308 44.4688 379.289 44.4688C379.27 44.4688 379.252 44.4763 379.239 44.4896C379.225 44.5029 379.218 44.521 379.218 44.5399C379.298 47.0741 379.823 49.5816 379.947 52.1336C379.54 51.9501 379.109 51.8244 378.666 51.7602C378.577 51.7602 378.835 53.5386 378.809 53.8231C378.31 53.8805 377.805 53.8369 377.324 53.6948C376.842 53.5527 376.395 53.3151 376.007 52.9962C375.971 52.9784 375.909 53.0317 375.954 53.094Z" fill="#263238"/>
<path d="M378.373 54.0001C378.043 54.4354 377.608 54.7809 377.11 55.0049C376.827 55.1168 376.516 55.1385 376.22 55.0671C375.589 54.907 375.571 54.3291 375.678 53.8311C375.739 53.5662 375.832 53.3095 375.954 53.0664C376.64 53.6272 377.488 53.9543 378.373 54.0001Z" fill="#263238"/>
<path d="M377.119 55.0058C376.836 55.1177 376.525 55.1394 376.229 55.068C375.598 54.908 375.58 54.33 375.687 53.832C376.022 53.8398 376.345 53.9596 376.605 54.1723C376.865 54.385 377.045 54.6784 377.119 55.0058Z" fill="#FF9BBC"/>
<path d="M365.787 49.9812C365.787 49.9812 362.95 42.9388 363.92 39.3108C364.355 37.6658 366.819 36.91 366.819 36.91C366.753 36.2027 366.884 35.4907 367.198 34.8534C367.512 34.2161 367.997 33.6783 368.598 33.2999C370.884 31.7527 375.616 32.9531 375.616 32.9531C375.616 32.9531 379.458 28.9695 383.567 31.4681C387.676 33.9668 383.994 38.4839 383.994 38.4839C383.994 38.4839 385.239 41.0359 380.997 42.1829C376.754 43.33 369.31 40.3067 369.31 40.3067C369.231 43.0668 368.743 45.7999 367.86 48.4162C367.689 48.8408 367.406 49.2108 367.041 49.4866C366.676 49.7623 366.243 49.9333 365.787 49.9812Z" fill="#263238"/>
<path d="M376.398 33.1223C375.479 32.5655 374.456 32.1995 373.392 32.0464C372.447 31.8908 371.482 31.8908 370.537 32.0464C369.693 32.146 368.892 32.4722 368.218 32.9904C367.545 33.5086 367.025 34.1995 366.712 34.9896C366.578 35.4054 366.528 35.844 366.566 36.2793C366.605 36.7146 366.73 37.1378 366.935 37.5238C366.935 37.5238 366.997 37.5238 366.979 37.5238C366.17 36.0922 366.979 34.2249 368.242 33.3446C369.713 32.4366 371.465 32.0953 373.17 32.3843C374.263 32.5504 375.333 32.849 376.354 33.2735C376.364 33.2764 376.374 33.2773 376.384 33.2762C376.395 33.2751 376.405 33.272 376.414 33.2671C376.423 33.2621 376.431 33.2554 376.437 33.2474C376.444 33.2393 376.449 33.23 376.452 33.2201C376.455 33.2102 376.456 33.1998 376.454 33.1895C376.453 33.1792 376.45 33.1692 376.445 33.1602C376.44 33.1511 376.434 33.1431 376.426 33.1366C376.418 33.1301 376.408 33.1252 376.398 33.1223Z" fill="#263238"/>
<path d="M386.396 34.0825C386.289 33.4658 386.031 32.8852 385.645 32.3931C385.258 31.901 384.755 31.5129 384.181 31.2637C382.884 30.6195 381.408 30.4315 379.992 30.7302C378.568 31.0341 377.25 31.7125 376.176 32.6953C376.176 32.6953 376.176 32.7576 376.176 32.6953C377.139 31.8317 378.318 31.2437 379.587 30.9934C380.857 30.743 382.17 30.8395 383.389 31.2726C383.957 31.4252 384.478 31.716 384.906 32.1192C385.334 32.5223 385.655 33.0251 385.841 33.5827C386.027 34.1402 386.071 34.7352 385.971 35.3143C385.871 35.8934 385.629 36.4386 385.266 36.9012C384.414 37.9862 383.274 38.809 381.975 39.2754C381.975 39.2754 381.975 39.3376 381.975 39.3198C383.191 38.9522 384.295 38.2857 385.186 37.3814C385.61 36.9488 385.938 36.4309 386.146 35.8621C386.355 35.2933 386.44 34.6867 386.396 34.0825Z" fill="#263238"/>
<path d="M368.473 49.6795C368.473 49.6795 366.268 45.687 364.48 46.4429C362.692 47.1987 364.08 52.7828 365.983 53.7343C366.22 53.8717 366.481 53.9601 366.753 53.9941C367.024 54.0282 367.3 54.0073 367.563 53.9326C367.826 53.8579 368.071 53.731 368.284 53.5594C368.497 53.3878 368.674 53.1751 368.803 52.934L368.473 49.6795Z" fill="#C95F50"/>
<path d="M364.916 48.0156C364.916 48.0156 364.916 48.0156 364.916 48.069C365.52 48.4518 366.037 48.9578 366.432 49.5538C366.828 50.1498 367.093 50.8225 367.211 51.5279C367.144 51.3813 367.047 51.2506 366.925 51.1449C366.804 51.0391 366.661 50.9608 366.507 50.9153C366.352 50.8697 366.19 50.8579 366.03 50.8808C365.871 50.9037 365.718 50.9606 365.583 51.0478C365.583 51.0478 365.583 51.1367 365.583 51.1278C365.836 51.0756 366.1 51.1032 366.337 51.2066C366.574 51.3101 366.774 51.4845 366.908 51.7058C367.122 52.0798 367.3 52.4727 367.442 52.8795C367.495 53.0129 367.726 52.9684 367.691 52.8173C367.913 51.0389 366.801 48.4158 364.916 48.0156Z" fill="#263238"/>
<path d="M357.293 68.8505C344.699 82.9887 335.226 102.898 335.315 107.593C335.44 112.75 342.004 130.916 348.257 139.453C349.066 140.546 353.94 140.084 358.04 137.817C362.39 135.425 365.956 131.157 365.102 129.885C361.892 125.11 354.287 106.615 354.358 103.725C354.42 101.057 360.655 84.6782 363.03 75.2083C365.352 66.094 363.155 62.2438 357.293 68.8505Z" fill="#C95F50"/>
<path d="M340.652 138.039L364.106 126.587C364.106 126.587 354.883 106.011 354.883 103.788C354.883 101.565 360.949 84.1719 363.235 76.1335C365.52 68.0952 364.64 59.061 354.625 71.2163C344.61 83.3716 335.858 101.449 334.862 106.251C333.866 111.052 340.652 138.039 340.652 138.039Z" fill="#D413AF"/>
<path d="M356.057 97.8826C356.537 96.3591 357.035 94.8386 357.551 93.321C358.129 91.6226 358.725 89.9332 359.33 88.2526C359.935 86.572 360.62 85.007 361.278 83.3887C361.278 83.2731 361.527 83.3887 361.491 83.4687C360.709 85.6294 359.979 87.8169 359.25 90.0043C359.801 89.0084 360.353 88.0214 360.94 87.0433C360.952 87.032 360.968 87.0248 360.984 87.0227C361.001 87.0205 361.017 87.0236 361.032 87.0314C361.047 87.0393 361.058 87.0514 361.066 87.0663C361.073 87.0812 361.076 87.098 361.073 87.1144C360.415 88.3237 359.721 89.5063 359.019 90.6712C358.85 91.1958 358.672 91.7293 358.494 92.254C357.507 95.1883 356.564 98.1404 355.719 101.146C355.509 101.811 355.369 102.497 355.301 103.191C355.265 103.983 355.383 104.774 355.648 105.521C356.075 106.899 356.537 108.26 357.035 109.611C358.014 112.341 359.081 115.026 360.193 117.694C361.465 120.735 362.914 123.732 364.355 126.693C364.355 126.693 363.466 126.924 363.466 126.942C363.466 126.959 363.395 126.942 363.413 126.897C363.43 126.853 363.964 126.604 363.982 126.604C362.514 124.043 361.118 121.526 359.882 118.832C358.645 116.138 357.569 113.497 356.582 110.705C356.075 109.282 355.586 107.859 355.141 106.419C354.636 105.083 354.498 103.637 354.741 102.231C355.07 100.755 355.603 99.3142 356.057 97.8826Z" fill="#263238"/>
<path d="M340.252 131.432C341.083 130.983 341.938 130.579 342.813 130.223C343.578 129.867 344.334 129.503 345.108 129.156C346.78 128.4 348.452 127.635 350.133 126.889C351.814 126.142 353.487 125.386 355.168 124.657C356.849 123.927 358.503 123.145 360.211 122.514C360.273 122.514 360.317 122.585 360.264 122.62C358.707 123.581 357.044 124.399 355.408 125.19C353.771 125.982 352.161 126.746 350.516 127.484C348.87 128.222 347.145 128.943 345.446 129.627C344.628 129.956 343.801 130.259 342.965 130.57C342.097 130.945 341.205 131.262 340.296 131.521C340.286 131.522 340.275 131.52 340.265 131.515C340.256 131.51 340.248 131.502 340.244 131.492C340.239 131.482 340.237 131.472 340.239 131.461C340.24 131.45 340.245 131.44 340.252 131.432Z" fill="#263238"/>
</svg>
