<svg width="317" height="181" viewBox="0 0 317 181" fill="none" xmlns="http://www.w3.org/2000/svg">
<path d="M15.9429 107.732C12.7408 101.153 7.13842 97.7753 0.82443 99.6444C-5.48956 101.514 -6.46672 110.313 -1.75629 112.538C2.95415 114.763 7.6746 108.269 10.1802 106.936C12.6857 105.603 15.9429 107.732 15.9429 107.732Z" fill="#D413AF"/>
<path d="M19.0398 125.237C19.0398 124.445 18.9947 123.649 18.9646 122.857C18.9112 121.273 18.8544 119.69 18.7943 118.106C18.699 115.215 18.3783 112.379 17.1957 109.703C16.1363 107.282 14.3659 105.241 12.1195 103.85C11.2814 103.338 10.3755 102.947 9.42851 102.687C8.57874 101.824 7.49537 101.229 6.3116 100.973C4.84961 100.676 3.3467 100.639 1.87177 100.863C1.86292 100.866 1.85525 100.872 1.84983 100.88C1.8444 100.887 1.84149 100.896 1.84149 100.906C1.84149 100.915 1.8444 100.924 1.84983 100.932C1.85525 100.939 1.86292 100.945 1.87177 100.948C3.27723 100.765 4.70511 100.866 6.07107 101.244C6.65669 101.406 7.22422 101.628 7.76482 101.905C8.11397 102.087 8.44898 102.295 8.76704 102.527C7.02748 102.142 5.21116 102.308 3.57053 103.003C3.22502 102.928 2.87138 102.898 2.5182 102.913C2.0564 102.927 1.59763 102.993 1.15017 103.108C0.236737 103.366 -0.636745 103.749 -1.44558 104.246C-1.49068 104.271 -1.44558 104.341 -1.40048 104.316C-0.605301 103.881 0.246364 103.559 1.13012 103.359C1.55911 103.263 1.9946 103.199 2.43301 103.168C2.67707 103.162 2.92127 103.169 3.16463 103.188C1.3672 104.02 -0.077765 105.462 -0.914405 107.257C-0.914405 107.307 -0.864295 107.347 -0.84425 107.297C-0.346098 106.256 0.380208 105.341 1.28071 104.619C2.18122 103.897 3.23277 103.388 4.35727 103.128C4.49758 103.093 4.6379 103.073 4.78322 103.048C4.73218 103.259 4.6937 103.473 4.66796 103.689C4.62787 104.01 4.57275 104.326 4.50761 104.641C4.38061 105.294 4.21326 105.939 4.0065 106.571C3.79166 107.208 3.53555 107.831 3.2398 108.435C2.95699 109.076 2.59867 109.682 2.17243 110.239C2.13234 110.284 2.20751 110.339 2.23758 110.289C2.61842 109.693 3.0594 109.146 3.40517 108.53C3.74137 107.942 4.03122 107.329 4.27208 106.696C4.51379 106.056 4.70153 105.398 4.83333 104.727C4.90348 104.371 4.95861 104.015 4.9987 103.654C5.04197 103.44 5.05546 103.221 5.03878 103.003C5.78173 102.888 6.53644 102.872 7.28376 102.953C7.00313 104.526 6.70247 106.16 5.82052 107.523C5.79045 107.568 5.87062 107.613 5.89568 107.563C6.30653 106.84 6.66815 106.09 6.97808 105.318C7.27007 104.57 7.45236 103.783 7.51928 102.983C8.82353 103.156 10.0824 103.578 11.2275 104.226C13.3839 105.48 15.1059 107.363 16.1634 109.622C17.274 112.057 17.8955 114.686 17.9925 117.36C18.2029 120.727 18.248 124.11 18.5838 127.462C18.5838 127.682 18.9496 127.758 18.9947 127.507C19.0813 126.754 19.0964 125.993 19.0398 125.237Z" fill="#263238"/>
<path d="M11.6433 103.328C11.4304 103.073 11.1843 102.847 10.9117 102.657C10.6511 102.441 10.3805 102.231 10.0999 102.04C9.54645 101.654 8.93135 101.364 8.28084 101.184C8.23073 101.184 8.21068 101.254 8.28084 101.264C8.93103 101.441 9.53581 101.756 10.0548 102.186C10.3254 102.381 10.5559 102.592 10.8315 102.812C11.0533 103.046 11.3004 103.254 11.5681 103.434C11.5821 103.444 11.5994 103.448 11.6163 103.445C11.6332 103.442 11.6484 103.432 11.6583 103.419C11.6683 103.405 11.6723 103.387 11.6695 103.37C11.6667 103.353 11.6572 103.338 11.6433 103.328Z" fill="#263238"/>
<path d="M1.42575 105.693C0.89526 106.309 0.404835 106.959 -0.0424981 107.638C-0.482628 108.318 -0.848843 109.044 -1.13492 109.802C-1.13492 109.828 -1.13492 109.838 -1.09984 109.802C-0.367619 108.37 0.498126 107.009 1.48589 105.738C1.52097 105.733 1.45582 105.693 1.42575 105.693Z" fill="#263238"/>
<path d="M8.31108 105.062C8.2437 105.474 8.12239 105.875 7.95028 106.255C7.77394 106.621 7.56955 106.973 7.33893 107.307C7.33893 107.307 7.33893 107.352 7.37902 107.337C7.92828 106.701 8.27699 105.916 8.38124 105.082C8.40128 105.032 8.3211 105.012 8.31108 105.062Z" fill="#263238"/>
<path d="M18.5938 107.898C18.5938 107.898 23.1038 102.201 31.8782 104.22C40.1917 106.14 44.0302 121.388 35.6265 123.212C27.2229 125.036 28.7062 110.925 25.6444 108.53C23.3944 106.776 20.1623 107.152 18.5938 107.898Z" fill="#D413AF"/>
<path d="M38.6333 112.549C38.0644 112.047 37.4616 111.585 36.8293 111.166C36.2377 110.758 35.5916 110.436 34.91 110.209C34.5694 109.689 34.1873 109.198 33.7675 108.741C32.9978 107.91 32.1075 107.201 31.1266 106.636H31.3872C31.8496 106.611 32.3129 106.611 32.7753 106.636C33.7088 106.695 34.624 106.922 35.4763 107.307C35.5264 107.307 35.5615 107.252 35.5113 107.232C34.6465 106.86 33.742 106.588 32.8154 106.42C32.3638 106.34 31.906 106.3 31.4473 106.3C31.2018 106.3 30.9462 106.3 30.7157 106.345H30.5754C29.7779 105.943 28.9374 105.632 28.0699 105.418L28.3154 105.353C28.744 105.259 29.1772 105.187 29.6133 105.138C30.484 105.046 31.363 105.064 32.2291 105.193C32.2842 105.193 32.2992 105.118 32.2291 105.113C31.3513 105.007 30.4666 104.972 29.5832 105.007C28.842 105.026 28.1047 105.121 27.3833 105.293C26.8568 105.196 26.3245 105.134 25.7898 105.108C22.738 104.982 19.4107 106.11 17.5315 108.615C15.6524 111.121 15.2865 114.473 14.9558 117.505C14.4433 121.723 14.3309 125.979 14.6201 130.218C14.6201 130.469 14.9909 130.424 15.0009 130.188C15.1162 126.59 15.2414 122.997 15.5872 119.414C15.7426 117.751 15.923 116.087 16.1986 114.443C16.3988 113.029 16.804 111.652 17.4012 110.354C18.0494 109.025 19.0787 107.919 20.3578 107.177C21.6391 106.445 23.0661 106.006 24.537 105.889C25.8582 105.781 27.1882 105.906 28.4657 106.26C28.4259 106.516 28.4259 106.776 28.4657 107.032C28.4963 107.357 28.5601 107.677 28.6562 107.989C28.7531 108.281 28.8755 108.565 29.022 108.836C29.1873 109.136 29.3878 109.407 29.5732 109.693C29.5732 109.738 29.6734 109.693 29.6383 109.643C29.2792 109.13 29.0473 108.539 28.9618 107.919C28.9065 107.624 28.8713 107.326 28.8566 107.027C28.8566 106.801 28.8566 106.576 28.8566 106.35C30.2453 106.773 31.5423 107.453 32.6801 108.355C32.8905 108.525 33.096 108.706 33.2964 108.891C33.007 109.156 32.7572 109.462 32.5548 109.798C32.236 110.241 31.9592 110.712 31.728 111.206C31.3229 112.179 31.0499 113.202 30.9162 114.248C30.9192 114.257 30.925 114.264 30.9326 114.27C30.9403 114.275 30.9494 114.278 30.9588 114.278C30.9681 114.278 30.9773 114.275 30.9849 114.27C30.9925 114.264 30.9983 114.257 31.0014 114.248C31.1657 113.236 31.5049 112.261 32.0036 111.366C32.2361 110.923 32.4955 110.495 32.7803 110.084C32.9306 109.873 33.081 109.663 33.2413 109.462C33.3265 109.357 33.4217 109.247 33.5019 109.126C34.5308 110.139 35.3708 111.327 35.9824 112.634C35.5672 113.07 35.2208 113.567 34.9551 114.107C34.6405 114.671 34.3675 115.258 34.1383 115.861C33.7136 117.025 33.3638 118.215 33.091 119.424C33.0941 119.433 33.0998 119.441 33.1074 119.446C33.1151 119.452 33.1242 119.455 33.1336 119.455C33.1429 119.455 33.1521 119.452 33.1597 119.446C33.1673 119.441 33.1731 119.433 33.1762 119.424C33.4434 118.209 33.8591 117.031 34.4139 115.916C34.6745 115.37 34.9551 114.829 35.2458 114.298C35.5471 113.804 35.8215 113.293 36.0676 112.769C36.6514 114.045 36.9913 115.418 37.0698 116.818C37.0698 116.874 37.155 116.869 37.155 116.818C36.9935 114.621 36.3208 112.491 35.1906 110.6C35.7218 110.825 36.258 111.046 36.7741 111.321C37.4306 111.671 38.0415 112.1 38.5932 112.599C38.6182 112.649 38.6733 112.584 38.6333 112.549Z" fill="#263238"/>
<path d="M37.7412 110.731C37.3966 110.398 37.0049 110.117 36.5787 109.899C36.1466 109.705 35.6991 109.547 35.2407 109.428C35.1906 109.428 35.1706 109.498 35.2407 109.508C35.6917 109.627 36.1248 109.806 36.5286 110.039C36.9438 110.253 37.3424 110.498 37.7212 110.771C37.7413 110.791 37.7863 110.751 37.7412 110.731Z" fill="#263238"/>
<path d="M22.9034 100.286C22.9034 100.286 23.7403 90.0535 31.3471 86.7562C37.7012 83.985 41.3393 91.1259 36.8593 95.4955C33.2313 99.0133 27.3884 97.4148 22.9034 100.286Z" fill="#D413AF"/>
<path d="M35.4412 88.7165C34.2834 89.1848 33.154 89.7202 32.0587 90.32C31.1458 90.8451 30.2671 91.4276 29.4278 92.0639C29.5531 91.8083 29.6634 91.5327 29.7937 91.2822C29.9894 90.8856 30.2052 90.4993 30.4401 90.1246C30.9064 89.3503 31.4688 88.6381 32.1138 88.0049C32.1539 87.9648 32.1138 87.9097 32.0537 87.9448C31.4126 88.5822 30.8228 89.2692 30.2898 89.9993C30.0265 90.3705 29.7855 90.757 29.5682 91.1569C29.3454 91.5233 29.1767 91.9199 29.067 92.3345C29.037 92.3596 29.0069 92.3746 28.9819 92.3996C27.6538 93.458 26.4365 94.6484 25.3488 95.9525C25.3488 95.8523 25.3889 95.7521 25.414 95.6619C25.5593 95.1608 25.7146 94.6597 25.875 94.1585C26.2004 93.1002 26.6637 92.0893 27.253 91.1519C27.2831 91.1068 27.2079 91.0667 27.1779 91.1118C26.5794 92.0439 26.047 93.0168 25.5843 94.0232C25.383 94.5123 25.2156 95.0146 25.0832 95.5266C24.9751 95.8622 24.893 96.2056 24.8377 96.5539C24.5069 96.9748 24.1812 97.4007 23.8705 97.8367C20.6083 102.487 18.9647 108.109 18.5738 113.737C18.4577 115.416 18.4293 117.101 18.4886 118.783C18.4991 120.478 18.6483 122.169 18.9346 123.839C18.9346 123.945 19.12 123.914 19.12 123.809C19.0799 122.331 18.9296 120.858 18.8995 119.379C18.8695 117.901 18.8995 116.413 19.0398 114.935C19.28 111.98 19.8378 109.06 20.7035 106.225C21.5879 103.324 22.8911 100.567 24.5721 98.0422C24.8928 97.977 25.2085 97.8918 25.5242 97.8066C25.8399 97.7214 26.2859 97.6112 26.6617 97.506C27.3931 97.3207 28.1035 97.0604 28.7814 96.7292C28.786 96.7266 28.7901 96.7231 28.7933 96.7189C28.7966 96.7147 28.799 96.7099 28.8003 96.7048C28.8017 96.6997 28.8021 96.6943 28.8014 96.6891C28.8008 96.6838 28.7991 96.6787 28.7964 96.6741C28.7938 96.6695 28.7903 96.6655 28.7861 96.6622C28.7819 96.659 28.7771 96.6566 28.772 96.6552C28.7669 96.6538 28.7615 96.6534 28.7563 96.6541C28.751 96.6547 28.7459 96.6564 28.7413 96.6591C28.0687 97.023 27.3407 97.2736 26.5866 97.4007C25.9952 97.521 25.3739 97.5961 24.7775 97.7314C25.3288 96.9297 25.9151 96.153 26.5465 95.4063C27.9975 95.5384 29.4603 95.43 30.8761 95.0856C31.6285 94.903 32.3683 94.672 33.091 94.3941C33.8526 94.1034 34.5943 93.7226 35.3259 93.3918C35.386 93.3668 35.3259 93.2816 35.2958 93.3117C33.933 94.0558 32.4451 94.5433 30.9061 94.7499C29.5485 94.9656 28.1766 95.0795 26.802 95.0906C27.3432 94.4692 27.8995 93.8629 28.4958 93.2966C30.5002 91.3924 32.8655 89.6435 35.5113 88.7315C35.5163 88.7816 35.4913 88.6964 35.4412 88.7165Z" fill="#263238"/>
<path d="M29.2474 88.7522C28.9045 89.1836 28.593 89.6391 28.3154 90.1152C28.0323 90.6177 27.807 91.1506 27.6439 91.7038H27.674C27.9295 91.2026 28.145 90.7015 28.4006 90.2004C28.6532 89.7087 28.9572 89.2451 29.3076 88.8174C29.3427 88.7673 29.2825 88.7071 29.2474 88.7522Z" fill="#263238"/>
<path d="M16.9851 98.4476C16.94 98.8885 15.8376 94.7293 9.40333 91.0412C3.56039 87.6887 -3.41506 78.9644 2.31263 73.4572C6.93787 69.0124 19.1199 78.7038 16.9851 98.4476Z" fill="#D413AF"/>
<path d="M21.4151 122.285C21.3266 117.957 20.992 113.637 20.4129 109.347C19.9056 105.405 18.9955 101.527 17.6969 97.771C17.1957 96.418 16.6946 95.085 16.0783 93.7621C16.1185 93.2518 16.1185 92.7391 16.0783 92.2287C16.0432 91.5723 15.9831 90.9208 15.9229 90.2694C15.8628 89.6179 15.7976 88.9615 15.7225 88.31C15.6473 87.6586 15.502 87.0072 15.4769 86.3557C15.4769 86.3006 15.3817 86.3106 15.3968 86.3557C15.5238 87.039 15.6009 87.7307 15.6273 88.4253C15.6774 89.0567 15.7125 89.6881 15.7325 90.3245C15.7525 90.9609 15.7325 91.5873 15.7325 92.2237C15.7325 92.4492 15.7325 92.6948 15.7325 92.9353C15.1262 91.6575 14.4797 90.3997 13.7782 89.1719C14.2141 86.506 13.6479 83.7199 13.1017 81.1091C13.1017 81.059 13.0115 81.084 13.0215 81.1341C13.2887 82.4964 13.4312 83.8802 13.4474 85.2683C13.4474 86.3657 13.4174 87.4581 13.4174 88.5556C13.262 88.29 13.1067 88.0294 12.9463 87.7688C12.1145 86.4058 11.2242 85.0695 10.2754 83.76C10.3532 83.1276 10.3329 82.487 10.2153 81.8608C10.1081 81.1593 9.95241 80.4661 9.74925 79.7862C9.54571 79.1065 9.30822 78.4375 9.03767 77.7817C8.75705 77.1052 8.38622 76.4638 8.11563 75.7773C8.11563 75.7222 8.0104 75.7773 8.04046 75.8123C8.38353 76.4482 8.65415 77.1206 8.84725 77.8168C9.05968 78.4747 9.23534 79.1438 9.37341 79.8212C9.50871 80.5027 9.61896 81.1792 9.71417 81.8658C9.77931 82.3168 9.8194 82.7878 9.89457 83.2438C8.51685 81.3923 7.00975 79.6408 5.38458 78.0022C5.3495 77.9621 5.29438 78.0022 5.32945 78.0623C7.77164 80.8191 9.95249 83.7968 11.8439 86.957C11.914 87.0773 11.9842 87.1976 12.0493 87.3178C11.6986 87.0973 11.2927 86.917 10.9569 86.7315C10.3355 86.3858 9.70916 86.045 9.08277 85.7293L7.25873 84.7271C6.94804 84.5517 6.63735 84.3713 6.32165 84.226C5.93528 84.0636 5.56316 83.8691 5.20919 83.6447C5.16409 83.6096 5.10897 83.6848 5.15908 83.7149C5.78046 84.0556 6.32666 84.5617 6.928 84.9426C7.52933 85.3234 8.14068 85.6942 8.76206 86.04C9.90459 86.6814 11.1473 87.1374 12.2698 87.7989C13.0516 89.1669 13.7732 90.5701 14.4346 91.9982C13.7531 91.5572 13.0516 91.1463 12.345 90.7454C11.889 90.4899 11.433 90.2443 10.972 89.9988C10.5124 89.7847 10.0786 89.5191 9.67909 89.207C9.639 89.172 9.58388 89.207 9.61896 89.2672C10.369 89.9428 11.2006 90.5219 12.0944 90.991C12.9213 91.4921 13.7531 91.9381 14.6 92.359C15.2882 93.8657 15.9079 95.4007 16.4591 96.9642C19.1701 104.631 20.1623 112.769 20.6384 120.857C20.7837 123.267 20.8538 125.673 20.8839 128.088C20.914 130.504 20.7887 132.909 20.7937 135.314C20.7937 135.389 20.909 135.404 20.919 135.314C21.2096 133.179 21.2597 131.005 21.355 128.85C21.4502 126.695 21.4652 124.475 21.4151 122.285Z" fill="#263238"/>
<path d="M9.72411 87.5726C8.55043 87.0522 7.40918 86.4614 6.30654 85.8037C5.18879 85.1746 4.10489 84.4871 3.05935 83.7441C3.05935 83.7441 3.02427 83.7441 3.05935 83.7742C4.0461 84.5704 5.08579 85.2987 6.17125 85.954C7.30343 86.5939 8.47503 87.1612 9.67902 87.6528C9.73414 87.6528 9.77423 87.5927 9.72411 87.5726Z" fill="#263238"/>
<path d="M11.5884 78.9029C11.4932 78.5271 11.3779 78.1613 11.2526 77.7955C11.2561 77.7894 11.258 77.7825 11.258 77.7754C11.258 77.7684 11.2561 77.7615 11.2526 77.7554C11.1724 77.5449 11.0873 77.3395 11.0021 77.134L10.972 77.0589C10.972 77.0188 10.9369 76.9837 10.9219 76.9436C10.9069 76.9035 10.8968 76.9436 10.9219 76.9436C10.9469 76.9436 10.962 77.0839 10.987 77.1591C10.9948 77.1981 11.0048 77.2365 11.0171 77.2743C11.4418 78.7037 11.7601 80.1626 11.9692 81.639C11.9692 81.6841 12.0444 81.6841 12.0444 81.639C11.98 80.7145 11.8273 79.7983 11.5884 78.9029Z" fill="#263238"/>
<path d="M28.2151 123.838L27.7541 129.28L26.351 145.877H11.2926L9.88952 129.28L9.4285 123.838H28.2151Z" fill="#37474F"/>
<path d="M28.2151 123.838L27.7541 129.28H9.88952L9.4285 123.838H28.2151Z" fill="#263238"/>
<path d="M29.6934 121.66H7.95526V126.882H29.6934V121.66Z" fill="#37474F"/>
<path d="M-8 145.879L32.625 145.759L73.25 145.714L154.5 145.629L235.75 145.714L276.375 145.759L317 145.879L276.375 146.005L235.75 146.045L154.5 146.13L73.25 146.045L32.625 146L-8 145.879Z" fill="#263238"/>
<path d="M272.236 0H35.9171V158.08H272.236V0Z" fill="#EBEBEB"/>
<path d="M270.517 1.92969H37.636V156.151H270.517V1.92969Z" fill="#263238"/>
<path d="M303.014 169.932H5.13899V180.781H303.014V169.932Z" fill="#DBDBDB"/>
<path d="M5.13899 169.931L35.9222 158.08H272.236L303.019 169.931H5.13899Z" fill="#EBEBEB"/>
<path d="M38.6684 165.727L58.5324 158.08H249.626L269.49 165.727H38.6684Z" fill="#263238"/>
<path d="M257.363 13.6445H50.8002V144.434H257.363V13.6445Z" fill="white"/>
<path d="M257.363 13.6445H50.6248V18.6757H257.363V13.6445Z" fill="#455A64"/>
<path d="M54.6236 16.1618C54.6236 16.4086 54.5505 16.6499 54.4134 16.855C54.2762 17.0602 54.0814 17.2202 53.8534 17.3146C53.6254 17.4091 53.3745 17.4338 53.1324 17.3856C52.8904 17.3375 52.6681 17.2186 52.4936 17.0441C52.3191 16.8696 52.2002 16.6473 52.1521 16.4053C52.1039 16.1632 52.1287 15.9123 52.2231 15.6843C52.3175 15.4563 52.4775 15.2615 52.6827 15.1244C52.8879 14.9872 53.1291 14.9141 53.3759 14.9141C53.7068 14.9141 54.0242 15.0455 54.2582 15.2795C54.4922 15.5135 54.6236 15.8309 54.6236 16.1618Z" fill="#C7C7C7"/>
<path d="M59.7199 16.1618C59.7199 16.4086 59.6467 16.6499 59.5096 16.8551C59.3725 17.0603 59.1776 17.2202 58.9496 17.3146C58.7216 17.4091 58.4707 17.4338 58.2287 17.3856C57.9866 17.3375 57.7643 17.2186 57.5898 17.0441C57.4153 16.8696 57.2965 16.6473 57.2483 16.4053C57.2002 16.1632 57.2249 15.9123 57.3193 15.6843C57.4138 15.4563 57.5737 15.2615 57.7789 15.1244C57.9841 14.9873 58.2253 14.9141 58.4721 14.9141C58.6361 14.9134 58.7987 14.9452 58.9504 15.0077C59.1021 15.0702 59.2399 15.1621 59.3559 15.2781C59.4719 15.3941 59.5638 15.5319 59.6262 15.6836C59.6887 15.8352 59.7205 15.9978 59.7199 16.1618Z" fill="white"/>
<path d="M64.8012 16.1618C64.8012 16.4086 64.728 16.6499 64.5909 16.8551C64.4538 17.0603 64.2589 17.2202 64.0309 17.3146C63.8029 17.4091 63.552 17.4338 63.31 17.3856C63.068 17.3375 62.8456 17.2186 62.6711 17.0441C62.4966 16.8696 62.3778 16.6473 62.3296 16.4053C62.2815 16.1632 62.3062 15.9123 62.4006 15.6843C62.4951 15.4563 62.655 15.2615 62.8602 15.1244C63.0654 14.9873 63.3066 14.9141 63.5534 14.9141C63.7175 14.9134 63.88 14.9452 64.0317 15.0077C64.1834 15.0702 64.3212 15.1621 64.4372 15.2781C64.5532 15.3941 64.6451 15.5319 64.7076 15.6836C64.77 15.8352 64.8019 15.9978 64.8012 16.1618Z" fill="#D413AF"/>
<path d="M257.363 18.6758H253.695V144.429H257.363V18.6758Z" fill="#DBDBDB"/>
<path d="M255.524 62.2721C255.272 62.2721 255.032 62.1723 254.854 61.9947C254.676 61.817 254.577 61.5761 254.577 61.325V20.3592C254.577 20.108 254.676 19.8671 254.854 19.6895C255.032 19.5119 255.272 19.4121 255.524 19.4121C255.775 19.4121 256.016 19.5119 256.193 19.6895C256.371 19.8671 256.471 20.108 256.471 20.3592V61.325C256.471 61.5761 256.371 61.817 256.193 61.9947C256.016 62.1723 255.775 62.2721 255.524 62.2721Z" fill="#A6A6A6"/>
<path d="M80.546 73.707L228.454 73.707V51.2874L80.546 51.2874V73.707Z" fill="white"/>
<path d="M80.2955 51.0432L228.704 51.0432V73.959L80.2955 73.959V51.0432ZM228.203 51.5443L80.7966 51.5443V73.4579L228.203 73.4579V51.5443Z" fill="#DBDBDB"/>
<path d="M215.395 67.6348C215.107 66.8033 214.91 65.943 214.808 65.0691C214.591 63.3638 214.591 61.6379 214.808 59.9327C214.913 59.0587 215.111 58.1985 215.4 57.367C215.691 58.1978 215.889 59.0583 215.991 59.9327C216.205 61.6382 216.205 63.3636 215.991 65.0691C215.883 65.9429 215.683 66.803 215.395 67.6348Z" fill="#37474F"/>
<path d="M210.263 62.5025C211.093 62.2068 211.954 62.0051 212.829 61.9011C213.68 61.7928 214.537 61.7393 215.395 61.7408C216.253 61.7366 217.11 61.7902 217.96 61.9011C218.837 62.0024 219.699 62.2007 220.531 62.4924C219.697 62.7795 218.836 62.9777 217.96 63.0838C217.11 63.1922 216.253 63.2458 215.395 63.2441C214.537 63.2414 213.68 63.1862 212.829 63.0787C211.955 62.9806 211.095 62.7873 210.263 62.5025Z" fill="#37474F"/>
<path d="M211.767 66.1309C212.151 65.3395 212.62 64.5918 213.165 63.9009C213.688 63.2212 214.256 62.5768 214.864 61.9716C215.47 61.3631 216.114 60.794 216.793 60.2679C217.485 59.723 218.235 59.2543 219.028 58.8698C218.643 59.6628 218.175 60.4121 217.63 61.1047C217.103 61.7835 216.534 62.4279 215.926 63.034C215.318 63.6395 214.674 64.2069 213.997 64.7328C213.305 65.2765 212.557 65.7452 211.767 66.1309Z" fill="#37474F"/>
<path d="M211.767 58.8695C212.557 59.2552 213.305 59.7239 213.997 60.2676C214.675 60.7938 215.32 61.3629 215.926 61.9714C216.539 62.5775 217.112 63.2237 217.64 63.9057C218.185 64.5983 218.653 65.3476 219.038 66.1406C218.244 65.7579 217.494 65.289 216.803 64.7425C215.443 63.6918 214.224 62.4708 213.175 61.1095C212.626 60.4159 212.154 59.6648 211.767 58.8695Z" fill="#37474F"/>
<path d="M195.38 67.6348C195.093 66.8033 194.896 65.943 194.794 65.0691C194.687 64.218 194.632 63.3612 194.629 62.5034C194.627 61.644 194.681 60.7853 194.789 59.9327C194.896 59.0591 195.094 58.1992 195.38 57.367C195.672 58.1978 195.87 59.0583 195.972 59.9327C196.083 60.7851 196.136 61.6439 196.132 62.5034C196.133 63.3612 196.08 64.2182 195.972 65.0691C195.868 65.9432 195.67 66.8034 195.38 67.6348Z" fill="#37474F"/>
<path d="M190.249 62.5022C191.08 62.2105 191.94 62.0122 192.815 61.9109C193.666 61.8028 194.523 61.7492 195.38 61.7505C196.24 61.7465 197.099 61.8001 197.951 61.9109C198.826 62.0128 199.686 62.2111 200.517 62.5022C199.685 62.7886 198.825 62.9868 197.951 63.0935C197.099 63.2018 196.24 63.2554 195.38 63.2539C194.523 63.2511 193.666 63.1959 192.815 63.0885C191.941 62.9865 191.081 62.79 190.249 62.5022Z" fill="#37474F"/>
<path d="M191.752 66.1309C192.137 65.3395 192.606 64.5918 193.15 63.9009C193.674 63.2212 194.241 62.5768 194.849 61.9716C195.455 61.3631 196.1 60.794 196.779 60.2679C197.471 59.723 198.22 59.2543 199.013 58.8698C198.629 59.6628 198.16 60.4121 197.615 61.1047C197.089 61.7835 196.52 62.4279 195.912 63.034C195.306 63.642 194.662 64.2095 193.982 64.7328C193.291 65.2776 192.544 65.7463 191.752 66.1309Z" fill="#37474F"/>
<path d="M191.752 58.8695C192.544 59.2541 193.291 59.7228 193.982 60.2676C194.663 60.7912 195.308 61.3605 195.912 61.9714C196.515 62.5785 197.077 63.2246 197.595 63.9057C198.14 64.5983 198.609 65.3476 198.993 66.1406C198.199 65.7579 197.45 65.289 196.758 64.7425C195.399 63.6918 194.179 62.4708 193.13 61.1095C192.592 60.4145 192.13 59.6635 191.752 58.8695Z" fill="#37474F"/>
<path d="M175.371 67.6348C175.079 66.8041 174.881 65.9436 174.78 65.0691C174.672 64.2182 174.618 63.3612 174.619 62.5034C174.615 61.6439 174.669 60.7851 174.78 59.9327C174.882 59.0583 175.08 58.1978 175.371 57.367C175.658 58.1986 175.855 59.0589 175.957 59.9327C176.067 60.7852 176.123 61.6438 176.123 62.5034C176.12 63.3612 176.065 64.218 175.957 65.0691C175.855 65.943 175.659 66.8033 175.371 67.6348Z" fill="#37474F"/>
<path d="M170.235 62.5022C171.066 62.2111 171.926 62.0128 172.8 61.9109C173.653 61.8026 174.512 61.749 175.371 61.7506C176.229 61.7467 177.086 61.8003 177.937 61.9109C178.811 62.0122 179.672 62.2105 180.502 62.5022C179.67 62.7892 178.81 62.9874 177.937 63.0935C177.086 63.2017 176.229 63.2552 175.371 63.2539C174.512 63.2512 173.653 63.196 172.8 63.0885C171.927 62.986 171.066 62.7894 170.235 62.5022Z" fill="#37474F"/>
<path d="M171.738 66.1309C172.123 65.3395 172.591 64.5918 173.136 63.9009C173.659 63.2212 174.227 62.5768 174.835 61.9716C175.441 61.3631 176.085 60.794 176.764 60.2679C177.457 59.723 178.206 59.2543 178.999 58.8698C178.616 59.6637 178.148 60.4132 177.601 61.1047C177.075 61.7823 176.508 62.4266 175.902 63.034C175.294 63.6408 174.648 64.2082 173.968 64.7328C173.277 65.2776 172.529 65.7463 171.738 66.1309Z" fill="#37474F"/>
<path d="M171.738 58.8695C172.529 59.2541 173.277 59.7228 173.968 60.2676C174.649 60.7925 175.296 61.3616 175.902 61.9714C176.509 62.5792 177.077 63.2253 177.601 63.9057C178.148 64.5972 178.616 65.3467 178.999 66.1406C178.205 65.7579 177.456 65.289 176.764 64.7425C175.404 63.6918 174.185 62.4708 173.136 61.1095C172.591 60.4154 172.122 59.6644 171.738 58.8695Z" fill="#37474F"/>
<path d="M155.357 67.6348C155.067 66.8034 154.869 65.9432 154.765 65.0691C154.552 63.3636 154.552 61.6382 154.765 59.9327C154.867 59.0583 155.066 58.1978 155.357 57.367C155.646 58.1985 155.844 59.0587 155.948 59.9327C156.056 60.7853 156.11 61.644 156.108 62.5034C156.106 63.3612 156.05 64.218 155.943 65.0691C155.841 65.943 155.645 66.8033 155.357 67.6348Z" fill="#37474F"/>
<path d="M150.22 62.5022C151.051 62.2111 151.912 62.0128 152.786 61.9109C153.639 61.8026 154.497 61.749 155.357 61.7506C156.215 61.7467 157.072 61.8003 157.922 61.9109C158.797 62.0122 159.658 62.2105 160.488 62.5022C159.656 62.7892 158.796 62.9874 157.922 63.0935C157.072 63.2017 156.215 63.2552 155.357 63.2539C154.497 63.2512 153.639 63.196 152.786 63.0885C151.912 62.986 151.052 62.7894 150.22 62.5022Z" fill="#37474F"/>
<path d="M151.724 66.1309C152.108 65.3395 152.577 64.5918 153.122 63.9009C153.647 63.2212 154.216 62.5767 154.826 61.9716C155.429 61.3607 156.074 60.7915 156.755 60.2679C157.446 59.7231 158.193 59.2543 158.985 58.8698C158.604 59.6648 158.135 60.4145 157.587 61.1047C157.062 61.7834 156.495 62.4279 155.888 63.034C155.281 63.6395 154.636 64.2069 153.959 64.7328C153.265 65.2765 152.516 65.7452 151.724 66.1309Z" fill="#37474F"/>
<path d="M151.724 58.8698C152.516 59.2554 153.265 59.7241 153.959 60.2679C154.638 60.794 155.282 61.3631 155.888 61.9716C156.496 62.5749 157.064 63.2177 157.587 63.8959C158.135 64.5861 158.604 65.3358 158.985 66.1309C158.192 65.7482 157.445 65.2793 156.755 64.7328C156.074 64.2109 155.429 63.6433 154.826 63.034C154.217 62.426 153.648 61.78 153.122 61.0997C152.577 60.4088 152.108 59.6612 151.724 58.8698Z" fill="#37474F"/>
<path d="M135.342 67.6348C135.055 66.8028 134.857 65.9428 134.751 65.0691C134.537 63.3636 134.537 61.6382 134.751 59.9327C134.853 59.0583 135.051 58.1978 135.342 57.367C135.631 58.1985 135.829 59.0587 135.934 59.9327C136.151 61.6379 136.151 63.3638 135.934 65.0691C135.83 65.9432 135.632 66.8035 135.342 67.6348Z" fill="#37474F"/>
<path d="M130.206 62.5022C131.038 62.2105 131.901 62.0122 132.777 61.9109C133.628 61.8024 134.485 61.7489 135.342 61.7505C136.2 61.7465 137.057 61.8001 137.908 61.9109C138.781 62.012 139.64 62.2103 140.469 62.5022C139.637 62.7897 138.777 62.9879 137.903 63.0935C137.052 63.2018 136.195 63.2554 135.337 63.2539C134.48 63.2514 133.623 63.1961 132.772 63.0885C131.898 62.9862 131.038 62.7896 130.206 62.5022Z" fill="#37474F"/>
<path d="M131.709 66.1309C132.094 65.3383 132.564 64.5904 133.112 63.9009C134.165 62.5428 135.384 61.3222 136.74 60.2679C137.431 59.7231 138.179 59.2543 138.97 58.8698C138.59 59.6648 138.121 60.4145 137.572 61.1047C137.048 61.7834 136.48 62.4279 135.874 63.034C135.266 63.6395 134.622 64.2069 133.944 64.7328C133.252 65.2776 132.502 65.7464 131.709 66.1309Z" fill="#37474F"/>
<path d="M131.709 58.8698C132.502 59.2543 133.252 59.723 133.944 60.2679C134.623 60.794 135.267 61.3631 135.874 61.9716C136.482 62.5749 137.049 63.2177 137.572 63.8959C138.121 64.5861 138.59 65.3358 138.97 66.1309C138.178 65.7482 137.43 65.2793 136.74 64.7328C136.06 64.2109 135.415 63.6433 134.811 63.034C134.203 62.4273 133.636 61.7811 133.112 61.0997C132.564 60.4102 132.094 59.6624 131.709 58.8698Z" fill="#37474F"/>
<path d="M115.328 67.6348C115.04 66.8033 114.844 65.943 114.742 65.0691C114.525 63.3638 114.525 61.6379 114.742 59.9327C114.846 59.0587 115.044 58.1985 115.333 57.367C115.624 58.1978 115.823 59.0583 115.924 59.9327C116.138 61.6382 116.138 63.3636 115.924 65.0691C115.817 65.9429 115.617 66.803 115.328 67.6348Z" fill="#37474F"/>
<path d="M110.197 62.5022C111.027 62.21 111.888 62.0116 112.762 61.9109C113.613 61.8026 114.47 61.749 115.328 61.7505C116.186 61.7464 117.043 61.7999 117.894 61.9109C118.77 62.0122 119.632 62.2105 120.464 62.5022C119.631 62.7892 118.769 62.9874 117.894 63.0935C117.043 63.202 116.186 63.2555 115.328 63.2539C114.47 63.2512 113.613 63.196 112.762 63.0885C111.888 62.9871 111.028 62.7905 110.197 62.5022Z" fill="#37474F"/>
<path d="M111.7 66.1309C112.081 65.3374 112.55 64.5894 113.098 63.9009C113.62 63.2201 114.188 62.5755 114.797 61.9716C115.403 61.3631 116.047 60.794 116.726 60.2679C117.418 59.7241 118.165 59.2555 118.956 58.8698C118.575 59.6636 118.108 60.4131 117.563 61.1047C116.509 62.4614 115.288 63.6803 113.93 64.7328C113.238 65.2765 112.491 65.7452 111.7 66.1309Z" fill="#37474F"/>
<path d="M111.7 58.8698C112.491 59.2555 113.238 59.7241 113.93 60.2679C115.285 61.3239 116.505 62.5424 117.563 63.8959C118.108 64.5875 118.575 65.337 118.956 66.1309C118.164 65.747 117.417 65.2782 116.726 64.7328C116.047 64.2083 115.403 63.6409 114.797 63.034C114.189 62.4273 113.621 61.7811 113.098 61.0997C112.55 60.4113 112.081 59.6632 111.7 58.8698Z" fill="#37474F"/>
<path d="M211.223 166.454L272.122 166.716C286.925 155.092 288.452 137.873 277.892 127.444C271.515 121.13 263.385 122.409 255.658 121.402H255.638C252.953 121.066 250.305 120.425 247.797 119.103C239.842 114.903 235.354 105.005 228.664 96.6736C227.829 95.6264 226.959 94.6127 226.043 93.6326C220.538 87.7551 209.596 87.5638 203.849 95.8278C189.285 116.81 195.954 148.067 211.223 166.454Z" fill="#DBDBDB"/>
<path d="M209.871 118.413C211.465 143.397 240.322 152.725 258.344 145.239C274.012 138.731 268.883 123.878 255.658 121.407H255.638C252.953 121.072 250.304 120.431 247.797 119.108C239.842 114.909 235.354 105.01 228.664 96.6792C218.689 91.4765 208.703 100.116 209.871 118.413Z" fill="#C7C7C7"/>
<path d="M262.408 177.72C261.516 177.384 241.295 161.232 240.926 160.128C240.782 159.711 242.964 156.627 245.703 152.978C246.297 152.193 246.911 151.38 247.542 150.561C251.614 145.238 256.075 139.676 256.075 139.676L269.632 150.447L260.713 161.027L258.756 163.353C258.756 163.353 263.731 173.004 264.02 174.259C264.308 175.514 263.315 178.045 262.408 177.72Z" fill="#EB9481"/>
<path d="M262.408 177.721C261.516 177.385 241.295 161.233 240.926 160.129C240.752 159.619 244.007 155.174 247.542 150.562L260.727 161.035L258.77 163.361C258.77 163.361 263.744 173.012 264.033 174.267C264.322 175.522 263.315 178.046 262.408 177.721Z" fill="white"/>
<path d="M262.408 177.72C261.516 177.384 241.295 161.232 240.926 160.128C240.782 159.712 242.964 156.627 245.703 152.979L258.77 163.361C258.77 163.361 263.744 173.011 264.033 174.266C264.322 175.522 263.315 178.046 262.408 177.72Z" fill="#D413AF"/>
<path d="M262.768 176.68C259.445 173.887 245.777 162.941 242.292 160.434C242.262 160.41 242.249 160.434 242.276 160.454C245.508 163.293 259.26 174.129 262.731 176.733C262.795 176.79 262.835 176.737 262.768 176.68Z" fill="#263238"/>
<path d="M263.315 172.495C262.946 172.185 262.517 171.955 262.055 171.819C261.593 171.682 261.108 171.643 260.629 171.703C259.768 171.808 258.98 172.239 258.428 172.908C258.428 172.928 258.448 172.958 258.468 172.938C259.12 172.359 259.942 172.007 260.811 171.935C261.68 171.863 262.55 172.075 263.288 172.539C263.293 172.54 263.299 172.54 263.305 172.538C263.31 172.536 263.314 172.532 263.317 172.527C263.32 172.522 263.322 172.516 263.321 172.511C263.321 172.505 263.319 172.5 263.315 172.495Z" fill="#263238"/>
<path d="M259.8 164.746C258.458 163.645 256.504 162.867 254.765 163.303C254.698 163.32 254.722 163.414 254.765 163.424C256.449 163.75 258.094 164.257 259.669 164.934C259.694 164.952 259.725 164.958 259.755 164.953C259.785 164.948 259.812 164.931 259.829 164.906C259.846 164.881 259.853 164.85 259.848 164.82C259.842 164.79 259.825 164.764 259.8 164.746Z" fill="#263238"/>
<path d="M260.522 165.99C259.179 164.889 257.226 164.111 255.487 164.547C255.42 164.547 255.443 164.658 255.487 164.668C257.17 164.994 258.813 165.501 260.388 166.178C260.413 166.196 260.444 166.203 260.474 166.198C260.504 166.193 260.531 166.177 260.549 166.152C260.567 166.127 260.574 166.096 260.569 166.065C260.564 166.035 260.547 166.008 260.522 165.99Z" fill="#263238"/>
<path d="M261.244 167.237C259.901 166.136 257.948 165.357 256.209 165.793C256.142 165.81 256.169 165.904 256.226 165.914C257.909 166.241 259.552 166.747 261.126 167.425C261.151 167.44 261.181 167.445 261.21 167.439C261.224 167.435 261.238 167.429 261.249 167.421C261.261 167.412 261.271 167.402 261.279 167.389C261.287 167.377 261.292 167.363 261.294 167.349C261.297 167.334 261.296 167.32 261.293 167.306C261.29 167.291 261.284 167.278 261.275 167.266C261.267 167.254 261.256 167.244 261.244 167.237Z" fill="#263238"/>
<path d="M261.972 168.483C260.63 167.382 258.676 166.603 256.937 167.039C256.87 167.056 256.897 167.15 256.954 167.16C258.637 167.487 260.28 167.993 261.855 168.671C261.867 168.678 261.881 168.684 261.895 168.686C261.909 168.688 261.924 168.688 261.938 168.685C261.953 168.681 261.966 168.675 261.978 168.667C261.99 168.658 262 168.648 262.007 168.635C262.015 168.623 262.02 168.609 262.023 168.595C262.025 168.581 262.025 168.566 262.021 168.552C262.018 168.538 262.012 168.524 262.004 168.512C261.995 168.5 261.985 168.49 261.972 168.483Z" fill="#263238"/>
<path d="M245.716 157.902C244.192 156.69 242.306 159.06 243.833 160.272C245.36 161.483 247.247 159.117 245.716 157.902Z" fill="white"/>
<path d="M264.161 162.3C263.929 161.182 262.62 161.048 261.724 161.293C260.194 161.756 258.814 162.613 257.719 163.777C257.714 163.781 257.709 163.787 257.706 163.793C257.703 163.8 257.701 163.807 257.701 163.814C257.701 163.821 257.703 163.828 257.706 163.834C257.709 163.841 257.714 163.846 257.719 163.851C257.705 163.881 257.697 163.913 257.698 163.947C257.698 163.98 257.706 164.012 257.722 164.042C257.737 164.071 257.759 164.097 257.786 164.116C257.813 164.135 257.844 164.148 257.877 164.153C259.377 164.257 260.965 164.556 262.452 164.197C263.332 163.992 264.379 163.357 264.161 162.3ZM260.193 163.844C259.455 163.811 258.72 163.74 257.981 163.733C258.763 163.253 259.522 162.726 260.351 162.337C260.748 162.135 261.158 161.962 261.579 161.817C262.231 161.605 264.469 161.535 263.425 163.119C262.848 164.002 261.073 163.891 260.193 163.844Z" fill="#263238"/>
<path d="M253.947 161.592C254.984 162.72 256.471 163.354 257.773 164.103C257.803 164.117 257.836 164.124 257.869 164.123C257.903 164.121 257.935 164.112 257.964 164.096C257.993 164.08 258.018 164.058 258.037 164.03C258.056 164.003 258.068 163.971 258.072 163.939C258.102 163.939 258.129 163.918 258.122 163.885C257.861 162.308 257.189 160.827 256.175 159.592C255.571 158.883 254.406 158.269 253.594 159.068C252.782 159.867 253.342 160.934 253.947 161.592ZM253.745 160.166C253.745 158.269 255.578 159.572 256.001 160.112C256.271 160.464 256.515 160.836 256.733 161.223C257.173 162.03 257.571 162.859 257.927 163.707C257.306 163.297 256.662 162.948 256.028 162.566C255.259 162.109 253.738 161.213 253.745 160.152V160.166Z" fill="#263238"/>
<path d="M283.324 129.742C282.394 136.791 265.037 157.119 263.033 159.451L262.576 159.982L248.21 148.949L248.375 148.734L261.019 132.179L223.314 131.954L237.633 120.82C237.633 120.82 238.795 121.492 241.208 121.156C249.533 119.937 268.296 117.239 272.72 117.417C278.42 117.638 284.176 123.281 283.324 129.742Z" fill="#37474F"/>
<path d="M265.567 126.028C265.097 126.56 264.661 127.121 264.261 127.707C263.815 128.291 263.362 128.872 262.919 129.459C262.999 129.288 263.076 129.123 263.157 128.945C263.439 128.361 263.664 127.757 264 127.2C264.02 127.166 263.966 127.136 263.946 127.17C263.61 127.724 263.207 128.247 262.912 128.848C262.774 129.123 262.643 129.402 262.523 129.684C262.455 129.838 262.388 129.993 262.328 130.147C262.301 130.221 262.268 130.298 262.247 130.375C262.046 130.647 261.848 130.919 261.657 131.198C261.23 131.815 260.854 132.466 260.425 133.077C260.401 133.111 260.455 133.141 260.478 133.111C260.911 132.534 261.401 132 261.845 131.433C262.288 130.865 262.724 130.251 263.147 129.65C263.57 129.049 263.963 128.469 264.375 127.881C264.828 127.303 265.244 126.696 265.621 126.065C265.614 126.035 265.587 126.008 265.567 126.028Z" fill="#263238"/>
<path d="M218.904 114.448C221.733 117.096 226.09 117.653 229.796 117.375C233.575 117.086 237.734 116.139 240.873 113.921C242.288 112.967 243.411 111.639 244.115 110.084C244.827 108.406 244.702 106.764 243.497 105.455C242.527 104.401 240.651 103.814 240.493 102.743C240.335 101.672 241.087 100.702 241.165 99.6382C241.326 97.8189 240.191 96.634 238.815 95.6673C235.542 93.3647 235.817 89.6791 233.562 86.5608C232.28 84.7852 228.92 81.6568 224.039 83.9964C222.183 84.8859 221.105 86.8562 220.575 88.8165C219.954 91.1225 221.025 93.8816 220.182 96.1339C219.464 98.0505 218.078 98.5372 217.413 100.538C217.128 101.407 217.078 102.377 218.195 104.17C218.605 104.817 219.085 105.824 218.917 106.687C218.682 107.882 217.42 108.597 217.148 109.849C216.785 111.571 217.665 113.276 218.904 114.448Z" fill="#263238"/>
<path d="M243.041 110.699C244.756 110.159 245.159 107.611 243.87 106.523C243.051 105.832 241.94 105.617 241.124 104.932C239.782 103.801 240.644 102.485 241.091 101.123C242.054 98.1721 239.933 96.5777 237.734 95.1545C236.056 94.0737 235.546 92.637 235.176 90.7473C235.176 90.7171 235.22 90.707 235.227 90.7473C235.562 92.1302 235.955 93.4796 237.086 94.4395C238.003 95.2149 239.141 95.6748 240.037 96.4904C241.54 97.8599 241.94 99.5114 241.292 101.421C241.107 101.968 240.695 102.616 240.671 103.187C240.614 104.53 241.678 105.07 242.709 105.58C243.491 105.973 244.357 106.409 244.753 107.258C245.347 108.524 244.417 110.491 243.091 110.83C243.014 110.81 242.974 110.719 243.041 110.699Z" fill="#263238"/>
<path d="M242.279 112.171C243.259 111.359 244.343 110.594 244.81 109.352C245.481 107.516 244.139 106.405 242.876 105.358C242.333 104.908 241.869 104.451 241.786 103.72C241.661 102.622 242.319 101.591 242.292 100.487C242.225 97.8589 239.473 96.6639 237.929 94.9554C236.385 93.2469 235.589 91.0047 234.784 88.8363C234.78 88.8269 234.78 88.8166 234.784 88.8074C234.789 88.7983 234.796 88.7912 234.805 88.7876C234.815 88.7841 234.825 88.7844 234.834 88.7885C234.843 88.7925 234.851 88.8001 234.854 88.8094C235.895 91.5786 237.12 94.1397 239.446 96.053C241.067 97.3957 242.803 98.8323 242.467 101.152C242.386 101.722 242.131 102.266 242.074 102.83C241.94 103.954 242.333 104.616 243.155 105.287C243.977 105.958 244.833 106.579 245.132 107.62C245.683 109.634 243.85 111.295 242.376 112.319C242.357 112.324 242.338 112.322 242.32 112.315C242.302 112.308 242.286 112.296 242.276 112.28C242.265 112.263 242.26 112.244 242.26 112.225C242.261 112.206 242.267 112.187 242.279 112.171Z" fill="#263238"/>
<path d="M216.594 109.274C217.266 107.894 218.561 107.062 217.937 105.337C217.497 104.152 216.685 103.272 216.728 101.933C216.762 100.829 217.316 99.8889 218.014 99.0564C218.897 97.9991 219.917 97.0995 220.478 95.814C221.092 94.4075 221.226 92.8534 221.377 91.3463C221.377 91.3195 221.434 91.3195 221.431 91.3463C221.34 93.3771 221.173 95.4682 219.927 97.17C219.276 98.0562 218.43 98.7812 217.789 99.6774C216.638 101.285 216.89 102.812 217.756 104.461C218.155 105.219 218.521 105.984 218.286 106.857C218.051 107.73 217.363 108.351 216.943 109.12C215.117 112.372 219.206 115.497 222.186 115.564C222.321 115.564 222.337 115.772 222.186 115.776C219.968 115.776 217.36 114.165 216.537 112.083C216.351 111.637 216.26 111.156 216.27 110.673C216.279 110.189 216.39 109.713 216.594 109.274Z" fill="#263238"/>
<path d="M216.94 110.811C216.755 109.512 217.44 108.666 217.9 107.551C218.618 105.796 217.356 104.383 216.963 102.711C216.849 102.162 216.845 101.595 216.952 101.044C217.059 100.493 217.275 99.9686 217.588 99.5021C218.37 98.193 219.481 97.1525 220.062 95.7158C220.67 94.1609 220.81 92.4621 220.464 90.8286C220.464 90.7984 220.501 90.7951 220.508 90.8286C220.788 91.9228 220.836 93.0634 220.649 94.1773C220.462 95.2911 220.045 96.3537 219.424 97.2968C218.618 98.5018 217.447 99.5659 217.128 101.063C216.792 102.651 217.762 103.893 218.202 105.346C218.341 105.773 218.393 106.223 218.355 106.671C218.317 107.118 218.19 107.553 217.98 107.951C217.678 108.572 217.279 109.156 217.171 109.861C217.076 110.829 217.33 111.799 217.886 112.596C219.491 115.13 222.613 116.382 225.392 116.389C225.489 116.389 225.509 116.547 225.392 116.547C224.132 116.561 222.882 116.326 221.713 115.855C220.544 115.385 219.48 114.688 218.581 113.805C217.731 113.006 217.156 111.957 216.94 110.811Z" fill="#263238"/>
<path d="M229.134 104.882C231.652 108.497 240.285 117.879 246.253 119.238C249.543 119.99 265.44 122.212 267.618 120.228C270.169 117.909 268.984 109.152 266.947 109.078C260.757 108.833 249.298 110.044 246.438 109.413C245.142 109.128 238.281 104.714 230.954 101.163C228.191 99.8235 227.506 102.549 229.134 104.882Z" fill="#EB9481"/>
<path d="M263.587 108.596L262.523 121.687C262.523 121.687 248.089 121.459 243.749 119.002C239.409 116.545 232.306 110.308 229.594 105.971C226.882 101.635 227.792 99.2581 233.085 101.943C238.379 104.629 245.525 108.905 246.458 109.13C247.391 109.355 263.587 108.596 263.587 108.596Z" fill="#D413AF"/>
<path d="M261.267 109.507C261.267 109.499 261.264 109.491 261.258 109.485C261.253 109.48 261.245 109.477 261.237 109.477C261.229 109.477 261.221 109.48 261.216 109.485C261.21 109.491 261.207 109.499 261.207 109.507C261.029 110.406 260.955 111.329 260.854 112.242C260.754 113.155 260.656 114.129 260.572 115.072C260.405 116.955 260.207 118.848 260.146 120.738C260.144 120.747 260.144 120.756 260.146 120.765C260.148 120.774 260.152 120.782 260.157 120.79C260.163 120.797 260.17 120.803 260.179 120.806C260.187 120.81 260.196 120.813 260.205 120.813C260.214 120.813 260.223 120.81 260.231 120.806C260.24 120.803 260.247 120.797 260.252 120.79C260.258 120.782 260.262 120.774 260.264 120.765C260.266 120.756 260.266 120.747 260.264 120.738C260.549 118.885 260.7 116.999 260.875 115.129C260.962 114.203 261.046 113.276 261.113 112.35C261.18 111.423 261.281 110.45 261.267 109.507Z" fill="#263238"/>
<path opacity="0.1" d="M250.586 120.809C247.79 120.412 245.216 119.842 243.749 119.023C239.385 116.572 232.306 110.329 229.594 105.992C227.839 103.18 227.6 101.196 229.094 100.877L250.586 120.809Z" fill="black"/>
<path d="M215.842 130.466L238.774 124.609L236.512 116.328C236.512 116.328 238.328 113.73 237.556 111.256C236.885 109.048 231.638 102.482 230.581 101.606C228.772 100.106 225.546 99.5921 223.757 101.697C216.446 110.317 215.842 130.466 215.842 130.466Z" fill="#D413AF"/>
<path d="M233.129 115.239C232.089 115.623 231.079 116.083 230.108 116.616C229.624 116.888 229.158 117.18 228.695 117.482C228.466 117.633 228.231 117.777 227.993 117.918C227.751 118.074 227.491 118.199 227.218 118.291C227.212 118.291 227.207 118.293 227.204 118.296C227.2 118.3 227.198 118.305 227.198 118.311C227.198 118.316 227.2 118.321 227.204 118.325C227.207 118.329 227.212 118.331 227.218 118.331C227.746 118.224 228.253 118.031 228.718 117.76C229.208 117.488 229.688 117.196 230.178 116.921C231.162 116.364 232.149 115.807 233.172 115.323C233.213 115.303 233.179 115.219 233.129 115.239Z" fill="#263238"/>
<path d="M236.032 115.479C235.127 115.625 234.231 115.82 233.347 116.063C232.904 116.187 232.474 116.338 232.041 116.499C231.837 116.577 231.632 116.657 231.43 116.741C231.229 116.825 230.994 116.953 230.759 117.04C230.754 117.04 230.749 117.042 230.745 117.046C230.741 117.049 230.739 117.055 230.739 117.06C230.739 117.065 230.741 117.07 230.745 117.074C230.749 117.078 230.754 117.08 230.759 117.08C230.974 117.003 231.199 116.959 231.43 116.895L232.102 116.701C232.541 116.573 232.981 116.449 233.417 116.315C234.297 116.046 235.173 115.788 236.059 115.553C236.099 115.539 236.079 115.472 236.032 115.479Z" fill="#263238"/>
<path d="M226.09 101.635C226.228 102.048 228.493 104.592 230.41 104.32C231.034 104.233 230.702 100.803 230.702 100.803L230.736 100.544L231.195 96.9225L226.778 94.6366L226.144 94.3379C226.144 94.3379 226.083 95.3449 226.019 96.5835V96.758C226.019 96.8285 226.019 96.8956 226.019 96.9628C226.019 97.1474 225.996 97.3387 225.989 97.5267C225.983 97.7146 225.989 97.812 225.989 97.963C225.989 98.1141 225.989 98.2618 225.989 98.4128C225.948 99.488 225.981 100.565 226.09 101.635Z" fill="#EB9481"/>
<path d="M226.02 96.5874C226.471 97.5505 227.126 98.4038 227.941 99.0878C228.755 99.7718 229.709 100.27 230.736 100.548L231.195 96.9264L226.778 94.6405L226.144 94.3418C226.144 94.3418 226.083 95.3421 226.02 96.5874Z" fill="#263238"/>
<path d="M235.727 90.4525C237.365 96.6488 233.837 98.3305 232.501 98.6829C231.286 99.0018 227.131 99.9316 224.848 93.9367C222.566 87.9417 224.942 85.2095 227.681 84.3468C230.42 83.4842 234.092 84.2562 235.727 90.4525Z" fill="#EB9481"/>
<path d="M234.623 90.169C234.475 90.1774 234.327 90.1774 234.179 90.169C234.023 90.1891 233.865 90.156 233.73 90.075C233.692 90.0418 233.667 89.997 233.658 89.9478C233.649 89.8985 233.656 89.8476 233.679 89.8032C233.737 89.7204 233.817 89.6549 233.909 89.6136C234.001 89.5722 234.103 89.5565 234.203 89.5682C234.409 89.5594 234.611 89.6276 234.77 89.7595C234.802 89.792 234.824 89.8328 234.834 89.8772C234.843 89.9216 234.84 89.9679 234.825 90.0106C234.81 90.0534 234.782 90.091 234.747 90.119C234.711 90.147 234.668 90.1643 234.623 90.169Z" fill="#263238"/>
<path d="M230.235 90.7933C230.375 90.7446 230.512 90.6875 230.645 90.6221C230.796 90.5815 230.93 90.4933 231.028 90.3704C231.05 90.3249 231.057 90.2734 231.047 90.2237C231.037 90.174 231.012 90.1288 230.974 90.0951C230.889 90.0411 230.792 90.0105 230.692 90.0063C230.591 90.0022 230.492 90.0247 230.403 90.0716C230.208 90.1385 230.045 90.2763 229.947 90.4576C229.926 90.5 229.919 90.5473 229.925 90.5939C229.931 90.6405 229.951 90.6842 229.981 90.7198C230.012 90.7554 230.052 90.7813 230.097 90.7944C230.143 90.8074 230.19 90.8071 230.235 90.7933Z" fill="#263238"/>
<path d="M231.393 91.8281C231.393 91.8281 231.367 91.8583 231.37 91.8751C231.474 92.2981 231.524 92.8015 231.169 93.0264V93.0499C231.635 92.8821 231.561 92.2141 231.393 91.8281Z" fill="#263238"/>
<path d="M230.917 91.4663C230.219 91.5602 230.464 92.9499 231.108 92.8626C231.753 92.7753 231.501 91.3857 230.917 91.4663Z" fill="#263238"/>
<path d="M230.658 91.5865C230.551 91.6872 230.457 91.845 230.323 91.8853C230.188 91.9256 229.987 91.8081 229.87 91.6872C229.853 91.6872 229.843 91.6872 229.846 91.7074C229.89 91.9759 230.041 92.231 230.333 92.2209C230.625 92.2109 230.742 91.9423 230.762 91.6637C230.756 91.6134 230.702 91.5463 230.658 91.5865Z" fill="#263238"/>
<path d="M233.897 91.2305C233.897 91.2305 233.934 91.2305 233.938 91.264C233.995 91.697 234.136 92.1804 234.549 92.271V92.2945C234.062 92.2979 233.884 91.65 233.897 91.2305Z" fill="#263238"/>
<path d="M234.206 90.7173C234.878 90.5494 235.176 91.929 234.542 92.0834C233.908 92.2378 233.636 90.8582 234.206 90.7173Z" fill="#263238"/>
<path d="M234.515 90.7466C234.639 90.797 234.774 90.9077 234.904 90.891C235.035 90.8742 235.139 90.6963 235.207 90.5352C235.207 90.5352 235.227 90.5352 235.23 90.5352C235.29 90.797 235.26 91.089 235.019 91.2065C234.777 91.324 234.582 91.1091 234.465 90.8708C234.448 90.8104 234.465 90.7265 234.515 90.7466Z" fill="#263238"/>
<path d="M232.162 95.4857C232.28 95.573 232.4 95.6972 232.562 95.6905C232.722 95.6665 232.875 95.6093 233.011 95.5227C233.011 95.5227 233.042 95.5227 233.035 95.5428C232.984 95.6358 232.908 95.7132 232.817 95.7669C232.725 95.8207 232.621 95.8488 232.515 95.8482C232.424 95.837 232.338 95.7991 232.269 95.7394C232.2 95.6797 232.15 95.6007 232.125 95.5126C232.115 95.4857 232.145 95.4723 232.162 95.4857Z" fill="#263238"/>
<path d="M233.669 93.5988C233.772 93.903 233.859 94.2122 233.931 94.5252C233.931 94.5521 233.867 94.5789 233.767 94.6058C233.516 94.7009 233.244 94.7252 232.981 94.6761C232.717 94.6269 232.472 94.5062 232.273 94.3272C232.246 94.3037 232.273 94.2634 232.31 94.2768C232.745 94.4685 233.23 94.5144 233.693 94.4077C233.693 94.3204 233.3 93.3537 233.357 93.3403C233.596 93.3165 233.836 93.3255 234.072 93.3672C233.676 92.0547 233.065 90.8161 232.699 89.5037C232.699 89.4534 232.753 89.4265 232.773 89.4668C233.461 90.7753 234.017 92.1494 234.431 93.5686C234.465 93.7398 233.8 93.629 233.669 93.5988Z" fill="#263238"/>
<path d="M233.572 94.5306C233.462 94.7796 233.291 94.9968 233.075 95.1616C232.954 95.2482 232.808 95.294 232.659 95.2925C232.323 95.2925 232.259 95.0106 232.256 94.7588C232.255 94.6244 232.27 94.4904 232.3 94.3594C232.694 94.5511 233.14 94.6111 233.572 94.5306Z" fill="#263238"/>
<path d="M233.075 95.1606C232.954 95.2472 232.808 95.293 232.659 95.2915C232.323 95.2915 232.26 95.0095 232.256 94.7578C232.418 94.7241 232.587 94.7454 232.735 94.8183C232.883 94.8913 233.003 95.0118 233.075 95.1606Z" fill="#FF99BA"/>
<path d="M224.908 94.2809C225.297 94.0367 225.615 93.6958 225.832 93.2916C226.05 92.8873 226.158 92.4336 226.147 91.9749C227.208 91.3593 228.088 90.4747 228.698 89.4104C228.668 89.5481 228.466 90.5315 228.346 91.0317C232.316 89.8267 233.226 86.5842 233.226 86.5842C234.081 87.2103 234.783 88.023 235.277 88.9606C235.277 88.9606 235.032 86.47 233.572 84.9327C233.094 84.3983 232.482 84.0011 231.799 83.7822C231.117 83.5633 230.388 83.5306 229.688 83.6874C228.659 83.5573 227.615 83.7068 226.664 84.1203C225.713 84.5338 224.891 85.1959 224.284 86.037C221.968 89.199 224.908 94.2809 224.908 94.2809Z" fill="#263238"/>
<path d="M231.353 90.0176C230.741 90.4505 230.068 90.7898 229.356 91.0246C229.356 91.0246 229.356 91.0246 229.356 91.0246C230.461 90.5877 231.422 89.852 232.132 88.8998C232.431 88.4918 232.679 88.0488 232.87 87.5807C233.099 87.0756 233.224 86.5302 233.24 85.9762C233.242 85.9695 233.246 85.9637 233.252 85.9595C233.257 85.9554 233.264 85.9531 233.271 85.9531C233.279 85.9531 233.285 85.9554 233.291 85.9595C233.297 85.9637 233.301 85.9695 233.303 85.9762C233.345 86.5255 233.295 87.078 233.156 87.6109C232.996 88.133 232.741 88.6211 232.404 89.0509C232.104 89.4352 231.75 89.7743 231.353 90.0578" fill="#263238"/>
<path d="M225.959 94.1551C225.959 94.1551 224.237 92.4231 223.428 93.0675C222.619 93.712 224.15 96.3939 225.268 96.6021C225.41 96.6399 225.558 96.6484 225.704 96.6272C225.85 96.6059 225.99 96.5553 226.115 96.4784C226.241 96.4015 226.349 96.3 226.434 96.1798C226.519 96.0597 226.579 95.9236 226.61 95.7797L225.959 94.1551Z" fill="#EB9481"/>
<path d="M223.888 93.8242C223.868 93.8242 223.888 93.8477 223.888 93.8511C224.677 94.0222 225.184 94.6399 225.566 95.2978C225.51 95.2324 225.44 95.18 225.362 95.1441C225.283 95.1081 225.198 95.0895 225.112 95.0895C225.025 95.0895 224.94 95.1081 224.861 95.1441C224.783 95.18 224.713 95.2324 224.657 95.2978C224.657 95.2978 224.657 95.3414 224.684 95.3347C224.806 95.2719 224.945 95.2482 225.081 95.2668C225.217 95.2854 225.344 95.3454 225.446 95.4387C225.614 95.5965 225.765 95.7721 225.895 95.9624C225.939 96.0228 226.053 95.9624 226.016 95.8952V95.8785C225.868 94.9285 224.912 93.7436 223.888 93.8242Z" fill="#263238"/>
<path d="M221.861 106.11C220.051 116.368 221.8 124.047 223.539 125.001C228.238 127.562 239.49 122.366 242.672 121.335C243.957 120.916 238.103 111.098 236.791 111.702C233.703 113.128 229.376 115.552 229.202 115.532C228.866 115.498 228.446 112.88 226.654 105.25C225.204 99.0609 222.599 101.901 221.861 106.11Z" fill="#EB9481"/>
<path d="M252.909 106.824C253.245 108.113 249.989 108.636 249.989 108.636C250.528 108.829 250.983 109.204 251.275 109.697C251.745 110.59 250.553 111.711 250.553 111.711C251.072 112.03 251.483 112.498 251.731 113.054C252.097 113.953 251.06 115.269 251.06 115.269C251.376 115.822 251.482 116.47 251.359 117.095C250.959 118.746 248.425 119.398 246.935 120.116C245.337 120.881 242.695 121.16 241.497 121.7L236.308 112.191C236.308 112.191 241.322 106.881 244.185 106.055C245.77 105.595 252.419 104.857 252.909 106.824Z" fill="#EB9481"/>
<path d="M249.952 108.606C248.146 108.529 246.327 108.882 244.582 109.241C244.574 109.241 244.566 109.244 244.56 109.25C244.555 109.255 244.551 109.263 244.551 109.271C244.551 109.279 244.555 109.287 244.56 109.292C244.566 109.298 244.574 109.301 244.582 109.301C246.32 108.925 248.203 109.003 249.952 108.694C249.964 108.694 249.975 108.689 249.983 108.681C249.991 108.673 249.996 108.662 249.996 108.65C249.996 108.639 249.991 108.627 249.983 108.619C249.975 108.611 249.964 108.606 249.952 108.606Z" fill="#263238"/>
<path d="M250.476 111.602C250.064 111.624 249.657 111.7 249.264 111.826C248.841 111.937 248.421 112.055 248.002 112.162C247.163 112.411 246.324 112.676 245.505 112.964C245.468 112.964 245.481 113.038 245.505 113.025C246.34 112.78 247.183 112.548 248.029 112.353C248.452 112.249 248.875 112.149 249.301 112.051C249.707 111.984 250.105 111.871 250.486 111.716C250.496 111.71 250.504 111.701 250.51 111.69C250.515 111.679 250.517 111.667 250.516 111.655C250.515 111.644 250.511 111.632 250.504 111.623C250.497 111.613 250.487 111.606 250.476 111.602Z" fill="#263238"/>
<path d="M251.023 115.277C250.651 115.305 250.285 115.393 249.942 115.539L248.801 115.895C248.039 116.127 247.277 116.358 246.508 116.566C246.5 116.566 246.493 116.569 246.487 116.575C246.481 116.581 246.478 116.588 246.478 116.596C246.478 116.605 246.481 116.612 246.487 116.618C246.493 116.624 246.5 116.627 246.508 116.627C247.29 116.422 248.076 116.227 248.858 116.016L250.006 115.7C250.361 115.632 250.701 115.504 251.013 115.321C251.018 115.321 251.022 115.319 251.026 115.315C251.03 115.312 251.033 115.308 251.034 115.303C251.035 115.298 251.034 115.293 251.032 115.288C251.031 115.284 251.027 115.28 251.023 115.277Z" fill="#263238"/>
<path d="M236.462 111.602L241.853 123.135C241.853 123.135 225.12 128.015 222.848 125.078C220.575 122.141 220.736 112.901 221.804 106.51C222.871 100.119 225.744 99.9945 227.003 105.775C228.262 111.555 229.017 115.2 229.228 115.173C229.44 115.146 236.462 111.602 236.462 111.602Z" fill="#D413AF"/>
<path d="M234.28 113.159C234.263 113.129 234.213 113.159 234.223 113.179C234.525 114.045 234.928 114.881 235.3 115.72C235.673 116.56 236.083 117.449 236.489 118.305C237.294 120.013 238.08 121.749 238.983 123.41C239.023 123.481 239.114 123.41 239.087 123.353C238.395 121.608 237.573 119.906 236.781 118.204C236.388 117.362 235.989 116.526 235.579 115.683C235.17 114.841 234.784 113.961 234.28 113.159Z" fill="#263238"/>
<path d="M233.015 125.242C232.54 125.274 232.07 125.353 231.612 125.477C231.128 125.565 230.645 125.638 230.158 125.702C229.217 125.834 228.269 125.916 227.319 125.947C226.382 125.971 224.069 125.833 223.358 125.189C222.774 124.616 222.356 123.896 222.149 123.104C221.898 122.02 221.706 120.923 221.575 119.818C221.309 117.478 221.236 115.121 221.357 112.769C221.384 112.115 221.424 111.463 221.471 110.809C221.518 110.154 221.599 109.466 221.619 108.812C221.617 108.807 221.614 108.804 221.61 108.801C221.606 108.798 221.602 108.797 221.597 108.797C221.593 108.797 221.588 108.798 221.584 108.801C221.58 108.804 221.577 108.807 221.575 108.812C221.354 109.874 221.206 110.951 221.132 112.034C221.092 111.363 221.011 110.691 220.998 110.02C220.998 110.012 220.995 110.004 220.989 109.999C220.984 109.993 220.976 109.99 220.968 109.99C220.96 109.99 220.952 109.993 220.946 109.999C220.941 110.004 220.938 110.012 220.938 110.02C220.938 110.732 220.904 111.443 220.938 112.155C220.938 112.554 220.991 112.95 221.035 113.346C220.981 114.249 220.954 115.152 220.964 116.059C220.937 118.445 221.216 120.825 221.794 123.141C222.069 124.148 222.495 125.105 223.411 125.642C224.101 125.975 224.849 126.171 225.613 126.219C227.222 126.326 228.838 126.224 230.42 125.914C230.866 125.83 231.31 125.739 231.763 125.638C232.197 125.58 232.622 125.467 233.028 125.303C233.048 125.286 233.035 125.242 233.015 125.242Z" fill="#263238"/>
<path d="M236.677 111.693L236.681 111.698V111.693H236.677Z" fill="#263238"/>
<path d="M236.442 111.383C235.21 112.001 233.975 112.618 232.749 113.246L230.934 114.166C230.353 114.468 229.255 115.065 229.255 115.065C229.255 114.787 229.027 113.981 228.92 113.464C228.812 112.947 228.661 112.33 228.517 111.769C228.48 111.625 228.44 111.477 228.399 111.333C228.372 111.061 228.349 110.792 228.325 110.52C228.285 110.084 228.245 109.641 228.178 109.208C228.178 109.208 228.158 109.208 228.154 109.208C228.111 109.623 228.111 110.041 228.154 110.457C227.963 109.785 227.772 109.097 227.57 108.419C227.57 108.399 227.53 108.419 227.533 108.419C227.755 109.56 227.986 110.702 228.248 111.833C228.376 112.383 228.517 112.93 228.661 113.474C228.794 114.065 228.956 114.649 229.148 115.223C229.777 114.985 230.394 114.714 230.994 114.411C231.622 114.109 232.249 113.803 232.87 113.491C234.082 112.883 235.3 112.269 236.472 111.584C236.498 111.644 236.527 111.702 236.559 111.759C236.593 111.809 236.633 111.722 236.616 111.672C236.599 111.621 236.462 111.37 236.442 111.383Z" fill="#263238"/>
<path d="M260.203 120.814H236.344V121.885H260.203V120.814Z" fill="#C7C7C7"/>
<path d="M241.446 120.814L240.631 121.885H260.203V120.814H241.446Z" fill="#A6A6A6"/>
<path d="M242.47 121.887H265.721L267.658 106.094H244.404L242.47 121.887Z" fill="#C7C7C7"/>
<path d="M253.648 113.987C253.644 114.172 253.677 114.356 253.745 114.528C253.813 114.7 253.915 114.856 254.044 114.988C254.174 115.12 254.328 115.225 254.499 115.296C254.669 115.368 254.852 115.404 255.037 115.404C255.415 115.402 255.777 115.253 256.046 114.989C256.315 114.724 256.47 114.365 256.477 113.987C256.481 113.803 256.448 113.619 256.38 113.447C256.312 113.276 256.21 113.119 256.081 112.987C255.951 112.856 255.797 112.751 255.626 112.68C255.456 112.609 255.272 112.573 255.088 112.574C254.711 112.575 254.349 112.723 254.08 112.987C253.811 113.251 253.656 113.61 253.648 113.987Z" fill="white"/>
<path d="M267.467 107.621C268.343 108.964 270.508 110.555 270.807 111.716C270.89 111.999 270.88 112.302 270.778 112.579C270.675 112.856 270.487 113.092 270.239 113.253C270.239 113.253 271.491 113.686 271.582 114.784C271.632 115.348 270.773 115.922 270.773 115.922C270.773 115.922 271.763 116.315 271.78 117.295C271.8 118.077 270.934 118.537 270.934 118.537C270.934 118.537 271.71 119.352 271.475 120.155C270.998 121.783 264.345 122.662 262.993 120.346C262.362 119.269 264 119.141 264 119.141C264 119.141 261.6 118.755 261.385 117.389C261.17 116.023 263.305 115.982 263.305 115.982C263.305 115.982 260.982 115.59 260.901 114.15C260.817 112.649 262.962 112.978 262.962 112.978C262.962 112.978 261.348 112.169 261.539 111.055C261.855 109.209 265.648 111.169 267.067 110.629L267.467 107.621Z" fill="#EB9481"/>
<path d="M270.827 118.627C270.847 118.627 270.861 118.654 270.827 118.661C268.627 119.524 266.217 119.697 263.916 119.157C263.845 119.141 263.842 119.013 263.916 119.02C266.226 119.225 268.555 119.093 270.827 118.627Z" fill="#263238"/>
<path d="M270.813 115.931C270.82 115.931 270.826 115.934 270.83 115.938C270.834 115.943 270.837 115.949 270.837 115.955C270.837 115.961 270.834 115.967 270.83 115.971C270.826 115.976 270.82 115.978 270.813 115.978C268.625 116.814 265.711 117.022 263.241 116.052C263.157 116.022 263.113 115.904 263.214 115.935C264.916 116.455 268.685 116.398 270.813 115.931Z" fill="#263238"/>
<path d="M262.821 112.849C265.225 113.688 267.655 113.668 270.152 113.292C270.183 113.292 270.186 113.332 270.152 113.346C268.981 113.863 267.366 113.936 266.104 113.889C264.932 113.866 263.786 113.536 262.781 112.933C262.751 112.909 262.768 112.822 262.821 112.849Z" fill="#263238"/>
<path d="M314.825 154.882C314.49 155.778 298.271 175.944 297.166 176.32C296.747 176.468 293.672 174.276 290.033 171.52C289.248 170.926 288.439 170.309 287.62 169.674C282.31 165.572 276.771 161.095 276.771 161.095L287.586 147.574L298.136 156.526L300.456 158.49C300.456 158.49 310.119 153.546 311.375 153.26C312.63 152.975 315.158 153.989 314.825 154.882Z" fill="#EB9481"/>
<path d="M314.825 154.881C314.49 155.777 298.271 175.944 297.166 176.32C296.656 176.494 292.222 173.225 287.62 169.674L298.136 156.526L300.456 158.49C300.456 158.49 310.119 153.545 311.375 153.26C312.63 152.975 315.158 153.988 314.825 154.881Z" fill="white"/>
<path d="M314.825 154.881C314.49 155.777 298.271 175.944 297.166 176.32C296.747 176.468 293.672 174.276 290.033 171.52L300.439 158.49C300.439 158.49 310.103 153.545 311.358 153.26C312.613 152.975 315.158 153.988 314.825 154.881Z" fill="#D413AF"/>
<path d="M313.785 154.522C310.985 157.835 299.992 171.466 297.475 174.954C297.455 174.984 297.475 174.997 297.495 174.954C300.345 171.731 311.224 158.013 313.842 154.549C313.896 154.495 313.845 154.445 313.785 154.522Z" fill="#263238"/>
<path d="M309.606 153.977C309.294 154.345 309.062 154.774 308.925 155.236C308.787 155.698 308.747 156.184 308.807 156.662C308.907 157.524 309.335 158.315 310.002 158.871C310.022 158.888 310.056 158.851 310.036 158.831C309.456 158.179 309.104 157.356 309.032 156.487C308.96 155.618 309.172 154.749 309.636 154.01C309.637 154.006 309.637 154.002 309.636 153.997C309.635 153.993 309.633 153.989 309.63 153.985C309.627 153.982 309.623 153.98 309.619 153.978C309.615 153.977 309.61 153.976 309.606 153.977Z" fill="#263238"/>
<path d="M301.845 157.466C300.738 158.809 299.955 160.756 300.385 162.501C300.402 162.568 300.496 162.545 300.509 162.501C300.84 160.819 301.35 159.177 302.03 157.604C302.048 157.579 302.056 157.549 302.051 157.518C302.047 157.488 302.031 157.461 302.006 157.443C301.982 157.424 301.951 157.417 301.921 157.421C301.891 157.426 301.863 157.442 301.845 157.466Z" fill="#263238"/>
<path d="M303.094 156.732C301.986 158.075 301.201 160.025 301.63 161.767C301.647 161.834 301.745 161.81 301.755 161.767C302.086 160.084 302.597 158.443 303.279 156.869C303.297 156.845 303.305 156.814 303.3 156.784C303.296 156.754 303.28 156.727 303.255 156.708C303.231 156.69 303.2 156.682 303.17 156.687C303.139 156.691 303.112 156.707 303.094 156.732Z" fill="#263238"/>
<path d="M304.343 156.016C303.235 157.359 302.45 159.306 302.879 161.051C302.896 161.118 302.99 161.092 303.003 161.035C303.333 159.348 303.844 157.701 304.527 156.124C304.538 156.1 304.54 156.072 304.531 156.047C304.523 156.022 304.506 156.001 304.483 155.987C304.46 155.974 304.433 155.97 304.407 155.975C304.381 155.98 304.358 155.995 304.343 156.016Z" fill="#263238"/>
<path d="M305.588 155.298C304.48 156.641 303.698 158.588 304.128 160.333C304.145 160.4 304.239 160.377 304.252 160.333C304.583 158.651 305.093 157.01 305.773 155.436C305.791 155.411 305.799 155.381 305.794 155.35C305.79 155.32 305.774 155.293 305.749 155.275C305.725 155.257 305.694 155.249 305.664 155.253C305.633 155.258 305.606 155.274 305.588 155.298Z" fill="#263238"/>
<path d="M294.954 171.509C293.739 173.033 296.102 174.927 297.321 173.403C298.539 171.879 296.176 169.986 294.954 171.509Z" fill="white"/>
<path d="M299.412 153.083C298.294 153.311 298.153 154.62 298.405 155.517C298.859 157.054 299.711 158.443 300.875 159.545C300.879 159.55 300.885 159.555 300.891 159.558C300.897 159.561 300.904 159.562 300.91 159.562C300.917 159.562 300.924 159.561 300.93 159.558C300.936 159.555 300.942 159.55 300.946 159.545C300.975 159.56 301.008 159.568 301.042 159.568C301.075 159.568 301.108 159.56 301.138 159.545C301.168 159.53 301.193 159.508 301.213 159.481C301.233 159.454 301.246 159.423 301.251 159.39C301.362 157.89 301.664 156.302 301.308 154.812C301.1 153.915 300.469 152.868 299.412 153.083ZM300.952 157.057C300.916 157.796 300.845 158.527 300.838 159.266C300.333 158.499 299.868 157.707 299.445 156.893C299.246 156.495 299.075 156.085 298.932 155.664C298.72 155.01 298.657 152.771 300.237 153.822C301.11 154.399 300.993 156.174 300.952 157.057Z" fill="#263238"/>
<path d="M298.673 163.292C299.801 162.262 300.442 160.775 301.194 159.473C301.208 159.443 301.215 159.41 301.214 159.376C301.213 159.343 301.204 159.311 301.188 159.282C301.172 159.253 301.149 159.228 301.122 159.209C301.094 159.19 301.063 159.178 301.03 159.174C301.03 159.167 301.029 159.16 301.027 159.153C301.024 159.147 301.02 159.141 301.015 159.136C301.01 159.131 301.004 159.127 300.997 159.125C300.99 159.123 300.983 159.123 300.976 159.124C299.399 159.38 297.917 160.047 296.68 161.057C295.968 161.661 295.337 162.823 296.146 163.638C296.955 164.454 298.012 163.897 298.673 163.292ZM297.244 163.491C295.347 163.474 296.656 161.654 297.197 161.232C297.55 160.964 297.923 160.721 298.311 160.506C299.119 160.069 299.95 159.672 300.798 159.318C300.389 159.936 300.036 160.584 299.65 161.215C299.194 161.967 298.291 163.507 297.244 163.507V163.491Z" fill="#263238"/>
<path d="M297.572 154.485L286.318 169.667L248.344 143.317L244.682 140.776C244.682 140.776 243.648 141.474 242.088 142.337C239.919 143.535 236.741 145.052 233.931 145.465C229.215 146.164 222.109 146.09 218.135 140.766C214.778 136.292 215.842 130.455 215.842 130.455L221.022 128.243C221.022 128.243 233.273 118.035 241.205 117.73C244.561 117.595 249.482 120.15 254.027 122.818C258.572 125.487 297.572 154.485 297.572 154.485Z" fill="#37474F"/>
<path d="M244.682 140.777C244.682 140.777 243.648 141.476 242.088 142.338C239.325 139.035 233.485 133.037 233.307 132.822L244.682 140.777Z" fill="#263238"/>
<path d="M225.506 124.826C224.774 125.336 224.066 125.873 223.344 126.397C222.623 126.921 221.901 127.404 221.226 127.955C220.552 128.505 219.884 129.133 219.239 129.747C218.927 130.042 218.618 130.341 218.316 130.647C217.998 130.944 217.703 131.264 217.433 131.607C217.41 131.637 217.457 131.677 217.487 131.657C217.831 131.411 218.16 131.144 218.47 130.858L219.477 129.985C220.149 129.428 220.82 128.884 221.461 128.307C222.102 127.73 222.72 127.139 223.364 126.575C224.009 126.011 224.788 125.41 225.506 124.836V124.826Z" fill="#263238"/>
<path d="M294.931 153.94C294.199 154.729 293.524 155.574 292.843 156.407C292.161 157.239 291.48 158.085 290.805 158.924C289.463 160.603 288.093 162.281 286.777 163.993C286.049 164.929 285.331 165.873 284.653 166.846C284.622 166.89 284.693 166.94 284.727 166.9C286.18 165.305 287.506 163.6 288.852 161.915C290.198 160.23 291.537 158.538 292.88 156.83C293.605 155.893 294.35 154.964 295.018 153.987C295.025 153.95 294.961 153.906 294.931 153.94Z" fill="#263238"/>
<path d="M266.101 155.597C264.214 154.11 259.918 151.204 257.958 149.804C255.997 148.404 254.061 147.021 252.084 145.675C251.516 145.289 250.942 144.91 250.372 144.527C249.801 144.145 249.204 143.799 248.646 143.403C248.613 143.383 248.583 143.436 248.616 143.457C249.13 143.826 249.623 144.239 250.12 144.621C250.617 145.004 251.08 145.356 251.567 145.716C252.513 146.417 253.473 147.109 254.43 147.8C256.37 149.203 258.326 150.584 260.297 151.942C261.418 152.711 264.872 154.983 266.003 155.715C266.084 155.759 266.168 155.651 266.101 155.597Z" fill="#263238"/>
<path d="M278.017 139.912C276.271 138.465 272.29 135.682 270.461 134.343C268.632 133.004 266.769 131.624 264.913 130.282L259.381 126.284C257.595 124.992 255.816 123.679 253.926 122.535C252.896 121.91 251.835 121.33 250.748 120.806C249.691 120.266 248.591 119.817 247.458 119.463C247.451 119.46 247.442 119.46 247.435 119.463C247.427 119.466 247.421 119.472 247.418 119.48C247.415 119.488 247.415 119.496 247.418 119.504C247.421 119.511 247.427 119.517 247.435 119.52C248.368 120.041 249.345 120.477 250.284 120.98C251.224 121.484 252.134 121.987 253.034 122.541C254.907 123.679 256.679 124.968 258.454 126.234C262.147 128.889 265.839 131.554 269.531 134.172C271.612 135.639 275.758 138.663 277.923 140.009C278.003 140.066 278.084 139.962 278.017 139.912Z" fill="#263238"/>
<path d="M104.107 47.8946C104.107 47.8946 101.785 66.4846 97.9693 70.6734C93.3882 75.6911 90.06 74.9571 88.2124 77.545C86.3647 74.9539 83.0397 75.6911 78.4523 70.6702C74.6368 66.4846 72.3178 47.8915 72.3178 47.8915C82.3721 43.013 88.2187 37.543 88.2187 37.543C88.3927 37.7138 94.2076 43.0921 104.107 47.8946Z" fill="#EBEBEB"/>
<path d="M88.2192 37.5461V77.5418C86.3716 74.9508 83.0465 75.6879 78.4591 70.6671C74.6437 66.4815 72.3247 47.8883 72.3247 47.8883C82.3726 43.013 88.2192 37.543 88.2192 37.543V37.5461Z" fill="#DBDBDB"/>
<path d="M101.642 49.3961C101.642 49.3961 99.6809 65.0976 96.4571 68.6347C92.5815 72.8804 89.7721 72.2571 88.2093 74.4433C86.6464 72.2571 83.837 72.8804 79.9646 68.6347C76.7408 65.0976 74.7825 49.3961 74.7825 49.3961C83.277 45.2833 88.2093 40.6484 88.2093 40.6484C88.2093 40.6484 93.1478 45.2706 101.642 49.3961Z" fill="#DBDBDB"/>
<path d="M74.7854 49.3956C74.7854 49.3956 76.7469 65.0972 79.9707 68.6342C83.84 72.8768 86.6367 72.2567 88.2185 74.4365V40.6543C88.0635 40.7935 83.1566 45.3334 74.7854 49.3956Z" fill="#C7C7C7"/>
<path d="M92.6147 61.9475C95.0462 59.516 95.0462 55.5738 92.6147 53.1423C90.1832 50.7109 86.241 50.7109 83.8096 53.1423C81.3781 55.5738 81.3781 59.516 83.8096 61.9475C86.241 64.379 90.1832 64.379 92.6147 61.9475Z" fill="#D413AF"/>
<path d="M87.5037 61.5918L84.7291 58.7065L85.7573 57.7162L87.2854 59.3076L90.582 54.252L91.7778 55.0302L87.5037 61.5918Z" fill="white"/>
</svg>
