<svg width="24" height="24" viewBox="0 0 24 24" fill="none" xmlns="http://www.w3.org/2000/svg">
<path d="M10 2.3094C11.2376 1.59487 12.7624 1.59487 14 2.3094L19.3923 5.42265C20.6299 6.13718 21.3923 7.45769 21.3923 8.88675V15.1132C21.3923 16.5423 20.6299 17.8628 19.3923 18.5774L14 21.6906C12.7624 22.4051 11.2376 22.4051 10 21.6906L4.6077 18.5774C3.37009 17.8628 2.6077 16.5423 2.6077 15.1132V8.88675C2.6077 7.45769 3.37009 6.13718 4.6077 5.42265L10 2.3094Z" stroke="#0077B7" stroke-width="2"/>
<path d="M15.2763 8H8.72366C8.324 8 8 8.324 8 8.72366V15.2763C8 15.676 8.324 16 8.72366 16H15.2763C15.676 16 16 15.676 16 15.2763V8.72366C16 8.324 15.676 8 15.2763 8ZM10.4755 14.9077C10.4755 15.024 10.3813 15.1183 10.2649 15.1183H9.36848C9.25217 15.1183 9.15788 15.024 9.15788 14.9077V11.1498C9.15788 11.0335 9.25217 10.9392 9.36848 10.9392H10.2649C10.3813 10.9392 10.4755 11.0335 10.4755 11.1498V14.9077ZM9.81671 10.585C9.34637 10.585 8.96507 10.2037 8.96507 9.73332C8.96507 9.26297 9.34637 8.88168 9.81671 8.88168C10.2871 8.88168 10.6684 9.26297 10.6684 9.73332C10.6684 10.2037 10.2871 10.585 9.81671 10.585ZM15.1604 14.9247C15.1604 15.0316 15.0737 15.1183 14.9668 15.1183H14.0048C13.8979 15.1183 13.8112 15.0316 13.8112 14.9247V13.162C13.8112 12.8991 13.8883 12.0097 13.124 12.0097C12.5311 12.0097 12.4109 12.6185 12.3867 12.8916V14.9247C12.3867 15.0316 12.3001 15.1183 12.1931 15.1183H11.2627C11.1558 15.1183 11.0691 15.0316 11.0691 14.9247V11.1328C11.0691 11.0259 11.1558 10.9392 11.2627 10.9392H12.1931C12.3 10.9392 12.3867 11.0259 12.3867 11.1328C12.3867 11.231 12.5248 11.2767 12.5969 11.2101C12.8133 11.0103 13.1239 10.8761 13.6289 10.8761C15.1692 10.8761 15.1604 12.3152 15.1604 13.1059V14.9247Z" fill="#0077B7"/>
</svg>
