<svg width="24" height="24" viewBox="0 0 24 24" fill="none" xmlns="http://www.w3.org/2000/svg">
<path d="M10 2.3094C11.2376 1.59487 12.7624 1.59487 14 2.3094L19.3923 5.42265C20.6299 6.13718 21.3923 7.45769 21.3923 8.88675V15.1132C21.3923 16.5423 20.6299 17.8628 19.3923 18.5774L14 21.6906C12.7624 22.4051 11.2376 22.4051 10 21.6906L4.6077 18.5774C3.37009 17.8628 2.6077 16.5423 2.6077 15.1132V8.88675C2.6077 7.45769 3.37009 6.13718 4.6077 5.42265L10 2.3094Z" stroke="#211F1F" stroke-width="2"/>
<path d="M12 6.5C8.96308 6.5 6.5 8.96263 6.5 12C6.5 14.4301 8.07575 16.4917 10.2615 17.219C10.5361 17.2699 10.625 17.0994 10.625 16.9546V15.9307C9.09508 16.2634 8.77654 15.2817 8.77654 15.2817C8.52629 14.646 8.16558 14.4768 8.16558 14.4768C7.66646 14.1354 8.20363 14.1427 8.20363 14.1427C8.75592 14.1812 9.0465 14.7097 9.0465 14.7097C9.53692 15.5503 10.333 15.3073 10.647 15.1666C10.696 14.8114 10.8386 14.5685 10.9963 14.4315C9.77479 14.2917 8.49054 13.82 8.49054 11.7131C8.49054 11.1122 8.7055 10.6218 9.05704 10.2368C9.00021 10.0979 8.81183 9.53829 9.11067 8.78113C9.11067 8.78113 9.57267 8.63354 10.6236 9.34487C11.0623 9.22296 11.5325 9.162 12 9.15971C12.4675 9.162 12.9382 9.22296 13.3777 9.34487C14.4278 8.63354 14.8889 8.78113 14.8889 8.78113C15.1882 9.53875 14.9998 10.0984 14.943 10.2368C15.2959 10.6218 15.509 11.1127 15.509 11.7131C15.509 13.8255 14.2225 14.2907 12.9978 14.4269C13.1949 14.5974 13.375 14.932 13.375 15.4453V16.9546C13.375 17.1008 13.463 17.2727 13.7421 17.2186C15.9261 16.4903 17.5 14.4292 17.5 12C17.5 8.96263 15.0374 6.5 12 6.5Z" fill="#211F1F"/>
</svg>
