<svg width="569" height="254" viewBox="0 0 569 254" fill="none" xmlns="http://www.w3.org/2000/svg">
<path d="M37.5165 170.305L55.4202 182.713C56.3256 183.344 56.9437 184.307 57.139 185.392C57.3344 186.477 57.091 187.595 56.4624 188.501C56.0934 189.017 55.6139 189.445 55.0586 189.753C54.5034 190.061 53.8864 190.241 53.2526 190.281C51.468 190.426 49.7718 191.119 48.3965 192.264C47.0213 193.409 46.0343 194.951 45.5707 196.679C45.1071 198.407 45.1897 200.235 45.8071 201.914C46.4246 203.593 47.5466 205.04 49.0195 206.057C50.4924 207.074 52.2441 207.611 54.0346 207.595C55.8251 207.579 57.5667 207.01 59.0209 205.966C60.475 204.923 61.5705 203.455 62.1572 201.766C62.744 200.076 62.7932 198.246 62.2983 196.527C62.1138 195.92 62.0676 195.28 62.1632 194.653C62.2588 194.026 62.4936 193.429 62.8506 192.904C63.4817 192 64.4461 191.383 65.5323 191.188C66.6185 190.992 67.7378 191.235 68.6448 191.863L86.5381 204.272L74.1264 222.146C73.4977 223.052 73.2544 224.17 73.4497 225.255C73.6451 226.34 74.2632 227.303 75.1685 227.934C75.6934 228.29 76.2916 228.525 76.9192 228.62C77.5467 228.716 78.1877 228.67 78.7951 228.485C80.5159 227.991 82.3476 228.04 84.0393 228.626C85.731 229.212 87.1999 230.307 88.2447 231.759C89.2894 233.212 89.859 234.951 89.8753 236.74C89.8916 238.528 89.3538 240.278 88.3357 241.749C87.3175 243.221 85.8688 244.342 84.1881 244.958C82.5073 245.575 80.6768 245.658 78.9473 245.195C77.2178 244.731 75.674 243.746 74.5273 242.372C73.3807 240.998 72.6874 239.304 72.5424 237.521C72.5003 236.89 72.3186 236.276 72.0105 235.723C71.7024 235.171 71.2754 234.693 70.7603 234.325C69.8533 233.697 68.734 233.454 67.6478 233.649C66.5616 233.844 65.5972 234.462 64.9661 235.366L52.5648 253.271L34.6611 240.863C33.7558 240.232 33.1377 239.269 32.9423 238.184C32.747 237.099 32.9903 235.981 33.619 235.075C33.9874 234.56 34.4654 234.134 35.0186 233.826C35.5718 233.518 36.1865 233.337 36.8183 233.295C38.603 233.15 40.2992 232.457 41.6744 231.312C43.0496 230.166 44.0367 228.624 44.5003 226.897C44.9638 225.169 44.8812 223.34 44.2638 221.662C43.6464 219.983 42.5244 218.536 41.0514 217.519C39.5785 216.502 37.8268 215.964 36.0363 215.981C34.2459 215.997 32.5042 216.566 31.0501 217.609C29.5959 218.653 28.5005 220.12 27.9137 221.81C27.327 223.5 27.2777 225.33 27.7727 227.049C27.9564 227.655 28.0032 228.294 27.9094 228.921C27.8157 229.547 27.5839 230.145 27.2308 230.671C26.5997 231.576 25.6353 232.193 24.5491 232.388C23.4629 232.583 22.3436 232.34 21.4366 231.712L3.53286 219.304L15.955 201.43C16.5837 200.524 16.827 199.406 16.6317 198.321C16.4363 197.236 15.8182 196.273 14.9129 195.642C14.3898 195.286 13.7934 195.051 13.1676 194.956C12.5417 194.86 11.9024 194.906 11.2967 195.091C9.5755 195.585 7.74326 195.536 6.05115 194.95C4.35905 194.363 2.88993 193.269 1.8452 191.815C0.800469 190.362 0.231278 188.622 0.215662 186.833C0.200047 185.044 0.738774 183.294 1.75798 181.823C2.77718 180.352 4.22697 179.231 5.90858 178.616C7.59019 178 9.4213 177.919 11.1509 178.383C12.8804 178.848 14.4238 179.836 15.5693 181.211C16.7148 182.586 17.4065 184.282 17.5494 186.065C17.5878 186.697 17.7679 187.313 18.0764 187.866C18.3848 188.419 18.8138 188.896 19.3315 189.261C20.2385 189.889 21.3578 190.132 22.444 189.937C23.5302 189.742 24.4946 189.124 25.1257 188.22L37.5165 170.305Z" fill="#EBEBEB"/>
<path d="M516.435 0.666016L534.339 13.0641C535.244 13.6946 535.862 14.6579 536.058 15.7429C536.253 16.8279 536.01 17.946 535.381 18.852C535.014 19.3681 534.537 19.7957 533.983 20.1037C533.429 20.4117 532.814 20.5922 532.182 20.6321C530.397 20.7769 528.701 21.4695 527.326 22.6149C525.95 23.7603 524.963 25.3024 524.5 27.03C524.036 28.7576 524.119 30.5862 524.736 32.2651C525.354 33.944 526.476 35.3911 527.949 36.4081C529.421 37.4251 531.173 37.9623 532.964 37.946C534.754 37.9298 536.496 37.3608 537.95 36.3172C539.404 35.2736 540.5 33.8063 541.086 32.1165C541.673 30.4266 541.722 28.5969 541.227 26.878C541.044 26.2734 540.997 25.6357 541.091 25.0109C541.184 24.3861 541.416 23.79 541.769 23.2658C542.4 22.3614 543.365 21.744 544.451 21.5489C545.537 21.3537 546.656 21.5968 547.563 22.2248L565.467 34.6333L553.045 52.5174C552.416 53.4234 552.173 54.5415 552.368 55.6265C552.564 56.7115 553.182 57.6748 554.087 58.3053C554.612 58.6578 555.209 58.8893 555.834 58.983C556.46 59.0766 557.098 59.03 557.703 58.8466C559.424 58.3522 561.256 58.4014 562.948 58.9875C564.639 59.5736 566.108 60.6679 567.153 62.1204C568.198 63.573 568.767 65.3127 568.783 67.1012C568.8 68.8897 568.262 70.6395 567.244 72.1108C566.226 73.5821 564.777 74.7029 563.096 75.3197C561.415 75.9364 559.585 76.0189 557.855 75.5559C556.126 75.0928 554.582 74.1068 553.435 72.7331C552.289 71.3594 551.596 69.665 551.451 67.8823C551.417 67.2493 551.238 66.6323 550.93 66.0785C550.621 65.5246 550.189 65.0485 549.669 64.6865C548.761 64.0585 547.642 63.8154 546.556 64.0106C545.47 64.2057 544.505 64.8232 543.874 65.7275L531.483 83.622L513.58 71.2135C512.674 70.583 512.056 69.6197 511.861 68.5347C511.666 67.4497 511.909 66.3316 512.538 65.4256C512.908 64.9108 513.388 64.4843 513.943 64.1766C514.498 63.8688 515.114 63.6875 515.747 63.6455C517.532 63.5007 519.228 62.8081 520.603 61.6627C521.979 60.5174 522.966 58.9752 523.429 57.2476C523.893 55.52 523.81 53.6914 523.193 52.0125C522.575 50.3336 521.453 48.8865 519.98 47.8695C518.508 46.8525 516.756 46.3153 514.965 46.3316C513.175 46.3479 511.433 46.9168 509.979 47.9604C508.525 49.004 507.429 50.4713 506.843 52.1612C506.256 53.851 506.207 55.6807 506.702 57.3996C506.886 58.0063 506.932 58.6466 506.837 59.2735C506.741 59.9004 506.506 60.4979 506.149 61.0222C505.518 61.9266 504.554 62.544 503.468 62.7392C502.382 62.9343 501.262 62.6912 500.355 62.0632L482.462 49.6651L494.874 31.781C495.502 30.875 495.746 29.7569 495.55 28.6719C495.355 27.5869 494.737 26.6236 493.831 25.9931C493.305 25.6393 492.707 25.4063 492.08 25.3109C491.453 25.2155 490.813 25.2601 490.205 25.4414C488.484 25.9361 486.651 25.8869 484.959 25.3006C483.267 24.7143 481.798 23.6195 480.753 22.1663C479.709 20.7131 479.139 18.9727 479.124 17.1838C479.108 15.3948 479.647 13.6447 480.666 12.1736C481.685 10.7025 483.135 9.58223 484.817 8.9665C486.498 8.35077 488.329 8.26968 490.059 8.73434C491.789 9.199 493.332 10.1867 494.478 11.5619C495.623 12.9372 496.315 14.6327 496.458 16.4161C496.5 17.0471 496.682 17.6608 496.99 18.2133C497.298 18.7658 497.725 19.2434 498.24 19.6119C499.147 20.2399 500.266 20.483 501.352 20.2878C502.438 20.0927 503.403 19.4753 504.034 18.5709L516.435 0.666016Z" fill="#C7C7C7"/>
<path d="M168.824 115.987C168.824 121.442 170.994 126.674 174.855 130.532C178.717 134.389 183.955 136.557 189.417 136.557V210.466H45.2803V21.4863H189.437V95.3962C186.73 95.3934 184.048 95.9241 181.546 96.958C179.044 97.9918 176.77 99.5084 174.855 101.421C172.941 103.333 171.423 105.604 170.388 108.104C169.353 110.603 168.821 113.282 168.824 115.987Z" fill="#C7C7C7"/>
<path d="M117.354 42.0557C128.726 42.0557 137.946 32.8463 137.946 21.4858C137.946 10.1254 128.726 0.916016 117.354 0.916016C105.981 0.916016 96.7612 10.1254 96.7612 21.4858C96.7612 32.8463 105.981 42.0557 117.354 42.0557Z" fill="#C7C7C7"/>
<path d="M335.992 115.987C335.992 121.442 338.161 126.674 342.023 130.532C345.885 134.389 351.123 136.557 356.584 136.557V210.466H212.417V21.4863H263.908V21.5696C263.908 27.0251 266.077 32.2571 269.939 36.1147C273.801 39.9723 279.039 42.1394 284.5 42.1394C289.962 42.1394 295.199 39.9723 299.061 36.1147C302.923 32.2571 305.093 27.0251 305.093 21.5696V21.4863H356.584V95.3962C353.878 95.3962 351.199 95.9289 348.699 96.9639C346.199 97.999 343.928 99.516 342.016 101.428C340.103 103.341 338.587 105.611 337.553 108.109C336.52 110.607 335.989 113.284 335.992 115.987Z" fill="#455A64"/>
<path d="M226.973 130.528C235.015 122.494 235.015 109.47 226.973 101.437C218.931 93.4043 205.893 93.4043 197.851 101.437C189.809 109.47 189.809 122.494 197.851 130.528C205.893 138.561 218.931 138.561 226.973 130.528Z" fill="#455A64"/>
<path d="M523.72 21.4863H379.562V210.487H523.72V21.4863Z" fill="#D413AF"/>
<path d="M399.888 119.257C401.698 108.042 394.064 97.4836 382.836 95.6751C371.608 93.8666 361.039 101.493 359.228 112.708C357.418 123.924 365.052 134.482 376.28 136.29C387.508 138.099 398.077 130.473 399.888 119.257Z" fill="#D413AF"/>
<path d="M451.647 42.1397C463.019 42.1397 472.239 32.9302 472.239 21.5698C472.239 10.2094 463.019 1 451.647 1C440.274 1 431.054 10.2094 431.054 21.5698C431.054 32.9302 440.274 42.1397 451.647 42.1397Z" fill="#D413AF"/>
<path d="M429.491 103.651C429.461 103.809 429.492 103.973 429.577 104.109C429.662 104.246 429.795 104.346 429.949 104.39L432.596 104.827C435.608 98.8417 438.672 94.1573 437.807 96.0207C436.485 98.9487 435.607 102.057 435.202 105.244C436.379 105.431 439.089 105.827 440.412 106.025C443.539 95.2816 447.03 87.4117 446.665 89.9101C444.998 99.9556 445.269 103.255 445.623 106.805C458.285 108.648 474.917 110.896 486.974 112.25C488.965 106.337 490.83 99.9035 490.997 100.382C492.31 103.963 492.268 108.97 491.925 112.801C495.77 113.207 498.844 113.468 500.731 113.52C500.731 113.52 502.127 108.523 502.419 106.857C503.188 102.593 503.16 98.2237 502.335 93.9699C501.481 89.5978 499.636 85.642 497.927 81.5822C497.931 81.5511 497.931 81.5196 497.927 81.4885C496.794 78.8532 495.979 76.0925 495.499 73.2648C495.499 73.2648 495.499 73.2648 495.499 73.2023C495.187 71.1637 495.058 69.1012 495.113 67.0397C495.291 59.5029 491.716 52.622 484.869 49.9467C472.812 36.1329 458.983 40.0678 454.012 49.2597C453.533 50.1549 453.053 51.1855 452.574 52.3202C450.782 56.4841 449.01 62.0013 447.457 66.2277C446.864 67.8862 446.167 69.5063 445.373 71.0787C441.142 78.6258 433.024 82.3005 429.491 103.651Z" fill="#263238"/>
<path d="M487.714 52.2775C492.091 55.1402 494.572 58.9398 494.749 64.4674C494.853 67.6945 494.749 70.8174 495.687 73.9404C496.749 77.0506 498.266 79.9868 500.189 82.6534C503.054 87.0047 504.93 91.2519 504.909 96.665C504.889 102.078 503.992 108.543 501.658 113.446C501.658 113.446 501.596 113.446 501.606 113.446C503.607 108.439 504.357 101.318 503.972 95.8427C503.544 89.8154 500.553 85.7555 497.573 80.915C495.174 77.1406 493.842 72.7882 493.717 68.3191C493.634 65.5917 493.957 62.7914 493.123 60.1369C492.081 57.014 489.726 54.7863 487.329 52.8501C487.253 52.799 487.2 52.7198 487.183 52.63C487.165 52.5402 487.184 52.4471 487.235 52.3712C487.286 52.2953 487.365 52.2427 487.455 52.2252C487.545 52.2076 487.638 52.2264 487.714 52.2775Z" fill="#263238"/>
<path d="M436.702 78.7509C440.381 74.8368 444.122 71.5578 446.55 66.4882C448.77 61.8662 450.26 56.9007 452.511 52.2891C452.512 52.279 452.516 52.2693 452.521 52.2608C452.527 52.2523 452.534 52.2452 452.543 52.2403C452.552 52.2354 452.562 52.2327 452.572 52.2324C452.582 52.2322 452.592 52.2345 452.602 52.239C452.611 52.2436 452.619 52.2503 452.624 52.2585C452.63 52.2668 452.634 52.2763 452.636 52.2864C452.637 52.2965 452.636 52.3067 452.632 52.3163C452.629 52.3258 452.623 52.3344 452.616 52.3412C449.051 60.565 447.676 69.101 441.475 75.7009C438.099 79.2923 434.764 82.5922 432.325 87.058C429.847 91.7414 428.283 96.8535 427.719 102.121C427.719 102.157 427.705 102.191 427.68 102.217C427.654 102.242 427.62 102.256 427.584 102.256C427.548 102.256 427.513 102.242 427.488 102.217C427.463 102.191 427.448 102.157 427.448 102.121C427.493 93.448 430.795 85.1077 436.702 78.7509Z" fill="#263238"/>
<path d="M484.223 50.2169C482.848 49.4258 482.775 41.0042 488.798 37.975C494.822 34.9457 501.023 40.515 497.031 46.7713C494.509 50.7166 487.141 51.8721 484.223 50.2169Z" fill="#263238"/>
<path d="M496.427 38.7031C497.807 40.2929 498.605 42.3048 498.688 44.4077C498.751 45.389 498.555 46.3696 498.117 47.2505C497.68 48.1315 497.018 48.8816 496.197 49.4253C494.465 50.524 492.465 51.1287 490.414 51.1741C489.37 51.2339 488.324 51.1956 487.287 51.0596C486.227 50.9671 485.192 50.6813 484.234 50.2164C485.1 50.8914 486.103 51.3708 487.173 51.6217C488.237 51.9111 489.332 52.0719 490.435 52.1006C492.709 52.2173 494.963 51.6243 496.885 50.4038C497.861 49.7375 498.639 48.8204 499.136 47.7493C499.596 46.6772 499.765 45.5032 499.626 44.3453C499.503 43.2373 499.157 42.1658 498.607 41.1959C498.057 40.226 497.315 39.3779 496.427 38.7031Z" fill="#263238"/>
<path d="M538.487 205.356C538.487 205.137 538.414 204.929 538.372 204.721C538.372 204.981 538.476 205.241 538.508 205.512C538.497 205.46 538.497 205.408 538.487 205.356Z" fill="#D413AF"/>
<path d="M471.27 116.872C461.776 122.077 413.953 146.019 398.998 137.691C380.865 127.594 362.034 108.731 355.875 97.5926C352.426 91.3467 383.679 75.0761 387.483 80.3019C393.475 88.5361 409.274 104.057 412.171 106.42C415.068 108.783 447.603 103.172 465.757 102.662C482.076 102.204 477.95 113.176 471.27 116.872Z" fill="#EB9481"/>
<path d="M356.646 98.3409C353.895 95.1035 340.056 76.7093 337.888 71.5772C335.721 66.4452 330.593 51.226 334.397 49.1857C338.201 47.1454 340.025 51.4758 340.025 51.4758C340.025 51.4758 338.878 44.7095 342.859 43.0022C346.84 41.295 349.508 48.1239 349.508 48.1239C349.508 48.1239 348.841 41.0972 352.937 39.6711C357.032 38.2449 358.543 45.5735 358.543 45.5735C358.543 45.5735 357.637 39.1714 361.503 39.4108C366.161 39.7127 366.495 51.7049 369.287 57.1908C369.923 58.44 383.971 81.5395 383.971 81.5395L356.646 98.3409Z" fill="#EB9481"/>
<path d="M358.429 44.95C358.689 53.7672 360.336 57.5772 365.202 64.7287C365.296 64.8745 365.109 65.041 364.994 64.9057C359.585 58.285 356.834 53.7984 358.001 44.8876C358.054 44.5024 358.418 44.5336 358.429 44.95Z" fill="#263238"/>
<path d="M349.518 47.4267C350.561 56.5665 352.343 60.72 356.876 68.6315C356.938 68.746 356.761 68.871 356.688 68.7565C351.582 61.3655 348.935 56.8268 349.06 47.5516C349.112 47.1352 349.466 47.0103 349.518 47.4267Z" fill="#263238"/>
<path d="M340.285 51.8722C341.973 60.6477 343.693 65.2801 349.081 72.4004C349.105 72.4341 349.117 72.4758 349.112 72.5173C349.108 72.5589 349.088 72.5972 349.056 72.6247C349.025 72.6522 348.984 72.6669 348.942 72.6659C348.9 72.6648 348.86 72.6481 348.83 72.619C342.578 65.8839 340.441 60.1272 340.024 51.9555C339.993 51.3934 340.181 51.3205 340.285 51.8722Z" fill="#263238"/>
<path d="M390.203 87.7653C390.203 87.7653 391.37 76.7725 390.818 71.8278C390.266 66.8831 381.439 49.2176 377.489 50.904C372.424 53.0901 375.52 64.3015 377.75 69.5897C377.75 69.5897 366.015 74.6281 366.495 83.1225C366.974 91.6169 390.203 87.7653 390.203 87.7653Z" fill="#EB9481"/>
<path d="M376.301 51.9667C373.112 57.2861 376.489 64.0421 378.271 69.3407C378.301 69.4176 378.312 69.5007 378.303 69.5829C378.295 69.6651 378.266 69.7439 378.22 69.8125C378.174 69.8811 378.111 69.9375 378.039 69.9768C377.966 70.0161 377.885 70.0372 377.802 70.0382C373.029 72.4741 366.995 77.325 366.234 82.9151C366.226 82.9434 366.209 82.9683 366.186 82.986C366.162 83.0037 366.133 83.0133 366.104 83.0133C366.074 83.0133 366.046 83.0037 366.022 82.986C365.999 82.9683 365.982 82.9434 365.974 82.9151C365.974 76.7941 371.518 71.558 376.916 69.2158C375.009 63.8235 371.914 56.9009 376.249 51.9458C376.27 51.9042 376.312 51.9354 376.301 51.9667Z" fill="#263238"/>
<path d="M393.048 84.9336L360.117 109.303C360.117 109.303 388.817 141.282 406.679 140.533C424.541 139.783 459.64 124.095 467.216 120.285C483.796 111.958 479.669 101.058 465.277 102.297C450.886 103.536 415.422 106.378 413.453 105.961C411.483 105.545 393.048 84.9336 393.048 84.9336Z" fill="#DBDBDB"/>
<path d="M410.743 140.179C429.397 137.681 460.182 123.846 467.216 120.307C482.264 112.739 480.253 103.078 468.987 102.287L410.743 140.179Z" fill="#C7C7C7"/>
<path d="M368.474 114.622C372.382 112.082 376.144 109.345 379.938 106.586C383.731 103.827 387.472 101.09 391.162 98.2581C393.246 96.6446 395.33 95.0519 397.414 93.3655C397.466 93.3655 397.414 93.2197 397.352 93.2614C393.454 95.791 389.671 98.5184 385.888 101.246C382.105 103.973 378.354 106.742 374.623 109.574C372.539 111.156 370.455 112.78 368.37 114.466C368.245 114.508 368.36 114.695 368.474 114.622Z" fill="#455A64"/>
<path d="M438.401 132.496L437.224 132.923C435.628 123.631 434.681 114.239 434.389 104.816C434.796 104.816 435.212 104.743 435.629 104.723C435.906 114.034 436.832 123.314 438.401 132.496Z" fill="#C7C7C7"/>
<path d="M430.606 135.203C428.105 136.025 425.614 136.796 423.186 137.472C421.171 127.025 419.917 116.445 419.435 105.816C421.592 105.691 424.218 105.525 427.136 105.316C427.571 115.349 428.731 125.337 430.606 135.203Z" fill="#C7C7C7"/>
<path d="M430.033 210.508L435.671 172.366C435.671 172.366 426.635 156.616 431.877 145.301C434.524 139.575 452.657 111.594 462.432 104.515C471.593 97.8734 484.15 103.932 488.412 109.72C500.699 126.376 506.67 156.252 513.528 210.508H430.033Z" fill="#DBDBDB"/>
<path d="M505.431 157.354C480.503 160.593 455.243 160.299 430.398 156.48C430.398 156.063 430.314 155.626 430.283 155.199C455.082 159.051 480.304 159.363 505.191 156.126C505.295 156.532 505.431 156.938 505.431 157.354Z" fill="#C7C7C7"/>
<path d="M507.994 171.502C484.016 174.826 459.715 175.131 435.66 172.407C434.24 169.797 433.065 167.062 432.148 164.235C456.891 167.477 481.958 167.365 506.671 163.902C507.129 166.328 507.567 168.868 507.994 171.502Z" fill="#C7C7C7"/>
<path d="M447.457 168.952C451.469 169.085 455.446 169.746 459.285 170.919C463.151 172.012 471.686 175.385 473.823 176.218C473.875 176.218 473.823 176.322 473.823 176.311C471.037 175.644 468.291 174.816 465.6 173.834C461.818 172.553 457.993 171.387 454.137 170.378C451.944 169.843 449.72 169.444 447.478 169.181C447.301 169.16 447.301 168.941 447.457 168.952Z" fill="#263238"/>
<path d="M440.402 170.981C444.579 170.638 448.783 171.011 452.834 172.084C452.886 172.084 452.834 172.178 452.834 172.167C450.75 171.928 448.718 171.689 446.655 171.512C444.591 171.335 442.486 171.23 440.402 171.095C440.391 171.09 440.381 171.082 440.374 171.072C440.368 171.062 440.364 171.05 440.364 171.038C440.364 171.026 440.368 171.014 440.374 171.004C440.381 170.994 440.391 170.986 440.402 170.981Z" fill="#263238"/>
<path d="M463.829 207.968L421.123 225.384L388.379 168.297L431.086 150.881L463.829 207.968Z" fill="#37474F"/>
<path d="M461.734 208.822L419.018 226.238L386.285 169.15L428.991 151.734L461.734 208.822Z" fill="#455A64"/>
<path d="M417.319 188.626C417.891 189.715 418.847 190.554 420.001 190.981C421.156 191.407 422.428 191.392 423.572 190.937C424.107 190.729 424.591 190.409 424.993 190C425.395 189.59 425.705 189.099 425.902 188.56C426.099 188.022 426.179 187.447 426.137 186.875C426.094 186.303 425.93 185.747 425.656 185.243C425.082 184.156 424.126 183.318 422.972 182.892C421.818 182.465 420.547 182.48 419.403 182.932C418.868 183.14 418.384 183.46 417.982 183.87C417.58 184.279 417.27 184.77 417.073 185.309C416.876 185.847 416.796 186.422 416.838 186.994C416.881 187.566 417.044 188.122 417.319 188.626Z" fill="white"/>
<path d="M490.841 111.448C506.473 127.261 540.55 163.633 533.901 174.334C522.97 191.937 492.446 210.654 482.691 215.338C478.523 217.358 457.576 187.794 461.328 184.494C465.83 180.538 495.843 162.914 495.718 161.342C495.624 159.614 486.141 138.618 481.43 121.618C475.657 100.507 484.338 104.859 490.841 111.448Z" fill="#EB9481"/>
<path d="M477.095 179.704C477.095 179.704 463.006 177.883 453.741 177.133C448.53 176.717 439.641 176.789 435.691 178.174C429.803 180.308 406.512 192.998 409.472 198.702C412.15 203.907 430.773 190.426 430.773 190.426C430.773 190.426 410.785 202.325 415.141 207.957C419.497 213.588 438.526 195.6 438.526 195.6C438.526 195.6 418.278 208.331 423.697 213.401C427.803 217.253 445.935 201.95 445.935 201.95C445.935 201.95 428.595 212.974 432.648 217.107C437.119 221.687 454.752 208.602 454.752 208.602C466.799 217.388 476.053 217.346 482.723 215.327C484.275 214.869 477.095 179.704 477.095 179.704Z" fill="#EB9481"/>
<path d="M436.494 186.502C421.102 194.143 415.892 202.606 416.079 202.408C420.425 197.755 428.48 192.185 430.752 190.666C433.024 189.146 434.285 188.105 436.557 186.585C436.651 186.543 436.557 186.47 436.494 186.502Z" fill="#263238"/>
<path d="M443.07 194.008C436.703 196.818 430.891 200.742 425.906 205.594C425.718 205.792 425.844 205.813 426.073 205.657C428.907 203.648 440.204 195.944 443.122 194.081C443.164 194.05 443.122 193.987 443.07 194.008Z" fill="#263238"/>
<path d="M449.156 200.087C444.265 202.374 439.844 205.551 436.119 209.456C435.931 209.643 436.119 209.685 436.348 209.529C440.621 206.333 443.955 203.793 449.239 200.264C449.343 200.202 449.27 200.045 449.156 200.087Z" fill="#263238"/>
<path d="M470.426 178.009L494.53 213.548C494.53 213.548 533.829 183.62 535.35 172.231C536.872 160.843 500.074 117.632 489.653 109.304C479.232 100.976 476.981 105.411 479.003 116.497C481.024 127.583 495.26 160.864 495.155 161.551C495.051 162.238 470.426 178.009 470.426 178.009Z" fill="#DBDBDB"/>
<path d="M508.943 129.697C501.804 133.68 494.429 137.225 486.86 140.315L486.422 139.17C493.86 136.137 501.109 132.661 508.13 128.76L508.943 129.697Z" fill="#C7C7C7"/>
<path d="M518.124 141.095C509.8 145.988 501.159 150.322 492.258 154.066C491.424 151.984 490.445 149.527 489.413 146.914C497.623 143.458 505.604 139.484 513.309 135.016C514.935 137.004 516.55 139.044 518.124 141.095Z" fill="#C7C7C7"/>
<path d="M489.361 145.675C488.361 143.163 487.381 140.651 486.422 138.138C485.922 136.827 485.38 135.515 484.901 134.214L484.192 132.413C484.067 132.121 483.921 131.82 483.817 131.518C483.452 130.404 483.817 131.393 483.317 130.331C483.311 130.317 483.302 130.306 483.29 130.298C483.278 130.29 483.264 130.285 483.249 130.285C483.234 130.285 483.22 130.29 483.208 130.298C483.196 130.306 483.187 130.317 483.181 130.331C483.369 131.039 483.181 130.779 483.411 131.299C483.64 131.82 483.682 132.09 483.817 132.496C484.005 133.11 484.213 133.725 484.411 134.339C484.817 135.588 485.255 136.837 485.703 138.086C485.766 138.242 485.828 138.409 485.88 138.576L485.818 138.44C485.123 137.129 484.428 135.817 483.734 134.505C483.734 134.453 483.619 134.505 483.64 134.557C484.203 135.942 484.807 137.295 485.495 138.617C485.891 139.388 486.328 140.127 486.777 140.866C487.381 142.521 487.985 144.186 488.621 145.831C490.58 150.942 492.571 156.085 494.936 161.03C492.852 162.404 490.695 163.694 488.611 165.079C486.527 166.463 484.442 167.9 482.358 169.316C480.274 170.732 478.189 172.147 476.168 173.594C475.188 174.292 474.229 175 473.26 175.676C472.291 176.353 471.239 177.331 470.134 178.07C470.019 178.143 470.134 178.289 470.269 178.216C471.384 177.477 472.604 176.873 473.74 176.134C474.876 175.395 475.741 174.875 476.731 174.229C478.815 172.855 480.899 171.45 482.983 170.065C485.068 168.681 487.152 167.255 489.236 165.828C491.32 164.402 493.279 162.872 495.332 161.446C495.364 161.424 495.39 161.397 495.41 161.364C495.429 161.332 495.442 161.296 495.447 161.259C495.489 161.218 495.519 161.165 495.532 161.108C495.545 161.051 495.541 160.991 495.52 160.936C493.582 155.856 491.393 150.797 489.361 145.675Z" fill="#263238"/>
<path d="M490.737 190.282C488.955 187.721 481.754 177.488 479.774 175.094C479.774 175.094 479.669 175.094 479.69 175.094C481.139 177.759 487.944 188.054 489.726 190.636C493.151 195.868 496.863 200.907 500.845 205.73C500.918 205.813 501.075 205.73 501.023 205.626C497.938 200.317 494.249 195.351 490.737 190.282Z" fill="#263238"/>
<path d="M512.059 199.12C510.881 199.953 509.808 200.932 508.714 201.858L505.306 204.731C503.076 206.626 500.856 208.572 498.438 210.269C498.303 210.363 498.438 210.54 498.605 210.436C501.054 208.687 503.555 207.021 505.9 205.158C508.193 203.42 510.29 201.437 512.153 199.245C512.298 199.151 512.153 199.047 512.059 199.12Z" fill="#263238"/>
<path d="M538.372 204.721C538.372 204.981 538.476 205.241 538.508 205.512C538.508 205.46 538.508 205.408 538.508 205.356C538.455 205.137 538.414 204.929 538.372 204.721Z" fill="#DBDBDB"/>
<path d="M479.461 104.879C479.034 106.326 471.468 115.456 464.777 114.758C462.589 114.529 463.329 102.579 463.329 102.579L463.173 101.683L461.088 89.1916L476.157 80.7076L478.325 79.5938C478.325 79.5938 478.669 83.0498 479.044 87.3699C479.044 87.5677 479.044 87.7759 479.044 87.9841C479.044 88.1923 479.044 88.4629 479.117 88.6815C479.18 89.3269 479.242 89.9932 479.294 90.649C479.294 91.1487 479.378 91.6275 479.399 92.1584C479.419 92.6893 479.398 93.1994 479.492 93.7199C479.731 97.4362 479.72 101.164 479.461 104.879Z" fill="#EB9481"/>
<path d="M479.075 87.3387C477.625 90.739 475.452 93.7834 472.705 96.2605C469.959 98.7375 466.706 100.588 463.173 101.683L461.088 89.1916L476.157 80.7076L478.325 79.5938C478.325 79.5938 478.7 83.0186 479.075 87.3387Z" fill="#263238"/>
<path d="M446.634 65.7898C440.767 87.2757 452.981 93.2093 457.629 94.4689C461.797 95.614 476.324 98.9659 484.38 78.1983C492.436 57.4307 484.286 47.8849 474.792 44.7619C465.299 41.639 452.491 44.3039 446.634 65.7898Z" fill="#EB9481"/>
<path d="M454.367 61.5947C454.88 61.6208 455.395 61.6208 455.909 61.5947C456.442 61.7106 456.999 61.6484 457.493 61.4177C457.629 61.3086 457.726 61.1576 457.767 60.9882C457.809 60.8188 457.793 60.6404 457.722 60.4808C457.532 60.1863 457.266 59.9473 456.953 59.7883C456.64 59.6292 456.291 59.5557 455.94 59.5752C455.225 59.5138 454.513 59.7177 453.939 60.1477C453.828 60.2561 453.749 60.3927 453.71 60.5428C453.671 60.6929 453.673 60.8508 453.717 60.9996C453.761 61.1484 453.845 61.2824 453.959 61.3872C454.074 61.4921 454.214 61.5638 454.367 61.5947Z" fill="#263238"/>
<path d="M469.707 63.7287C469.225 63.5471 468.755 63.335 468.3 63.0937C467.779 62.9356 467.322 62.6145 466.997 62.1776C466.925 62.0183 466.907 61.8401 466.944 61.6695C466.982 61.4988 467.073 61.3448 467.206 61.2303C467.509 61.0539 467.855 60.9609 468.206 60.9609C468.558 60.9609 468.903 61.0539 469.206 61.2303C469.874 61.491 470.423 61.9874 470.749 62.6252C470.805 62.7732 470.818 62.934 470.787 63.0892C470.756 63.2444 470.682 63.3877 470.574 63.5028C470.465 63.6179 470.326 63.7002 470.173 63.7401C470.019 63.7801 469.858 63.7761 469.707 63.7287Z" fill="#263238"/>
<path d="M464.788 70.5996C464.788 70.5996 464.892 70.7037 464.871 70.7558C464.465 72.2235 464.235 73.962 465.444 74.7844C465.444 74.7844 465.444 74.8781 465.444 74.8572C463.839 74.2326 464.162 71.9217 464.788 70.5996Z" fill="#263238"/>
<path d="M466.487 69.3927C468.904 69.7986 467.914 74.5976 465.674 74.2124C463.433 73.8272 464.465 69.0491 466.487 69.3927Z" fill="#263238"/>
<path d="M467.372 69.8396C467.737 70.1936 468.05 70.7557 468.55 70.8806C469.05 71.0056 469.665 70.6516 470.145 70.2456C470.197 70.2456 470.228 70.2456 470.217 70.3185C470.04 71.2346 469.488 72.109 468.477 72.0465C467.466 71.9841 467.081 71.0056 467.039 70.0687C467.029 69.9125 467.227 69.746 467.372 69.8396Z" fill="#263238"/>
<path d="M455.93 67.6636C455.93 67.6011 455.805 67.6636 455.794 67.7677C455.523 69.2563 454.95 70.8906 453.501 71.1301V71.2134C455.19 71.3487 455.919 69.1314 455.93 67.6636Z" fill="#263238"/>
<path d="M454.94 65.8414C452.595 65.1439 451.376 69.8804 453.554 70.5258C455.732 71.1712 456.909 66.4243 454.94 65.8414Z" fill="#263238"/>
<path d="M453.877 65.895C453.439 66.0512 452.949 66.4155 452.491 66.3323C452.032 66.249 451.709 65.614 451.449 65.0414C451.449 64.979 451.386 65.0414 451.365 65.0414C451.105 65.9471 451.167 66.9673 451.99 67.3628C452.814 67.7584 453.533 67.0922 453.981 66.249C454.116 66.1241 454.054 65.8326 453.877 65.895Z" fill="#263238"/>
<path d="M455.961 75.127C455.961 75.127 455.169 77.2714 454.919 78.3124C454.919 78.4165 455.148 78.5102 455.492 78.6143C456.351 78.9679 457.291 79.0802 458.209 78.9389C459.128 78.7976 459.99 78.4082 460.703 77.8127C460.797 77.7295 460.703 77.5941 460.578 77.6358C459.048 78.2533 457.359 78.3592 455.763 77.9377C455.763 77.6358 457.233 74.315 457.076 74.263C456.25 74.1489 455.412 74.1489 454.586 74.263C456.097 69.7451 458.327 65.5083 459.796 60.9905C459.796 60.8239 459.619 60.7198 459.546 60.8551C456.889 65.1336 455.034 70.2968 453.345 74.9188C453.179 75.5226 455.503 75.2103 455.961 75.127Z" fill="#263238"/>
<path d="M455.93 78.2815C456.324 79.2361 456.959 80.072 457.774 80.707C458.231 81.0436 458.781 81.2292 459.348 81.2379C460.578 81.2379 460.89 80.197 460.921 79.2288C460.928 78.7184 460.88 78.2088 460.776 77.709C459.263 78.4108 457.565 78.6114 455.93 78.2815Z" fill="#263238"/>
<path d="M457.774 80.7067C458.231 81.0433 458.781 81.2289 459.348 81.2376C460.578 81.2376 460.89 80.1967 460.922 79.2285C460.307 79.0888 459.664 79.1585 459.093 79.4263C458.523 79.6942 458.059 80.1449 457.774 80.7067Z" fill="#FF9CBD"/>
<path d="M484.786 76.1175C481.107 76.1175 480.868 68.3934 480.868 68.3934C480.868 68.3934 473.437 67.8416 471.812 56.9425C471.779 60.1569 472.684 63.3113 474.417 66.0199C474.417 66.0199 461.432 63.6257 456.763 52.2477C456.763 52.2477 458.535 57.9939 460.442 60.1384C460.442 60.1384 455.065 58.1813 452.73 53.5177C452.73 53.5177 449.948 59.6595 448.051 61.273C448.051 61.273 450.365 38.3714 471.405 42.5353C471.405 42.5353 484.619 44.4403 488.58 55.3186C492.54 66.1969 484.786 76.1175 484.786 76.1175Z" fill="#263238"/>
<path d="M479.847 78.3124C479.847 78.3124 485.881 72.3476 488.673 74.6065C491.466 76.8655 486.068 86.1406 482.171 86.8381C481.677 86.9608 481.165 86.9827 480.663 86.9025C480.161 86.8223 479.681 86.6416 479.25 86.3713C478.82 86.101 478.449 85.7467 478.159 85.3297C477.87 84.9126 477.667 84.4413 477.564 83.9442L479.847 78.3124Z" fill="#EB9481"/>
<path d="M487.058 77.2297C487.12 77.2297 487.12 77.313 487.058 77.3234C484.317 77.8959 482.535 80.0195 481.149 82.3097C481.345 82.0882 481.585 81.9107 481.855 81.7892C482.124 81.6677 482.416 81.6048 482.712 81.6048C483.008 81.6048 483.3 81.6677 483.57 81.7892C483.839 81.9107 484.08 82.0882 484.275 82.3097C484.275 82.3618 484.275 82.4554 484.181 82.4242C483.757 82.202 483.274 82.1157 482.799 82.1772C482.323 82.2386 481.878 82.4448 481.524 82.7677C480.937 83.3143 480.409 83.9214 479.95 84.579C479.794 84.7872 479.398 84.5791 479.534 84.3396V84.2876C480.138 81.0189 483.546 76.9174 487.058 77.2297Z" fill="#263238"/>
<path d="M463.193 102.86L466.476 112.937L479.461 101.486L482.587 105.65C482.587 105.65 469.352 124.388 469.342 123.514L465.913 114.832L459.661 120.266L461.161 105.692L463.193 102.86Z" fill="white"/>
<path d="M460.067 112.989C460.39 110.584 460.661 108.148 461.109 105.764C461.109 105.681 461.265 105.65 461.276 105.764C461.599 108.127 460.234 117.329 460.14 119.547C460.4 119.307 465.882 114.779 465.924 114.862C466.705 116.257 469.217 122.586 469.383 123.19C471.468 120.213 479.461 109.408 481.889 106.628C481.901 106.609 481.921 106.595 481.943 106.59C481.966 106.585 481.989 106.59 482.009 106.602C482.028 106.614 482.042 106.634 482.047 106.657C482.052 106.679 482.047 106.702 482.035 106.722C480.149 109.845 469.529 124.419 469.425 124.419C468.075 121.424 466.879 118.363 465.84 115.247C464.902 116.288 459.327 121.4 459.337 121.035C459.437 118.342 459.68 115.656 460.067 112.989Z" fill="#263238"/>
<path d="M233.905 210.426H325.507C325.893 206.939 311.866 132.571 295.38 108.67C293.504 105.953 277.486 103.975 271.609 110.752C240.46 146.457 233.144 209.572 233.905 210.426Z" fill="#D413AF"/>
<path d="M322.079 190.397C321.675 190.299 321.253 190.299 320.849 190.397C320.432 190.48 320.026 190.521 319.619 190.636C320.025 190.74 320.435 190.824 320.849 190.886C321.215 190.911 321.571 191.018 321.891 191.198C322.049 191.295 322.193 191.415 322.318 191.552C322.225 191.136 322.152 190.771 322.079 190.397ZM273.432 145.947C273.061 145.924 272.702 145.805 272.39 145.603C272.113 145.426 271.886 145.181 271.73 144.891C271.575 144.601 271.497 144.276 271.504 143.948C271.494 143.445 271.334 142.956 271.044 142.545C270.755 142.133 270.349 141.817 269.879 141.637C269.441 141.478 268.968 141.446 268.513 141.543C268.107 141.626 267.68 141.678 267.273 141.793C267.68 141.908 268.107 141.96 268.513 142.043C268.88 142.069 269.235 142.176 269.556 142.355C269.835 142.522 270.068 142.759 270.23 143.041C270.392 143.324 270.479 143.643 270.483 143.969C270.482 144.467 270.627 144.955 270.901 145.372C271.176 145.788 271.567 146.115 272.025 146.311C272.461 146.487 272.939 146.534 273.401 146.446C273.818 146.363 274.224 146.311 274.631 146.196C274.256 146.082 273.849 146.03 273.432 145.947ZM298.683 181.527C298.313 181.498 297.956 181.38 297.641 181.184C297.366 181.005 297.141 180.759 296.988 180.47C296.835 180.18 296.758 179.856 296.765 179.529C296.763 179.162 296.678 178.8 296.518 178.47C296.358 178.14 296.127 177.85 295.84 177.621C295.554 177.391 295.22 177.229 294.862 177.145C294.505 177.061 294.133 177.057 293.775 177.134C293.358 177.218 292.951 177.27 292.534 177.384C292.951 177.499 293.358 177.54 293.775 177.624C294.142 177.649 294.499 177.759 294.817 177.946C295.098 178.11 295.333 178.344 295.497 178.624C295.661 178.905 295.75 179.224 295.755 179.549C295.753 180.048 295.899 180.536 296.173 180.952C296.447 181.369 296.838 181.696 297.297 181.892C297.732 182.07 298.212 182.114 298.673 182.017C299.079 181.933 299.496 181.892 299.902 181.777C299.506 181.652 299.089 181.611 298.683 181.527ZM251.152 189.199C250.782 189.17 250.424 189.052 250.11 188.856C249.833 188.678 249.607 188.432 249.452 188.143C249.297 187.853 249.219 187.529 249.224 187.201C249.219 186.698 249.06 186.208 248.77 185.797C248.479 185.386 248.071 185.073 247.598 184.9C247.157 184.742 246.681 184.709 246.222 184.806C245.816 184.89 245.41 184.942 244.993 185.056C245.41 185.171 245.816 185.223 246.222 185.306C246.589 185.328 246.946 185.435 247.265 185.618C247.543 185.785 247.776 186.019 247.94 186.3C248.104 186.58 248.194 186.897 248.202 187.222C248.199 187.722 248.345 188.212 248.622 188.629C248.898 189.046 249.293 189.371 249.755 189.564C250.191 189.74 250.669 189.787 251.131 189.699C251.537 189.616 251.944 189.564 252.361 189.449C251.933 189.335 251.527 189.283 251.152 189.199ZM310.396 144.135L309.677 144.291C309.948 144.363 310.223 144.418 310.501 144.458C310.438 144.354 310.407 144.25 310.365 144.135H310.396ZM295.411 155.295C295.327 154.878 295.275 154.472 295.161 154.066C295.046 154.472 294.994 154.878 294.91 155.295C294.891 155.661 294.783 156.018 294.598 156.336C294.435 156.618 294.201 156.852 293.92 157.017C293.638 157.181 293.319 157.269 292.993 157.272C292.494 157.271 292.005 157.416 291.588 157.69C291.172 157.964 290.845 158.355 290.648 158.813C290.471 159.248 290.424 159.726 290.513 160.187C290.596 160.593 290.648 161.01 290.763 161.416C290.877 161.01 290.93 160.593 291.013 160.187C291.045 159.818 291.162 159.462 291.357 159.146C291.536 158.872 291.782 158.647 292.072 158.494C292.362 158.341 292.686 158.265 293.014 158.272C293.516 158.262 294.004 158.103 294.415 157.813C294.826 157.524 295.14 157.118 295.317 156.648C295.463 156.211 295.485 155.743 295.379 155.295H295.411ZM253.351 156.117C253.267 155.711 253.215 155.295 253.1 154.889C252.986 155.295 252.934 155.711 252.85 156.117C252.824 156.483 252.717 156.838 252.538 157.158C252.372 157.437 252.137 157.668 251.856 157.83C251.575 157.993 251.257 158.08 250.933 158.084C250.434 158.083 249.945 158.228 249.528 158.502C249.111 158.776 248.784 159.167 248.588 159.625C248.411 160.06 248.364 160.538 248.453 160.999C248.536 161.416 248.588 161.822 248.703 162.228C248.817 161.822 248.869 161.416 248.953 160.999C248.981 160.629 249.099 160.272 249.297 159.958C249.474 159.681 249.719 159.454 250.009 159.299C250.299 159.144 250.625 159.066 250.954 159.073C251.456 159.062 251.943 158.902 252.354 158.613C252.764 158.323 253.078 157.918 253.257 157.449C253.393 157.029 253.415 156.58 253.319 156.148L253.351 156.117ZM272.87 114.301C272.786 113.884 272.734 113.478 272.619 113.072C272.505 113.478 272.453 113.884 272.369 114.301C272.344 114.667 272.237 115.022 272.057 115.342C271.894 115.624 271.66 115.858 271.379 116.023C271.097 116.187 270.778 116.275 270.452 116.279C269.952 116.279 269.463 116.425 269.045 116.699C268.626 116.972 268.297 117.362 268.097 117.819C267.92 118.255 267.873 118.732 267.961 119.193C268.044 119.599 268.097 120.016 268.211 120.422C268.326 120.016 268.378 119.599 268.472 119.193C268.503 118.824 268.621 118.468 268.816 118.152C268.993 117.876 269.239 117.651 269.529 117.498C269.819 117.345 270.144 117.269 270.473 117.278C270.975 117.268 271.463 117.109 271.874 116.819C272.284 116.53 272.599 116.124 272.776 115.654C272.922 115.217 272.944 114.749 272.838 114.301H272.87ZM277.205 196.226C277.121 195.81 277.08 195.404 276.965 194.987C276.85 195.404 276.798 195.81 276.715 196.226C276.688 196.592 276.582 196.947 276.402 197.267C276.239 197.549 276.006 197.784 275.724 197.948C275.443 198.112 275.123 198.2 274.797 198.204C274.297 198.203 273.808 198.349 273.389 198.622C272.971 198.896 272.642 199.286 272.442 199.745C272.263 200.18 272.22 200.658 272.317 201.119C272.401 201.525 272.453 201.941 272.567 202.347C272.682 201.941 272.734 201.525 272.817 201.119C272.839 200.749 272.954 200.391 273.151 200.078C273.33 199.803 273.576 199.579 273.866 199.426C274.156 199.273 274.48 199.196 274.808 199.203C275.311 199.193 275.801 199.033 276.213 198.744C276.625 198.455 276.941 198.049 277.121 197.579C277.275 197.145 277.303 196.676 277.205 196.226ZM298.047 130.915C297.77 131.147 297.441 131.312 297.088 131.394C296.767 131.465 296.433 131.451 296.119 131.355C295.805 131.258 295.521 131.081 295.296 130.842C295.034 130.584 294.718 130.388 294.37 130.267C294.023 130.147 293.653 130.106 293.287 130.147C292.922 130.188 292.57 130.31 292.257 130.504C291.945 130.698 291.68 130.959 291.482 131.269C291.253 131.612 290.992 131.945 290.784 132.31C291.159 132.101 291.482 131.852 291.826 131.612C292.1 131.373 292.424 131.199 292.774 131.102C293.091 131.021 293.422 131.022 293.738 131.106C294.054 131.19 294.343 131.354 294.577 131.581C294.93 131.934 295.379 132.176 295.868 132.276C296.357 132.376 296.865 132.33 297.328 132.143C297.754 131.961 298.117 131.657 298.37 131.269C298.6 130.915 298.85 130.592 299.058 130.228C298.683 130.436 298.349 130.686 298.047 130.915ZM271.338 174.251C271.062 174.484 270.733 174.645 270.379 174.719C270.059 174.789 269.726 174.775 269.412 174.681C269.099 174.586 268.815 174.413 268.586 174.178C268.222 173.829 267.762 173.596 267.265 173.508C266.767 173.421 266.255 173.484 265.793 173.689C265.371 173.891 265.01 174.204 264.751 174.594C264.522 174.948 264.262 175.271 264.053 175.635C264.428 175.417 264.751 175.167 265.095 174.938C265.369 174.693 265.698 174.518 266.054 174.428C266.364 174.348 266.689 174.348 266.999 174.428C267.309 174.508 267.594 174.666 267.826 174.886C268.18 175.239 268.63 175.482 269.121 175.584C269.611 175.685 270.121 175.642 270.587 175.458C271.012 175.269 271.374 174.962 271.629 174.574C271.859 174.23 272.119 173.907 272.328 173.533C271.994 173.762 271.65 174.011 271.296 174.251H271.338ZM317.65 170.722C317.563 170.829 317.486 170.944 317.42 171.065L317.691 170.888C317.674 170.834 317.66 170.778 317.65 170.722ZM304.196 201.951C303.918 202.184 303.59 202.348 303.237 202.43C302.915 202.5 302.581 202.488 302.265 202.393C301.95 202.298 301.664 202.125 301.434 201.889C301.075 201.539 300.618 201.305 300.124 201.218C299.629 201.131 299.12 201.194 298.662 201.4C298.237 201.599 297.876 201.912 297.62 202.305C297.391 202.659 297.13 202.992 296.922 203.346C297.281 203.132 297.629 202.899 297.964 202.649C298.24 202.405 298.568 202.227 298.923 202.128C299.239 202.047 299.571 202.049 299.887 202.133C300.202 202.216 300.491 202.38 300.726 202.607C301.073 202.965 301.519 203.212 302.007 203.316C302.495 203.42 303.003 203.376 303.466 203.19C303.891 202.996 304.252 202.685 304.508 202.295C304.738 201.951 304.988 201.618 305.196 201.254C304.873 201.504 304.54 201.754 304.196 201.951ZM257.696 207.24C257.418 207.469 257.09 207.63 256.737 207.708C256.417 207.778 256.084 207.766 255.771 207.671C255.457 207.576 255.173 207.403 254.945 207.167C254.583 206.817 254.125 206.584 253.629 206.496C253.133 206.409 252.622 206.472 252.162 206.678C251.74 206.88 251.379 207.193 251.12 207.583C250.891 207.937 250.631 208.26 250.422 208.624C250.797 208.416 251.12 208.156 251.464 207.927C251.737 207.686 252.061 207.512 252.413 207.417C252.728 207.334 253.06 207.334 253.375 207.416C253.691 207.498 253.98 207.66 254.215 207.885C254.566 208.241 255.015 208.486 255.504 208.588C255.994 208.689 256.503 208.644 256.967 208.458C257.389 208.269 257.75 207.966 258.009 207.583C258.238 207.229 258.488 206.907 258.707 206.542C258.374 206.782 258.051 207.042 257.696 207.271V207.24Z" fill="white"/>
<path d="M297.547 114.842C300.153 121.567 309.959 145.156 315.263 162.092C318.838 173.45 320.203 182.985 320.985 185.494C320.985 185.494 293.889 176.812 287.845 176.802C278.466 176.802 263.418 196.341 267.107 198.798C272.911 202.649 300.569 215.766 322.652 219.877C334.657 222.116 357.282 206.876 355.489 194.758C352.988 177.749 322.214 132.914 310.511 120.203C304.467 113.603 294.379 106.639 297.547 114.842Z" fill="#AD6359"/>
<path d="M357.167 198.349C356.604 210.602 341.264 220.918 332.365 221.459C317.024 222.386 270.983 208.967 270.983 208.967L288.877 174.532C288.877 174.532 320.203 185.15 320.995 185.451C320.724 184.546 313.002 155.565 309.532 145.967C309.344 145.436 309.136 144.926 308.938 144.322C307.895 141.668 306.582 138.149 305.071 134.36C304.238 132.278 303.352 130.071 302.487 127.896C298.704 118.527 295.015 109.574 295.015 109.574C300.288 110.438 305.499 113.207 314.044 122.17C322.589 131.133 358.105 178.133 357.167 198.349Z" fill="#D413AF"/>
<path d="M325.737 194.737C325.367 194.714 325.009 194.599 324.695 194.404C324.42 194.225 324.195 193.979 324.042 193.69C323.889 193.4 323.812 193.076 323.819 192.749C323.809 192.246 323.649 191.757 323.359 191.345C323.07 190.934 322.664 190.618 322.194 190.438C321.754 190.287 321.283 190.259 320.828 190.354C320.412 190.438 320.005 190.479 319.599 190.594C320.004 190.698 320.414 190.781 320.828 190.844C321.195 190.869 321.551 190.975 321.871 191.156C322.151 191.32 322.385 191.554 322.55 191.835C322.714 192.116 322.803 192.434 322.808 192.759C322.808 193.259 322.953 193.748 323.227 194.166C323.501 194.584 323.892 194.913 324.351 195.112C324.786 195.29 325.266 195.334 325.726 195.237C326.133 195.153 326.55 195.101 326.956 194.987C326.56 194.872 326.185 194.831 325.737 194.737ZM315.795 217.639C315.358 217.48 314.885 217.448 314.43 217.545C314.013 217.628 313.607 217.68 313.2 217.795C313.607 217.909 314.013 217.961 314.43 218.045C314.796 218.07 315.152 218.176 315.472 218.357C315.744 218.518 315.972 218.744 316.136 219.015C316.3 219.285 316.394 219.592 316.41 219.908L317.452 220.074V219.939C317.436 219.432 317.266 218.941 316.964 218.532C316.663 218.123 316.244 217.815 315.764 217.649L315.795 217.639ZM298.683 181.516C298.313 181.487 297.956 181.369 297.641 181.173C297.366 180.994 297.142 180.748 296.989 180.459C296.835 180.169 296.759 179.845 296.766 179.518C296.763 179.151 296.679 178.79 296.519 178.459C296.359 178.129 296.127 177.839 295.841 177.61C295.554 177.381 295.22 177.218 294.863 177.134C294.505 177.05 294.134 177.046 293.775 177.123C293.358 177.207 292.952 177.259 292.535 177.373C292.952 177.488 293.358 177.529 293.775 177.613C294.143 177.638 294.5 177.748 294.817 177.935C295.099 178.099 295.333 178.333 295.497 178.614C295.662 178.895 295.75 179.213 295.755 179.539C295.754 180.037 295.899 180.525 296.173 180.941C296.448 181.358 296.838 181.685 297.297 181.881C297.733 182.059 298.212 182.103 298.673 182.006C299.079 181.922 299.496 181.881 299.903 181.766C299.507 181.652 299.09 181.61 298.683 181.527V181.516ZM315.764 148.434C315.392 148.414 315.032 148.296 314.722 148.09C314.445 147.915 314.218 147.672 314.063 147.384C313.908 147.096 313.83 146.773 313.836 146.446C313.828 145.942 313.669 145.452 313.379 145.04C313.089 144.628 312.682 144.312 312.21 144.135C311.772 143.979 311.299 143.95 310.845 144.051C310.438 144.135 310.022 144.176 309.615 144.291C310.022 144.405 310.438 144.457 310.845 144.541C311.211 144.567 311.567 144.674 311.887 144.853C312.166 145.02 312.398 145.254 312.562 145.534C312.726 145.814 312.817 146.132 312.825 146.456C312.819 146.954 312.961 147.443 313.234 147.86C313.507 148.277 313.897 148.604 314.357 148.798C314.793 148.974 315.27 149.021 315.732 148.934C316.149 148.85 316.556 148.798 316.973 148.684C316.587 148.569 316.181 148.517 315.764 148.434ZM349.508 177.134C349.424 176.717 349.372 176.312 349.258 175.906C349.143 176.312 349.091 176.717 349.007 177.134C348.988 177.501 348.88 177.858 348.695 178.175C348.532 178.457 348.298 178.692 348.017 178.856C347.735 179.02 347.416 179.108 347.09 179.112C346.591 179.11 346.102 179.256 345.686 179.53C345.269 179.804 344.942 180.194 344.745 180.652C344.568 181.088 344.521 181.565 344.61 182.026C344.693 182.432 344.745 182.849 344.86 183.255C344.974 182.849 345.027 182.432 345.11 182.026C345.142 181.657 345.259 181.301 345.454 180.985C345.633 180.711 345.879 180.487 346.169 180.334C346.459 180.181 346.783 180.104 347.111 180.111C347.613 180.102 348.101 179.942 348.512 179.652C348.923 179.363 349.237 178.957 349.414 178.487C349.571 178.054 349.603 177.585 349.508 177.134ZM338.044 211.653C337.961 211.237 337.909 210.831 337.794 210.425C337.68 210.831 337.627 211.237 337.544 211.653C337.524 212.02 337.417 212.376 337.231 212.694C337.069 212.976 336.835 213.211 336.553 213.375C336.272 213.539 335.953 213.627 335.627 213.631C335.128 213.629 334.639 213.775 334.222 214.049C333.805 214.323 333.478 214.713 333.282 215.171C333.105 215.607 333.058 216.084 333.146 216.546C333.23 216.951 333.282 217.368 333.396 217.774C333.511 217.368 333.563 216.951 333.647 216.546C333.678 216.176 333.796 215.82 333.99 215.505C334.169 215.23 334.416 215.006 334.705 214.853C334.995 214.7 335.32 214.623 335.647 214.63C336.015 214.626 336.377 214.54 336.707 214.379C337.038 214.218 337.328 213.986 337.558 213.699C337.787 213.412 337.95 213.078 338.034 212.72C338.118 212.363 338.122 211.991 338.044 211.632V211.653ZM276.444 198.547C276.744 198.291 276.971 197.961 277.101 197.589C277.171 197.412 277.217 197.227 277.236 197.037L276.444 198.547ZM356.115 199.765C355.837 199.994 355.508 200.155 355.156 200.233C354.836 200.304 354.503 200.291 354.189 200.196C353.875 200.101 353.591 199.928 353.364 199.692C353.002 199.342 352.543 199.109 352.047 199.022C351.551 198.934 351.041 198.997 350.581 199.203C350.158 199.405 349.798 199.718 349.539 200.108C349.31 200.462 349.049 200.785 348.841 201.149C349.216 200.931 349.539 200.681 349.883 200.452C350.153 200.207 350.478 200.032 350.831 199.942C351.147 199.857 351.479 199.856 351.795 199.938C352.111 200.02 352.4 200.183 352.634 200.41C352.986 200.764 353.435 201.007 353.924 201.109C354.413 201.21 354.921 201.167 355.385 200.983C355.81 200.794 356.172 200.487 356.427 200.098C356.646 199.765 356.886 199.453 357.094 199.057C356.742 199.27 356.404 199.506 356.083 199.765H356.115ZM324.684 169.68C324.406 169.91 324.078 170.071 323.726 170.149C323.405 170.219 323.072 170.206 322.759 170.112C322.445 170.017 322.161 169.843 321.933 169.608C321.571 169.258 321.113 169.024 320.617 168.937C320.121 168.85 319.61 168.913 319.151 169.118C318.728 169.321 318.368 169.634 318.108 170.024C317.879 170.378 317.619 170.701 317.41 171.065C317.785 170.846 318.108 170.596 318.452 170.367C318.722 170.123 319.048 169.948 319.401 169.857C319.716 169.773 320.048 169.772 320.364 169.854C320.68 169.936 320.969 170.099 321.204 170.326C321.556 170.68 322.004 170.922 322.493 171.024C322.982 171.126 323.49 171.082 323.955 170.898C324.38 170.709 324.742 170.402 324.997 170.014C325.226 169.67 325.476 169.347 325.695 168.973C325.362 169.202 325.039 169.451 324.684 169.68ZM336.033 151.213C335.612 151.171 335.187 151.243 334.803 151.422C334.378 151.621 334.017 151.934 333.761 152.327C333.532 152.681 333.271 153.004 333.063 153.368C333.438 153.16 333.761 152.91 334.105 152.681C334.381 152.437 334.709 152.259 335.064 152.161C335.38 152.08 335.712 152.081 336.028 152.165C336.344 152.249 336.632 152.412 336.867 152.64C336.936 152.714 337.012 152.78 337.096 152.837C336.752 152.296 336.398 151.755 336.033 151.224V151.213ZM304.196 201.951C303.919 202.184 303.59 202.348 303.237 202.43C302.916 202.5 302.581 202.487 302.266 202.392C301.95 202.298 301.664 202.124 301.434 201.888C301.075 201.538 300.618 201.305 300.124 201.217C299.63 201.13 299.12 201.193 298.662 201.399C298.237 201.598 297.877 201.912 297.62 202.305C297.391 202.659 297.131 202.992 296.922 203.346C297.281 203.132 297.629 202.899 297.964 202.648C298.24 202.404 298.568 202.226 298.923 202.128C299.239 202.047 299.571 202.048 299.887 202.132C300.203 202.216 300.492 202.379 300.726 202.607C301.073 202.965 301.519 203.212 302.007 203.316C302.495 203.419 303.004 203.376 303.467 203.19C303.892 202.995 304.253 202.685 304.509 202.294C304.738 201.951 304.988 201.618 305.197 201.253C304.873 201.503 304.54 201.753 304.196 201.951Z" fill="white"/>
<path d="M282.916 201.547C284.187 199.111 285.49 196.685 286.772 194.26C288.053 191.834 289.304 189.492 290.586 187.129C291.868 184.766 293.306 182.226 294.379 179.644C294.379 179.644 294.327 179.561 294.296 179.644C292.73 181.805 291.306 184.065 290.033 186.411C288.668 188.795 287.324 191.21 286 193.625C284.677 196.04 283.458 198.382 282.228 200.776C280.895 203.242 279.739 205.799 278.768 208.428C278.759 208.451 278.759 208.476 278.767 208.499C278.775 208.522 278.791 208.542 278.813 208.555C278.834 208.567 278.859 208.572 278.883 208.567C278.907 208.563 278.929 208.551 278.945 208.532C280.397 206.279 281.723 203.947 282.916 201.547Z" fill="#37474F"/>
<path opacity="0.1" d="M330.582 190.563L320.974 185.494C320.703 184.588 312.981 155.607 309.511 146.009C309.323 145.478 309.115 144.968 308.917 144.365C307.874 141.71 306.561 138.192 305.05 134.402L330.582 190.563Z" fill="black"/>
<path d="M338.503 194.768C335.816 192.795 333.007 190.994 330.093 189.376C328.655 188.564 327.182 187.818 325.674 187.138C324.059 186.42 322.36 185.899 320.766 185.181C320.641 185.129 320.547 185.316 320.672 185.368C322.162 186.045 323.579 186.982 325.028 187.763C326.477 188.543 328.029 189.386 329.551 190.167C332.531 191.697 335.46 193.29 338.419 194.883C338.492 194.924 338.565 194.81 338.503 194.768Z" fill="#37474F"/>
<path d="M331.531 187.378C329.134 187.378 314.638 183.537 312.533 185.525C299.662 197.642 295.598 195.207 292.857 196.778C271.661 208.968 243.346 223.282 233.248 223.365C217.918 223.49 211.822 210.644 214.365 198.506C219.408 174.512 251.798 127.72 266.471 115.301C274.235 108.722 273.62 118.642 270.41 129.437C268.524 135.766 265.199 145.166 261.865 154.421C258.884 162.645 250.985 183.662 250.849 184.151V184.203C250.849 184.266 250.849 184.276 251.016 184.203C251.693 184.078 269.774 175.553 288.053 170.858C294.473 169.213 307.854 166.861 312.647 168.995C315.503 170.265 315.544 171.961 315.544 171.961C317.278 171.953 318.952 172.588 320.244 173.741C321.228 174.58 321.951 175.681 322.329 176.916C323.747 177.127 325.071 177.754 326.132 178.717C327.046 179.705 327.638 180.947 327.831 182.277C331.176 183.214 331.531 187.378 331.531 187.378Z" fill="#AD6359"/>
<path d="M310.126 171.461C308.204 171.516 306.291 171.729 304.404 172.096C304.279 172.096 304.279 172.325 304.404 172.305C306.27 172.096 308.156 172.055 310.032 171.992C311.908 171.93 313.783 171.899 315.649 171.93C313.826 171.608 311.977 171.451 310.126 171.461Z" fill="#263238"/>
<path d="M322.256 176.801C318.987 175.76 315.528 175.454 312.127 175.905C311.991 175.905 312.001 176.124 312.127 176.114C315.518 175.932 318.919 176.188 322.246 176.874C322.246 176.874 322.287 176.811 322.256 176.801Z" fill="#263238"/>
<path d="M327.769 182.173C324.742 180.884 321.47 180.27 318.181 180.372C318.056 180.372 318.015 180.57 318.181 180.581C321.415 180.879 324.616 181.46 327.748 182.319C327.8 182.329 327.842 182.173 327.769 182.173Z" fill="#263238"/>
<path d="M287.126 171.066C285.531 171.326 283.951 171.673 282.395 172.107C280.727 172.513 279.081 172.972 277.455 173.502C274.21 174.588 271.027 175.849 267.92 177.281C267.805 177.333 267.92 177.521 267.993 177.469C271.119 176.365 274.37 175.324 277.58 174.346C279.154 173.846 280.707 173.305 282.301 172.805C283.895 172.305 285.594 171.878 287.178 171.285C287.202 171.274 287.222 171.255 287.234 171.231C287.245 171.207 287.248 171.18 287.242 171.154C287.236 171.129 287.221 171.106 287.2 171.09C287.179 171.074 287.153 171.065 287.126 171.066Z" fill="#263238"/>
<path d="M274.454 174.502C276.014 173.894 277.652 173.512 279.32 173.367L298.391 205.534C298.391 205.534 245.858 224.427 235.072 225.531C224.286 226.634 212.02 218.15 211.812 204.628C211.52 185.62 242.554 139.962 258.165 122.307C265.325 114.208 273.662 108.337 275.798 109.659C278.31 111.231 273.714 121.401 271.338 128.99C266.898 143.002 250.985 184.162 250.985 184.162C250.985 184.162 270.452 175.855 274.454 174.502Z" fill="#D413AF"/>
<path d="M232.664 169.504C232.295 169.474 231.937 169.356 231.622 169.16C231.348 168.981 231.123 168.735 230.968 168.446C230.813 168.157 230.733 167.833 230.737 167.505C230.731 167.004 230.573 166.516 230.285 166.105C229.997 165.695 229.591 165.381 229.121 165.205C228.677 165.047 228.197 165.014 227.735 165.111L227.475 165.548L227.756 165.611C228.124 165.629 228.481 165.737 228.798 165.923C229.078 166.089 229.311 166.323 229.475 166.603C229.639 166.884 229.729 167.201 229.736 167.526C229.733 168.025 229.878 168.513 230.153 168.93C230.427 169.347 230.819 169.673 231.278 169.868C231.714 170.045 232.192 170.092 232.654 170.004C233.06 169.92 233.467 169.868 233.884 169.754C233.436 169.681 233.071 169.587 232.664 169.504ZM236.343 219.96C235.973 219.931 235.616 219.813 235.301 219.617C235.025 219.439 234.799 219.193 234.644 218.904C234.489 218.614 234.41 218.29 234.415 217.962C234.409 217.46 234.252 216.972 233.964 216.562C233.676 216.151 233.27 215.837 232.8 215.661C232.359 215.503 231.883 215.471 231.424 215.568C231.018 215.651 230.611 215.703 230.195 215.817C230.611 215.932 231.018 215.984 231.424 216.067C231.791 216.089 232.148 216.196 232.466 216.379C232.745 216.546 232.978 216.78 233.142 217.061C233.306 217.341 233.396 217.658 233.404 217.983C233.399 218.482 233.543 218.972 233.817 219.389C234.092 219.806 234.485 220.132 234.947 220.325C235.383 220.502 235.86 220.549 236.322 220.46C236.729 220.377 237.135 220.325 237.552 220.21C237.156 220.096 236.75 220.044 236.343 219.96ZM251.152 189.199C250.782 189.17 250.425 189.052 250.11 188.856C249.834 188.678 249.607 188.432 249.453 188.143C249.298 187.853 249.219 187.529 249.224 187.201C249.219 186.698 249.06 186.208 248.77 185.797C248.48 185.386 248.071 185.073 247.598 184.9C247.157 184.742 246.681 184.709 246.222 184.806C245.816 184.89 245.41 184.942 244.993 185.056C245.41 185.171 245.816 185.223 246.222 185.306C246.589 185.328 246.946 185.435 247.265 185.618C247.544 185.785 247.776 186.019 247.94 186.3C248.104 186.58 248.194 186.897 248.203 187.222C248.199 187.722 248.345 188.212 248.622 188.629C248.898 189.046 249.293 189.372 249.755 189.564C250.191 189.74 250.669 189.787 251.131 189.699C251.537 189.616 251.944 189.564 252.361 189.449C251.933 189.335 251.527 189.283 251.152 189.199ZM253.319 156.148C253.236 155.742 253.184 155.326 253.069 154.92C252.955 155.326 252.902 155.742 252.819 156.148C252.793 156.514 252.686 156.869 252.506 157.189C252.341 157.468 252.106 157.699 251.825 157.862C251.544 158.024 251.226 158.111 250.902 158.116C250.403 158.114 249.914 158.26 249.497 158.534C249.08 158.808 248.753 159.198 248.557 159.656C248.38 160.092 248.333 160.569 248.421 161.03C248.505 161.447 248.557 161.853 248.671 162.259C248.786 161.853 248.838 161.447 248.922 161.03C248.95 160.661 249.068 160.303 249.265 159.989C249.442 159.712 249.688 159.485 249.978 159.33C250.268 159.175 250.593 159.098 250.922 159.105C251.425 159.094 251.912 158.933 252.322 158.644C252.733 158.355 253.047 157.95 253.226 157.481C253.378 157.053 253.411 156.593 253.319 156.148ZM226.474 185.723C226.391 185.306 226.339 184.9 226.224 184.494C226.109 184.9 226.057 185.306 225.974 185.723C225.949 186.089 225.842 186.444 225.661 186.764C225.498 187.046 225.265 187.28 224.983 187.445C224.702 187.609 224.382 187.697 224.056 187.7C223.557 187.699 223.069 187.844 222.652 188.118C222.235 188.392 221.908 188.783 221.712 189.241C221.535 189.676 221.488 190.154 221.576 190.615C221.66 191.021 221.712 191.438 221.826 191.844C221.941 191.438 221.993 191.021 222.076 190.615C222.108 190.246 222.226 189.89 222.42 189.574C222.598 189.298 222.844 189.073 223.134 188.92C223.424 188.766 223.749 188.691 224.077 188.7C224.58 188.69 225.068 188.531 225.478 188.241C225.889 187.952 226.203 187.546 226.38 187.076C226.543 186.633 226.576 186.152 226.474 185.691V185.723ZM272.838 114.332C272.755 113.915 272.703 113.509 272.588 113.104C272.474 113.509 272.421 113.915 272.338 114.332C272.313 114.698 272.206 115.054 272.025 115.373C271.863 115.655 271.629 115.89 271.347 116.054C271.066 116.218 270.747 116.306 270.421 116.31C269.921 116.31 269.432 116.456 269.013 116.73C268.595 117.004 268.266 117.393 268.065 117.85C267.889 118.286 267.841 118.763 267.93 119.225C268.013 119.63 268.065 120.047 268.18 120.453C268.295 120.047 268.347 119.63 268.441 119.225C268.472 118.855 268.59 118.499 268.784 118.184C268.962 117.908 269.208 117.682 269.498 117.529C269.788 117.376 270.113 117.3 270.441 117.309C270.944 117.3 271.432 117.14 271.843 116.85C272.253 116.561 272.567 116.155 272.745 115.685C272.907 115.242 272.94 114.762 272.838 114.301V114.332ZM277.205 196.226C277.121 195.81 277.08 195.404 276.965 194.987C276.85 195.404 276.798 195.81 276.715 196.226C276.689 196.592 276.582 196.947 276.402 197.267C276.239 197.549 276.006 197.784 275.724 197.948C275.443 198.112 275.123 198.201 274.798 198.204C274.297 198.203 273.808 198.349 273.389 198.622C272.971 198.896 272.642 199.286 272.442 199.745C272.263 200.18 272.22 200.659 272.317 201.119C272.401 201.525 272.453 201.941 272.567 202.347C272.682 201.941 272.734 201.525 272.817 201.119C272.839 200.749 272.954 200.391 273.151 200.078C273.33 199.803 273.576 199.579 273.866 199.426C274.156 199.273 274.48 199.196 274.808 199.203C275.312 199.193 275.801 199.033 276.213 198.744C276.625 198.455 276.941 198.049 277.121 197.579C277.275 197.145 277.304 196.676 277.205 196.226ZM251.777 134.048C251.5 134.281 251.171 134.445 250.818 134.527C250.497 134.598 250.163 134.585 249.849 134.488C249.535 134.391 249.251 134.215 249.026 133.975L248.838 133.809L248.213 134.631L248.317 134.714C248.67 135.068 249.119 135.309 249.608 135.409C250.097 135.509 250.605 135.463 251.068 135.276C251.495 135.094 251.857 134.79 252.11 134.402C252.34 134.048 252.59 133.725 252.798 133.361C252.454 133.569 252.121 133.819 251.777 134.048ZM216.918 205.387C216.642 205.62 216.313 205.781 215.959 205.855C215.637 205.925 215.303 205.913 214.988 205.818C214.672 205.723 214.386 205.55 214.156 205.314C213.852 205.017 213.478 204.801 213.068 204.686C212.658 204.571 212.226 204.562 211.812 204.658C211.812 204.96 211.812 205.251 211.812 205.543C212.098 205.495 212.392 205.515 212.669 205.602C212.946 205.689 213.198 205.84 213.406 206.043C213.76 206.397 214.21 206.641 214.701 206.742C215.192 206.844 215.702 206.8 216.168 206.615C216.593 206.426 216.954 206.119 217.21 205.73C217.439 205.387 217.7 205.054 217.908 204.689C217.566 204.904 217.236 205.137 216.918 205.387ZM297.005 203.232L296.911 203.388L297.047 203.305L297.005 203.232ZM257.675 207.271C257.397 207.501 257.069 207.661 256.717 207.739C256.396 207.81 256.064 207.797 255.75 207.702C255.436 207.607 255.152 207.434 254.924 207.198C254.562 206.848 254.104 206.615 253.608 206.528C253.112 206.44 252.601 206.504 252.142 206.709C251.719 206.911 251.359 207.224 251.1 207.614C250.87 207.968 250.61 208.291 250.401 208.655C250.777 208.447 251.1 208.187 251.444 207.958C251.716 207.717 252.041 207.543 252.392 207.448C252.707 207.365 253.039 207.365 253.354 207.447C253.67 207.529 253.959 207.691 254.195 207.916C254.545 208.272 254.994 208.517 255.484 208.619C255.973 208.721 256.482 208.675 256.946 208.489C257.368 208.3 257.729 207.997 257.988 207.614C258.217 207.26 258.467 206.938 258.686 206.573C258.374 206.782 258.051 207.042 257.696 207.271H257.675Z" fill="white"/>
<path d="M279.154 173.336C276.194 173.513 263.397 177.958 257.123 180.623C250.861 183.274 244.864 186.509 239.209 190.283C236.02 192.438 232.956 194.78 229.997 197.206C229.892 197.289 229.997 197.456 230.111 197.372C241.267 189.675 253.211 183.184 265.741 178.01C269.326 176.615 275.485 174.523 278.987 173.607C279.987 173.378 279.289 173.336 279.154 173.336Z" fill="#37474F"/>
<path d="M266.555 145.207C265.752 146.498 264.95 147.779 264.262 149.132L264.168 149.319C265.21 146.196 266.148 143.146 267.076 140.023C267.128 139.836 266.815 139.732 266.742 139.919C262.219 151.37 258.04 162.894 253.966 174.48C252.83 177.728 251.881 180.996 250.839 184.275C250.839 184.38 250.985 184.442 251.027 184.338C252.267 181.527 253.518 178.737 254.653 175.885C255.789 173.033 256.842 170.149 257.915 167.266C259.784 162.227 261.566 157.168 263.261 152.088C263.803 151.193 264.304 150.308 264.856 149.402C265.585 148.08 266.2 146.696 266.815 145.311C266.829 145.277 266.828 145.238 266.814 145.204C266.799 145.17 266.771 145.143 266.737 145.129C266.702 145.115 266.664 145.116 266.63 145.131C266.595 145.145 266.568 145.173 266.555 145.207Z" fill="#37474F"/>
<path d="M285.615 198.526C284.219 196.153 282.843 193.779 281.447 191.396C280.05 189.012 278.737 186.742 277.403 184.4C276.074 181.94 274.62 179.55 273.047 177.238C273.047 177.238 272.943 177.238 272.964 177.238C273.975 179.705 275.144 182.105 276.465 184.421C277.768 186.847 279.112 189.251 280.467 191.656C281.822 194.061 283.166 196.33 284.552 198.641C285.954 201.068 287.517 203.398 289.231 205.615C289.304 205.699 289.471 205.615 289.419 205.522C288.28 203.122 287.01 200.787 285.615 198.526Z" fill="#37474F"/>
<path d="M299.152 205.605C297.579 202.482 295.109 199.422 293.285 196.465C293.222 196.351 293.056 196.465 293.118 196.58C294.775 199.359 296.245 202.357 297.87 205.189C290.659 208.156 282.999 210.81 275.642 213.423C268.086 216.088 260.489 218.628 252.778 220.845C248.474 222.084 244.159 223.427 239.824 224.562C239.563 224.634 239.636 224.853 239.907 224.801C247.689 223.227 255.369 221.19 262.907 218.701C270.598 216.254 278.195 213.496 285.75 210.706C290.013 209.124 299.288 205.855 299.152 205.605Z" fill="#37474F"/>
<path d="M286.646 171.087C277.677 173.508 268.847 176.42 260.197 179.811L259.812 179.946C255.31 181.715 252.517 183.069 251.85 183.131L251.704 183.048C251.276 182.738 250.81 182.482 250.318 182.288C249.047 181.83 236.833 180.31 237.146 176.531C237.458 172.753 242.419 173.034 243.148 173.086C242.356 172.909 235.728 171.358 237.885 168.058C239.417 165.705 245.972 166.049 246.639 166.08C245.962 165.861 239.886 163.873 241.971 160.511C243.471 158.096 250.797 158.429 251.642 158.554C250.954 158.293 245.535 157.377 248.067 154.473C249.828 152.453 263.616 154.473 269.743 157.596C278.862 162.083 286.646 171.087 286.646 171.087Z" fill="#AD6359"/>
<path d="M260.198 179.81L259.812 179.946C257.728 178.301 249.693 174.064 243.399 173.263C243.003 173.211 242.982 172.992 243.399 173.002C251.152 173.356 258.145 177.926 260.198 179.81Z" fill="#263238"/>
<path d="M246.983 166.308C255.675 168.026 259.604 169.941 267.065 174.688C267.18 174.751 267.294 174.595 267.19 174.522C260.229 169.317 255.894 166.735 247.067 166.09C246.608 166.059 246.535 166.225 246.983 166.308Z" fill="#263238"/>
<path d="M251.912 158.708C260.249 160.915 264.637 162.872 271.348 168.265C271.504 168.39 271.702 168.192 271.556 168.057C265.231 161.925 259.76 159.5 251.985 158.479C251.454 158.407 251.381 158.563 251.912 158.708Z" fill="#263238"/>
<path d="M295.14 123.088C290.2 124.868 280.623 118.112 276.465 112.22C276.184 111.814 276.33 107.213 276.236 101.602C276.173 98.1977 276.017 94.4085 275.631 90.9629L297.86 93.7631C297.117 98.2128 296.921 102.736 297.276 107.233C297.334 107.708 297.439 108.175 297.589 108.628C297.589 108.691 297.589 108.774 297.641 108.857C298.391 111.501 299.913 121.37 295.14 123.088Z" fill="#AD6359"/>
<path d="M297.652 108.857C297.699 109.018 297.738 109.181 297.766 109.347C284.448 108.774 279.394 102.934 276.111 97.3233C276.007 95.1893 275.871 93.0136 275.621 90.9629L297.86 93.7631C297.111 98.2122 296.915 102.736 297.276 107.233C297.339 107.707 297.444 108.174 297.589 108.628C297.61 108.691 297.62 108.774 297.652 108.857Z" fill="#263238"/>
<path d="M269.91 65.5838C267.826 73.3704 272.671 95.5017 278.33 100.28C286.542 107.202 299.589 107.431 305.425 97.667C311.042 88.2044 304.206 59.4733 297.922 55.174C288.668 48.8656 273.036 54.133 269.91 65.5838Z" fill="#AD6359"/>
<path d="M290.002 77.9805C290.002 77.9805 289.898 78.0742 289.919 78.1366C290.283 79.6252 290.45 81.3845 289.21 82.1652V82.2485C290.836 81.6655 290.586 79.3233 290.002 77.9805Z" fill="#263238"/>
<path d="M288.335 76.711C285.896 77.0442 286.741 81.9159 289.002 81.5828C291.263 81.2497 290.388 76.43 288.335 76.711Z" fill="#263238"/>
<path d="M298.475 75.9922C298.475 75.9922 298.61 76.0442 298.61 76.1067C298.829 77.6265 299.329 79.3129 300.778 79.5836C300.778 79.5836 300.83 79.6669 300.778 79.6669C299.089 79.6981 298.433 77.4392 298.475 75.9922Z" fill="#263238"/>
<path d="M299.548 74.1714C301.935 73.5676 302.966 78.3873 300.757 78.9495C298.548 79.5116 297.547 74.6814 299.548 74.1714Z" fill="#263238"/>
<path d="M285.75 73.6098C286.355 73.2939 286.943 72.9464 287.512 72.5688C288.182 72.3081 288.749 71.8368 289.127 71.226C289.207 71.009 289.213 70.7715 289.143 70.551C289.073 70.3304 288.932 70.1394 288.741 70.008C288.329 69.8029 287.869 69.7112 287.409 69.7423C286.95 69.7734 286.507 69.9262 286.126 70.185C285.274 70.5966 284.606 71.3087 284.25 72.1837C284.167 72.3905 284.148 72.6174 284.196 72.835C284.243 73.0527 284.355 73.2511 284.516 73.4046C284.678 73.5582 284.882 73.6598 285.102 73.6964C285.322 73.7329 285.548 73.7028 285.75 73.6098Z" fill="#263238"/>
<path d="M300.861 71.7351C300.188 71.7163 299.517 71.6607 298.85 71.5686C298.129 71.608 297.415 71.4105 296.818 71.0064C296.656 70.8431 296.553 70.631 296.525 70.4032C296.497 70.1754 296.545 69.9446 296.661 69.7468C296.952 69.3887 297.333 69.1148 297.766 68.9537C298.198 68.7926 298.666 68.7502 299.121 68.8308C300.065 68.8517 300.968 69.2228 301.653 69.8718C301.797 70.0293 301.892 70.2248 301.928 70.4349C301.964 70.6449 301.938 70.8609 301.855 71.0571C301.772 71.2532 301.634 71.4214 301.457 71.5416C301.281 71.6618 301.074 71.7289 300.861 71.7351Z" fill="#263238"/>
<path d="M291.169 91.3584C291.586 91.6395 292.034 92.0663 292.587 92.0142C293.145 91.9101 293.675 91.6864 294.139 91.3584C294.139 91.3584 294.244 91.3584 294.223 91.4209C294.058 91.7539 293.806 92.0367 293.495 92.2399C293.183 92.4431 292.823 92.5592 292.451 92.5764C292.13 92.549 291.825 92.4278 291.573 92.2278C291.321 92.0278 291.133 91.758 291.034 91.4521C290.992 91.3688 291.107 91.3168 291.169 91.3584Z" fill="#263238"/>
<path d="M291.972 86.5789C292.457 87.1072 293.046 87.5297 293.702 87.8199C294.359 88.1101 295.068 88.2617 295.786 88.2653C296.412 88.2736 297.037 88.193 297.641 88.0258C297.76 88.0086 297.876 87.9735 297.985 87.9218C298.095 87.8966 298.203 87.8617 298.308 87.8176C298.385 87.79 298.451 87.7368 298.495 87.6669C298.538 87.5969 298.557 87.5143 298.548 87.4325C298.552 87.3805 298.552 87.3283 298.548 87.2763V87.141C298.37 85.9855 297.953 84.2471 297.953 84.2471C298.422 84.3824 300.746 84.9758 300.601 84.3824C299.433 79.4273 298.141 73.9101 295.932 69.2257C295.915 69.1962 295.888 69.1735 295.856 69.1616C295.825 69.1497 295.79 69.1493 295.757 69.1604C295.725 69.1715 295.698 69.1934 295.68 69.2225C295.663 69.2515 295.656 69.2858 295.661 69.3194C296.599 74.1183 298.37 78.6882 299.381 83.5496C298.553 83.322 297.697 83.2134 296.838 83.2269C296.682 83.3102 297.703 86.5789 297.735 87.1098C297.741 87.1265 297.741 87.1451 297.735 87.1618C295.838 87.7552 294.264 87.4221 292.149 86.4435C291.961 86.4019 291.857 86.4748 291.972 86.5789Z" fill="#263238"/>
<path d="M300.34 57.9525L300.465 58.1711C299.976 57.514 299.289 57.0317 298.504 56.7954C297.72 56.5592 296.88 56.5816 296.109 56.8594C294.41 57.484 294.327 59.2745 291.993 59.9824C289.658 60.6903 285.542 57.1613 281.373 59.8575C275.913 63.428 278.08 72.672 278.038 77.1898C277.997 81.7077 275.36 85.2366 271.64 85.8092C269.722 78.2204 268.868 69.8093 269.91 65.5829C273.036 54.0696 288.616 48.8439 297.881 55.173C298.876 55.9277 299.712 56.8725 300.34 57.9525Z" fill="#263238"/>
<path d="M276.236 83.6848C276.236 83.6848 270.796 76.7623 267.628 78.7402C264.46 80.718 268.816 90.9301 272.734 92.148C273.225 92.3392 273.75 92.4292 274.277 92.4126C274.804 92.396 275.322 92.2732 275.8 92.0515C276.278 91.8298 276.706 91.5137 277.058 91.1225C277.411 90.7312 277.681 90.2727 277.851 89.7746L276.236 83.6848Z" fill="#AD6359"/>
<path d="M268.952 81.6348C268.938 81.6348 268.924 81.6403 268.915 81.65C268.905 81.6598 268.899 81.673 268.899 81.6868C268.899 81.7006 268.905 81.7139 268.915 81.7236C268.924 81.7334 268.938 81.7389 268.952 81.7389C271.703 82.6862 273.255 85.1012 274.381 87.6308C274.211 87.3692 273.987 87.1476 273.723 86.9816C273.459 86.8155 273.161 86.7089 272.852 86.6693C272.542 86.6297 272.228 86.6579 271.931 86.7521C271.633 86.8462 271.36 87.004 271.13 87.2144C271.067 87.2665 271.13 87.381 271.213 87.3602C271.677 87.182 272.185 87.1523 272.667 87.2754C273.149 87.3985 273.58 87.6683 273.902 88.0472C274.435 88.6891 274.896 89.3872 275.277 90.1292C275.423 90.3686 275.85 90.2125 275.736 89.9418C275.74 89.9212 275.74 89.8999 275.736 89.8794C275.59 86.4025 272.651 81.7805 268.952 81.6348Z" fill="#263238"/>
<path d="M297.578 108.388L292.837 121.462L276.288 105.848L271.994 111.23C271.994 111.23 288.564 136.39 288.616 135.172L293.483 123.93L301.403 131.321L300.059 112.052L297.578 108.388Z" fill="#EBEBEB"/>
<path d="M301.257 121.795C300.924 118.672 300.684 115.424 300.215 112.27C300.215 112.156 300.017 112.114 299.996 112.27C299.475 115.393 300.809 127.489 300.903 130.404C300.57 130.081 293.608 123.919 293.504 124.023C292.462 125.813 288.856 134.006 288.616 134.745C286.001 130.748 275.986 116.236 272.922 112.478C272.903 112.459 272.878 112.447 272.852 112.444C272.825 112.441 272.798 112.448 272.776 112.463C272.754 112.478 272.737 112.5 272.73 112.525C272.722 112.551 272.724 112.579 272.734 112.603C275.069 116.84 288.366 136.379 288.533 136.317C290.429 132.448 292.123 128.483 293.608 124.439C294.807 125.792 301.945 132.767 301.945 132.309C301.9 128.795 301.67 125.285 301.257 121.795Z" fill="#263238"/>
<path d="M114.123 49.1657C114.123 49.1657 102.525 42.7636 92.2387 49.1657C81.953 55.5677 77.0341 71.3386 78.7953 84.5591C80.5565 97.7796 69.7601 106.545 68.5929 116.382C67.4258 126.219 73.8869 130.768 76.0545 135.932C78.5452 141.844 68.5929 162.831 93.9166 167.702C125.587 173.792 137.686 154.336 134.476 138.243C132.892 130.362 128.463 124.762 128.536 118.391C128.609 112.02 133.132 106.94 130.777 98.8518C128.421 90.7634 125.305 91.8564 124.024 79.1668C122.742 66.4772 125.337 51.3205 114.123 49.1657Z" fill="#263238"/>
<path d="M94.4063 48.8632C87.6987 53.2022 82.4747 59.4808 79.431 66.8618C77.9168 70.5283 77.0122 74.4172 76.7527 78.375C76.4297 83.58 77.2217 88.3893 75.2938 93.4068C72.1674 101.454 66.0293 108.168 66.3211 117.12C66.4607 121.296 67.7833 125.346 70.1353 128.8C72.876 132.85 76.7736 136.087 79.0558 140.376C79.1496 140.553 79.431 140.376 79.3476 140.22C77.4405 136.368 74.335 133.433 71.761 129.977C68.6528 125.949 67.0033 120.987 67.0818 115.903C67.3215 107.387 73.4179 100.839 76.2629 93.0841C77.374 89.6684 77.799 86.0671 77.5135 82.4869C77.3353 78.1567 77.892 73.8275 79.1601 69.6828C81.9248 61.3058 87.3002 54.0322 94.5001 48.9256C94.5626 48.9256 94.4793 48.8111 94.4063 48.8632Z" fill="#263238"/>
<path d="M81.0879 145.551V145.613C81.0879 145.613 81.1193 145.551 81.0879 145.551Z" fill="#263238"/>
<path d="M134.341 135.983C133.549 132.183 131.558 128.696 130.756 124.938C129.807 120.368 130.954 115.819 131.798 111.333C133.038 104.941 132.903 98.9032 130.078 92.8759C128.244 88.9826 126.014 85.3392 124.659 81.2377C123.187 76.796 122.373 72.1633 122.242 67.4863C122.242 67.3822 122.075 67.3926 122.075 67.4863C121.954 74.2632 123.405 80.9759 126.316 87.0985C128.036 90.7003 130.193 94.0731 131.183 97.9559C132.382 102.63 131.913 107.137 131.1 111.811C130.417 114.923 130.023 118.09 129.922 121.274C130.091 124.49 130.85 127.649 132.163 130.591C135.19 138.363 135.138 146.996 132.017 154.731C131.965 154.866 132.215 154.96 132.267 154.825C134.904 148.913 135.629 142.326 134.341 135.983Z" fill="#263238"/>
<path d="M67.7384 115.269C68.0198 108.252 72.9491 103.495 75.8878 97.4158C78.1284 92.8251 79.6499 87.922 78.91 82.842C78.91 82.7588 78.7433 82.7796 78.7537 82.842C79.1289 90.1289 76.0546 96.812 71.9903 102.943C69.3016 107.024 67.061 110.949 67.0402 115.852C67.0194 120.755 68.9369 124.71 71.6777 128.687C73.6369 131.529 75.5544 134.173 76.3881 137.525C77.0335 140.892 77.1914 144.335 76.857 147.747C76.857 147.924 77.1384 147.924 77.1488 147.747C77.6178 142.542 77.7011 137.4 75.0646 132.601C71.7819 126.74 67.4362 122.389 67.7384 115.269Z" fill="#263238"/>
<path d="M135.56 131.008C134.424 128.628 133.074 126.356 131.527 124.22C128.838 120.275 128.4 117.079 129.286 112.395C129.28 112.377 129.268 112.361 129.252 112.349C129.236 112.338 129.217 112.332 129.198 112.332C129.178 112.332 129.159 112.338 129.143 112.349C129.127 112.361 129.116 112.377 129.109 112.395C127.817 116.247 127.515 119.453 129.807 123.003C132.996 127.958 136.123 132.476 136.779 138.388C137.946 148.892 132.006 158.687 122.387 164.007C122.252 164.08 122.387 164.267 122.512 164.194C130.589 160.228 136.248 153.035 137.436 144.551C138.072 139.95 137.422 135.263 135.56 131.008Z" fill="#263238"/>
<path d="M131.704 120.671C154.944 142.729 184.8 189.761 179.829 199.65C174.306 210.664 141.938 179.726 141.99 177.852C142.042 176.447 130.078 147.664 121.033 126.771C111.987 105.879 125.952 115.206 131.704 120.671Z" fill="#FFC4C0"/>
<path d="M141.781 177.894C140.739 174.771 124.492 136.9 119.803 124.897C115.113 112.895 118.98 109.002 131.589 119.693C144.199 130.383 172.232 166.714 178.996 186.232C185.498 205.074 175.723 205.397 162.572 197.048C151.713 190.219 141.781 177.894 141.781 177.894Z" fill="#455A64"/>
<path d="M100.451 109.386C100.878 110.843 108.402 119.993 115.103 119.327C117.281 119.098 116.593 107.148 116.593 107.148L116.75 106.252L118.834 93.7606L103.806 85.2037L101.639 84.0898C101.639 84.0898 101.284 87.5459 100.888 91.866C100.888 92.0638 100.888 92.2616 100.836 92.4802C100.784 92.6988 100.774 92.9486 100.763 93.1776C100.69 93.823 100.628 94.4789 100.576 95.1347C100.524 95.7905 100.492 96.1757 100.461 96.6441C100.43 97.1125 100.399 97.6851 100.357 98.216C100.136 101.937 100.167 105.669 100.451 109.386Z" fill="#FFC4C0"/>
<path d="M100.909 91.8556C102.341 95.2573 104.496 98.3071 107.226 100.793C109.956 103.279 113.195 105.142 116.718 106.252L118.802 93.7606L103.775 85.2037L101.607 84.0898C101.607 84.0898 101.305 87.5355 100.909 91.8556Z" fill="#263238"/>
<path d="M134.559 71.7136C139.082 93.5118 126.524 98.6855 121.814 99.6536C117.541 100.538 102.879 102.995 96.1153 81.7799C89.3519 60.5647 98.0745 51.5914 107.735 49.0306C117.395 46.4698 130.026 49.905 134.559 71.7136Z" fill="#FFC4C0"/>
<path d="M127.192 66.6223C126.66 66.6223 126.15 66.6223 125.649 66.5598C125.106 66.6109 124.561 66.483 124.097 66.1955C123.966 66.0771 123.879 65.9187 123.849 65.7452C123.818 65.5718 123.847 65.3932 123.93 65.2378C124.14 64.9591 124.421 64.7411 124.743 64.6058C125.065 64.4705 125.417 64.4228 125.764 64.4675C126.482 64.4446 127.182 64.6938 127.723 65.1649C127.839 65.2798 127.92 65.4255 127.956 65.5848C127.992 65.7441 127.981 65.9103 127.925 66.0637C127.869 66.2171 127.77 66.3513 127.64 66.4503C127.51 66.5493 127.355 66.609 127.192 66.6223Z" fill="#263238"/>
<path d="M112.175 69.9127C112.664 69.7515 113.144 69.5639 113.613 69.3505C114.145 69.2199 114.62 68.9204 114.968 68.4969C115.048 68.3426 115.075 68.1663 115.045 67.995C115.015 67.8238 114.929 67.6673 114.801 67.5496C114.511 67.3521 114.174 67.2354 113.824 67.2116C113.474 67.1878 113.124 67.2578 112.81 67.4143C112.129 67.6268 111.552 68.0876 111.195 68.7051C111.117 68.8514 111.083 69.0176 111.099 69.1828C111.115 69.3479 111.179 69.5048 111.284 69.6337C111.388 69.7627 111.528 69.8579 111.687 69.9075C111.845 69.9571 112.015 69.9589 112.175 69.9127Z" fill="#263238"/>
<path d="M116.041 74.6395C116.041 74.5771 115.937 74.7332 115.957 74.7853C116.291 76.2739 116.426 78.0227 115.176 78.7722C115.176 78.7722 115.176 78.8763 115.176 78.8555C116.801 78.3038 116.603 75.9928 116.041 74.6395Z" fill="#263238"/>
<path d="M114.415 73.3367C111.977 73.6178 112.717 78.4584 114.978 78.1981C117.239 77.9379 116.447 73.0973 114.415 73.3367Z" fill="#263238"/>
<path d="M113.498 73.7439C113.123 74.0771 112.779 74.6288 112.279 74.7849C111.779 74.9411 111.174 74.4934 110.716 74.0666C110.663 74.0666 110.632 74.0667 110.643 74.1291C110.768 75.066 111.268 75.9612 112.289 75.9404C113.31 75.9196 113.738 75.014 113.832 74.0458C113.842 73.8376 113.654 73.5982 113.498 73.7439Z" fill="#263238"/>
<path d="M125.212 72.5367C125.212 72.4846 125.347 72.5992 125.347 72.6512C125.524 74.1606 125.972 75.8574 127.431 76.1593C127.431 76.1593 127.483 76.253 127.431 76.253C125.712 76.253 125.139 73.9941 125.212 72.5367Z" fill="#263238"/>
<path d="M126.327 70.787C128.723 70.2561 129.609 75.0654 127.369 75.5651C125.128 76.0647 124.326 71.2242 126.327 70.787Z" fill="#263238"/>
<path d="M127.389 70.9123C127.817 71.0893 128.286 71.4848 128.744 71.4328C129.203 71.3808 129.567 70.777 129.786 70.2148C129.786 70.2148 129.859 70.2148 129.87 70.2148C130.068 71.1309 129.932 72.1407 129.088 72.4842C128.244 72.8277 127.567 72.1094 127.181 71.235C127.139 71.1205 127.223 70.8394 127.389 70.9123Z" fill="#263238"/>
<path d="M119.448 86.0472C119.855 86.3699 120.261 86.8175 120.814 86.7967C121.375 86.7282 121.915 86.5401 122.398 86.245C122.398 86.245 122.502 86.245 122.471 86.3179C122.291 86.6416 122.026 86.9099 121.705 87.0935C121.383 87.2771 121.017 87.3689 120.647 87.3588C120.329 87.3152 120.031 87.1766 119.793 86.9611C119.555 86.7456 119.388 86.4634 119.313 86.1513C119.282 86.0472 119.396 86.0056 119.448 86.0472Z" fill="#263238"/>
<path d="M124.816 79.6141C124.816 79.6141 125.493 81.8002 125.67 82.8516C125.67 82.9453 125.441 83.039 125.087 83.1222C124.207 83.4479 123.254 83.523 122.334 83.3392C121.414 83.1553 120.563 82.7199 119.876 82.0813C119.86 82.0613 119.851 82.0364 119.85 82.0107C119.85 81.9849 119.858 81.9598 119.874 81.9393C119.889 81.9189 119.911 81.9043 119.936 81.8979C119.961 81.8916 119.988 81.8938 120.011 81.9043C121.507 82.6014 123.188 82.7985 124.805 82.4664C124.805 82.1541 123.523 78.7605 123.68 78.7189C124.513 78.6572 125.35 78.7062 126.17 78.8646C124.889 74.2843 122.888 69.933 121.679 65.3318C121.672 65.2994 121.677 65.2657 121.693 65.2364C121.708 65.2071 121.733 65.1839 121.763 65.1705C121.794 65.1572 121.827 65.1546 121.859 65.1631C121.891 65.1716 121.92 65.1907 121.939 65.2173C124.367 69.6311 125.951 74.8776 127.4 79.5829C127.577 80.1554 125.274 79.7182 124.816 79.6141Z" fill="#263238"/>
<path d="M96.7822 80.7386C101.472 80.0828 100.305 69.2878 100.305 69.2878C100.305 69.2878 108.048 66.7999 110.642 60.9599C110.642 60.9599 109.048 65.9046 106.182 68.2468C105.703 68.6424 121.616 64.9469 121.554 52.4135C121.554 52.4135 125.493 64.2911 133.163 65.8422C133.538 65.9254 130.672 54.891 127.952 52.5904C124.865 49.9944 121.223 48.1404 117.306 47.1713C113.389 46.2022 109.302 46.1437 105.359 47.0004C95.6359 49.7173 90.4878 60.9391 90.2794 65.3008C89.8938 73.9098 94.5521 81.0405 96.7822 80.7386Z" fill="#263238"/>
<path d="M106.735 68.4752C115.478 66.9658 121.752 60.4596 121.324 51.3926C121.324 51.1636 121.658 51.1324 121.72 51.3406C124.075 60.2931 115.072 68.2254 106.662 68.6417C106.474 68.6417 106.526 68.5064 106.735 68.4752Z" fill="#263238"/>
<path d="M96.7302 80.2277C101.19 77.1776 101.326 72.3058 101.065 67.4027C101.065 67.257 101.305 67.2154 101.326 67.4027C102.003 72.1496 101.889 78.0937 96.9594 80.6441C96.9042 80.6744 96.8391 80.6816 96.7785 80.664C96.7179 80.6465 96.6668 80.6056 96.6364 80.5504C96.606 80.4952 96.5988 80.4301 96.6164 80.3696C96.634 80.3091 96.6749 80.258 96.7302 80.2277Z" fill="#263238"/>
<path d="M121.397 50.5703H121.491C123.211 55.4629 124.513 63.9261 131.131 64.3738C131.167 64.3738 131.201 64.388 131.227 64.4134C131.252 64.4388 131.266 64.4732 131.266 64.5091C131.266 64.545 131.252 64.5794 131.227 64.6048C131.201 64.6302 131.167 64.6444 131.131 64.6444C124.743 64.7693 121.387 55.8585 121.397 50.5703Z" fill="#263238"/>
<path d="M115.947 82.7695C114.727 82.8997 113.494 82.6851 112.39 82.1502C111.286 81.6152 110.354 80.7814 109.701 79.7436C109.048 78.7058 108.7 77.5057 108.696 76.2799C108.692 75.0541 109.032 73.8518 109.679 72.8098C110.325 71.7678 111.251 70.928 112.352 70.3859C113.453 69.8438 114.684 69.6213 115.905 69.7436C117.126 69.8659 118.288 70.3282 119.259 71.0778C120.23 71.8273 120.971 72.8341 121.397 73.9836C121.698 74.7887 121.836 75.6451 121.805 76.5037C121.773 77.3623 121.573 78.2064 121.215 78.9876C120.857 79.7688 120.348 80.4718 119.718 81.0564C119.087 81.641 118.348 82.0958 117.541 82.3947C117.028 82.5881 116.492 82.7141 115.947 82.7695ZM114.634 70.6212C114.164 70.6741 113.702 70.7824 113.258 70.9439C111.901 71.4468 110.786 72.4477 110.142 73.7427C109.497 75.0377 109.371 76.5295 109.789 77.9141C110.207 79.2987 111.138 80.4721 112.392 81.1952C113.646 81.9184 115.128 82.1369 116.538 81.8062C117.947 81.4756 119.178 80.6206 119.978 79.4156C120.779 78.2105 121.089 76.746 120.846 75.3202C120.604 73.8944 119.826 72.6147 118.672 71.7417C117.518 70.8686 116.074 70.4679 114.634 70.6212Z" fill="#455A64"/>
<path d="M130.6 79.3757C128.109 79.636 125.577 77.2938 124.816 73.9939C124.43 72.4077 124.55 70.7407 125.16 69.2262C125.382 68.5606 125.773 67.9635 126.293 67.4926C126.814 67.0218 127.448 66.693 128.133 66.5381C128.818 66.3833 129.532 66.4075 130.205 66.6085C130.878 66.8094 131.488 67.1804 131.975 67.6855C133.176 68.7936 134 70.2498 134.33 71.8494C135.133 75.3784 133.643 78.7199 131.027 79.3133L130.6 79.3757ZM128.651 67.3316L128.317 67.394C127.778 67.5406 127.283 67.8149 126.873 68.1937C126.463 68.5725 126.15 69.0445 125.962 69.5697C125.421 70.9162 125.319 72.3987 125.67 73.8065C126.369 76.8566 128.672 78.9385 130.829 78.4493C132.986 77.96 134.174 75.0869 133.476 72.0368C133.187 70.6167 132.458 69.3236 131.392 68.3413C131.029 67.9934 130.598 67.7241 130.127 67.5504C129.655 67.3766 129.153 67.3021 128.651 67.3316Z" fill="#455A64"/>
<path d="M121.355 74.774L120.657 74.2431C121.439 73.2021 123.44 71.6094 125.378 72.9211L124.878 73.6498C123.148 72.463 121.428 74.6803 121.355 74.774Z" fill="#455A64"/>
<path d="M94.5629 82.8105L93.7188 82.5815C93.823 82.1859 94.7609 78.709 96.6159 77.9699C98.4709 77.2308 108.715 75.8046 109.215 75.7422L109.319 76.6166C105.974 77.0434 98.2728 78.2405 96.9389 78.7819C95.605 79.3232 94.8338 81.8528 94.5629 82.8105Z" fill="#455A64"/>
<path d="M99.8772 80.6547C99.8772 80.6547 94.0205 74.5129 91.1546 76.699C88.2888 78.885 93.4265 88.2955 97.3032 89.1075C97.7926 89.2446 98.3047 89.2816 98.8087 89.2161C99.3128 89.1506 99.7984 88.984 100.236 88.7263C100.674 88.4687 101.056 88.1253 101.358 87.7167C101.659 87.3082 101.875 86.8429 101.993 86.3489L99.8772 80.6547Z" fill="#FFC4C0"/>
<path d="M92.7495 79.3641C92.687 79.3641 92.687 79.4473 92.7495 79.4578C95.4695 80.1136 97.189 82.2892 98.5125 84.6106C98.3236 84.3831 98.0884 84.1983 97.8226 84.0686C97.5567 83.9389 97.2662 83.8673 96.9705 83.8584C96.6747 83.8496 96.3805 83.9037 96.1073 84.0172C95.8341 84.1308 95.5883 84.3011 95.3861 84.5169C95.3236 84.569 95.3861 84.6731 95.4799 84.6418C95.9105 84.4313 96.3956 84.3584 96.8692 84.4329C97.3427 84.5074 97.7819 84.7257 98.1269 85.0582C98.6978 85.618 99.2046 86.2395 99.638 86.9112C99.7943 87.1298 100.19 86.9112 100.065 86.6926V86.6301C99.5129 83.351 96.2615 79.1142 92.7495 79.3641Z" fill="#263238"/>
<path d="M145.898 210.341H62.1733C62.1733 210.341 75.721 132.892 93.6663 113.477C94.3219 112.745 95.0177 112.05 95.7506 111.395C96.8448 110.479 96.6885 103.151 97.2096 102.651C97.7306 102.152 119.469 104.952 119.751 105.483C120.032 106.014 121.147 112.926 121.147 112.926C126.087 119.172 141.99 140.939 143.834 149.901C145.679 158.864 139.853 168.795 139.853 168.795L145.898 210.341Z" fill="#455A64"/>
<path d="M128.953 165.797C124.94 165.934 120.963 166.599 117.125 167.775C113.269 168.868 104.723 172.241 102.587 173.073C102.535 173.073 102.587 173.177 102.587 173.157C105.374 172.497 108.12 171.673 110.809 170.689C114.603 169.399 118.417 168.243 122.273 167.233C124.462 166.698 126.683 166.298 128.922 166.036C128.949 166.033 128.974 166.02 128.994 166.001C129.013 165.981 129.026 165.956 129.029 165.929C129.033 165.901 129.027 165.874 129.014 165.85C129 165.826 128.978 165.807 128.953 165.797Z" fill="#263238"/>
<path d="M136.008 167.837C131.831 167.489 127.625 167.862 123.575 168.941C123.523 168.941 123.575 169.034 123.575 169.024C125.66 168.774 127.692 168.535 129.755 168.368C131.819 168.202 133.924 168.087 136.008 167.952C136.081 167.941 136.081 167.837 136.008 167.837Z" fill="#263238"/>
<path d="M99.6168 110.343C99.3386 108.542 99.3809 106.706 99.7419 104.92C100.02 106.721 99.9778 108.557 99.6168 110.343Z" fill="#263238"/>
<path d="M103.223 110.719C103.076 109.818 103.017 108.904 103.046 107.992C103.057 107.081 103.162 106.174 103.358 105.285C103.507 106.183 103.563 107.093 103.525 108.002C103.512 108.915 103.411 109.825 103.223 110.719Z" fill="#263238"/>
<path d="M106.839 111.125C106.692 110.228 106.632 109.318 106.662 108.408C106.675 107.495 106.776 106.585 106.964 105.691C107.111 106.593 107.17 107.506 107.141 108.419C107.128 109.329 107.027 110.235 106.839 111.125Z" fill="#263238"/>
<path d="M110.465 111.531C110.187 109.73 110.23 107.894 110.591 106.107C110.743 107.005 110.802 107.915 110.768 108.824C110.755 109.734 110.654 110.641 110.465 111.531Z" fill="#263238"/>
<path d="M114.061 111.948C113.914 111.046 113.855 110.133 113.884 109.22C113.896 108.31 113.997 107.404 114.186 106.514C114.333 107.411 114.392 108.321 114.363 109.231C114.35 110.144 114.249 111.054 114.061 111.948Z" fill="#263238"/>
<path d="M117.666 112.354C117.519 111.456 117.46 110.546 117.489 109.637C117.502 108.724 117.603 107.814 117.791 106.92C118.07 108.724 118.027 110.564 117.666 112.354Z" fill="#263238"/>
<path d="M145.898 210.342C144.689 203.451 143.574 196.539 142.49 189.626C141.406 182.714 140.406 175.792 139.364 168.88V168.671L139.499 168.484C141.748 165.365 143.226 161.759 143.813 157.96C144.095 156.066 144.116 154.144 143.876 152.245C143.596 150.34 143.107 148.473 142.417 146.675C140.965 143.07 139.223 139.589 137.206 136.266C135.258 132.882 133.142 129.583 130.954 126.355C133.361 129.478 135.581 132.685 137.686 135.995C139.797 139.31 141.634 142.791 143.178 146.405C143.945 148.243 144.481 150.17 144.772 152.141C145.048 154.123 145.048 156.134 144.772 158.116C144.503 160.098 143.988 162.038 143.24 163.893C142.506 165.749 141.528 167.499 140.333 169.098L140.437 168.703C141.406 175.636 142.438 182.558 143.344 189.522C144.251 196.487 145.127 203.388 145.898 210.342Z" fill="#263238"/>
<path d="M134.278 128.5C134.672 128.995 135.021 129.525 135.32 130.082C135.625 130.629 135.893 131.196 136.122 131.779C136.598 132.941 136.907 134.164 137.039 135.412C136.779 134.84 136.56 134.257 136.331 133.684L135.633 131.966C135.164 130.821 134.695 129.687 134.278 128.5Z" fill="#263238"/>
<path d="M179.829 199.65C175.004 207.051 161.259 208.873 127.077 216.712C122.346 217.753 105.703 186.523 110.695 185.097C116.948 183.307 141.771 177.737 143.636 177.56C159.352 176.061 183.112 194.664 179.829 199.65Z" fill="#FFC4C0"/>
<path d="M117.927 182.963C117.927 182.963 104.067 185.513 97.1886 189.105C87.997 193.914 82.0361 201.857 79.7434 205.334C74.9496 212.62 68.3842 233.44 74.0638 236.376C79.2119 239.03 84.8394 217.378 84.8394 217.378C84.8394 217.378 75.4603 238.51 82.2341 240.571C89.0079 242.632 94.1247 217.128 94.1247 217.128C94.1247 217.128 84.9644 239.061 92.301 240.082C97.8347 240.852 103.764 218.013 103.764 218.013C103.764 218.013 96.0214 236.907 101.68 237.948C107.933 239.103 114.738 218.356 114.738 218.356C129.578 218.575 136.737 212.62 141.323 207.77C142.438 206.604 117.927 182.963 117.927 182.963Z" fill="#FFC4C0"/>
<path d="M87.6221 209.862C86.4341 212.308 85.2044 214.765 84.2352 217.305C83.266 219.845 82.3802 222.427 81.6507 225.04C80.6315 228.445 80.0022 231.955 79.7749 235.502C80.6294 229.256 83.9434 220.095 84.9855 217.555C86.0277 215.015 86.7988 212.433 87.768 209.893C87.7472 209.831 87.6534 209.8 87.6221 209.862Z" fill="#263238"/>
<path d="M96.9179 213.204C95.5318 216.39 94.0416 219.45 92.7494 222.74C91.4571 226.029 90.613 229.152 89.623 232.452C89.55 232.712 89.7168 232.671 89.8002 232.452C90.9465 229.183 92.2596 226.206 93.4476 223C94.6356 219.794 95.6882 216.452 96.9908 213.256C96.97 213.173 96.9179 213.152 96.9179 213.204Z" fill="#263238"/>
<path d="M105.317 214.639C103.072 219.474 101.326 224.525 100.107 229.713C100.044 229.963 100.242 229.89 100.326 229.63C101.962 224.591 103.212 220.625 105.474 214.723C105.526 214.629 105.369 214.535 105.317 214.639Z" fill="#263238"/>
<path d="M114.488 183.4L145.699 215.962C145.699 215.962 175.921 207.988 180.194 200.035C182.976 194.83 159.351 174.728 142.125 177.705L114.488 183.4Z" fill="#455A64"/>
<path d="M162.968 182.496C156.845 178.395 149.428 176.683 142.125 177.686C142.042 177.686 142.042 177.843 142.125 177.832C149.68 177.385 160.008 180.955 162.968 182.631C162.978 182.673 163.03 182.548 162.968 182.496Z" fill="#263238"/>
<path d="M153.766 210.081C150.525 206.323 147.086 202.732 143.636 199.151C140.187 195.57 136.738 191.989 133.215 188.491C131.225 186.524 129.234 184.535 127.161 182.63C127.108 182.578 127.015 182.63 127.056 182.713C130.297 186.471 133.726 190.084 137.144 193.675C140.562 197.266 144.033 200.847 147.565 204.376C149.545 206.375 151.557 208.343 153.62 210.248C153.672 210.341 153.86 210.195 153.766 210.081Z" fill="#263238"/>
<path d="M114.415 182.973C116.248 182.355 118.121 181.864 120.022 181.505C121.918 181.089 123.815 180.704 125.712 180.329C129.494 179.6 137.415 177.622 144.47 177.414C144.543 177.414 144.157 177.799 144.084 177.799C140.739 177.726 116.989 183.254 114.988 183.462C115.071 183.585 115.144 183.713 115.207 183.847C115.207 183.951 115.207 184.076 115.061 184.004C114.826 183.838 114.6 183.661 114.384 183.473C114.339 183.446 114.303 183.408 114.278 183.362C114.254 183.316 114.243 183.265 114.246 183.213C114.249 183.162 114.267 183.112 114.297 183.069C114.326 183.027 114.367 182.994 114.415 182.973Z" fill="#263238"/>
<path d="M139.238 99.3313C139.238 99.3313 136.362 91.9195 131.454 94.293C126.545 96.6664 130.599 103.527 130.599 103.527L139.238 99.3313Z" fill="#FF9CBD"/>
<path d="M154.918 153.57L163.562 149.381L139.118 99.0489L130.473 103.238L154.918 153.57Z" fill="#D413AF"/>
<path d="M130.572 105.314L140.67 100.42L139.697 98.4156L129.599 103.309L130.572 105.314Z" fill="#37474F"/>
<path d="M131.654 107.532L141.752 102.639L140.779 100.634L130.68 105.528L131.654 107.532Z" fill="#37474F"/>
<path d="M154.902 153.577L161.155 158.209L163.239 159.75L163.322 157.168L163.562 149.382L162.072 148.549C162.072 148.549 161.832 150.194 161.822 150.225L160.342 149.392C160.342 149.392 160.102 151.037 160.092 151.058L158.633 150.225C158.633 150.225 158.372 151.87 158.362 151.901L156.903 151.058C156.903 151.058 156.642 152.713 156.632 152.734L155.173 151.901C155.173 151.901 154.912 153.546 154.902 153.577Z" fill="#EBEBEB"/>
<path d="M161.175 158.219L163.239 159.75L163.322 157.168L161.175 158.219Z" fill="#37474F"/>
<path d="M83.1408 127.124C72.4694 145.623 54.7846 184.951 62.2983 199.056C69.5932 212.589 123.919 191.343 134.955 186.97C139.478 185.17 132.975 147.559 127.931 148.87C116.864 151.744 93.5412 163.611 92.9784 163.267C92.4157 162.924 95.3857 146.487 97.6472 130.195C100.961 106.482 90.8108 113.831 83.1408 127.124Z" fill="#FFC4C0"/>
<path d="M160.925 130.039C164.052 133.433 160.488 136.587 160.488 136.587C162.488 136.793 164.353 137.691 165.761 139.127C168.126 141.76 165.01 146.622 165.01 146.622C167.042 147.267 168.832 148.507 170.148 150.182C172.159 152.941 169.721 158.281 169.721 158.281C171.26 159.903 172.162 162.024 172.264 164.256C172.264 170.231 164.625 175.166 159.758 178.268C152.463 182.869 138.113 185.804 135.008 186.97L114.467 155.918C114.467 155.918 132.465 135.941 138.53 132.673C144.595 129.404 157.861 126.708 160.925 130.039Z" fill="#FFC4C0"/>
<path d="M159.946 136.233C153.693 137.483 148.201 140.512 142.532 143.208C142.514 143.225 142.501 143.246 142.497 143.27C142.492 143.294 142.495 143.319 142.506 143.341C142.516 143.364 142.533 143.382 142.555 143.393C142.577 143.405 142.601 143.409 142.626 143.406C148.232 140.658 154.329 139.044 160.04 136.525C160.071 136.507 160.096 136.479 160.109 136.446C160.122 136.412 160.123 136.375 160.112 136.341C160.101 136.306 160.078 136.277 160.048 136.257C160.018 136.238 159.982 136.229 159.946 136.233Z" fill="#263238"/>
<path d="M164.656 146.279C163.271 146.703 161.947 147.305 160.717 148.069C159.362 148.763 158.025 149.513 156.705 150.318C154.044 151.872 151.431 153.482 148.868 155.148C148.753 155.231 148.868 155.418 148.962 155.346C151.609 153.815 154.276 152.316 156.986 150.89C158.341 150.182 159.706 149.485 161.071 148.808C162.403 148.258 163.668 147.56 164.844 146.726C164.903 146.701 164.95 146.654 164.975 146.594C164.999 146.535 164.999 146.468 164.974 146.409C164.949 146.349 164.902 146.302 164.842 146.278C164.782 146.253 164.715 146.254 164.656 146.279Z" fill="#263238"/>
<path d="M169.606 158.344C168.359 158.744 167.189 159.353 166.146 160.145L162.572 162.31C160.164 163.746 157.767 165.173 155.277 166.474C155.152 166.547 155.277 166.744 155.371 166.672C157.872 165.318 160.394 163.996 162.874 162.622L166.532 160.54C167.691 160.012 168.749 159.287 169.658 158.396C169.654 158.384 169.647 158.373 169.638 158.364C169.629 158.355 169.618 158.348 169.606 158.344Z" fill="#263238"/>
<path d="M114.634 152.296L129.224 192.196C129.224 192.196 82.8806 207.249 67.7386 203.189C52.5965 199.129 63.5701 170.731 65.4146 164.246C66.7069 159.614 78.5037 132.111 86.3092 121.326C94.1147 110.542 99.7005 111.062 98.4917 126.989C97.2828 142.916 93.479 161.956 94.146 161.758C94.813 161.56 114.634 152.296 114.634 152.296Z" fill="#455A64"/>
<path d="M94.1769 161.227C92.0333 163.022 90.0684 165.019 88.3097 167.192C86.5905 169.259 84.9833 171.417 83.4951 173.657C83.4951 173.709 83.5993 173.75 83.6306 173.709C85.3084 171.627 87.2572 169.545 89.0705 167.515C90.8838 165.485 92.9264 163.507 94.5938 161.404C94.698 161.269 94.3332 161.113 94.1769 161.227Z" fill="#263238"/>
<path d="M69.6558 153.598C67.8842 158.157 66.2377 162.748 64.81 167.412C63.313 172.043 62.1258 176.769 61.2563 181.558C60.8697 183.938 60.6538 186.342 60.6102 188.752C60.525 191.13 60.7919 193.509 61.4022 195.81C61.9869 198.039 63.3796 199.972 65.3102 201.233C67.3406 202.395 69.621 203.052 71.9589 203.148C76.711 203.502 81.5569 202.742 86.3507 201.941C91.1445 201.139 95.9278 200.078 100.69 199.026C105.453 197.975 110.226 196.861 114.967 195.685C119.709 194.508 124.461 193.353 129.192 192.114L129.14 192.229L128.265 189.574L129.307 192.166V192.249H129.224C124.555 193.707 119.845 195.112 115.145 196.413C110.445 197.715 105.703 198.974 100.951 200.15C96.1988 201.327 91.405 202.357 86.5695 203.273C81.7341 204.189 76.8465 204.97 71.8131 204.585C69.2405 204.455 66.7377 203.705 64.5182 202.399C63.4029 201.692 62.4452 200.764 61.7044 199.672C60.9827 198.595 60.4374 197.411 60.0892 196.163C59.4584 193.732 59.1949 191.22 59.3076 188.71C59.367 186.234 59.6425 183.768 60.1308 181.34C62.2567 171.766 65.4517 162.46 69.6558 153.598Z" fill="#263238"/>
<path d="M97.6058 136.369C97.4182 138.368 97.1785 140.367 96.9701 142.365L96.2406 148.34C95.7716 152.327 95.1985 156.314 94.7712 160.281L94.7087 161.02V161.374V161.592V161.509C94.6855 161.454 94.6513 161.405 94.6083 161.363C94.5653 161.322 94.5143 161.29 94.4585 161.269H94.3856C94.3411 161.258 94.2946 161.258 94.2501 161.269L94.396 161.217L94.7295 161.092L95.4173 160.811C96.3344 160.426 97.2514 160.01 98.1685 159.604L103.671 157.168L109.194 154.742L114.749 152.379L115.009 153.254L114.655 152.411H114.717C112.946 153.361 111.164 154.295 109.371 155.211L103.984 157.907C102.181 158.802 100.357 159.656 98.5333 160.52C97.6162 160.936 96.6991 161.353 95.7716 161.748L95.063 162.05L94.6982 162.196L94.4898 162.269H94.396H94.2814H94.0521C94.0142 162.276 93.9754 162.276 93.9375 162.269C93.8176 162.21 93.7191 162.116 93.6561 161.998C93.6517 161.964 93.6517 161.929 93.6561 161.894V161.8C93.6523 161.766 93.6523 161.731 93.6561 161.696V161.353V160.957L93.7291 160.197C94.198 156.179 94.7712 152.223 95.4694 148.257L96.5115 142.313C96.8242 140.262 97.1785 138.285 97.6058 136.369Z" fill="#263238"/>
<path d="M113.915 179.226C112.269 174.635 110.653 170.034 108.84 165.506C107.798 162.934 106.756 160.353 105.714 157.792C105.714 157.698 105.495 157.792 105.526 157.844C106.995 162.518 108.475 167.213 110.163 171.804C111.852 176.394 113.467 180.975 115.207 185.534C116.187 188.126 117.292 190.677 118.396 193.206C118.396 193.206 118.511 193.206 118.49 193.206C117.198 188.418 115.562 183.848 113.915 179.226Z" fill="#263238"/>
<path d="M98.554 141.221C98.2487 142.368 97.8799 143.497 97.4493 144.604C97.0367 145.715 96.5565 146.799 96.0112 147.852C96.3082 146.703 96.6736 145.574 97.1054 144.469C97.5217 143.358 98.0054 142.273 98.554 141.221Z" fill="#263238"/>
</svg>
