<svg width="501" height="420" viewBox="0 0 501 420" fill="none" xmlns="http://www.w3.org/2000/svg">
<path d="M500.531 364.793L438.021 364.507L375.51 364.415L250.5 364.221L125.479 364.415L62.9798 364.507L0.469177 364.793L62.9798 365.068L125.479 365.171L250.5 365.365L375.51 365.171L438.021 365.068L500.531 364.793Z" fill="#263238"/>
<path d="M250.5 419.381C129.834 419.381 32.0158 409.985 32.0158 398.393C32.0158 386.801 129.834 377.404 250.5 377.404C371.165 377.404 468.984 386.801 468.984 398.393C468.984 409.985 371.165 419.381 250.5 419.381Z" fill="#EBEBEB"/>
<path d="M451.232 292.066C451.232 292.066 471.032 287.58 481.887 277.566C492.742 267.553 498.815 249.643 498.815 249.643C491.287 251.081 483.865 253.031 476.602 255.479C473.879 258.275 471.61 261.48 469.876 264.978C469.706 262.715 469.706 260.443 469.876 258.18C467.339 259.281 464.964 260.725 462.819 262.471C453.771 270.345 451.232 292.066 451.232 292.066Z" fill="#D413AF"/>
<path d="M486.439 258.352C489.139 256.487 491.895 254.679 494.583 252.79C494.61 252.764 494.626 252.73 494.63 252.693C494.634 252.656 494.626 252.619 494.605 252.588C494.585 252.557 494.555 252.534 494.519 252.523C494.484 252.512 494.446 252.513 494.412 252.527C489.31 255.583 484.277 258.844 479.416 262.255C477.723 263.399 476.053 264.681 474.406 265.94L474.749 265.356C475.344 264.36 475.973 263.388 476.602 262.415C477.842 260.428 479.247 258.548 480.8 256.796C480.8 256.727 480.8 256.636 480.709 256.704C479.164 258.478 477.62 260.24 476.213 262.129C475.55 263.021 474.921 263.96 474.337 264.91C474.029 265.402 473.731 265.894 473.445 266.397C473.342 266.569 473.239 266.741 473.148 266.912C470.586 268.927 468.092 271.021 465.713 273.241C464.249 274.614 462.83 276.033 461.458 277.498C462.224 275.095 462.888 272.669 463.745 270.311C463.745 270.231 463.642 270.197 463.62 270.311C462.75 272.783 461.812 275.278 461.137 277.819C459.628 279.467 458.175 281.16 456.814 282.934L456.882 282.602C457.1 281.675 457.34 280.737 457.592 279.81C458.072 278.025 458.598 276.239 459.204 274.488C460.342 270.808 462.158 267.373 464.558 264.36C464.558 264.292 464.558 264.2 464.455 264.269C460.744 268.9 458.15 274.323 456.871 280.119C456.665 280.954 456.459 281.801 456.265 282.66C456.162 283.106 456.047 283.564 455.967 284.021C455.373 284.834 454.824 285.646 454.229 286.493C450.852 291.654 448.041 297.164 445.844 302.927C443.365 309.404 441.245 316.014 439.496 322.725C439.496 322.863 439.656 322.897 439.702 322.725C443.568 311.133 447.526 299.379 454.16 289.011C455.556 286.825 457.077 284.719 458.735 282.682C462.016 282.468 465.255 281.822 468.367 280.76C471.767 279.619 475.011 278.054 478.02 276.102C479.731 274.94 481.38 273.691 482.962 272.36C482.972 272.356 482.981 272.35 482.989 272.342C482.996 272.334 483.002 272.325 483.005 272.314C483.008 272.304 483.008 272.293 483.006 272.282C483.004 272.272 483 272.262 482.993 272.253C482.986 272.244 482.978 272.238 482.968 272.233C482.958 272.228 482.947 272.226 482.936 272.227C482.926 272.227 482.915 272.23 482.905 272.235C482.896 272.24 482.888 272.248 482.882 272.257C480.119 274.488 477.068 276.336 473.811 277.75C470.609 279.223 467.257 280.347 463.814 281.103C462.35 281.424 460.874 281.664 459.387 281.858C461.22 279.601 463.171 277.443 465.232 275.393C465.896 274.717 466.582 274.076 467.268 273.436C469.583 271.82 472.037 270.415 474.6 269.236C477.837 267.668 481.029 266.008 484.243 264.372C486.062 263.456 487.857 262.506 489.688 261.614C489.768 261.614 489.688 261.465 489.619 261.499C486.359 263.079 483.053 264.543 479.771 266.077C476.671 267.496 473.548 268.915 470.62 270.586L470.254 270.803C472.93 268.515 475.71 266.226 478.547 264.097C481.109 262.144 483.74 260.229 486.439 258.352Z" fill="#263238"/>
<path d="M485.318 268.57C483.705 269.268 482.07 269.898 480.468 270.642C478.867 271.386 477.277 272.313 475.721 273.228C475.653 273.228 475.721 273.365 475.79 273.331C477.368 272.576 478.97 271.866 480.525 271.042C482.081 270.218 483.717 269.372 485.352 268.651C485.432 268.662 485.398 268.536 485.318 268.57Z" fill="#263238"/>
<path d="M386.902 192.262C390.56 196.985 392.63 202.746 392.816 208.718C392.885 210.492 392.599 212.976 392.393 215.882C397.338 218.75 401.718 222.496 405.318 226.937C401.365 224.636 396.823 223.545 392.256 223.802C392.361 225.794 392.613 227.775 393.011 229.73C395.894 229.731 398.75 230.295 401.418 231.389C398.816 231.358 396.236 231.873 393.846 232.9C397.369 244.127 407.869 255.674 436.842 260.583C439.932 246.782 438.116 232.334 431.706 219.728C423.025 202.653 386.902 192.262 386.902 192.262Z" fill="#D413AF"/>
<path d="M446.874 308.614C446.355 303.823 445.715 299.035 444.952 294.252C443.48 284.703 441.529 275.234 439.107 265.882C437.989 261.48 436.606 257.15 434.967 252.915C435.051 252.155 435.085 251.391 435.07 250.626C435.07 249.7 435.07 248.773 435.07 247.846C435.07 245.984 434.978 244.13 434.795 242.284C434.509 238.616 433.916 234.98 433.022 231.412C432.496 229.34 431.878 227.315 431.272 225.266C431.272 225.186 431.112 225.266 431.135 225.266C432.103 228.827 432.818 232.453 433.274 236.115C433.796 239.723 434.124 243.356 434.257 246.999C434.257 247.994 434.257 248.99 434.257 249.986C434.257 250.409 434.257 250.844 434.257 251.267C432.829 247.806 431.198 244.432 429.373 241.162C426.429 235.971 423.115 230.999 419.456 226.285C419.44 225.736 419.359 225.19 419.216 224.66C419.079 224.007 418.941 223.367 418.793 222.714C418.495 221.398 418.164 220.082 417.809 218.766C417.088 216.145 416.128 213.605 415.316 211.007C415.316 210.989 415.308 210.971 415.295 210.958C415.283 210.945 415.265 210.938 415.247 210.938C415.229 210.938 415.211 210.945 415.198 210.958C415.185 210.971 415.178 210.989 415.178 211.007C415.945 213.57 416.459 216.225 417.043 218.846L417.901 222.726C418.049 223.367 418.187 224.019 418.312 224.671V224.809C417.169 223.332 415.945 221.879 414.721 220.437C409.185 213.948 403.122 207.963 397.014 202.012C396.259 201.279 395.493 200.57 394.726 199.849C394.726 199.792 394.578 199.849 394.635 199.952C400.469 206.04 406.222 212.197 411.667 218.652C412.955 220.177 414.225 221.726 415.476 223.298C414.824 222.852 414.16 222.417 413.497 221.993C411.815 220.849 410.065 219.819 408.35 218.823C406.634 217.828 404.815 216.878 403.008 215.985C401.201 215.092 399.165 214.314 397.38 213.273C397.3 213.273 397.231 213.353 397.312 213.387C399.143 214.233 400.909 215.212 402.596 216.317C404.358 217.358 406.119 218.423 407.858 219.521C409.596 220.62 411.289 221.661 412.959 222.76C414.366 223.676 415.762 224.683 417.214 225.53C420.614 229.884 423.743 234.443 426.582 239.182C428.34 242.149 429.943 245.205 431.386 248.338L430.346 247.88L427.692 246.735L422.567 244.447C419.319 243.039 416.013 241.734 412.822 240.189C411.026 239.346 409.291 238.379 407.629 237.294C407.549 237.294 407.492 237.363 407.56 237.42C413.497 241.517 420.143 244.401 426.731 247.308L429.591 248.578C430.368 248.921 431.158 249.31 431.958 249.608C433.907 253.966 435.546 258.455 436.865 263.043C439.451 272.278 441.554 281.64 443.168 291.093C444.826 300.557 445.947 310.09 446.817 319.703C446.931 320.848 447.034 322.084 447.171 323.285C447.171 323.386 447.211 323.482 447.282 323.552C447.353 323.623 447.449 323.663 447.549 323.663C447.649 323.663 447.745 323.623 447.816 323.552C447.886 323.482 447.926 323.386 447.926 323.285C447.881 318.307 447.377 313.443 446.874 308.614Z" fill="#263238"/>
<path d="M429.247 228.551C428.71 225.599 427.92 222.726 427.131 219.842C427.136 219.832 427.138 219.82 427.137 219.809C427.136 219.798 427.132 219.787 427.126 219.777C427.119 219.768 427.111 219.76 427.101 219.754C427.091 219.749 427.08 219.746 427.068 219.746C427.057 219.746 427.046 219.749 427.036 219.754C427.026 219.76 427.017 219.768 427.011 219.777C427.005 219.787 427.001 219.798 427 219.809C426.999 219.82 427.001 219.832 427.005 219.842C427.737 222.669 428.264 225.564 428.79 228.437C429.316 231.309 429.819 234.308 430.231 237.26H430.311C430.116 234.34 429.761 231.432 429.247 228.551Z" fill="#263238"/>
<path d="M416.757 236.551C414.739 235.223 412.633 234.034 410.454 232.992C409.402 232.454 408.327 231.928 407.251 231.413C406.176 230.898 404.964 230.429 403.911 229.879C403.895 229.872 403.876 229.871 403.859 229.877C403.841 229.884 403.827 229.897 403.82 229.914C403.812 229.93 403.812 229.949 403.818 229.966C403.825 229.984 403.837 229.998 403.854 230.005C404.907 230.532 405.913 231.15 406.954 231.745L410.168 233.461C412.296 234.606 414.377 235.865 416.596 236.78C416.625 236.783 416.653 236.778 416.679 236.766C416.705 236.754 416.727 236.736 416.744 236.713C416.76 236.689 416.77 236.662 416.772 236.634C416.774 236.605 416.769 236.577 416.757 236.551Z" fill="#263238"/>
<path opacity="0.1" d="M451.598 257.745C451.598 257.745 469.899 253.373 478.329 241.07C486.336 229.317 488.967 209.301 489.173 207.539C488.841 209.153 485.055 226.651 472.587 234.799C463.036 241.048 453.805 246.186 451.598 257.745Z" fill="#263238"/>
<path d="M451.598 257.745C451.598 257.745 469.899 253.374 478.329 241.071C486.336 229.318 488.967 209.302 489.173 207.54C489.173 207.46 489.173 207.414 489.173 207.414C489.173 207.414 480.411 219.911 471.169 223.161C461.927 226.411 448.944 237.318 451.598 257.745Z" fill="#D413AF"/>
<path d="M485.947 214.302C484.284 217.671 482.372 220.911 480.228 223.995C478.089 226.924 475.548 229.537 472.679 231.754C470.197 233.734 467.566 235.531 465.038 237.477C465.044 237.446 465.044 237.415 465.038 237.385C465.518 236.687 466.022 236 466.548 235.337C467.589 233.998 468.744 232.727 469.888 231.48C472.176 229.008 474.463 226.582 476.534 223.904C477.673 222.429 478.658 220.842 479.473 219.166C479.473 219.097 479.382 219.051 479.347 219.166C476.373 225.357 470.437 229.317 466.205 234.558C465.598 235.289 465.033 236.053 464.512 236.847C464.091 237.426 463.738 238.052 463.46 238.713C461.134 240.57 459.034 242.694 457.203 245.041C457.358 243.838 457.603 242.649 457.935 241.482C458.36 239.849 459.015 238.285 459.879 236.836C459.879 236.756 459.811 236.687 459.765 236.756C458.882 238.196 458.165 239.732 457.626 241.333C457.242 242.621 457.02 243.951 456.963 245.293C456.056 246.519 455.23 247.804 454.492 249.138C454.56 248.749 454.641 248.36 454.721 247.994C455.075 246.174 455.487 244.354 455.956 242.546C456.822 238.886 458.312 235.402 460.36 232.247C460.369 232.241 460.376 232.232 460.381 232.223C460.387 232.213 460.39 232.203 460.39 232.192C460.39 232.181 460.388 232.17 460.384 232.161C460.379 232.151 460.372 232.142 460.364 232.135C460.355 232.129 460.345 232.124 460.334 232.122C460.324 232.12 460.313 232.121 460.302 232.124C460.292 232.127 460.282 232.132 460.274 232.14C460.266 232.147 460.26 232.156 460.257 232.166C458.151 235.282 456.506 238.686 455.373 242.272C454.789 244.068 454.32 245.899 453.909 247.742C453.703 248.646 453.52 249.55 453.348 250.466C453.257 250.935 453.154 251.416 453.085 251.896C451.297 255.902 449.913 260.077 448.956 264.359C447.159 271.996 445.856 279.74 445.055 287.545C444.122 295.697 443.706 303.899 443.808 312.104C443.808 313.134 443.889 314.164 443.946 315.194C443.946 315.457 444.357 315.491 444.369 315.194C444.552 311.12 444.655 307.057 444.895 302.983C445.135 298.909 445.49 294.857 445.925 290.806C446.762 282.842 448.037 274.929 449.745 267.105C451.232 260.399 453.176 253.647 456.814 247.776C458.637 244.858 460.863 242.211 463.425 239.914C465.999 237.625 468.813 235.577 471.512 233.448C474.258 231.368 476.75 228.971 478.936 226.307C481.18 223.347 483.133 220.178 484.769 216.843C485.204 216.007 485.639 215.183 486.085 214.359C486.13 214.302 485.982 214.234 485.947 214.302Z" fill="#263238"/>
<path d="M384.329 249.643C384.329 249.643 384.043 275.689 399.61 283.22C415.178 290.75 423.528 284.467 434.108 286.996C433.697 286.378 426.102 275.552 414.137 272.531C401.784 269.429 388.092 260.492 384.329 249.643Z" fill="#D413AF"/>
<path opacity="0.1" d="M384.329 249.643C384.329 249.643 384.043 275.689 399.61 283.22C415.178 290.75 423.528 284.467 434.108 286.996C428.501 284.331 422.511 282.562 416.356 281.755C406.588 280.576 387.829 274.167 384.329 249.643Z" fill="black"/>
<path d="M435.149 287.455C433.289 285.767 431.197 284.353 428.938 283.255L427.92 282.831C427.749 282.614 427.577 282.419 427.394 282.225C426.925 281.744 426.445 281.275 425.93 280.84C424.956 279.985 423.907 279.219 422.796 278.551C420.211 277.029 417.386 275.976 414.789 274.557C414.709 274.557 414.64 274.637 414.72 274.683C416.024 275.358 417.283 276.102 418.552 276.846C419.822 277.59 421.046 278.254 422.247 279.032C423.33 279.719 424.363 280.484 425.335 281.321C425.61 281.561 425.873 281.813 426.136 282.088C424.414 281.505 422.657 281.035 420.874 280.68C418.015 280.108 415.155 279.696 412.295 279.089C410.899 278.785 409.52 278.403 408.166 277.945C406.874 276.903 405.581 275.862 404.357 274.74C402.877 273.384 401.529 271.889 400.331 270.277C400.331 270.209 400.159 270.277 400.217 270.346C402.104 272.902 404.243 275.264 406.599 277.395C405.924 277.132 405.261 276.869 404.609 276.571C399.261 274.166 394.673 270.343 391.34 265.516C391.34 265.448 391.18 265.516 391.226 265.597C394.06 269.728 397.712 273.234 401.955 275.896C404.088 277.218 406.363 278.293 408.738 279.101C411.499 279.958 414.316 280.623 417.168 281.092C419.964 281.553 422.724 282.211 425.427 283.06C427.889 283.911 430.204 285.138 432.29 286.7C436.251 289.786 439.443 293.751 441.612 298.281C444.399 304.293 446.14 310.737 446.759 317.336C446.759 317.61 447.217 317.61 447.205 317.336C446.519 306.464 443.591 295.065 435.149 287.455Z" fill="#263238"/>
<path d="M417.077 278.963C416.262 277.748 415.162 276.75 413.874 276.056C412.398 275.292 411.103 274.218 410.077 272.909C410.019 272.841 409.905 272.909 409.951 272.978C410.89 274.167 412.028 275.185 413.314 275.988C414.729 276.742 415.978 277.773 416.985 279.02C417.02 279.078 417.123 279.02 417.077 278.963Z" fill="#263238"/>
<path d="M425.347 306.691L426.045 321.02L428.218 364.793H460.886L463.059 321.02L463.769 306.691H425.347Z" fill="#37474F"/>
<path d="M425.347 306.691L426.045 321.02H463.059L463.769 306.691H425.347Z" fill="#263238"/>
<path d="M423.048 300.707H466.056V314.371H423.048V300.707Z" fill="#37474F"/>
<path d="M346.136 305.616C346.136 258.237 315.253 219.682 277.323 219.682C239.393 219.682 208.51 258.237 208.51 305.616C208.51 352.994 239.393 391.55 277.323 391.55C315.253 391.55 346.136 352.994 346.136 305.616ZM339.273 305.616C339.273 349.195 311.489 384.66 277.346 384.66C243.202 384.66 215.419 349.184 215.419 305.616C215.419 262.048 243.18 226.594 277.323 226.594C311.467 226.594 339.25 262.071 339.25 305.616H339.273Z" fill="#263238"/>
<path d="M343.631 305.616C343.631 263.616 316.316 229.443 282.756 229.443C249.196 229.443 221.904 263.616 221.904 305.616C221.904 347.616 249.219 381.788 282.79 381.788C316.362 381.788 343.631 347.616 343.631 305.616ZM338.712 305.616C338.712 344.903 313.548 376.867 282.756 376.867C251.964 376.867 226.788 344.903 226.788 305.616C226.788 266.328 251.952 234.364 282.756 234.364C313.559 234.364 338.712 266.328 338.712 305.616Z" fill="#C7C7C7"/>
<path d="M290.271 305.615C290.271 312.482 285.856 318.066 280.411 318.066C274.966 318.066 270.54 312.493 270.54 305.615C270.54 298.737 274.955 293.164 280.411 293.164C285.867 293.164 290.271 298.692 290.271 305.615Z" fill="#C7C7C7"/>
<path d="M283.568 318.066C278.116 318.066 273.697 312.492 273.697 305.615C273.697 298.739 278.116 293.164 283.568 293.164C289.02 293.164 293.439 298.739 293.439 305.615C293.439 312.492 289.02 318.066 283.568 318.066Z" fill="#DBDBDB"/>
<path d="M283.568 303.154H372.948V308.075H283.568V303.154Z" fill="#C7C7C7"/>
<path d="M180.051 393.906C172.963 393.906 167.217 386.651 167.217 377.701C167.217 368.751 172.963 361.496 180.051 361.496C187.139 361.496 192.885 368.751 192.885 377.701C192.885 386.651 187.139 393.906 180.051 393.906Z" fill="#C7C7C7"/>
<path d="M184.169 393.906C177.081 393.906 171.335 386.651 171.335 377.701C171.335 368.751 177.081 361.496 184.169 361.496C191.257 361.496 197.003 368.751 197.003 377.701C197.003 386.651 191.257 393.906 184.169 393.906Z" fill="#DBDBDB"/>
<path d="M283.912 230.77H182.225V191.493H283.912V230.77Z" fill="#A6A6A6"/>
<path d="M267.429 325.253H182.225V320.332H267.429C271.13 320.32 274.676 318.842 277.291 316.221C279.906 313.6 281.378 310.05 281.384 306.347V92.9253C281.39 87.913 283.383 83.1078 286.925 79.5636C290.467 76.0194 295.27 74.0256 300.28 74.0195H311.718V78.9634H300.28C296.574 78.9664 293.02 80.4408 290.4 83.0628C287.779 85.6848 286.305 89.2401 286.302 92.9482V306.347C286.296 311.355 284.307 316.157 280.769 319.701C277.232 323.244 272.435 325.241 267.429 325.253Z" fill="#C7C7C7"/>
<path d="M184.684 361.508H179.765V189.457C179.771 184.951 181.56 180.632 184.742 177.443C187.923 174.253 192.237 172.455 196.74 172.439H283.866V177.383H196.74C193.535 177.389 190.463 178.666 188.197 180.933C185.931 183.2 184.655 186.273 184.649 189.48L184.684 361.508Z" fill="#C7C7C7"/>
<path d="M327.023 81.1953H296.551V71.4106H327.023V81.1953Z" fill="#263238"/>
<path d="M372.936 223.125H286.062V104.06L372.936 104.06V223.125Z" fill="#263238"/>
<path d="M134.412 371.224C137.226 372.174 219.891 371.636 222.945 369.668C223.311 369.45 223.425 361.977 223.402 351.735V351.529C223.402 345.04 225.255 289.616 225.255 289.616L173.52 289.33L170.443 343.919C170.443 343.919 159.29 348.611 149.579 353.268C143.585 356.118 138.381 358.727 137.191 359.677C134.057 362.206 131.541 370.309 134.412 371.224Z" fill="#D3766A"/>
<path d="M134.4 371.225C137.226 372.164 219.891 371.637 222.956 369.669C223.322 369.463 223.425 361.967 223.414 351.736V351.541C223.414 351.083 223.414 350.626 223.414 350.168C223.414 349.71 223.414 349.504 223.414 349.172C223.414 348.84 223.414 348.188 223.414 347.685C223.505 343.382 223.711 336.378 223.94 328.71L171.232 328.516L170.363 343.919C170.363 343.919 159.222 348.612 149.499 353.269C143.517 356.119 138.312 358.728 137.123 359.678C134.069 362.207 131.541 370.31 134.4 371.225Z" fill="#EBEBEB"/>
<path d="M134.069 371.545C136.963 372.483 219.742 371.751 222.876 369.725C224.02 368.97 225.164 356.187 223.94 342.076L170.58 342.614C170.58 342.614 140.04 357.079 136.837 359.666C133.634 362.252 131.164 370.595 134.069 371.545Z" fill="#D413AF"/>
<path d="M135.224 368.214C149.099 367.757 205.09 367.196 218.839 367.791C218.953 367.791 218.953 367.871 218.839 367.882C205.113 368.638 149.065 368.741 135.224 368.443C134.973 368.5 134.973 368.226 135.224 368.214Z" fill="#263238"/>
<path d="M166.234 344.045C171.793 343.919 178.244 345.819 181.744 350.339C181.87 350.511 181.618 350.705 181.458 350.614C176.58 348.114 171.45 346.142 166.154 344.732C166.078 344.705 166.014 344.653 165.972 344.585C165.93 344.517 165.912 344.436 165.921 344.356C165.93 344.277 165.966 344.203 166.023 344.146C166.08 344.089 166.154 344.054 166.234 344.045Z" fill="#263238"/>
<path d="M161.967 345.75C167.515 345.624 173.977 347.535 177.466 352.044C177.603 352.216 177.352 352.41 177.18 352.33C172.306 349.818 167.175 347.842 161.875 346.437C161.8 346.409 161.736 346.356 161.694 346.287C161.652 346.218 161.635 346.137 161.646 346.057C161.656 345.977 161.694 345.902 161.752 345.847C161.811 345.791 161.887 345.757 161.967 345.75Z" fill="#263238"/>
<path d="M157.689 347.467C163.248 347.341 169.699 349.241 173.188 353.761C173.325 353.933 173.074 354.116 172.913 354.036C168.032 351.534 162.898 349.562 157.598 348.153C157.522 348.126 157.458 348.073 157.416 348.004C157.374 347.935 157.357 347.853 157.368 347.773C157.379 347.693 157.416 347.619 157.475 347.564C157.533 347.508 157.609 347.474 157.689 347.467Z" fill="#263238"/>
<path d="M153.423 349.172C158.97 349.046 165.433 350.957 168.921 355.466C169.059 355.638 168.807 355.832 168.636 355.752C163.743 353.238 158.592 351.262 153.274 349.858C153.194 349.829 153.127 349.771 153.086 349.696C153.045 349.621 153.032 349.534 153.05 349.451C153.068 349.367 153.116 349.293 153.184 349.242C153.253 349.19 153.337 349.166 153.423 349.172Z" fill="#263238"/>
<path opacity="0.1" d="M222.877 369.725C221.184 370.87 196.031 371.533 172.914 371.808L197.884 342.339L223.975 342.076C225.199 356.187 224.078 368.958 222.877 369.725Z" fill="black"/>
<path d="M336.962 131.916L295.784 132.706L287.583 153.203C287.583 153.203 209.962 163.594 191.501 188.393C170.283 216.878 164.827 341.207 164.827 341.207L225.942 340.062C225.942 340.062 233.491 230.038 239.668 221.558C245.844 213.078 333.028 204.77 349.83 191.735C366.633 178.7 353.903 131.607 353.903 131.607L336.962 131.916Z" fill="#37474F"/>
<path d="M225.141 328.846C223.302 328.658 221.454 328.566 219.605 328.572L214.115 328.469C210.363 328.469 206.611 328.469 202.859 328.469C195.344 328.469 187.852 328.56 180.349 328.743C178.244 328.743 176.139 328.812 174.035 328.904C171.93 328.995 169.802 329.018 167.721 329.304C167.64 329.304 167.595 329.453 167.721 329.476C171.379 329.802 175.052 329.928 178.724 329.853C182.476 329.853 186.228 329.934 189.98 329.922C197.483 329.922 204.987 329.865 212.49 329.751C214.595 329.751 216.7 329.647 218.804 329.579C220.914 329.572 223.022 329.449 225.118 329.213C225.336 329.178 225.336 328.869 225.141 328.846Z" fill="#263238"/>
<path d="M346.285 183.678C333.451 189.229 319.782 192.605 306.079 195.18C292.376 197.754 278.352 199.54 264.489 201.634C257.523 202.687 250.431 203.602 243.683 205.697C240.653 206.449 237.806 207.804 235.31 209.679C232.873 211.751 231.878 214.703 231.215 217.69C229.751 224.9 228.71 232.236 227.6 239.514C226.491 246.793 225.473 254.392 224.5 261.773C222.567 276.742 220.932 291.734 219.296 306.737C219.101 308.545 218.93 310.353 218.758 312.162C218.758 312.356 219.021 312.425 219.044 312.23C220.966 297.467 222.659 282.681 224.603 267.918C226.548 253.156 228.641 238.404 231.123 223.721C231.672 220.471 231.97 216.935 233.296 213.879C234.623 210.824 237.231 209.038 240.217 207.802C246.725 205.102 253.84 204.083 260.806 202.973C274.475 200.799 288.258 199.082 301.835 196.576C315.435 194.211 328.782 190.567 341.698 185.692C343.276 185.086 344.832 184.445 346.388 183.781C346.433 183.793 346.388 183.632 346.285 183.678Z" fill="#263238"/>
<path d="M178.907 371.933C181.721 372.872 264.398 372.345 267.452 370.377C267.818 370.159 267.921 362.675 267.909 352.444V352.238C267.909 345.749 269.762 290.313 269.762 290.313L218.015 290.027L214.938 344.627C214.938 344.627 203.786 349.308 194.075 353.966C188.081 356.815 182.888 359.425 181.687 360.375C178.564 362.949 176.094 371.052 178.907 371.933Z" fill="#D3766A"/>
<path d="M178.907 371.934C181.721 372.873 264.386 372.346 267.452 370.366C267.818 370.16 267.921 362.676 267.909 352.445V352.25C267.909 351.792 267.909 351.335 267.909 350.865C267.909 350.396 267.909 350.202 267.909 349.87C267.909 349.538 267.909 348.897 267.909 348.394C268.012 344.091 268.207 337.087 268.447 329.419L215.739 329.225L214.87 344.628C214.87 344.628 203.717 349.321 194.006 353.967C188.012 356.828 182.808 359.437 181.618 360.387C178.564 362.951 176.094 371.053 178.907 371.934Z" fill="#EBEBEB"/>
<path d="M178.564 372.289C181.47 373.227 264.238 372.495 267.383 370.469C268.527 369.703 269.671 356.931 268.447 342.82L215.041 343.324C215.041 343.324 184.512 357.789 181.309 360.376C178.107 362.962 175.67 371.339 178.564 372.289Z" fill="#D413AF"/>
<path d="M179.72 368.958C193.594 368.501 249.597 367.94 263.334 368.535C263.449 368.535 263.449 368.615 263.334 368.615C249.608 369.382 193.56 369.485 179.708 369.187C179.434 369.187 179.434 368.97 179.72 368.958Z" fill="#263238"/>
<path d="M210.74 344.789C216.288 344.663 222.751 346.563 226.239 351.072C226.377 351.255 226.125 351.438 225.953 351.358C221.077 348.854 215.946 346.882 210.649 345.476C210.573 345.448 210.509 345.395 210.467 345.326C210.426 345.257 210.409 345.176 210.419 345.096C210.43 345.016 210.468 344.942 210.526 344.886C210.584 344.83 210.66 344.796 210.74 344.789Z" fill="#263238"/>
<path d="M206.462 346.494C212.022 346.368 218.473 348.279 221.961 352.788C222.099 352.96 221.847 353.155 221.687 353.063C216.806 350.561 211.671 348.589 206.371 347.181C206.295 347.153 206.231 347.1 206.189 347.031C206.148 346.962 206.131 346.881 206.141 346.801C206.152 346.721 206.19 346.647 206.248 346.591C206.306 346.535 206.382 346.501 206.462 346.494Z" fill="#263238"/>
<path d="M202.196 348.211C207.744 348.085 214.206 349.985 217.695 354.494C217.832 354.677 217.581 354.86 217.409 354.78C212.531 352.278 207.401 350.302 202.105 348.886C202.024 348.865 201.953 348.815 201.907 348.745C201.86 348.675 201.841 348.591 201.852 348.508C201.863 348.425 201.905 348.349 201.968 348.294C202.031 348.24 202.112 348.21 202.196 348.211Z" fill="#263238"/>
<path d="M197.883 349.916C203.442 349.79 209.894 351.69 213.382 356.21C213.52 356.382 213.268 356.577 213.108 356.485C208.227 353.983 203.092 352.011 197.792 350.603C197.716 350.575 197.652 350.522 197.61 350.453C197.568 350.384 197.552 350.303 197.562 350.223C197.573 350.143 197.611 350.069 197.669 350.013C197.727 349.957 197.803 349.923 197.883 349.916Z" fill="#263238"/>
<path d="M211.392 341.904L271.089 341.721C271.089 341.721 264.226 224.51 275.413 216.35C285.112 209.244 334.526 207.493 359.061 189.754C378.987 175.346 361.349 129.775 361.349 129.775L307.76 130.794C307.76 130.794 300.531 147.548 299.33 152.606C299.33 152.606 241.166 168.514 224.981 189.045C206.805 212.047 211.392 341.904 211.392 341.904Z" fill="#37474F"/>
<path d="M269.671 331.502C267.862 331.319 266.045 331.227 264.226 331.227L258.827 331.124C255.133 331.056 251.45 331.124 247.755 331.124C240.389 331.124 233.011 331.193 225.633 331.365C223.563 331.365 221.492 331.433 219.434 331.525C217.375 331.616 215.281 331.639 213.234 331.914C213.142 331.914 213.108 332.074 213.234 332.086C216.831 332.416 220.443 332.546 224.055 332.475C227.738 332.475 231.432 332.555 235.116 332.566C242.497 332.566 249.875 332.517 257.249 332.418C259.308 332.418 261.378 332.303 263.448 332.246C265.52 332.238 267.59 332.116 269.648 331.88C269.808 331.88 269.945 331.536 269.671 331.502Z" fill="#263238"/>
<path d="M299.205 151.645C284.02 156.608 269.126 162.423 254.595 169.063C248.052 172.016 241.372 174.911 235.379 178.917C229.816 182.55 225.238 187.504 222.053 193.336C219.057 199.279 217.026 205.661 216.036 212.242C214.79 219.418 214.161 226.707 213.486 233.986C211.953 250.294 210.912 266.648 210.546 283.013C210.18 299.378 210.42 315.869 211.209 332.28C211.312 334.34 211.461 336.411 211.575 338.471C211.583 338.494 211.598 338.514 211.617 338.528C211.637 338.542 211.66 338.55 211.684 338.55C211.708 338.55 211.732 338.542 211.751 338.528C211.771 338.514 211.785 338.494 211.793 338.471C211.187 322.3 211.301 306.061 211.701 289.891C212.102 273.72 212.982 257.492 214.332 241.356C214.984 233.631 215.659 225.884 216.677 218.205C217.389 211.617 218.902 205.141 221.184 198.921C223.544 192.698 227.486 187.199 232.622 182.968C237.975 178.631 244.243 175.575 250.477 172.668C264.764 166.122 279.371 160.263 294.195 155.021C296.036 154.369 297.878 153.728 299.708 153.064C299.861 152.974 299.979 152.833 300.04 152.666C300.101 152.498 300.101 152.315 300.042 152.147C299.982 151.979 299.866 151.837 299.713 151.746C299.561 151.654 299.381 151.619 299.205 151.645Z" fill="#263238"/>
<path d="M358.272 139.435C357.735 137.341 357.128 135.269 356.442 133.221C356.422 133.184 356.39 133.155 356.351 133.139C356.312 133.123 356.269 133.121 356.229 133.133C356.188 133.145 356.153 133.17 356.13 133.205C356.106 133.24 356.095 133.282 356.099 133.324C358.591 141.718 360.126 150.368 360.674 159.107C361.021 163.307 360.863 167.533 360.205 171.696C359.438 175.685 357.604 179.391 354.898 182.419C349.625 187.935 342.247 191.517 335.109 193.783C326.965 196.358 318.547 197.96 310.242 199.894C301.607 201.897 274.132 209.107 272.301 209.885C270.809 210.446 269.584 211.549 268.87 212.975C268.143 214.725 267.603 216.547 267.257 218.411C263.174 235.131 262.796 251.004 262.682 268.113C262.602 286.195 262.911 304.265 263.723 322.324C263.814 324.51 263.917 326.695 263.986 328.881C263.986 328.912 263.998 328.941 264.019 328.962C264.041 328.984 264.07 328.996 264.1 328.996C264.13 328.996 264.16 328.984 264.181 328.962C264.202 328.941 264.215 328.912 264.215 328.881C263.94 319.817 263.963 310.731 263.94 301.667C263.917 292.603 263.848 283.517 263.848 274.441C263.848 257.104 263.791 240.967 267.108 223.881C267.532 221.707 269.316 213.456 270.643 212.082C271.97 210.709 299.799 203.533 308.492 201.519C316.797 199.608 325.192 198.017 333.371 195.626C340.554 193.531 348.378 190.041 354.154 185.131C356.728 182.701 358.704 179.709 359.931 176.388C361.292 172.683 361.877 168.736 361.646 164.795C361.496 156.24 360.364 147.731 358.272 139.435Z" fill="#263238"/>
<path d="M354.589 151.062C350.597 149.746 345.782 149.197 342.567 146.221C341.137 144.797 340.124 143.008 339.639 141.048C339.332 139.922 339.111 138.774 338.976 137.615C338.774 136.384 338.64 135.142 338.575 133.896C338.575 133.865 338.563 133.836 338.542 133.815C338.52 133.793 338.491 133.781 338.461 133.781C338.431 133.781 338.402 133.793 338.38 133.815C338.359 133.836 338.347 133.865 338.347 133.896C338.347 135.258 338.072 136.608 338.095 137.981C338.104 139.197 338.235 140.408 338.484 141.598C338.901 143.743 339.916 145.727 341.412 147.32C343.034 148.806 345.039 149.809 347.2 150.215C349.617 150.871 352.091 151.296 354.589 151.485C354.795 151.508 354.784 151.153 354.589 151.062Z" fill="#263238"/>
<path d="M302.247 78.5634C293.463 107.345 290.271 128.391 281.658 133.289C274.669 137.249 265.073 139.709 255.258 141.231C244.784 142.721 234.222 143.517 223.643 143.612C220.383 143.612 217.672 143.612 215.75 143.612C210.992 143.612 205.319 111.774 208.887 108.135C209.722 107.311 212.891 106.842 217.306 106.579C232.176 105.709 261.241 107.22 263.059 105.675C264.878 104.13 278.387 84.9721 290.225 67.0048C301.572 49.9187 307.829 60.2756 302.247 78.5634Z" fill="#D3766A"/>
<path d="M225.416 141.14C220.705 142.881 215.882 144.303 210.981 145.398C207.08 146.107 195.813 147.835 194.612 143.612C193.789 140.74 200.331 138.943 204.907 137.57C207.32 136.849 210.409 134.732 209.882 133.175C208.967 130.452 202.745 132.443 198.604 134.32C190.597 137.936 179.697 144.803 175.476 140.477C173.886 138.852 176.185 136.414 179.422 134.137C174.286 136.654 168.899 138.6 167.057 136.86C166.585 136.412 166.3 135.801 166.262 135.15C166.224 134.5 166.434 133.859 166.851 133.358C166.215 133.571 165.53 133.592 164.881 133.419C164.233 133.246 163.649 132.887 163.203 132.386C161.807 130.589 162.814 128.254 164.793 125.954C164.494 125.888 164.217 125.748 163.985 125.549C163.754 125.349 163.575 125.095 163.466 124.81C160.675 119.408 178.759 106.625 184.627 105.858C201.921 103.569 219.708 106.922 219.708 106.922C225.747 112.953 225.427 141.129 225.416 141.14Z" fill="#D3766A"/>
<path d="M202.242 122.841C198.156 123.016 194.16 124.095 190.54 126C186.32 128.288 182.819 131.722 178.862 134.354C178.759 134.422 178.862 134.594 178.976 134.514C180.852 133.106 182.877 131.882 184.81 130.554C186.743 129.227 188.55 127.899 190.529 126.732C194.095 124.582 198.105 123.274 202.253 122.91C202.253 122.91 202.288 122.83 202.242 122.841Z" fill="#263238"/>
<path d="M199.839 115.345C195.225 115.943 190.684 117.009 186.285 118.526C181.538 120.357 177.626 123.733 173.783 126.972C171.495 128.918 169.234 130.917 167 132.969C166.908 133.049 167 133.221 167.126 133.129C171.022 129.772 175.022 126.537 179.124 123.424C182.908 120.507 187.231 118.368 191.844 117.13C194.486 116.421 197.174 115.986 199.851 115.425C199.897 115.414 199.897 115.333 199.839 115.345Z" fill="#263238"/>
<path d="M195.756 108.594C191.352 109.029 187.52 109.395 183.471 111.317C178.095 113.847 172.685 118.493 170.786 120.141C168.693 121.961 166.657 123.849 164.644 125.771C164.564 125.852 164.701 126 164.781 125.92C169.356 121.726 174.197 117.831 179.273 114.259C181.668 112.526 184.315 111.172 187.12 110.242C189.946 109.453 192.836 108.913 195.756 108.628C195.756 108.628 195.779 108.594 195.756 108.594Z" fill="#263238"/>
<path d="M231.203 145.34L220.097 105.767C220.097 105.767 259.753 106.739 262.419 105.263C265.084 103.787 279.748 80.6352 290.728 65.2085C299.353 53.0434 308.938 54.6112 302.83 79.8341C296.39 106.43 291.095 127.35 283.946 133.084C271.878 142.708 231.203 145.34 231.203 145.34Z" fill="#D413AF"/>
<path d="M231.421 124.442C230.83 124.25 230.198 124.218 229.591 124.351C229.26 124.469 228.973 124.686 228.769 124.973C228.564 125.259 228.452 125.601 228.447 125.953C228.445 126.181 228.387 126.405 228.277 126.605C228.167 126.804 228.009 126.974 227.818 127.097C227.601 127.235 227.353 127.317 227.097 127.338C226.805 127.374 226.514 127.428 226.228 127.498C226.813 127.705 227.448 127.729 228.047 127.566C228.368 127.432 228.643 127.204 228.834 126.913C229.026 126.621 229.126 126.279 229.122 125.93C229.13 125.698 229.197 125.472 229.314 125.272C229.432 125.072 229.598 124.905 229.797 124.785C230.02 124.656 230.271 124.586 230.529 124.579C230.838 124.557 231.124 124.522 231.421 124.442ZM280.514 107.745C280.257 107.749 280.004 107.82 279.782 107.951C279.581 108.067 279.414 108.234 279.298 108.435C279.182 108.636 279.12 108.863 279.119 109.096C279.122 109.444 279.021 109.786 278.829 110.077C278.638 110.368 278.365 110.596 278.044 110.732C277.44 110.889 276.804 110.865 276.214 110.663C276.511 110.583 276.797 110.549 277.083 110.492C277.339 110.482 277.588 110.403 277.803 110.263C277.995 110.139 278.153 109.97 278.263 109.77C278.373 109.57 278.431 109.346 278.433 109.118C278.439 108.767 278.552 108.426 278.756 108.14C278.96 107.854 279.246 107.636 279.576 107.516C280.173 107.373 280.797 107.393 281.384 107.573C281.098 107.654 280.812 107.688 280.514 107.745ZM254.378 122.874C254.119 122.882 253.867 122.957 253.646 123.092C253.445 123.208 253.278 123.375 253.161 123.575C253.045 123.776 252.983 124.004 252.982 124.236C252.984 124.583 252.883 124.923 252.692 125.212C252.5 125.502 252.227 125.727 251.907 125.861C251.305 126.03 250.665 126.006 250.077 125.793C250.374 125.724 250.66 125.69 250.946 125.632C251.205 125.624 251.455 125.541 251.667 125.392C251.858 125.269 252.016 125.099 252.126 124.899C252.236 124.7 252.294 124.476 252.296 124.248C252.304 123.897 252.417 123.556 252.621 123.27C252.825 122.985 253.111 122.767 253.44 122.645C254.044 122.51 254.674 122.546 255.258 122.748C254.961 122.783 254.664 122.817 254.378 122.874ZM272.233 124.259C272.424 124.438 272.656 124.567 272.908 124.637C273.133 124.694 273.369 124.692 273.593 124.632C273.817 124.572 274.022 124.455 274.189 124.293C274.433 124.046 274.745 123.877 275.085 123.808C275.425 123.739 275.778 123.772 276.099 123.904C276.763 124.19 277.014 124.763 277.346 125.232C277.093 125.081 276.849 124.917 276.614 124.74C276.421 124.57 276.189 124.452 275.939 124.396C275.71 124.348 275.472 124.358 275.248 124.426C275.024 124.494 274.821 124.617 274.658 124.785C274.408 125.032 274.089 125.196 273.743 125.255C273.398 125.314 273.042 125.266 272.725 125.117C272.203 124.789 271.783 124.321 271.512 123.767C271.81 123.916 272.039 124.099 272.233 124.259ZM279.485 93.0394C279.675 93.2176 279.907 93.3438 280.16 93.4056C280.384 93.4639 280.619 93.464 280.843 93.4059C281.068 93.3479 281.273 93.2335 281.441 93.0738C281.684 92.8247 281.995 92.6537 282.335 92.5823C282.675 92.511 283.029 92.5426 283.351 92.6732C284.015 92.9708 284.255 93.543 284.586 94.0122C284.335 93.8634 284.106 93.6803 283.866 93.5201C283.676 93.3461 283.443 93.2273 283.191 93.1768C282.962 93.1279 282.724 93.138 282.5 93.206C282.276 93.2741 282.073 93.3979 281.91 93.5658C281.658 93.8094 281.339 93.9713 280.995 94.0306C280.65 94.0898 280.295 94.0435 279.977 93.8977C279.325 93.5773 279.096 93.0165 278.753 92.5473C279.096 92.6961 279.29 92.8792 279.531 93.0394H279.485ZM239.565 138.221C239.758 138.394 239.989 138.52 240.24 138.587C240.464 138.645 240.699 138.645 240.924 138.587C241.148 138.529 241.353 138.415 241.521 138.255C241.764 138.006 242.075 137.835 242.415 137.764C242.755 137.692 243.109 137.724 243.431 137.855C243.969 138.169 244.403 138.634 244.678 139.194C244.415 139.045 244.186 138.862 243.946 138.702C243.757 138.528 243.523 138.409 243.271 138.358C243.042 138.307 242.804 138.316 242.579 138.384C242.355 138.452 242.152 138.578 241.99 138.747C241.739 138.991 241.42 139.153 241.075 139.212C240.73 139.271 240.375 139.225 240.057 139.079C239.539 138.746 239.12 138.28 238.844 137.729C239.142 137.878 239.371 138.049 239.611 138.221H239.565ZM258.759 105.765C258.786 106.11 258.938 106.433 259.187 106.673C259.436 106.913 259.763 107.054 260.108 107.07C260.456 107.065 260.797 107.163 261.088 107.353C261.38 107.542 261.608 107.814 261.744 108.134C261.901 108.738 261.877 109.375 261.675 109.965C261.595 109.679 261.561 109.382 261.504 109.096C261.493 108.839 261.414 108.59 261.275 108.375C261.152 108.183 260.982 108.025 260.783 107.915C260.583 107.805 260.359 107.747 260.131 107.745C259.78 107.74 259.438 107.628 259.152 107.423C258.866 107.219 258.649 106.932 258.53 106.601C258.439 106.34 258.408 106.062 258.438 105.788L258.759 105.765ZM290.306 78.3566C290.313 78.6155 290.388 78.868 290.523 79.089C290.641 79.2885 290.808 79.4544 291.008 79.5706C291.208 79.6869 291.435 79.7496 291.667 79.7528C292.015 79.7501 292.357 79.8509 292.648 80.0424C292.939 80.2339 293.167 80.5075 293.302 80.8285C293.466 81.4279 293.442 82.0628 293.234 82.6481C293.165 82.362 293.131 82.0759 293.074 81.7898C293.061 81.5321 292.978 81.2829 292.833 81.0688C292.71 80.8772 292.541 80.7193 292.341 80.6094C292.141 80.4995 291.918 80.4411 291.69 80.4394C291.338 80.4329 290.997 80.32 290.712 80.1157C290.426 79.9114 290.208 79.6253 290.088 79.295C289.954 78.6913 289.986 78.0626 290.18 77.4754C290.26 77.8187 290.294 78.059 290.351 78.3566H290.306ZM263.597 134.181C263.606 134.438 263.677 134.689 263.803 134.914C263.922 135.112 264.089 135.278 264.289 135.394C264.489 135.51 264.715 135.573 264.947 135.577C265.295 135.575 265.637 135.675 265.928 135.867C266.219 136.058 266.447 136.332 266.582 136.653C266.743 137.253 266.719 137.887 266.514 138.473C266.434 138.175 266.411 137.889 266.354 137.603C266.341 137.345 266.258 137.096 266.113 136.882C265.99 136.69 265.821 136.532 265.621 136.422C265.421 136.313 265.198 136.254 264.97 136.252C264.618 136.246 264.277 136.133 263.992 135.929C263.706 135.725 263.488 135.438 263.368 135.108C263.234 134.504 263.266 133.876 263.46 133.288C263.551 133.597 263.586 133.895 263.643 134.181H263.597ZM294.355 60.8242L294.572 60.9729C294.758 61.1542 294.992 61.2774 295.247 61.3277C295.474 61.3724 295.709 61.3603 295.931 61.2924C296.152 61.2246 296.353 61.103 296.517 60.9386C296.781 60.683 297.119 60.5177 297.482 60.4663C297.846 60.4149 298.217 60.4801 298.541 60.6525C299.065 60.9872 299.488 61.4579 299.765 62.0144C299.512 61.8598 299.268 61.6917 299.033 61.5108C298.843 61.3326 298.611 61.2064 298.358 61.1446C298.135 61.0876 297.901 61.0893 297.678 61.1494C297.456 61.2096 297.253 61.3262 297.089 61.4879C296.827 61.7316 296.499 61.8913 296.147 61.9464C295.794 62.0015 295.433 61.9494 295.11 61.7969C294.731 61.6266 294.417 61.3374 294.218 60.9729L294.355 60.8242ZM293.623 111.178C293.809 111.36 294.043 111.483 294.298 111.533H294.458C294.411 111.712 294.354 111.888 294.286 112.06C294.237 112.071 294.186 112.071 294.137 112.06C293.463 111.773 293.222 111.19 292.891 110.721C293.2 110.789 293.417 111.007 293.668 111.133L293.623 111.178ZM240.023 112.426C239.833 112.245 239.601 112.115 239.348 112.048C239.123 111.991 238.887 111.993 238.663 112.053C238.438 112.113 238.233 112.23 238.067 112.391C237.824 112.64 237.512 112.81 237.171 112.879C236.831 112.948 236.477 112.914 236.156 112.781C235.493 112.494 235.253 111.922 234.921 111.453C235.173 111.602 235.402 111.773 235.642 111.945C235.834 112.115 236.066 112.233 236.317 112.288C236.546 112.337 236.783 112.327 237.007 112.259C237.231 112.191 237.434 112.067 237.598 111.899C237.849 111.656 238.168 111.494 238.513 111.435C238.858 111.375 239.213 111.422 239.531 111.567C240.056 111.896 240.479 112.363 240.755 112.918C240.537 112.723 240.309 112.54 240.068 112.38L240.023 112.426Z" fill="white"/>
<path d="M233.343 125.221C232.466 122.108 231.612 118.992 230.78 115.871C229.934 112.656 229.351 109.348 228.413 106.155C228.413 106.018 228.584 105.984 228.619 106.155C229.511 109.337 230.746 112.45 231.73 115.62C232.713 118.79 233.606 121.777 234.498 124.878C236.271 131.126 238.101 137.409 239.451 143.761C239.451 143.955 239.188 144.058 239.119 143.864C236.866 137.741 235.093 131.447 233.343 125.221Z" fill="#263238"/>
<path d="M263.082 140.912C271.558 139.058 279.553 136.494 283.877 133.027C291.026 127.305 296.322 106.373 302.762 79.7771C307.657 59.5896 302.476 54.6 295.796 59.5896L263.082 140.912Z" fill="#263238"/>
<path d="M288.247 151.063C290.203 152.596 367.011 149.918 367.331 149.426C368.189 147.938 346.514 78.1405 313.571 56.7285C307.76 52.9634 299.033 55.7214 295.27 58.7541C293.394 60.2762 287.995 71.6975 287.354 80.9672C286.714 90.237 287.103 150.044 288.247 151.063Z" fill="#D413AF"/>
<path d="M309.808 69.7061C309.221 69.5123 308.592 69.4806 307.989 69.6145C307.659 69.7347 307.373 69.9521 307.169 70.2381C306.965 70.5241 306.852 70.8653 306.845 71.2167C306.844 71.4447 306.785 71.6688 306.675 71.8686C306.566 72.0683 306.408 72.2376 306.216 72.3611C306.001 72.5013 305.752 72.5804 305.495 72.59C305.21 72.59 304.924 72.6816 304.638 72.7617C305.223 72.9697 305.857 72.9936 306.456 72.8303C306.777 72.6945 307.051 72.4666 307.242 72.1753C307.433 71.884 307.534 71.5424 307.532 71.1938C307.536 70.9624 307.599 70.7359 307.715 70.5356C307.831 70.3354 307.996 70.168 308.195 70.0494C308.417 69.9184 308.669 69.8474 308.927 69.8434C309.236 69.8091 309.522 69.8091 309.808 69.7061ZM296.368 126C296.106 126.011 295.851 126.086 295.624 126.217C295.427 126.337 295.263 126.505 295.147 126.705C295.031 126.905 294.967 127.131 294.961 127.362C294.963 127.71 294.863 128.052 294.671 128.343C294.48 128.634 294.206 128.862 293.886 128.998C293.286 129.155 292.653 129.131 292.067 128.93C292.353 128.849 292.639 128.815 292.936 128.758C293.192 128.747 293.441 128.668 293.657 128.529C293.847 128.404 294.004 128.234 294.113 128.035C294.223 127.835 294.282 127.612 294.286 127.385C294.293 127.032 294.406 126.69 294.61 126.402C294.814 126.114 295.1 125.895 295.43 125.771C296.034 125.636 296.663 125.672 297.248 125.874C296.94 125.885 296.654 125.943 296.368 126ZM334.995 92.8118C334.733 92.8232 334.478 92.8978 334.251 93.0292C334.054 93.1495 333.89 93.3172 333.774 93.5171C333.658 93.7169 333.594 93.9427 333.588 94.1737C333.591 94.5223 333.49 94.8638 333.299 95.1551C333.107 95.4464 332.834 95.6744 332.513 95.8102C331.913 95.9671 331.28 95.9432 330.694 95.7415C330.98 95.6614 331.266 95.6271 331.563 95.5698C331.82 95.5585 332.068 95.4796 332.284 95.341C332.473 95.2146 332.629 95.0446 332.738 94.8455C332.848 94.6463 332.908 94.4238 332.913 94.1966C332.921 93.844 333.034 93.5017 333.238 93.214C333.441 92.9264 333.727 92.7065 334.057 92.5829C334.661 92.448 335.291 92.4837 335.876 92.6859C335.567 92.6974 335.281 92.6974 334.995 92.7546V92.8118ZM301.252 144.688C300.99 144.691 300.734 144.762 300.508 144.894C300.311 145.014 300.147 145.182 300.031 145.382C299.915 145.582 299.851 145.808 299.845 146.039C299.849 146.387 299.749 146.73 299.557 147.021C299.366 147.313 299.092 147.54 298.77 147.675C298.17 147.832 297.537 147.808 296.951 147.606C297.237 147.526 297.523 147.492 297.82 147.435C298.077 147.423 298.325 147.344 298.541 147.206C298.73 147.081 298.886 146.911 298.994 146.711C299.102 146.512 299.158 146.288 299.159 146.061C299.165 145.71 299.278 145.369 299.482 145.083C299.686 144.797 299.972 144.579 300.302 144.459C300.906 144.325 301.534 144.357 302.121 144.551C301.824 144.539 301.538 144.574 301.252 144.631V144.688ZM317.677 117.051C317.416 117.053 317.159 117.124 316.934 117.257C316.738 117.378 316.575 117.546 316.459 117.746C316.344 117.945 316.279 118.17 316.27 118.401C316.273 118.75 316.172 119.091 315.981 119.382C315.79 119.674 315.516 119.902 315.195 120.037C314.596 120.201 313.962 120.177 313.377 119.969C313.662 119.889 313.948 119.854 314.234 119.797C314.491 119.787 314.74 119.708 314.955 119.568C315.147 119.445 315.304 119.275 315.414 119.076C315.524 118.876 315.582 118.652 315.584 118.424C315.591 118.072 315.703 117.731 315.908 117.445C316.112 117.159 316.398 116.942 316.728 116.822C317.331 116.688 317.96 116.719 318.547 116.913C318.249 116.902 317.986 116.936 317.677 116.993V117.051ZM348.744 122.166C348.486 122.17 348.234 122.241 348.012 122.372C347.811 122.488 347.644 122.655 347.527 122.856C347.411 123.056 347.349 123.284 347.348 123.516C347.351 123.865 347.25 124.207 347.059 124.498C346.868 124.789 346.594 125.017 346.273 125.153C345.673 125.31 345.041 125.286 344.455 125.084C344.74 125.004 345.026 124.97 345.312 124.913C345.569 124.903 345.818 124.824 346.033 124.684C346.225 124.56 346.382 124.391 346.492 124.191C346.602 123.991 346.66 123.767 346.662 123.539C346.669 123.188 346.781 122.847 346.986 122.561C347.19 122.275 347.476 122.057 347.806 121.937C348.409 121.803 349.038 121.835 349.625 122.029C349.327 122.017 349.041 122.052 348.744 122.109V122.166ZM303.368 93.5557C303.11 93.5652 302.858 93.64 302.636 93.7731C302.435 93.8903 302.268 94.0571 302.149 94.2574C302.031 94.4577 301.966 94.685 301.961 94.9175C301.966 95.2652 301.868 95.6064 301.678 95.8979C301.489 96.1893 301.217 96.4177 300.897 96.554C300.294 96.7112 299.657 96.6873 299.067 96.4854C299.353 96.4053 299.65 96.3709 299.936 96.3137C300.193 96.3024 300.441 96.2234 300.657 96.0848C300.849 95.9613 301.006 95.792 301.116 95.5923C301.226 95.3925 301.285 95.1684 301.286 94.9404C301.291 94.5886 301.403 94.2467 301.608 93.9604C301.812 93.6741 302.099 93.457 302.43 93.3382C303.033 93.2002 303.663 93.2319 304.249 93.4298C303.956 93.4494 303.662 93.4532 303.368 93.4412V93.5557ZM317.872 59.8184L318.066 59.9671C318.061 60.0548 318.061 60.1427 318.066 60.2303C318.079 60.4883 318.154 60.7394 318.284 60.9628C318.4 61.1638 318.566 61.3309 318.767 61.4474C318.968 61.5638 319.195 61.6256 319.427 61.6265C319.692 61.6261 319.954 61.6847 320.194 61.7982C320.485 61.9408 320.734 62.158 320.914 62.4276C320.977 62.5114 321.027 62.604 321.063 62.7023C321.22 63.3062 321.196 63.9429 320.994 64.5333C320.914 64.2358 320.88 63.9497 320.823 63.6636C320.813 63.407 320.734 63.1578 320.594 62.9426C320.469 62.7523 320.3 62.5955 320.1 62.4858C319.901 62.3761 319.678 62.3168 319.45 62.3132C319.098 62.3042 318.757 62.1906 318.47 61.9868C318.182 61.783 317.962 61.4982 317.837 61.1688C317.713 60.7254 317.725 60.2548 317.872 59.8184ZM316.122 99.7813C316.129 100.04 316.204 100.293 316.339 100.514C316.455 100.715 316.622 100.882 316.822 100.998C317.023 101.115 317.251 101.177 317.483 101.177C317.83 101.176 318.169 101.277 318.458 101.468C318.748 101.66 318.973 101.933 319.107 102.253C319.276 102.856 319.252 103.496 319.038 104.084C318.97 103.787 318.936 103.501 318.878 103.215C318.87 102.956 318.787 102.705 318.638 102.494C318.515 102.302 318.346 102.144 318.146 102.034C317.946 101.924 317.722 101.866 317.494 101.864C317.142 101.858 316.799 101.746 316.511 101.542C316.223 101.337 316.004 101.051 315.882 100.72C315.747 100.115 315.782 99.4854 315.984 98.9001C316.03 99.1976 316.065 99.4952 316.122 99.7813ZM344.111 101.601C344.119 101.86 344.194 102.112 344.329 102.333C344.446 102.533 344.613 102.699 344.814 102.815C345.014 102.931 345.241 102.994 345.473 102.997C345.821 102.994 346.162 103.095 346.453 103.287C346.745 103.478 346.972 103.752 347.108 104.073C347.271 104.672 347.247 105.307 347.04 105.892C346.971 105.606 346.937 105.32 346.879 105.034C346.866 104.776 346.783 104.527 346.639 104.313C346.516 104.121 346.347 103.964 346.147 103.854C345.947 103.744 345.723 103.685 345.495 103.684C345.144 103.677 344.803 103.564 344.517 103.36C344.231 103.156 344.014 102.87 343.894 102.539C343.76 101.936 343.792 101.307 343.986 100.72C344.02 101.017 344.054 101.303 344.111 101.601ZM329.322 74.5813C329.324 74.843 329.395 75.0994 329.527 75.3252C329.648 75.5225 329.815 75.6866 330.015 75.8026C330.215 75.9185 330.44 75.9826 330.671 75.9889C331.02 75.9863 331.361 76.0871 331.652 76.2786C331.943 76.4701 332.171 76.7436 332.307 77.0647C332.47 77.664 332.446 78.299 332.238 78.8843C332.158 78.5982 332.124 78.3121 332.067 78.026C332.057 77.7694 331.978 77.5202 331.838 77.305C331.715 77.1133 331.545 76.9554 331.346 76.8455C331.146 76.7356 330.922 76.6772 330.694 76.6756C330.343 76.669 330.002 76.5561 329.716 76.3519C329.43 76.1476 329.213 75.8614 329.093 75.5312C328.959 74.9274 328.991 74.2988 329.184 73.7115C329.23 74.0091 329.264 74.2952 329.322 74.5813ZM290.351 78.3579C290.359 78.6168 290.433 78.8692 290.568 79.0903C290.686 79.2898 290.853 79.4557 291.054 79.5719C291.254 79.6882 291.481 79.7509 291.712 79.7541C292.061 79.7514 292.402 79.8522 292.693 80.0437C292.984 80.2352 293.212 80.5087 293.348 80.8298C293.511 81.4291 293.487 82.0641 293.279 82.6494C293.211 82.3633 293.176 82.0772 293.119 81.7911C293.106 81.5334 293.023 81.2841 292.879 81.0701C292.756 80.8784 292.586 80.7205 292.387 80.6107C292.187 80.5008 291.963 80.4424 291.735 80.4407C291.384 80.4341 291.043 80.3213 290.757 80.117C290.471 79.9127 290.254 79.6266 290.134 79.2963C290 78.6926 290.032 78.0639 290.225 77.4767C290.26 77.82 290.294 78.0603 290.351 78.3579ZM327.377 129.788C327.385 130.049 327.456 130.304 327.583 130.532C327.705 130.728 327.873 130.891 328.072 131.006C328.272 131.122 328.496 131.187 328.727 131.195C329.075 131.193 329.417 131.294 329.708 131.485C329.999 131.677 330.227 131.95 330.362 132.271C330.526 132.871 330.502 133.506 330.294 134.091C330.214 133.805 330.191 133.519 330.134 133.221C330.113 132.965 330.031 132.717 329.893 132.5C329.769 132.311 329.599 132.155 329.399 132.047C329.2 131.939 328.977 131.883 328.75 131.882C328.398 131.876 328.057 131.763 327.772 131.558C327.486 131.354 327.268 131.068 327.148 130.738C327.014 130.134 327.046 129.505 327.24 128.918C327.286 129.216 327.32 129.502 327.377 129.788ZM358.878 131.379C358.886 131.639 358.957 131.895 359.084 132.122C359.206 132.318 359.374 132.481 359.573 132.597C359.773 132.713 359.998 132.778 360.228 132.786C360.577 132.782 360.919 132.882 361.21 133.074C361.502 133.266 361.729 133.54 361.864 133.862C362.027 134.461 362.003 135.096 361.795 135.682C361.724 135.395 361.671 135.105 361.635 134.812C361.615 134.556 361.532 134.308 361.395 134.091C361.27 133.901 361.1 133.746 360.901 133.638C360.701 133.53 360.478 133.473 360.251 133.473C359.9 133.463 359.561 133.349 359.276 133.145C358.99 132.941 358.772 132.657 358.65 132.328C358.516 131.725 358.547 131.096 358.741 130.509C358.787 130.806 358.821 131.092 358.878 131.379ZM340.497 137.57C340.499 137.832 340.57 138.088 340.703 138.314C340.82 138.513 340.988 138.679 341.188 138.795C341.388 138.912 341.615 138.974 341.847 138.977C342.195 138.975 342.536 139.076 342.828 139.267C343.119 139.459 343.347 139.732 343.482 140.053C343.639 140.653 343.615 141.286 343.414 141.873C343.334 141.587 343.299 141.301 343.242 141.015C343.232 140.758 343.153 140.509 343.013 140.294C342.89 140.102 342.721 139.944 342.521 139.834C342.321 139.724 342.097 139.666 341.869 139.664C341.518 139.658 341.177 139.545 340.891 139.34C340.605 139.136 340.388 138.85 340.268 138.52C340.134 137.916 340.166 137.287 340.36 136.7C340.405 136.998 340.44 137.33 340.497 137.57ZM293.966 60.5165C294.194 60.6538 294.412 60.8254 294.64 60.9742C294.826 61.1554 295.061 61.2787 295.315 61.329C295.543 61.3737 295.777 61.3616 295.999 61.2937C296.22 61.2258 296.422 61.1043 296.585 60.9399C296.843 60.6991 297.169 60.5428 297.518 60.4917C297.868 60.4405 298.224 60.4971 298.541 60.6538C299.065 60.9885 299.488 61.4592 299.765 62.0156C299.512 61.861 299.268 61.6929 299.033 61.5121C298.843 61.3339 298.611 61.2077 298.358 61.1459C298.135 61.0889 297.9 61.0906 297.678 61.1507C297.456 61.2109 297.252 61.3275 297.088 61.4892C296.827 61.7329 296.499 61.8926 296.146 61.9477C295.794 62.0027 295.432 61.9507 295.109 61.7982C294.605 61.4995 294.205 61.0517 293.966 60.5165ZM319.713 83.6336C319.526 83.4504 319.293 83.3201 319.038 83.256C318.813 83.1991 318.578 83.2009 318.353 83.261C318.129 83.321 317.924 83.4375 317.757 83.5993C317.513 83.8464 317.202 84.0153 316.861 84.0846C316.521 84.1538 316.168 84.1204 315.847 83.9884C315.184 83.7023 314.932 83.1186 314.6 82.6494C314.853 82.804 315.098 82.9721 315.332 83.153C315.525 83.3225 315.757 83.4406 316.007 83.4963C316.236 83.542 316.473 83.5304 316.697 83.4625C316.92 83.3946 317.123 83.2726 317.288 83.1072C317.539 82.8618 317.857 82.6977 318.202 82.6364C318.547 82.5751 318.902 82.6196 319.222 82.7639C319.745 83.0986 320.168 83.5693 320.445 84.1257C320.159 83.9769 319.931 83.7938 319.69 83.6336H319.713ZM335.544 114.83C335.353 114.652 335.121 114.522 334.869 114.453C334.644 114.396 334.408 114.398 334.184 114.458C333.96 114.518 333.755 114.634 333.588 114.796C333.345 115.044 333.033 115.214 332.693 115.284C332.352 115.353 331.999 115.319 331.678 115.185C331.014 114.899 330.774 114.327 330.431 113.858C330.684 114.008 330.928 114.173 331.163 114.35C331.356 114.519 331.588 114.637 331.838 114.693C332.067 114.742 332.305 114.732 332.529 114.664C332.753 114.596 332.956 114.472 333.119 114.304C333.369 114.058 333.688 113.894 334.034 113.834C334.379 113.775 334.735 113.823 335.052 113.972C335.577 114.3 336.001 114.768 336.276 115.322C335.99 115.174 335.761 114.991 335.521 114.83H335.544ZM328.681 147.24C328.488 147.067 328.257 146.941 328.006 146.874C327.781 146.817 327.545 146.819 327.321 146.879C327.097 146.939 326.892 147.055 326.725 147.217C326.485 147.459 326.18 147.626 325.848 147.699C325.515 147.772 325.168 147.748 324.849 147.629C324.186 147.343 323.934 146.759 323.602 146.29C323.865 146.439 324.094 146.622 324.334 146.782C324.523 146.959 324.757 147.082 325.009 147.137C325.238 147.183 325.475 147.171 325.699 147.103C325.922 147.035 326.125 146.913 326.29 146.748C326.541 146.503 326.859 146.339 327.204 146.277C327.549 146.216 327.904 146.26 328.223 146.405C328.739 146.733 329.154 147.196 329.425 147.744C329.15 147.629 328.921 147.412 328.681 147.24ZM298.038 111.615C297.85 111.439 297.622 111.313 297.374 111.248C297.149 111.192 296.913 111.193 296.689 111.253C296.465 111.313 296.26 111.43 296.093 111.592C295.848 111.836 295.536 112.003 295.196 112.072C294.857 112.142 294.505 112.11 294.183 111.981C293.508 111.695 293.268 111.111 292.936 110.642C293.199 110.791 293.417 110.974 293.668 111.134C293.854 111.315 294.089 111.438 294.343 111.489C294.57 111.535 294.806 111.524 295.028 111.456C295.249 111.388 295.451 111.266 295.613 111.1C295.865 110.855 296.186 110.691 296.532 110.63C296.879 110.568 297.236 110.613 297.557 110.756C298.081 111.102 298.501 111.585 298.77 112.152C298.541 111.969 298.289 111.786 298.038 111.615ZM312.427 134.331C312.236 134.155 312.004 134.03 311.752 133.965C311.528 133.907 311.293 133.907 311.069 133.965C310.845 134.023 310.639 134.137 310.471 134.297C310.229 134.546 309.917 134.717 309.577 134.788C309.237 134.86 308.883 134.828 308.561 134.697C308.023 134.383 307.589 133.918 307.314 133.358C307.577 133.507 307.806 133.69 308.046 133.851C308.236 134.025 308.469 134.143 308.721 134.194C308.95 134.245 309.188 134.236 309.413 134.168C309.637 134.1 309.84 133.975 310.002 133.805C310.254 133.561 310.573 133.399 310.917 133.34C311.262 133.281 311.617 133.327 311.935 133.473C312.455 133.807 312.877 134.273 313.159 134.823C312.896 134.674 312.667 134.491 312.427 134.331ZM361.052 147.023C360.865 146.844 360.637 146.714 360.388 146.645C360.163 146.591 359.928 146.595 359.704 146.655C359.481 146.715 359.275 146.829 359.107 146.988C358.864 147.236 358.552 147.406 358.212 147.478C357.873 147.549 357.519 147.518 357.197 147.389C356.522 147.091 356.282 146.519 355.95 146.05C356.203 146.201 356.447 146.365 356.682 146.542C356.875 146.712 357.107 146.83 357.357 146.885C357.586 146.934 357.824 146.924 358.048 146.856C358.272 146.788 358.475 146.664 358.638 146.496C358.889 146.253 359.208 146.091 359.553 146.032C359.898 145.972 360.253 146.019 360.571 146.164C361.089 146.498 361.508 146.964 361.784 147.515C361.532 147.366 361.303 147.183 361.052 147.023Z" fill="white"/>
<path d="M323.294 66.0089C335.876 80.1767 365.787 133.461 355.584 142.753C345.381 152.046 290.5 137.706 275.195 129.902C270.62 127.613 288.921 99.2656 294.377 98.7391C298.953 98.3043 321.704 109.485 322.401 108.169C323.099 106.853 319.828 95.5119 314.806 75.3016C309.03 52.0013 317.757 59.749 323.294 66.0089Z" fill="#D3766A"/>
<path d="M271.707 88.8394C260.531 86.9854 257.374 88.2214 248.83 81.641C243.191 77.3265 238.009 79.0661 241.12 85.7723C246.199 96.7472 260.108 102.172 265.473 102.664L271.707 88.8394Z" fill="#D3766A"/>
<path d="M301.195 100.433C301.195 100.433 288.784 93.0968 277.071 89.9383C268.984 87.7524 250.832 84.96 232.931 102.47C228.687 106.624 225.587 115.55 234.978 111.293C241.658 108.26 244.975 104.324 249.173 103.282C249.173 103.282 246.577 115.104 250.9 119.201C254.679 122.779 258.708 126.083 262.956 129.089C263.685 128.434 264.373 127.734 265.015 126.994C265.015 126.994 269.408 130.428 277.883 129.855L301.195 100.433Z" fill="#D3766A"/>
<path d="M269.019 89.0918C265.061 91.0144 256.757 95.2487 251.175 101.062C244.964 107.54 234.738 121.662 239.565 126.239C243.099 129.57 247.469 124.511 247.469 124.511C247.469 124.511 244.472 131.252 248.327 133.552C251.838 135.658 254.984 131.538 254.984 131.538C254.984 131.538 253.84 135.944 257.637 137.317C262.213 138.965 263.768 129.478 269.796 127.189C271.157 126.64 269.019 89.0918 269.019 89.0918Z" fill="#D3766A"/>
<path d="M259.09 106.499C253.477 111.107 249.402 117.32 247.411 124.306C247.411 124.478 247.48 124.615 247.56 124.455C250.684 118.039 254.579 112.028 259.159 106.556C259.159 106.556 259.136 106.43 259.09 106.499Z" fill="#263238"/>
<path d="M265.438 112.953C262.704 115.345 256.505 123.367 254.846 131.424C254.846 131.607 254.926 131.733 254.995 131.573C257.782 125.005 261.309 118.778 265.507 113.01C265.507 113.01 265.473 112.919 265.438 112.953Z" fill="#263238"/>
<path d="M249.173 103.19C245.49 104.175 243.065 105.903 239.931 107.963C238.386 109.001 236.786 109.957 235.138 110.824C233.628 111.59 231.398 112.746 229.854 111.442C229.492 111.043 229.245 110.553 229.14 110.025C229.035 109.497 229.076 108.95 229.259 108.443C229.739 106.969 230.454 105.582 231.375 104.335C231.375 104.335 231.375 104.22 231.295 104.266C230.411 105.402 229.644 106.626 229.007 107.917C228.592 108.801 228.452 109.79 228.607 110.755C229.087 112.792 231.455 113.112 233.182 112.609C234.192 112.267 235.165 111.826 236.088 111.293C236.991 110.812 237.861 110.274 238.73 109.725C240.491 108.581 242.161 107.436 243.957 106.223C245.663 105.143 247.436 104.172 249.265 103.316C249.299 103.282 249.242 103.179 249.173 103.19Z" fill="#263238"/>
<path d="M241.178 115.86C243.576 111.498 246.25 107.293 249.185 103.272L249.116 103.203C246.199 105.824 241.429 112.873 240.297 115.151C239.165 117.428 237.895 120.266 237.826 122.796C237.723 126.618 240.24 127.373 241.166 127.613C242.27 127.851 243.423 127.697 244.426 127.179C245.608 126.497 246.637 125.577 247.446 124.478L247.377 124.409C246.016 125.874 243.774 127.305 241.658 126.973C241.208 126.914 240.774 126.766 240.381 126.538C239.989 126.31 239.645 126.007 239.37 125.645C238.834 124.706 238.648 123.607 238.844 122.544C239.234 120.199 240.024 117.938 241.178 115.86Z" fill="#263238"/>
<path d="M301.195 100.433L282.527 137.169C282.527 137.169 351.238 154.541 357.529 142.662C363.82 130.783 338.221 82.9468 326.485 68.9048C312.885 52.6198 310.952 57.9871 313.663 72.1664C316.511 87.0438 322.184 108.513 322.184 108.513L301.195 100.433Z" fill="#D413AF"/>
<path d="M297.226 125.885C296.641 125.683 296.011 125.647 295.407 125.782C295.077 125.906 294.791 126.126 294.588 126.413C294.384 126.701 294.271 127.043 294.263 127.396C294.26 127.624 294.2 127.847 294.091 128.046C293.981 128.246 293.824 128.415 293.634 128.54C293.418 128.679 293.17 128.758 292.914 128.769C292.616 128.826 292.33 128.861 292.044 128.941C292.63 129.143 293.263 129.166 293.863 129.01C294.184 128.874 294.457 128.646 294.649 128.354C294.84 128.063 294.941 127.722 294.938 127.373C294.944 127.142 295.009 126.916 295.124 126.716C295.24 126.517 295.404 126.349 295.602 126.229C295.828 126.097 296.083 126.023 296.345 126.011C296.654 125.942 296.94 125.885 297.226 125.885ZM334.972 92.8002C334.711 92.8117 334.456 92.8863 334.229 93.0177C334.032 93.1379 333.868 93.3056 333.752 93.5055C333.636 93.7054 333.572 93.9311 333.565 94.1621C333.568 94.5107 333.467 94.8522 333.276 95.1435C333.085 95.4348 332.811 95.6628 332.49 95.7986C331.891 95.9555 331.258 95.9316 330.672 95.7299C330.958 95.6498 331.243 95.6155 331.541 95.5583C331.797 95.547 332.046 95.468 332.261 95.3294C332.45 95.203 332.606 95.0331 332.715 94.8339C332.825 94.6348 332.885 94.4122 332.891 94.185C332.898 93.8324 333.011 93.4901 333.215 93.2025C333.419 92.9148 333.704 92.695 334.034 92.5714C334.639 92.4364 335.268 92.4721 335.853 92.6744C335.567 92.6972 335.281 92.6973 334.995 92.7545L334.972 92.8002ZM317.655 117.039C317.393 117.042 317.137 117.113 316.911 117.245C316.715 117.367 316.552 117.535 316.437 117.734C316.321 117.934 316.256 118.159 316.248 118.389C316.25 118.738 316.15 119.079 315.958 119.371C315.767 119.662 315.493 119.89 315.173 120.026C314.574 120.189 313.939 120.165 313.354 119.957C313.64 119.877 313.926 119.843 314.212 119.786C314.468 119.776 314.717 119.697 314.932 119.557C315.124 119.433 315.282 119.264 315.392 119.064C315.501 118.864 315.56 118.64 315.561 118.412C315.568 118.061 315.681 117.72 315.885 117.434C316.089 117.148 316.375 116.93 316.705 116.81C317.309 116.676 317.937 116.708 318.524 116.902C318.25 116.902 317.986 116.936 317.678 116.993L317.655 117.039ZM348.721 122.154C348.464 122.159 348.211 122.229 347.989 122.36C347.788 122.477 347.621 122.643 347.505 122.844C347.388 123.045 347.327 123.273 347.326 123.505C347.328 123.853 347.228 124.195 347.036 124.486C346.845 124.778 346.572 125.006 346.251 125.141C345.651 125.298 345.018 125.274 344.432 125.073C344.718 124.993 345.004 124.958 345.29 124.901C345.546 124.891 345.795 124.812 346.01 124.672C346.202 124.549 346.36 124.379 346.47 124.18C346.579 123.98 346.638 123.756 346.64 123.528C346.646 123.176 346.759 122.835 346.963 122.549C347.167 122.263 347.453 122.046 347.783 121.926C348.387 121.792 349.015 121.823 349.602 122.017C349.328 122.017 349.042 122.051 348.744 122.109L348.721 122.154ZM317.838 60.1844L318.181 60.4248C318.202 60.6348 318.268 60.8378 318.375 61.0199C318.491 61.2209 318.658 61.388 318.859 61.5045C319.059 61.6209 319.287 61.6827 319.519 61.6836H319.736C320.205 62.0956 320.72 62.5648 321.246 63.0913C321.281 63.589 321.227 64.0889 321.086 64.5675C321.006 64.27 320.972 63.9839 320.915 63.6978C320.905 63.4412 320.826 63.192 320.686 62.9768C320.561 62.7866 320.391 62.6297 320.192 62.52C319.993 62.4103 319.77 62.3511 319.542 62.3474C319.19 62.3384 318.849 62.2248 318.561 62.021C318.274 61.8172 318.054 61.5324 317.929 61.203C317.795 60.8653 317.752 60.4983 317.803 60.1387L317.838 60.1844ZM344.146 101.647C344.153 101.905 344.228 102.158 344.363 102.379C344.481 102.579 344.648 102.744 344.848 102.861C345.049 102.977 345.276 103.04 345.507 103.043C345.856 103.04 346.197 103.141 346.488 103.332C346.779 103.524 347.007 103.797 347.143 104.118C347.306 104.718 347.282 105.353 347.074 105.938C347.006 105.652 346.971 105.366 346.914 105.08C346.901 104.822 346.818 104.573 346.674 104.359C346.55 104.167 346.381 104.009 346.181 103.899C345.982 103.789 345.758 103.731 345.53 103.729C345.179 103.723 344.838 103.61 344.552 103.406C344.266 103.201 344.049 102.915 343.929 102.585C343.795 101.981 343.826 101.353 344.02 100.765C344.02 101.017 344.054 101.303 344.112 101.601L344.146 101.647ZM329.356 74.627C329.359 74.8886 329.43 75.1451 329.562 75.3708C329.682 75.5682 329.85 75.7323 330.05 75.8482C330.249 75.9641 330.475 76.0282 330.706 76.0346C331.054 76.0319 331.396 76.1327 331.687 76.3242C331.978 76.5157 332.206 76.7893 332.342 77.1103C332.505 77.7097 332.481 78.3446 332.273 78.93C332.193 78.6438 332.159 78.3577 332.101 78.0716C332.092 77.815 332.013 77.5658 331.873 77.3507C331.749 77.159 331.58 77.0011 331.38 76.8912C331.181 76.7813 330.957 76.7229 330.729 76.7212C330.378 76.7147 330.037 76.6018 329.751 76.3975C329.465 76.1932 329.248 75.9071 329.127 75.5768C328.994 74.9731 329.025 74.3444 329.219 73.7572C329.23 74.009 329.265 74.2951 329.322 74.5812L329.356 74.627ZM327.412 129.833C327.42 130.094 327.49 130.35 327.618 130.577C327.739 130.773 327.907 130.936 328.107 131.052C328.306 131.168 328.531 131.233 328.761 131.241C329.11 131.238 329.451 131.339 329.742 131.531C330.033 131.722 330.261 131.996 330.397 132.317C330.56 132.916 330.536 133.551 330.328 134.136C330.248 133.85 330.225 133.564 330.168 133.267C330.148 133.01 330.066 132.763 329.928 132.546C329.803 132.356 329.634 132.201 329.434 132.093C329.234 131.985 329.011 131.928 328.784 131.928C328.433 131.921 328.092 131.808 327.806 131.604C327.52 131.4 327.303 131.114 327.183 130.783C327.049 130.18 327.081 129.551 327.274 128.964C327.286 129.216 327.32 129.502 327.377 129.788L327.412 129.833ZM340.531 137.616C340.534 137.877 340.605 138.134 340.737 138.359C340.855 138.559 341.022 138.725 341.222 138.841C341.423 138.957 341.65 139.02 341.881 139.023C342.23 139.02 342.571 139.121 342.862 139.313C343.153 139.504 343.381 139.778 343.517 140.099C343.674 140.699 343.65 141.332 343.448 141.919C343.368 141.632 343.334 141.346 343.277 141.06C343.267 140.804 343.188 140.554 343.048 140.339C342.924 140.148 342.755 139.99 342.556 139.88C342.356 139.77 342.132 139.711 341.904 139.71C341.553 139.703 341.212 139.59 340.926 139.386C340.64 139.182 340.423 138.896 340.303 138.565C340.169 137.962 340.2 137.333 340.394 136.746C340.406 136.998 340.44 137.329 340.497 137.57L340.531 137.616ZM317.3 83.1528C317.55 82.9074 317.869 82.7433 318.214 82.6821C318.559 82.6208 318.914 82.6652 319.233 82.8095C319.757 83.1442 320.18 83.6149 320.457 84.1714C320.194 84.0226 319.965 83.8395 319.725 83.6793C319.537 83.496 319.304 83.3657 319.05 83.3016C318.825 83.2448 318.589 83.2465 318.365 83.3066C318.141 83.3667 317.936 83.4832 317.769 83.6449C317.573 83.8425 317.333 83.991 317.069 84.0785C316.804 84.166 316.523 84.1899 316.248 84.1485L316.111 83.5534C316.325 83.5739 316.54 83.5442 316.741 83.4667C316.941 83.3892 317.121 83.2661 317.266 83.1071L317.3 83.1528ZM335.601 114.876C335.41 114.697 335.179 114.568 334.927 114.498C334.702 114.442 334.466 114.443 334.241 114.503C334.017 114.563 333.812 114.68 333.646 114.842C333.402 115.09 333.091 115.26 332.75 115.329C332.41 115.399 332.056 115.364 331.735 115.231C331.072 114.945 330.832 114.372 330.489 113.903C330.741 114.054 330.986 114.218 331.221 114.395C331.413 114.565 331.645 114.683 331.895 114.739C332.124 114.788 332.362 114.777 332.586 114.709C332.81 114.641 333.013 114.518 333.177 114.35C333.426 114.103 333.745 113.939 334.091 113.88C334.437 113.821 334.792 113.869 335.11 114.018C335.634 114.346 336.058 114.814 336.334 115.368C335.99 115.174 335.762 114.99 335.521 114.83L335.601 114.876ZM295.968 110.928C296.213 110.768 296.494 110.672 296.786 110.65C297.078 110.628 297.371 110.681 297.638 110.802C298.126 111.146 298.516 111.611 298.77 112.152C298.518 112.004 298.29 111.82 298.038 111.649C297.851 111.473 297.623 111.348 297.374 111.283C297.149 111.226 296.914 111.227 296.689 111.288C296.465 111.348 296.26 111.464 296.093 111.626C295.874 111.841 295.602 111.995 295.304 112.072L295.968 110.928ZM312.507 134.377C312.316 134.201 312.084 134.075 311.833 134.011C311.608 133.952 311.373 133.952 311.149 134.01C310.925 134.068 310.719 134.183 310.551 134.342C310.309 134.591 309.998 134.763 309.657 134.834C309.317 134.905 308.963 134.874 308.641 134.743C308.103 134.429 307.669 133.963 307.395 133.404C307.658 133.553 307.886 133.736 308.127 133.896C308.316 134.07 308.549 134.189 308.801 134.239C309.03 134.291 309.269 134.282 309.493 134.213C309.718 134.145 309.921 134.02 310.083 133.85C310.334 133.607 310.653 133.445 310.998 133.386C311.343 133.326 311.697 133.373 312.016 133.519C312.535 133.853 312.957 134.319 313.24 134.869C312.896 134.674 312.668 134.491 312.427 134.331L312.507 134.377Z" fill="white"/>
<path d="M342.945 119.019C339.786 116.722 336.468 114.653 333.016 112.827C329.6 111.04 326.056 109.51 322.413 108.25C320.343 107.506 318.238 106.865 316.145 106.201C316.076 106.201 316.053 106.281 316.145 106.304C319.801 107.596 323.379 109.098 326.862 110.802C330.34 112.473 333.771 114.197 337.157 115.974C339.09 116.993 340.966 118.092 342.876 119.167C342.956 119.156 343.025 119.019 342.945 119.019Z" fill="#263238"/>
<path d="M301.389 100.33C301.733 100.433 320.469 107.196 321.086 107.494C321.006 107.196 317.884 97.0569 317.415 95.5691C317.415 95.4203 317.335 95.2716 317.289 95.1228C316.957 94.459 316.625 93.7953 316.328 93.1086C315.939 92.2389 315.562 91.3691 315.184 90.4994C315.596 91.3462 316.019 92.2046 316.431 93.0629C316.625 93.452 316.808 93.8525 316.98 94.2073C316.671 93.1659 316.385 92.113 316.088 91.0487C315.63 89.3664 315.218 87.6155 314.807 85.9789C314.807 85.9217 314.875 85.9103 314.898 85.9789C315.825 88.943 316.843 91.8727 317.769 94.8253C318.696 97.7778 322.345 108.684 322.276 108.673C322.207 108.661 301.687 100.765 301.252 100.593C301.217 100.575 301.191 100.544 301.179 100.506C301.167 100.468 301.171 100.428 301.189 100.393C301.207 100.358 301.239 100.332 301.276 100.32C301.314 100.308 301.355 100.312 301.389 100.33Z" fill="#263238"/>
<path d="M299.468 124.569C301.527 120.46 303.551 116.352 305.759 112.323C307.006 110.035 308.252 107.746 309.522 105.457C309.579 105.377 309.728 105.457 309.694 105.537C307.783 109.726 305.873 113.937 303.78 118.046C301.687 122.154 299.651 126.24 297.512 130.302C296.299 132.591 295.018 134.88 293.669 137.111C293.669 137.111 293.566 137.111 293.588 137.111C295.35 132.82 297.397 128.689 299.468 124.569Z" fill="#263238"/>
<path d="M284.037 133.896C284.243 133.61 284.472 133.678 284.3 133.976C283.751 135.006 283.282 136.162 282.733 137.214C283.694 137.432 284.666 137.626 285.627 137.867L288.967 138.656C291.156 139.175 293.348 139.664 295.544 140.121C299.982 141.075 304.443 141.926 308.927 142.673C317.905 144.23 326.957 145.327 336.048 145.958C338.587 146.118 341.134 146.217 343.688 146.255C346.079 146.255 352.073 145.843 353.766 145.111C354.786 144.71 355.701 144.079 356.438 143.267C357.176 142.455 357.718 141.485 358.021 140.43C358.565 138.131 358.482 135.728 357.78 133.472C357.174 131.08 356.408 128.723 355.664 126.377C352.697 117.135 349.065 108.12 344.798 99.403C342.411 94.4973 339.872 89.6679 337.18 84.9147C337.175 84.8958 337.177 84.8759 337.184 84.8579C337.191 84.8398 337.204 84.8246 337.221 84.8144C337.237 84.8041 337.257 84.7995 337.276 84.8011C337.296 84.8027 337.314 84.8104 337.329 84.8232C339.258 87.8139 341.08 90.8657 342.796 93.9785C342.464 92.9371 342.121 91.9071 341.721 90.9C341.721 90.8199 341.801 90.7627 341.824 90.8314C342.342 92.0804 342.792 93.3564 343.174 94.6537C346.234 100.289 348.991 106.084 351.432 112.014C353.361 116.707 355.111 121.46 356.682 126.274C357.483 128.734 358.307 131.229 358.89 133.758C359.501 136.002 359.541 138.362 359.004 140.625C358.699 141.782 358.125 142.851 357.33 143.746C356.536 144.64 355.542 145.335 354.429 145.775C351.455 146.919 343.231 147.137 337.786 146.919C333.211 146.69 328.635 146.324 324.06 145.775C315.009 144.699 306.014 143.246 297.077 141.414C294.576 140.896 292.082 140.354 289.596 139.789C288.338 139.503 287.08 139.217 285.833 138.897C284.586 138.576 281.578 138.004 281.692 137.81C282.356 136.596 283.271 134.971 284.037 133.896Z" fill="#263238"/>
<path d="M297.695 70.6106C302.11 71.5147 309.419 64.591 312.222 59.0635C312.416 58.6858 310.414 43.8542 310.323 40.8787C310.323 40.2607 291.781 45.9828 291.781 45.9828C292.962 49.6954 293.684 53.5387 293.932 57.4269C293.966 57.816 293.44 69.7294 297.695 70.6106Z" fill="#D3766A"/>
<path d="M293.966 57.9859C293.966 58.2148 293.966 58.4895 293.966 58.8099C294.574 58.8626 295.187 58.8626 295.796 58.8099C305.907 58.3636 308.95 45.775 309.75 40.877L309.396 40.9456L308.618 41.1173L308.195 41.2203L307.612 41.369L307.303 41.4492L306.651 41.6208L304.455 42.2274L304.237 42.2846L303.665 42.4563C302.11 42.8911 300.44 43.3832 298.861 43.8524L298.369 44.0012L296.002 44.7107L295.418 44.8824L295.087 44.9854L294.755 45.0884L293.897 45.3516L293.439 45.4889L293.119 45.5919L292.81 45.6835L291.827 45.981C293.011 49.6737 293.737 53.498 293.988 57.368V57.78C293.995 57.8217 293.995 57.8641 293.988 57.9058L293.966 57.9859Z" fill="#263238"/>
<path d="M308.71 17.2236C311.97 23.3462 312.221 42.8127 308.424 47.9168C302.911 55.3097 292.044 58.0563 285.307 51.0067C278.764 44.1402 278.879 18.78 283.294 13.962C289.802 6.86665 303.883 8.19418 308.71 17.2236Z" fill="#D3766A"/>
<path d="M292.284 32.2715C292.284 32.2715 292.387 32.3402 292.387 32.3859C292.387 33.702 292.57 35.2126 293.76 35.6246C293.76 35.6246 293.76 35.7047 293.76 35.6933C292.307 35.4759 292.055 33.5189 292.284 32.2715Z" fill="#263238"/>
<path d="M293.428 30.8991C295.533 30.7045 295.773 34.9274 293.828 35.1105C291.884 35.2936 291.678 31.0479 293.428 30.8991Z" fill="#263238"/>
<path d="M285.066 32.8896C285.066 32.8324 284.964 32.9583 284.975 33.0041C285.089 34.3201 284.975 35.8308 283.831 36.3343C283.831 36.3343 283.831 36.4144 283.831 36.403C285.295 36.1169 285.387 34.1027 285.066 32.8896Z" fill="#263238"/>
<path d="M283.82 31.5859C281.704 31.5859 281.784 35.7859 283.74 35.8203C285.696 35.8546 285.593 31.6203 283.82 31.5859Z" fill="#263238"/>
<path d="M294.984 28.8615C294.419 28.7255 293.862 28.5613 293.314 28.3694C292.703 28.2894 292.138 28.0026 291.712 27.5569C291.587 27.388 291.526 27.1798 291.541 26.9699C291.555 26.76 291.645 26.5623 291.792 26.4125C292.095 26.1578 292.462 25.9903 292.853 25.9278C293.244 25.8653 293.644 25.9102 294.011 26.0577C294.802 26.2302 295.499 26.6913 295.967 27.3509C296.084 27.5086 296.15 27.6983 296.156 27.8946C296.162 28.0908 296.108 28.2842 296.001 28.4488C295.894 28.6133 295.739 28.741 295.557 28.8148C295.375 28.8886 295.175 28.9049 294.984 28.8615Z" fill="#263238"/>
<path d="M282.058 29.5473C282.62 29.4012 283.174 29.2255 283.717 29.0208C284.326 28.9072 284.882 28.6025 285.307 28.1511C285.407 27.9817 285.45 27.7844 285.43 27.5885C285.409 27.3927 285.326 27.2087 285.192 27.0639C284.87 26.8178 284.489 26.6617 284.087 26.6114C283.685 26.5612 283.277 26.6186 282.905 26.7778C282.118 26.9714 281.432 27.4533 280.983 28.1282C280.886 28.2926 280.839 28.4823 280.85 28.6731C280.861 28.8639 280.928 29.0472 281.044 29.1995C281.159 29.3518 281.317 29.4663 281.498 29.5282C281.679 29.5901 281.874 29.5968 282.058 29.5473Z" fill="#263238"/>
<path d="M292.936 40.4781C292.633 41.0156 292.223 41.485 291.731 41.8571C291.239 42.2292 290.676 42.4961 290.077 42.6411C289.553 42.7697 289.014 42.8237 288.475 42.8013H288.167H287.881C287.81 42.7924 287.744 42.7609 287.692 42.7114C287.641 42.6619 287.606 42.5971 287.595 42.5266C287.589 42.481 287.589 42.4349 287.595 42.3893V42.2749C287.515 41.2678 287.526 39.7343 287.526 39.7343C287.16 39.9403 285.341 40.8787 285.341 40.3637C285.201 35.8114 285.519 31.2566 286.291 26.768C286.299 26.7424 286.315 26.72 286.336 26.7042C286.358 26.6883 286.384 26.6797 286.411 26.6797C286.438 26.6797 286.464 26.6883 286.485 26.7042C286.507 26.72 286.523 26.7424 286.531 26.768C286.691 30.968 286.108 35.1795 286.199 39.3566C286.844 39.0042 287.538 38.7497 288.258 38.6013C288.407 38.6013 288.189 41.5768 288.258 42.0345C289.096 42.0765 289.933 41.948 290.719 41.6568C291.506 41.3657 292.225 40.918 292.833 40.3408C292.902 40.295 293.005 40.3751 292.936 40.4781Z" fill="#263238"/>
<path d="M289.036 42.263C289.636 42.9454 290.4 43.465 291.255 43.7736C291.724 43.9227 292.227 43.9227 292.696 43.7736C293.725 43.4417 293.702 42.4804 293.462 41.6679C293.332 41.2401 293.151 40.8291 292.925 40.4434C291.856 41.4504 290.493 42.0882 289.036 42.263Z" fill="#263238"/>
<path d="M291.255 43.7737C291.724 43.9228 292.227 43.9228 292.696 43.7737C293.725 43.4418 293.702 42.4805 293.462 41.668C292.912 41.7212 292.395 41.9575 291.995 42.3393C291.595 42.7211 291.334 43.2261 291.255 43.7737Z" fill="#FF99BA"/>
<path d="M309.602 33.7709C306.044 33.4505 306.662 24.7415 306.662 24.7415C306.662 24.7415 301.263 23.5971 298.838 16.0439C298.838 16.0439 291.712 20.221 285.879 18.9622C276.728 16.9938 277.368 5.05756 280.88 2.7344C285.867 -0.561516 294.389 4.73712 294.389 4.73712C294.389 4.73712 307.657 1.49843 311.283 10.4592C312.982 10.6349 314.55 11.4482 315.673 12.7351C316.796 14.022 317.389 15.687 317.334 17.3943C317.529 23.9404 312.267 34.0112 309.602 33.7709Z" fill="#263238"/>
<path d="M307.909 25.8068C305.28 25.2719 302.905 23.8744 301.16 21.8357C300.229 20.7281 299.577 19.4133 299.259 18.0015C298.94 16.5897 298.965 15.1221 299.33 13.7218C299.33 13.573 299.124 13.5158 299.09 13.7218C298.624 15.1771 298.485 16.7175 298.683 18.2328C298.88 19.7482 299.41 21.2012 300.234 22.488C301.072 23.7084 302.216 24.6871 303.551 25.3258C304.886 25.9645 306.365 26.2409 307.84 26.1272C307.862 26.1317 307.883 26.1321 307.904 26.1282C307.926 26.1243 307.946 26.1163 307.964 26.1046C307.982 26.0929 307.997 26.0778 308.01 26.0601C308.022 26.0423 308.03 26.0224 308.035 26.0014C308.039 25.9803 308.04 25.9586 308.036 25.9374C308.032 25.9163 308.024 25.8961 308.012 25.878C308.001 25.8599 307.985 25.8443 307.968 25.8321C307.95 25.8199 307.93 25.8113 307.909 25.8068Z" fill="#263238"/>
<path d="M317.929 13.732C316.191 11.3745 313.434 10.9282 310.7 10.9397C310.675 10.9477 310.652 10.9636 310.636 10.9853C310.621 11.0069 310.612 11.033 310.612 11.0598C310.612 11.0867 310.621 11.1128 310.636 11.1344C310.652 11.156 310.675 11.172 310.7 11.18C313.388 10.9511 316.042 12.8394 317.369 15.0824C318.696 17.3255 318.284 19.992 317.655 22.3609C316.455 26.9361 313.602 30.9036 309.648 33.4961C309.648 33.4961 309.648 33.6448 309.717 33.5991C311.958 32.2822 313.908 30.5224 315.448 28.427C316.988 26.3316 318.085 23.9445 318.673 21.4111C319.245 18.8705 319.519 15.8378 317.929 13.732Z" fill="#263238"/>
<path d="M294.744 5.18351C293.646 3.28486 291.893 1.85248 289.814 1.15517C287.285 0.381258 284.56 0.568723 282.162 1.6816C281.209 2.15847 280.398 2.87818 279.812 3.76822C279.225 4.65826 278.884 5.68719 278.822 6.75136C278.732 9.22446 279.504 11.6519 281.006 13.6178C281.006 13.6178 281.132 13.6178 281.098 13.5606C279.912 11.7072 279.325 9.53367 279.416 7.33501C279.477 6.28738 279.831 5.27795 280.438 4.42197C281.045 3.566 281.88 2.89797 282.848 2.49414C286.668 0.937732 292.182 1.34972 294.526 5.30939C294.544 5.33599 294.571 5.35482 294.603 5.36206C294.634 5.3693 294.666 5.36442 294.694 5.34839C294.722 5.33237 294.742 5.3064 294.751 5.27578C294.761 5.24515 294.758 5.21216 294.744 5.18351Z" fill="#263238"/>
<path d="M295.67 38.1547C296.704 37.9639 297.664 37.4864 298.44 36.7767C299.216 36.0669 299.778 35.1534 300.061 34.14C300.343 33.1267 300.336 32.0543 300.04 31.0448C299.743 30.0354 299.17 29.1295 298.384 28.4303C297.598 27.7311 296.632 27.2666 295.595 27.0897C294.559 26.9129 293.493 27.0307 292.52 27.4299C291.548 27.8291 290.706 28.4935 290.092 29.3476C289.478 30.2017 289.116 31.2111 289.047 32.261C288.991 33.1145 289.131 33.9694 289.455 34.7608C289.779 35.5521 290.28 36.2589 290.919 36.8274C291.558 37.3958 292.318 37.8109 293.141 38.0409C293.964 38.2709 294.829 38.3098 295.67 38.1547ZM293.76 27.855C294.16 27.7859 294.567 27.7628 294.972 27.7863C296.203 27.8714 297.355 28.4225 298.194 29.3274C299.033 30.2323 299.495 31.4231 299.488 32.6573C299.48 33.8915 299.003 35.0764 298.152 35.9708C297.302 36.8652 296.144 37.4019 294.912 37.4717C293.68 37.5414 292.468 37.139 291.523 36.3462C290.577 35.5535 289.969 34.4301 289.823 33.2047C289.676 31.9792 290.001 30.7438 290.733 29.75C291.464 28.7561 292.547 28.0785 293.76 27.855Z" fill="#455A64"/>
<path d="M282.813 38.91C284.929 38.5209 286.439 36.0031 286.245 33.0734C286.18 31.6756 285.675 30.334 284.804 29.2397C284.459 28.7468 283.993 28.3512 283.451 28.0909C282.909 27.8306 282.309 27.7144 281.709 27.7535C281.109 27.7926 280.529 27.9857 280.025 28.3141C279.522 28.6426 279.111 29.0954 278.833 29.6288C278.125 30.8346 277.801 32.2281 277.906 33.6228C278.112 36.7127 280.194 39.1045 282.482 38.9557L282.813 38.91ZM281.475 28.5301H281.761C282.241 28.5214 282.716 28.6281 283.145 28.8412C283.575 29.0543 283.948 29.3676 284.232 29.7546C285.002 30.7387 285.446 31.939 285.501 33.1879C285.673 35.8658 284.289 38.1432 282.402 38.2576C280.514 38.3721 278.833 36.3121 278.661 33.68C278.55 32.4413 278.835 31.1992 279.473 30.1323C279.683 29.7532 279.969 29.422 280.314 29.16C280.658 28.8979 281.054 28.7106 281.475 28.6102V28.5301Z" fill="#455A64"/>
<path d="M289.276 32.8888L289.722 32.2823C288.83 31.63 286.805 30.7945 285.524 32.3509L286.108 32.8316C287.252 31.4354 289.196 32.8316 289.276 32.8888Z" fill="#455A64"/>
<path d="M314.326 32.6945L314.966 32.3054C314.783 32.0078 313.148 29.3757 311.466 29.204C309.785 29.0324 299.913 30.6689 299.49 30.7375L299.605 31.47C302.464 31.0122 310.174 29.8334 311.386 29.9593C312.599 30.0852 313.88 31.9621 314.326 32.6945Z" fill="#455A64"/>
<path d="M307.692 33.3355C307.692 33.3355 310.883 26.469 313.914 27.5219C316.946 28.5748 315.298 37.959 312.256 39.7442C311.883 39.9994 311.462 40.1764 311.018 40.2645C310.575 40.3527 310.118 40.3502 309.676 40.2572C309.233 40.1642 308.814 39.9826 308.444 39.7233C308.074 39.464 307.759 39.1325 307.52 38.7486L307.692 33.3355Z" fill="#D3766A"/>
<path d="M313.411 30.2012C313.411 30.2012 313.48 30.2584 313.411 30.2927C311.295 31.6088 310.46 33.9434 309.979 36.278C310.073 36.0273 310.219 35.7997 310.408 35.6105C310.597 35.4214 310.825 35.2752 311.076 35.1818C311.326 35.0885 311.594 35.0502 311.861 35.0695C312.128 35.0888 312.387 35.1653 312.622 35.2938C312.64 35.2938 312.657 35.301 312.67 35.3139C312.683 35.3268 312.69 35.3443 312.69 35.3625C312.69 35.3807 312.683 35.3982 312.67 35.411C312.657 35.4239 312.64 35.4312 312.622 35.4312C312.194 35.3776 311.76 35.4592 311.38 35.6643C311.001 35.8695 310.695 36.1881 310.506 36.5756C310.185 37.2151 309.932 37.8863 309.751 38.5783C309.682 38.7957 309.293 38.7614 309.339 38.5096V38.4524C308.778 35.4769 310.323 31.048 313.411 30.2012Z" fill="#263238"/>
<path d="M293.874 58.6623L298.736 69.5572L311.901 55.1719L315.916 59.5092C315.916 59.5092 303.334 82.0656 303.219 81.07L298.37 71.7544L292.056 78.6209V62.0612L293.874 58.6623Z" fill="white"/>
<path d="M291.575 70.3799C291.655 67.6447 291.667 64.8867 291.873 62.163C291.873 62.06 292.033 62.0142 292.056 62.163C292.696 64.7722 292.319 75.2322 292.422 77.7384C292.673 77.4409 298.267 71.7303 298.335 71.8104C299.365 73.2867 302.911 80.0616 303.174 80.6796C305.164 77.0976 312.816 64.0627 315.195 60.6523C315.211 60.6378 315.231 60.6286 315.252 60.6258C315.273 60.6231 315.295 60.6271 315.314 60.6371C315.333 60.6472 315.348 60.6629 315.357 60.682C315.367 60.7011 315.37 60.7228 315.367 60.7439C313.628 64.509 303.517 82.0643 303.357 82.03C301.487 78.8376 299.788 75.5486 298.267 72.1766C297.329 73.4126 291.712 79.8442 291.678 79.4322C291.487 76.4186 291.453 73.3971 291.575 70.3799Z" fill="#263238"/>
<path d="M155.63 371.945H264.375V383.458H155.63V371.945Z" fill="#263238"/>
<path d="M375.601 230.828H273.766V191.552H375.601V230.828Z" fill="#A6A6A6"/>
<path d="M358.97 325.311H273.766V320.436H358.97C362.674 320.418 366.22 318.931 368.83 316.3C371.439 313.67 372.9 310.112 372.891 306.406V92.9839C372.897 87.9716 374.889 83.1664 378.432 79.6222C381.974 76.078 386.777 74.0842 391.787 74.0781H403.225V78.9648H391.787C388.081 78.9678 384.527 80.4422 381.906 83.0642C379.286 85.6862 377.812 89.2415 377.809 92.9495V306.406C377.803 311.408 375.818 316.205 372.288 319.747C368.758 323.29 363.97 325.29 358.97 325.311Z" fill="#C7C7C7"/>
<path d="M276.225 376.202H271.306V189.525C271.312 185.01 273.107 180.683 276.298 177.49C279.489 174.298 283.814 172.502 288.327 172.496H375.407V177.383H288.327C285.12 177.386 282.045 178.661 279.777 180.928C277.508 183.196 276.231 186.271 276.225 189.479V376.202Z" fill="#C7C7C7"/>
<path d="M418.552 81.2637H388.081V71.4789H418.552V81.2637Z" fill="#263238"/>
<path d="M436.522 305.616C436.522 258.237 405.638 219.682 367.709 219.682C329.779 219.682 298.896 258.237 298.896 305.616C298.896 352.994 329.779 391.55 367.709 391.55C405.638 391.55 436.522 352.994 436.522 305.616ZM429.659 305.616C429.659 349.195 401.875 384.66 367.732 384.66C333.588 384.66 305.804 349.184 305.804 305.616C305.804 262.048 333.565 226.594 367.709 226.594C401.852 226.594 429.636 262.071 429.636 305.616H429.659Z" fill="#263238"/>
<path d="M434.017 305.616C434.017 263.616 406.714 229.443 373.142 229.443C339.571 229.443 312.267 263.616 312.267 305.616C312.267 347.616 339.571 381.788 373.142 381.788C406.714 381.788 434.017 347.616 434.017 305.616ZM429.099 305.616C429.099 344.903 404.003 376.867 373.142 376.867C342.281 376.867 317.186 344.903 317.186 305.616C317.186 266.328 342.281 234.364 373.142 234.364C404.003 234.364 429.099 266.328 429.099 305.616Z" fill="#C7C7C7"/>
<path d="M370.808 318.066C365.357 318.066 360.937 312.492 360.937 305.615C360.937 298.739 365.357 293.164 370.808 293.164C376.26 293.164 380.68 298.739 380.68 305.615C380.68 312.492 376.26 318.066 370.808 318.066Z" fill="#C7C7C7"/>
<path d="M373.977 318.066C368.525 318.066 364.106 312.492 364.106 305.615C364.106 298.739 368.525 293.164 373.977 293.164C379.429 293.164 383.848 298.739 383.848 305.615C383.848 312.492 379.429 318.066 373.977 318.066Z" fill="#DBDBDB"/>
<path d="M272.702 393.906C265.614 393.906 259.868 386.651 259.868 377.701C259.868 368.751 265.614 361.496 272.702 361.496C279.79 361.496 285.536 368.751 285.536 377.701C285.536 386.651 279.79 393.906 272.702 393.906Z" fill="#C7C7C7"/>
<path d="M276.808 393.906C269.72 393.906 263.974 386.651 263.974 377.701C263.974 368.751 269.72 361.496 276.808 361.496C283.896 361.496 289.642 368.751 289.642 377.701C289.642 386.651 283.896 393.906 276.808 393.906Z" fill="#DBDBDB"/>
<path d="M34.5551 146.131H466.456V164.75H34.5551V146.131Z" fill="#455A64"/>
<path d="M38.4671 164.75H462.533V170.793H38.4671V164.75Z" fill="#455A64"/>
<path d="M38.4671 164.75H462.533V166.753H38.4671V164.75Z" fill="#263238"/>
<path d="M446.908 393.908H453.176L434.955 170.805H418.976L446.908 393.908Z" fill="#455A64"/>
<path d="M418.976 170.805L420.852 185.739H436.167L434.944 170.805H418.976Z" fill="#263238"/>
<path d="M54.0919 393.908H47.8237L66.045 170.805H82.0244L54.0919 393.908Z" fill="#455A64"/>
<path d="M82.0244 170.805L80.1485 185.739H64.8326L66.0565 170.805H82.0244Z" fill="#263238"/>
<path d="M185.988 142.102H275.882V146.13H185.988V142.102Z" fill="#C7C7C7"/>
<path d="M185.976 142.102H231.227V146.13H185.976V142.102Z" fill="#A6A6A6"/>
<path d="M226.365 146.13H138.759L127.298 86.5977H214.904L226.365 146.13Z" fill="#C7C7C7"/>
<path d="M182.167 116.363C182.242 117.043 182.171 117.731 181.959 118.381C181.747 119.031 181.399 119.629 180.938 120.133C180.477 120.638 179.913 121.039 179.285 121.308C178.657 121.578 177.978 121.71 177.295 121.696C175.843 121.67 174.452 121.113 173.384 120.13C172.315 119.148 171.643 117.808 171.495 116.363C171.422 115.684 171.494 114.996 171.707 114.347C171.92 113.698 172.268 113.101 172.729 112.596C173.19 112.092 173.753 111.692 174.38 111.422C175.007 111.151 175.685 111.018 176.368 111.03C177.818 111.059 179.208 111.616 180.276 112.598C181.344 113.581 182.017 114.919 182.167 116.363Z" fill="#A6A6A6"/>
<path d="M78.6387 138.418L76.3739 138.132L87.9952 49.7374L130.157 26.5859L131.244 28.5772L90.0999 51.1794L78.6387 138.418Z" fill="#263238"/>
<path d="M85.7875 50.458C85.7875 51.094 85.976 51.7158 86.3292 52.2446C86.6824 52.7735 87.1843 53.1856 87.7716 53.429C88.359 53.6724 89.0052 53.7361 89.6287 53.612C90.2522 53.4879 90.8249 53.1817 91.2744 52.7319C91.7239 52.2822 92.03 51.7092 92.1541 51.0854C92.2781 50.4616 92.2144 49.815 91.9711 49.2274C91.7279 48.6398 91.3159 48.1375 90.7874 47.7842C90.2588 47.4308 89.6374 47.2422 89.0017 47.2422C88.5791 47.2407 88.1605 47.3228 87.7699 47.4839C87.3792 47.645 87.0243 47.8818 86.7255 48.1807C86.4268 48.4796 86.1901 48.8347 86.0291 49.2256C85.8681 49.6164 85.786 50.0353 85.7875 50.458Z" fill="#D413AF"/>
<path d="M127.046 27.5813C127.044 28.2183 127.23 28.8416 127.583 29.3722C127.935 29.9028 128.437 30.3168 129.025 30.5616C129.612 30.8064 130.26 30.871 130.884 30.7473C131.509 30.6236 132.083 30.3171 132.533 29.8667C132.983 29.4162 133.289 28.8422 133.413 28.2173C133.537 27.5925 133.472 26.9449 133.227 26.3568C132.983 25.7688 132.569 25.2666 132.039 24.9142C131.508 24.5617 130.885 24.3747 130.249 24.377C129.399 24.377 128.585 24.7146 127.984 25.3155C127.383 25.9164 127.046 26.7315 127.046 27.5813Z" fill="#D413AF"/>
<path d="M150.792 28.5764L138.633 47.6423L130.375 40.2723L125.342 35.7862L134.458 21.5039L140.646 24.1818L150.792 28.5764Z" fill="#D413AF"/>
<path opacity="0.1" d="M150.792 28.5762L138.633 47.6421L130.375 40.2721L140.646 24.1816L150.792 28.5762Z" fill="black"/>
<path d="M173.714 33.2455L152.496 66.4793L131.667 47.2989L147.555 22.3965L173.714 33.2455Z" fill="#D413AF"/>
<path d="M98.1523 146.131H59.2505L61.6297 133.908H95.7732L98.1523 146.131Z" fill="#D413AF"/>
<path d="M421.961 112.336L424.649 146.13H443.236L445.924 112.336H421.961Z" fill="#D413AF"/>
<path d="M420.36 109.279H447.674V114.212H420.36V109.279Z" fill="#455A64"/>
<path d="M422.236 109.279H445.81L444.426 103.752H423.608L422.236 109.279Z" fill="#37474F"/>
<path d="M427.485 129.536C427.485 133.919 430.379 137.478 433.937 137.478C437.494 137.478 440.376 133.896 440.376 129.536C440.376 125.175 437.494 121.582 433.925 121.582C430.356 121.582 427.485 125.141 427.485 129.536Z" fill="white"/>
</svg>
